/* XPM */
static char *result[] = {
/* columns rows colors chars-per-pixel */
"64 64 182 2 ",
"   c #4D9262",
".  c #4D9363",
"X  c #48885C",
"o  c #417952",
"O  c #4B8E5F",
"+  c #407751",
"@  c #4A8C5E",
"#  c #4D9362",
"$  c #4C9161",
"%  c #427B53",
"&  c #498A5D",
"*  c #4D9161",
"=  c #49895C",
"-  c #4C9162",
";  c #4B9162",
":  c #559760",
">  c #5B9B5E",
",  c #549660",
"<  c #6BA659",
"1  c #6EA858",
"2  c #4C9262",
"3  c #4E9362",
"4  c #549760",
"5  c #4B9163",
"6  c #67A35B",
"7  c #7EB254",
"8  c #6DA759",
"9  c #509461",
"0  c #519561",
"q  c #74AC57",
"w  c #599A5F",
"e  c #4B8F61",
"r  c #66A25A",
"t  c #7BB155",
"y  c #69A55A",
"u  c #71AA58",
"i  c #74AC56",
"p  c #77AE56",
"a  c #4F8652",
"s  c #609652",
"d  c #6AA55A",
"f  c #4F9362",
"g  c #72AB57",
"h  c #5C9C5E",
"j  c #4D9060",
"k  c #4B8151",
"l  c #72A754",
"z  c #75AB54",
"x  c #598E50",
"c  c #498557",
"v  c #4D9263",
"b  c #6DA859",
"n  c #529561",
"m  c #4E8552",
"M  c #51854F",
"N  c #4B8656",
"B  c #498C5F",
"V  c #56985F",
"C  c #75AD56",
"Z  c #539660",
"A  c #73AB57",
"S  c #46865B",
"D  c #448259",
"F  c #4A8C5F",
"G  c #4E9363",
"H  c #76AD56",
"J  c #5D9C5D",
"K  c #64A15B",
"L  c #4F9461",
"P  c #4C9061",
"I  c #4B8D5F",
"U  c #48875B",
"Y  c #4B8F60",
"T  c #47855A",
"R  c #437D55",
"E  c #417A52",
"W  c #4C8F60",
"Q  c #47865A",
"!  c #427C54",
"~  c #4D9162",
"^  c #4F9361",
"/  c #5E9D5D",
"(  c #76AE56",
")  c #619F5C",
"_  c #519461",
"`  c #67A45A",
"'  c #7AB055",
"]  c #5A995D",
"[  c #559860",
"{  c #5B9C5E",
"}  c #4E9262",
"|  c #68A45A",
" . c #72AA57",
".. c #518751",
"X. c #5D9453",
"o. c #7AB155",
"O. c #609F5D",
"+. c #79AF55",
"@. c #5A9B5E",
"#. c #62A05C",
"$. c #63A15C",
"%. c #67A35A",
"&. c #57995F",
"*. c #498153",
"=. c #639952",
"-. c #669B52",
";. c #498255",
":. c #69A45A",
">. c #48895D",
",. c #4E8653",
"<. c #4C8555",
"1. c #498B5E",
"2. c #63A05C",
"3. c #6FA858",
"4. c #5D9D5D",
"5. c #47885C",
"6. c #448258",
"7. c #488A5D",
"8. c #65A25B",
"9. c #66A35B",
"0. c #6EA859",
"q. c #70A958",
"w. c #5F9E5D",
"e. c #6AA65A",
"r. c #569860",
"t. c #75AD57",
"y. c #78AF55",
"u. c #4A8D5F",
"i. c #4A8B5E",
"p. c #529660",
"a. c #78AE56",
"s. c #70AA58",
"d. c #4D8855",
"f. c #6BA052",
"g. c #4D8755",
"h. c #6FA958",
"j. c #407953",
"k. c #4C7F4E",
"l. c #508954",
"z. c #47875C",
"x. c #79B056",
"c. c #73AC58",
"v. c #437E56",
"b. c #5C9455",
"n. c #76AB54",
"m. c #6EA352",
"M. c #569259",
"N. c #3E7651",
"B. c #5B9050",
"V. c #528A53",
"C. c #45835A",
"Z. c #47875B",
"A. c #529560",
"S. c #468358",
"D. c #458258",
"F. c #458157",
"G. c #48885B",
"H. c #447F56",
"J. c #47865B",
"K. c #437E55",
"L. c #437D54",
"P. c #7CB254",
"I. c #4A9063",
"U. c #58995F",
"Y. c #609E5D",
"T. c #559058",
"R. c #52915B",
"E. c #70AA59",
"W. c #639B55",
"Q. c #578C50",
"!. c #6A9F53",
"~. c #76AB53",
"^. c #5F9957",
"/. c #427D55",
"(. c #619753",
"). c #72A854",
"_. c #5A9052",
"`. c #437F57",
"'. c #447D54",
"]. c #3F734D",
"[. c #458156",
"{. c white",
/* pixels */
"                                        . X o O + @ #                                                                           ",
"                                          $ X % & *                                                                             ",
"                                            $ =                                                                                 ",
"                                              .         - -                                                                     ",
"                                                      ; : >                                                                     ",
"                                                -     , < 1 2                     -                                             ",
"                                              3 4 3 5 6 7 8 2                     4 9                                           ",
"                                              0 q w e r t y                     3 u > -                                         ",
"                                              0 i p a s d f                   3 3 g h -                                         ",
"                                              j k l z x c v               - 4 b n g h -                                         ",
"                                              $ X m M N B                 - V C Z A h -                                         ",
"                                                  S D F G                 - V H n J Z 2                                         ",
"                                                  . G                     2 n K L ; 2                                           ",
"                                                                              -                                                 ",
"                                                                          P I                                                   ",
"                                                                          U % Y                                                 ",
"                                                                      . T R & E W                                               ",
"                                                                        P Q ! @ ~                                               ",
"                                                                        # W &                                                   ",
"                                                                -           .                                                   ",
"                                                              ^ / 9 -                                                           ",
"  -                                   2 2                     0 ( ) 9     2                                                   - ",
"  4 9                                 n n                     0 ( t > 5 _ Z                                                 f : ",
"3 u > -                             - ` ` -                   _ g ' ] P K 8 2                                           ^ ^ [ p ",
"3 g { 2 }                           - | | - 3                   n  ...X.o.<                                           - O.d : +.",
"3 g @.#.$.-                         - | %.&.< 3                 ~ *.=.+.-.;.                                          ; #.8 : +.",
"3 A > ` :.-                         - y | @.A 3                   >.,.M <.1.                                          ; 2.3.^ @.",
"} 4.n :.y -                         2 w &.{ q 3                   . 5.6.7.G                                           2 V >   - ",
"  - - h h -                           - 5 [ #.}                     . G #                                               - -     ",
"      - -                 2                 -                                                     -                             ",
"                      2 0 Z                                                                       4 9                           ",
"                      3 #.< 9                                                                   n 1 J }                         ",
"                    - 8.9.h 0.3                                                               _ q.w < w.-                       ",
"                      0 $.e.4                                                                 3 V 8 w.9                         ",
"                      - Z &.-                                                                     w 0 -                         ",
"                        2 -                                                                       -                             ",
"                                                .                                                                               ",
"- -                                             = $                                                                             ",
"V r.^                                       * & % X $                                                                           ",
"t.y.4.  f 0 9                             # u.E i.% = .                                                                         ",
"p.u +./ / a.b 3                               I E &                               3                           3 3               ",
"  Z s.p p s.,                                   u.*                             3 < w -                   - 4 u u Z -   2       ",
"  2 d.f.f.g.2                                   #                         2 Z :.0 A h -                     L / +.q.4 4.h.K     ",
"    j.k.l.z.                                                              - V H Z A h -                       } w.x.b q c.>     ",
"    Q v.z.G                                                               - V H n #.: -                         - b.n.m.M.5     ",
"    # . #                                             2 2                 2 Z :.9 -                             * N.B.V.C.#     ",
"                                                    2 n n 2                                                     ~ R + Z.G       ",
"                                                    ^ 6 6 ^                                                       ~ *           ",
"                                                    d ) ) d                                                                     ",
"                                                    A.6 6 A.                                                                    ",
"                                                    - [ [ -                 .                                                   ",
"                                                      - -               G u.S.                                                  ",
"                                                                      # @ D.F.T $                                               ",
"                                                                      . G.H.J.K.P                                               ",
"                                                                        . & L.                                                  ",
"                                                                            ~                                                   ",
"                                                                3                                                               ",
"                                                              9 b , -                                                           ",
"                                      - -                     0 ( q.V - 2 -                                                     ",
"                                    - h h -                   0 p P.{ I.U.Y.                                                    ",
"                                    - y y 5 -                 L 8.x.T.R.E.E.2                                                   ",
"                                    - | | 9 U.                  - W.Q.!.~.^.                                                    ",
"                                    - | 6 @.A 3                 ~ /.(.)._.`.                                                    ",
"                                    - | 6 @.g 3                     '.].[.                                                      "
};
