/* XPM */
static char *result[] = {
/* columns rows colors chars-per-pixel */
"64 64 166 2 ",
"   c #000100",
".  c #090101",
"X  c #040805",
"o  c #070D08",
"O  c #0B0C0B",
"+  c #140000",
"@  c #190000",
"#  c #0C160F",
"$  c #121C0F",
"%  c #0D1911",
"&  c #131414",
"*  c #1C1616",
"=  c #1D1D1D",
"-  c #220000",
";  c #2C0000",
":  c #221818",
">  c #321010",
",  c #3E1111",
"<  c #122217",
"1  c #132418",
"2  c #15291B",
"3  c #1A3221",
"4  c #1E3926",
"5  c #222222",
"6  c #2B2727",
"7  c #2D2D2D",
"8  c #2F3221",
"9  c #353535",
"0  c #3A3A3A",
"q  c #4D0000",
"w  c #5C0000",
"e  c #560E0A",
"r  c #52160F",
"t  c #581A13",
"y  c #6C0101",
"u  c #6E0A0A",
"i  c #750000",
"p  c #7C0000",
"a  c #7C1D1D",
"s  c #23422D",
"d  c #3D462F",
"f  c #2A4734",
"g  c #274931",
"h  c #284C33",
"j  c #304B39",
"k  c #2B5136",
"l  c #2D5438",
"z  c #345738",
"x  c #315C3E",
"c  c #39633D",
"v  c #426738",
"b  c #3A5743",
"n  c #325F40",
"m  c #3F5D48",
"M  c #356443",
"N  c #396744",
"B  c #376846",
"V  c #3A6E4A",
"C  c #3D744E",
"Z  c #3F7751",
"A  c #444343",
"S  c #4D4D4D",
"D  c #49514C",
"F  c #545454",
"G  c #5D5D5D",
"H  c #6C5252",
"J  c #467342",
"K  c #5B665F",
"L  c #5F6959",
"P  c #407751",
"I  c #427D54",
"U  c #5F6B63",
"Y  c #646464",
"T  c #626F66",
"R  c #6C6D6D",
"E  c #747474",
"W  c #7B7B7B",
"Q  c #850000",
"!  c #8C0101",
"~  c #920000",
"^  c #9B0000",
"/  c #A90000",
"(  c #B70101",
")  c #BC0000",
"_  c #B11515",
"`  c #C40000",
"'  c #D40000",
"]  c #D90000",
"[  c #E60202",
"{  c #EC0000",
"}  c #F20000",
"|  c #FF0000",
" . c #FF0A0A",
".. c #FF1414",
"X. c #FF1E1E",
"o. c #FF2525",
"O. c #FF2C2C",
"+. c #FF3434",
"@. c #FF3C3C",
"#. c #9A4A4A",
"$. c #926262",
"%. c #FF4040",
"&. c #FF4E4E",
"*. c #FF5252",
"=. c #FF5C5C",
"-. c #FE6262",
";. c #FF6868",
":. c #558042",
">. c #448056",
",. c #4B8857",
"<. c #47865A",
"1. c #49895C",
"2. c #538A52",
"3. c #508E59",
"4. c #5B9152",
"5. c #5F9957",
"6. c #549159",
"7. c #56985F",
"8. c #5B9C5E",
"9. c #629954",
"0. c #6A9F53",
"q. c #609F5D",
"w. c #6DA152",
"e. c #65A25B",
"r. c #69A55A",
"t. c #6EA859",
"y. c #75AC56",
"u. c #79AF55",
"i. c #71AA58",
"p. c #7AB155",
"a. c #4B8F60",
"s. c #4D9262",
"d. c #529660",
"f. c #569860",
"g. c #828583",
"h. c #8B8B8B",
"j. c #929393",
"k. c #9B9B9B",
"l. c #A5A5A5",
"z. c #AAAAAA",
"x. c #B1B1B1",
"c. c #BABABA",
"v. c #FF9393",
"b. c #FF9B9B",
"n. c #D8AAAA",
"m. c #DFB3B3",
"M. c #E6A7A7",
"N. c #FFADAD",
"B. c #FFB2B2",
"V. c #FFBBBB",
"C. c #C5C5C5",
"Z. c gray79",
"A. c #D5D5D5",
"S. c #D9DADA",
"D. c #FFC3C3",
"F. c #FFC9C9",
"G. c #FFD2D2",
"H. c #FFDADA",
"J. c #E6E6E6",
"K. c #E6EAEA",
"L. c #EAEAEA",
"P. c #FFE5E5",
"I. c #FFEBEB",
"U. c #F5F5F5",
"Y. c #FFF7F7",
"T. c #FFFFFF",
/* pixels */
"s.s.s.s.s.s.s.s.s.s.s.s.s.s.s.s.s.s.s.s.s.1.P s.Z 1.s.s.s.s.s.s.s.s.s.s.s.s.s.s.s.s.s.s.s.s.s.s.s.s.s.s.s.s.s.s.s.s.s.s.s.s.s.s.",
"s.s.s.s.s.s.s.s.s.s.s.s.s.s.s.s.s.s.s.s.s.s.<.I 1.s.s.s.s.s.s.s.s.s.s.s.s.s.s.s.s.s.s.s.s.s.s.s.s.s.s.s.s.s.s.s.s.s.s.s.s.s.s.s.",
"s.s.s.s.s.s.s.s.s.s.s.s.s.s.s.s.s.s.s.s.s.s.s.<.s.s.s.s.s.s.s.s.s.s.s.s.s.1.s.s.s.s.s.s.s.s.s.s.s.s.s.s.s.s.s.s.s.s.s.s.s.s.d.s.",
"s.s.s.s.s.s.s.s.s.s.s.s.s.s.s.s.s.s.s.s.s.s.s.s.C M M M M M M M M M M M M M M C s.s.s.s.s.s.s.s.s.s.s.s.s.s.s.s.s.s.s.s.s.s.s.s.",
"s.s.s.s.s.s.s.s.s.s.s.s.s.s.s.s.s.s.s.s.s.s.s.s.3                             2 s.s.s.s.s.s.s.s.s.s.s.s.s.s.s.s.s.s.s.s.s.s.s.s.",
"s.s.s.s.s.s.s.s.s.s.s.s.s.s.s.s.s.s.s.s.s.s.s.s.3                             2 1.s.s.s.s.s.s.s.s.s.s.s.s.s.s.s.s.s.s.s.s.s.s.s.",
"s.s.s.s.s.s.s.s.s.s.s.s.s.s.s.s.s.s.s.s.s.s.s.s.3                             2 s.7.s.s.s.s.s.s.s.s.s.s.s.s.s.s.s.s.s.s.s.s.s.s.",
"s.s.s.s.s.s.s.s.s.s.s.s.s.s.s.s.s.s.s.s.C l l l L R R R R R R R R R R R R R R K k v z V s.s.s.s.s.s.s.s.s.s.s.s.s.s.s.s.s.s.s.s.",
"s.s.s.s.s.s.s.s.s.s.s.s.s.s.s.s.s.s.s.s.8 X     z.T.T.T.T.T.T.T.T.T.T.T.T.T.T.c.X     4 s.s.s.s.s.s.s.s.s.s.s.s.s.s.s.s.s.s.s.s.",
"s.s.s.s.s.s.s.s.s.s.s.s.s.s.s.s.s.s.s.s.s       z.T.T.T.T.T.T.T.T.T.T.T.T.T.T.c.      4 s.s.s.s.s.s.s.s.s.s.s.s.s.s.s.s.s.s.s.s.",
"s.s.s.s.s.s.s.s.s.s.s.s.s.s.s.s.s.s.s.s.s       z.T.T.T.T.T.T.T.T.T.T.T.T.T.T.c.      4 s.s.s.s.s.s.s.s.s.s.s.s.s.s.s.s.s.s.s.s.",
"s.s.s.s.s.s.s.s.s.s.s.s.s.s.s.s.C s s s t ! ! ! n.T.T.T.T.T.T.T.T.T.T.T.T.T.T.S.h.h.h.T s s s V s.s.s.s.s.s.s.s.s.s.s.s.s.s.s.s.",
"s.s.s.s.s.s.s.s.s.s.s.s.s.s.s.s.l       ! | | | N.T.T.T.T.T.T.T.T.T.T.T.T.T.T.T.T.T.T.k.      g s.s.s.s.s.s.s.s.s.s.s.s.s.s.s.s.",
"s.s.s.s.s.s.s.s.s.s.s.s.s.s.s.s.l       ! | | | N.T.T.T.T.T.T.T.T.T.T.T.T.T.T.T.T.T.T.k.      g s.s.s.s.s.s.s.s.s.s.s.s.s.s.s.s.",
"s.s.s.s.s.s.s.s.s.s.s.s.s.s.s.s.l       ! | | | N.T.T.T.T.T.T.T.T.T.T.T.T.T.T.T.T.T.T.k.      g s.s.s.s.s.s.s.s.s.s.s.s.s.s.s.s.",
"s.s.s.s.s.s.s.s.s.s.s.s.P 3 3 3 t / / / ' | | | @.=.*.=.H.T.T.T.T.T.T.T.T.T.T.T.T.T.T.S.l.z.z.U 3 3 3 C s.s.s.s.s.s.s.s.s.s.s.s.",
"s.s.s.s.s.s.s.s.s.s.s.s.M       y | | | | | | | | | |  .D.T.T.T.T.T.T.T.T.T.T.T.T.T.T.T.T.T.T.W       x s.s.s.s.s.s.s.s.s.s.s.s.",
"s.s.s.s.s.s.s.s.s.s.s.s.M       y | | | | | | | | | |  .D.T.T.T.T.T.T.T.T.T.T.T.T.T.T.T.T.T.T.W       x s.s.s.s.s.s.s.s.s.s.s.s.",
"s.s.s.s.s.s.s.s.s.s.s.s.B       y  . . . . . . . .| |  .D.T.Y.Y.T.T.T.T.T.T.T.T.T.T.T.T.Y.Y.T.W       x s.s.s.s.s.s.s.s.s.s.s.s.",
"s.s.s.s.s.s.s.s.s.s.s.s.M       H D.D.D.D.V.D.D.%.| | | O.@.@.&.P.T.T.T.T.T.T.T.T.T.T.B.@.@.@.a       x s.s.s.s.s.s.s.s.s.s.s.s.",
"s.s.s.s.s.s.s.s.s.s.s.s.M       R T.T.T.T.T.T.T.=.| | | | | | ..H.T.T.T.T.T.T.T.T.T.T.b.| | | p       x s.s.s.s.s.s.s.s.s.s.s.s.",
"s.s.s.s.s.s.s.s.s.s.s.s.M       R T.T.T.T.T.T.T.*.| | | | | | ..H.T.T.T.T.T.T.T.T.T.T.b.| | | p       n s.s.s.s.s.s.s.s.s.s.s.s.",
"s.d.d.s.s.s.s.s.s.<.<.1.N & & & E T.T.T.T.T.T.T.-. ...........O.H.T.T.T.I.I.P.I.I.I.I.v.| | | Q + + + z 1.<.<.a.s.s.s.s.s.s.d.d.",
"s.i.8.s.s.s.s.s.P % # # D S.S.S.L.T.T.T.T.T.T.T.P.H.H.H.H.H.H.H.T.T.T.H.+.o.o.o.o.o.O...| | | { ' ] ] e # # % C s.s.s.s.s.d.f.y.",
"s.y.8.s.s.s.s.s.C X     S T.T.T.T.T.T.T.T.T.T.T.T.T.T.T.T.T.T.T.T.T.T.G. .| | | | | | | | | | | | | | w       V s.s.s.s.8.r.d.u.",
"s.y.f.e.e.s.s.s.Z X     S T.T.T.T.T.T.T.T.T.T.T.T.T.T.T.T.T.T.T.T.T.T.H...| | | | | | | | | | | | | | w       V s.s.s.a.e.t.d.u.",
"s.y.8.r.r.s.s.s.C X     A S.S.A.L.T.T.T.L.S.S.S.U.T.T.T.S.S.S.S.S.S.S.m. .| | } ] ] ] ] ] ] ] { | | | w     X V s.s.s.s.q.t.d.8.",
"s.8.d.r.r.s.s.s.C X     X & & & W T.T.T.W & & & x.T.T.U.S & & & & & & , { | | ` @ + + + + + + ! | | | w       C s.s.s.s.d.8.s.s.",
"s.s.s.8.f.s.s.s.Z X             R T.T.T.E       z.T.T.U.0             ; { | | (               Q | | | w       V s.s.s.s.s.a.s.s.",
"s.s.s.s.s.s.s.s.C               R T.T.T.E       z.T.T.Y.0             ; } | | )               Q | | | w       V s.s.s.s.d.s.s.s.",
"s.s.s.s.s.s.s.s.I 2 1 1 %       F C.C.C.Y & & & h.Z.C.c.0 O & & & & & > ( ` ` ~ * & & & & & & u ` ` ` r 1 < 1 Z s.s.s.s.s.s.s.s.",
"s.s.s.s.s.s.s.s.s.1.a.s.v         X X . 7 F F S = X X O A F F S S F F A +   . = S S F F S F F 6   . . x a.a.a.s.s.s.s.s.s.s.s.s.",
"s.s.s.s.s.s.s.s.s.s.s.e.J               7 G F F =     X A F F F F F F A X     & F F F F F F F 7       c s.s.s.s.s.s.s.s.s.s.s.s.",
"s.s.s.s.s.s.s.s.s.s.s.d.v               7 F F F =       A F G F F F G A .     & F F F F F G F 6       c s.s.s.s.s.s.s.s.s.s.s.s.",
"s.s.s.s.s.s.s.s.s.s.s.s.V       O = = = 0 F F F 7 = = = 9 9 9 9 0 9 0 9 5 = = 6 0 9 9 9 9 0 9 7 = = = f M n M <.s.s.s.s.s.s.s.s.",
"s.s.s.s.s.s.s.s.s.s.s.s.B       5 F F F F F F F F F F S &             O S F F 0               7 F F F =       V s.s.s.s.s.s.s.s.",
"s.s.s.s.s.s.s.s.s.s.s.s.M       5 F F F F F F F F F F F &             O S F F 0               7 F F F =     X V s.s.s.s.s.s.s.s.",
"s.s.s.s.s.s.s.s.s.s.s.s.V       5 G F F G F F F F F F F &             O F F F b               7 G F F =       V s.s.s.s.s.s.s.s.",
"7.f.s.s.s.s.s.s.>.l h l 8 p i i t 7 7 7 7 7 7 7 7 7 7 9 Y E E E E E E R 9 7 7 A E E E E E E E S 7 7 7 &       V s.s.s.s.s.s.s.s.",
"y.p.8.s.s.d.d.s.C X     q | | | ~                     X Z.T.T.T.T.T.T.A.O   . A T.T.T.T.T.T.T.W             X V s.s.s.s.s.s.s.s.",
"d.i.y.5.8.u.t.s.C X     q | | | ~                     O C.T.T.T.T.T.T.A.&     A T.T.T.T.T.T.T.W               C s.s.s.s.s.s.s.s.",
"s.d.y.u.u.i.d.s.Z X     q | | | ~                     X C.T.T.T.T.T.T.A.O     A Y.T.T.T.T.T.T.W             X :.i.d.s.s.s.s.s.s.",
"s.s.,.w.w.,.s.s.C X     q | | | ' ~ ~ ~ ~ ~ ~ ~ $.j.j.j.J.T.T.T.T.T.T.L.k.j.h.x.T.T.T.T.T.T.T.C.j.j.j.9       J u.i.d.8.t.e.s.s.",
"s.s.P ,.2.<.s.s.C X     q | | | | | | | | | | | N.T.T.T.T.T.T.T.T.T.T.T.T.T.T.T.T.T.T.T.T.T.T.T.T.T.T.G     X V q.u.t.y.y.8.s.s.",
"s.s.<.I <.s.s.s.C X     q | | | | | | | | | | | N.T.T.T.T.T.T.T.T.T.T.T.T.T.T.T.T.T.T.T.T.T.T.T.T.T.T.G     X V s.4.y.w.6.s.s.s.",
"s.s.s.s.s.s.s.s.Z X     q | | | | | | | | | | | N.T.T.T.T.T.T.T.T.T.T.T.T.T.T.T.T.T.T.T.T.T.T.T.T.T.Y.G       V s.Z 4.2.<.s.s.s.",
"s.s.s.s.s.s.s.s.1.B M M d q q q #.B.N.B.N.N.B.B.P.T.T.T.T.T.T.I.;.&.&.*.&.*.&.*.&.*.&.v.T.T.T.l.S S S m M M M <.s.I Z <.s.s.s.s.",
"s.s.s.s.s.s.s.s.s.s.s.s.B       R T.T.T.T.T.T.T.T.T.T.T.T.T.T.P.X.| | | | | | | | | | -.T.T.T.W       M s.s.s.s.s.s.s.s.s.s.s.s.",
"s.s.s.s.s.s.s.s.s.s.s.s.B       R T.T.T.T.T.T.T.T.T.T.T.T.T.T.P.o.| | | | | | | | | | ;.T.T.T.W       x s.s.s.s.s.s.s.s.s.s.s.s.",
"s.s.s.s.s.s.s.s.s.s.s.s.B X X X R U.U.U.Y.T.T.T.T.T.T.T.T.T.T.P.O. . . . . . . .| | | -.U.U.U.W X X X n s.s.s.s.s.s.s.s.s.s.s.s.",
"s.s.s.s.s.s.s.s.s.s.s.s.<.C C Z b 0 9 9 l.T.T.T.T.T.T.T.T.T.T.T.F.F.F.F.F.F.F.v.| | | _ 9 9 9 b C C C <.s.s.s.s.s.s.s.s.s.s.s.s.",
"s.s.s.s.s.s.s.s.s.s.s.s.s.s.s.a.l       h.T.T.T.T.T.T.T.T.T.T.T.T.T.T.T.T.T.T.V. .| | ^       h s.s.s.s.s.s.s.s.s.s.s.s.s.s.s.s.",
"s.s.s.s.s.s.s.s.s.s.s.s.s.s.s.s.l       h.T.T.T.T.T.T.T.T.T.T.T.T.T.T.T.T.T.T.V.| | | ^       g s.s.s.s.s.s.s.s.s.s.s.s.s.s.s.s.",
"s.s.s.s.s.s.s.s.s.s.s.s.s.s.s.s.x o o o g.L.J.J.J.J.J.J.J.J.J.J.J.J.J.J.J.J.K.M.[ [ { ! # o o k s.s.s.s.s.s.s.s.s.s.s.s.s.s.s.s.",
"s.s.s.s.s.s.s.s.s.s.s.s.s.s.s.s.1.>.I >.j 5 5 5 5 5 5 5 5 5 5 5 5 5 5 5 5 5 5 : - - - 8 >.I I 1.s.s.s.s.s.s.s.s.s.s.s.s.s.s.s.s.",
"s.s.s.s.s.s.s.s.s.s.s.s.s.s.s.s.s.s.s.s.s                                             4 s.s.s.s.s.s.s.s.s.s.s.s.s.s.s.s.s.s.s.s.",
"s.s.s.s.s.s.s.s.s.s.s.s.s.s.s.s.s.s.s.s.s                                             4 s.s.s.s.s.s.s.s.s.s.s.s.s.s.s.s.s.s.s.s.",
"s.s.s.s.s.s.s.s.s.s.s.s.s.s.s.s.s.s.s.s.h # % % % % % % % % % % $ % # % % % % % % % # g s.s.s.s.s.s.s.s.s.s.s.s.s.s.s.s.s.s.s.s.",
"s.s.s.s.s.s.s.s.s.s.s.s.s.s.s.s.s.s.s.s.a.<.1.<.<.1.1.<.<.1.<.1.w.0.3.<.<.<.<.1.1.1.1.1.s.s.s.s.s.s.s.s.s.s.s.s.s.s.s.s.s.s.s.s.",
"s.s.s.s.s.s.s.s.s.s.s.s.s.s.s.s.s.s.s.8.8.s.s.s.s.s.s.s.s.s.s.d.u.p.8.s.8.q.s.s.s.s.s.s.s.s.s.s.s.s.s.s.s.s.s.s.s.s.s.s.s.s.s.s.",
"s.s.s.s.s.s.s.s.s.s.s.s.s.s.s.s.s.s.s.r.r.s.s.s.s.s.s.s.s.s.s.s.e.u.3.3.t.i.s.s.s.s.s.s.s.s.s.s.s.s.s.s.s.s.s.s.s.s.s.s.s.s.s.s.",
"s.s.s.s.s.s.s.s.s.s.s.s.s.s.s.s.s.s.s.e.e.s.8.s.s.s.s.s.s.s.s.s.s.9.4.0.y.5.s.s.s.s.s.s.s.s.s.s.s.s.s.s.s.s.s.s.s.s.s.s.s.s.s.s.",
"s.s.s.s.s.s.s.s.s.s.s.s.s.s.s.s.s.s.s.r.e.8.y.s.s.s.s.s.s.s.s.s.a.I 9.y.4.I s.s.s.s.s.s.s.s.s.s.s.s.s.s.s.s.s.s.s.s.s.s.s.s.s.s.",
"s.s.s.s.s.s.s.s.s.s.s.s.s.s.s.s.s.s.s.r.e.8.y.s.s.s.s.s.s.s.s.s.s.d.I C >.s.s.s.s.s.s.s.s.s.s.s.s.s.s.s.s.s.s.s.s.s.s.s.s.s.s.s."
};
