/* XPM */
static char *result[] = {
/* columns rows colors chars-per-pixel */
"64 64 186 2 ",
"   c #000000",
".  c #0D0100",
"X  c #050906",
"o  c #070C09",
"O  c #0C0C0C",
"+  c #160000",
"@  c #1A0000",
"#  c #0A110B",
"$  c #0F1C13",
"%  c #131313",
"&  c #101E14",
"*  c #171A1A",
"=  c #1C1C1C",
"-  c #260000",
";  c #2B0101",
":  c #330000",
">  c #3A0000",
",  c #370A08",
"<  c #132115",
"1  c #142519",
"2  c #162A1C",
"3  c #1B3222",
"4  c #1E3926",
"5  c #232323",
"6  c #2B2121",
"7  c #272728",
"8  c #2A2B2B",
"9  c #213D2A",
"0  c #3C3726",
"q  c #2E3F33",
"w  c #343434",
"e  c #3F3131",
"r  c #3C3C3C",
"t  c #470404",
"y  c #490000",
"u  c #540000",
"i  c #4E140D",
"p  c #541611",
"a  c #630000",
"s  c #4A291C",
"d  c #533030",
"f  c #23432D",
"g  c #274931",
"h  c #294E34",
"j  c #2B5237",
"k  c #2E553A",
"l  c #2E593C",
"z  c #305737",
"x  c #335C3D",
"c  c #385F3A",
"v  c #787403",
"b  c #454429",
"n  c #3A5943",
"m  c #346343",
"M  c #3A6745",
"N  c #3B6E4A",
"B  c #3D734D",
"V  c #3F7750",
"C  c #3F7850",
"Z  c #444444",
"A  c #4B4B4B",
"S  c #435C48",
"D  c #5B5B45",
"F  c #4E4E52",
"G  c #545454",
"H  c #585753",
"J  c #5A5852",
"K  c #5A5A5A",
"L  c #7C4040",
"P  c #725858",
"I  c #59675D",
"U  c #407751",
"Y  c #427D54",
"T  c #6E6D47",
"R  c #6B664C",
"E  c #716E47",
"W  c #746D49",
"Q  c #747345",
"!  c #7A7743",
"~  c #5C6660",
"^  c #626262",
"/  c #6B6B6B",
"(  c #777777",
")  c #747979",
"_  c #797979",
"`  c #860202",
"'  c #8A0000",
"]  c #9C0000",
"[  c #AC0000",
"{  c #B60000",
"}  c #BC0000",
"|  c #B52525",
" . c #CC0000",
".. c #D30000",
"X. c #DE0000",
"o. c #CD1B1B",
"O. c #EC0000",
"+. c #E90707",
"@. c #F40000",
"#. c #FF0000",
"$. c #F20A0A",
"%. c #FF0A0A",
"&. c #FF1212",
"*. c #FF1C1C",
"=. c #FF2222",
"-. c #FF2828",
";. c #FF3434",
":. c #FF3C3C",
">. c #9D4343",
",. c #AD4848",
"<. c #FF4444",
"1. c #FF5353",
"2. c #FF5858",
"3. c #FF6565",
"4. c #FF6D6D",
"5. c #FF7B7B",
"6. c #458156",
"7. c #4D8553",
"8. c #4D8855",
"9. c #47865B",
"0. c #4A8C5E",
"q. c #538A52",
"w. c #5B9152",
"e. c #5F9957",
"r. c #54915A",
"t. c #56985F",
"y. c #5C9C5E",
"u. c #689749",
"i. c #659D55",
"p. c #6CA152",
"a. c #64A25B",
"s. c #69A55A",
"d. c #6EA859",
"f. c #74AC56",
"g. c #79AF55",
"h. c #71AA58",
"j. c #79B056",
"k. c #4B8F60",
"l. c #4D9262",
"z. c #529660",
"x. c #569860",
"c. c #9B972C",
"v. c #A19D2C",
"b. c #A7A32C",
"n. c #D9BB26",
"m. c #ECDF0E",
"M. c #EFCD1E",
"N. c #EFE20D",
"B. c #F4ED06",
"V. c #F8E909",
"C. c #FAF203",
"Z. c #FFFA00",
"A. c #E3C422",
"S. c #E8C821",
"D. c #838985",
"F. c #8B8B8B",
"G. c #929292",
"H. c #9D9D9D",
"J. c #A8A9A8",
"K. c #B5ACAC",
"L. c #B5B5B5",
"P. c gray",
"I. c #FF8181",
"U. c #FF8989",
"Y. c #FF9292",
"T. c #FF9A9A",
"R. c #CDB8B8",
"E. c #FFA4A4",
"W. c #FFABAB",
"Q. c #E8B7B7",
"!. c #FFB1B1",
"~. c #FFBABA",
"^. c #C4C4C4",
"/. c #CCCCCC",
"(. c #D0C4C4",
"). c gray83",
"_. c #DDDDDD",
"`. c #FFC4C4",
"'. c #FFD4D4",
"]. c #DDE0E0",
"[. c #E1E1E1",
"{. c #ECECEC",
"}. c #FFE7E7",
"|. c #F4F4F4",
" X c #FFF5F5",
".X c #FFFFFF",
/* pixels */
"l.l.l.l.l.l.l.l.l.l.l.l.l.l.l.l.l.l.l.l.l.0.C 0.C 0.l.l.l.l.l.l.l.l.l.l.l.l.l.l.l.l.l.l.l.l.l.l.l.l.l.l.l.l.l.l.l.l.l.l.l.l.l.l.",
"l.l.l.l.l.l.l.l.l.l.l.l.l.l.l.l.l.l.l.l.l.k.0.Y 0.k.l.l.l.l.l.l.l.l.k.z.l.l.l.l.l.l.l.l.l.l.l.l.l.l.l.l.l.l.l.l.l.l.l.l.l.l.l.l.",
"l.l.l.l.l.l.l.l.l.l.l.l.l.l.l.l.l.l.l.l.l.l.k.0.l.l.l.l.k.k.k.l.l.k.k.k.k.k.l.l.l.l.l.l.l.l.l.l.l.l.l.l.l.l.l.l.l.l.l.l.l.l.l.l.",
"l.l.l.l.l.l.l.l.l.l.l.l.l.l.l.l.l.l.l.l.l.l.l.l.l.k.f 3 3 3 3 3 3 3 3 3 3 3 4 Y l.l.l.l.l.l.l.l.l.l.l.l.l.l.l.l.l.l.l.l.l.l.l.l.",
"l.l.l.l.l.l.l.l.l.l.l.l.l.l.l.l.l.l.l.l.l.l.l.l.l.0.<                       X V l.l.l.l.l.l.l.l.l.l.l.l.l.l.l.l.l.l.l.l.l.l.l.l.",
"l.l.l.l.l.l.l.l.l.l.l.l.l.l.l.l.l.l.l.l.l.l.l.l.l.k.<                         V l.l.l.l.l.l.l.l.l.l.l.l.l.l.l.l.l.l.l.l.l.l.l.l.",
"l.l.l.l.l.l.l.l.l.l.l.l.l.l.l.l.l.l.l.l.l.l.0.l z k ~ / / / / / / / / / / / / n k z Y l.l.l.l.l.l.l.l.l.l.l.l.l.l.l.l.l.l.l.l.l.",
"l.l.l.l.l.l.l.l.l.l.l.l.l.l.l.l.l.l.l.l.l.l.Y X   O ^..X.X.X.X.X.X.X.X.X.X.X|.w     c l.l.l.l.l.l.l.l.l.l.l.l.l.l.l.l.l.l.l.l.l.",
"l.l.l.l.l.l.l.l.l.l.l.l.l.l.l.l.l.l.l.l.l.l.Y X   O ^..X.X.X.X.X.X.X.X.X.X.X|.w     c k.l.l.l.l.l.l.l.l.l.l.l.l.l.l.l.l.l.l.l.l.",
"l.l.l.l.l.l.l.l.l.l.l.l.l.l.l.l.l.l.l.9.B V M , : , (..X.X.X.X.X.X.X.X.X.X.X|.K w w S V B 6.l.l.l.l.l.l.l.l.l.l.l.l.l.l.l.l.l.l.",
"l.l.l.l.l.l.l.l.l.l.l.l.l.l.l.l.l.l.l.M X X ; X.@.$.`..X.X.X.X.X.X.X.X.X.X.X.X|.|.|.^ X   9 l.l.l.l.l.l.l.l.l.l.l.l.l.l.l.l.l.l.",
"l.l.l.l.l.l.l.l.l.l.l.l.l.l.l.l.l.l.l.m     - +.#.%.`..X.X.X.X.X.X.X.X.X.X.X.X.X.X.X^     4 l.l.l.l.l.l.l.l.l.l.l.l.l.l.l.l.l.l.",
"l.l.l.l.l.l.l.l.l.l.l.l.l.l.l.l.0.0.0.x . . : O.#.%.~. X X X.X.X.X.X.X.X.X.X.X.X.X.X/ O O 9 0.0.0.l.l.l.l.l.l.l.l.l.l.l.l.l.l.l.",
"l.l.l.l.l.l.l.l.l.l.l.l.l.l.l.l.j $ & i  . ...#.#.#.-.;.;.W..X.X.X.X.X.X.X.X.X.X.X.X_././.D.& & 4 0.l.l.l.l.l.l.l.l.l.l.l.l.l.l.",
"l.l.l.l.l.l.l.l.l.l.l.l.l.l.l.l.f     u #.#.#.#.#.#.#.#.#.Y..X.X.X.X.X.X.X.X.X.X.X.X.X.X.XH.    $ 0.l.l.l.l.l.l.l.l.l.l.l.l.l.l.",
"l.l.l.l.l.l.l.l.l.l.l.l.l.l.l.l.f     y #.#.#.#.#.#.#.#.#.Y..X.X.X.X.X.X.X.X.X.X.X.X.X.X.XH.    $ 0.l.l.l.l.l.l.l.l.l.l.l.l.l.l.",
"l.l.l.l.l.l.l.l.l.l.l.l.l.l.l.l.f     d Y.Y.Y.Y.Y.U.=.#.#.<.4.4.E..X.X.X.X.X.X.X.X.XE.4.4.>.    $ 0.l.l.l.l.l.l.l.l.l.l.l.l.l.l.",
"l.l.l.l.l.l.l.l.l.l.l.l.l.l.l.l.f     G .X.X.X.X.X X:.#.#.#.#.#.1..X.X.X.X.X.X.X.X.X3.#.#.]     $ 9.l.l.l.l.l.l.l.l.l.l.l.l.l.l.",
"l.l.l.l.l.l.l.l.l.l.l.l.l.l.l.k.f     A .X.X.X.X.X X;.#.#.#.#.#.2..X.X.X.X.X.X.X.X.X4.#.#.]     & 0.l.l.l.l.l.l.l.l.l.l.l.l.l.l.",
"l.l.l.l.l.l.l.l.l.l.l.l.l.B m m S G G F..X.X.X.X.X.X5.1.1.1.1.1.Y..X.X X!.W.W.W.W.W.<.#.#.} u u i x m m 0.l.l.l.l.l.l.l.l.l.l.l.",
"l.l.l.l.l.l.l.l.l.l.l.l.0.1     D..X.X.X.X.X.X.X.X.X.X.X.X.X.X.X.X.X.X'.&.#.#.#.#.#.#.#.#.#.#.#. ..   X C l.l.l.l.l.l.l.l.l.l.l.",
"l.l.l.l.l.l.l.l.l.l.l.l.k.1     F..X.X.X.X.X.X.X.X.X.X.X.X.X.X.X.X.X.X'.&.#.#.#.#.#.#.#.#.#.#.#. .+   X C l.l.l.l.l.l.l.l.l.l.l.",
"l.x.z.l.l.l.l.l.l.l.l.l.0.1     ( [._.{..X.X.X_._._.|..X.X{._._.].].].Q.&.#.#.O.X.X.X.X.X.+.=.=.o..   X C l.l.l.l.l.l.l.l.l.l.x.",
"l.h.y.l.l.l.l.l.l.l.l.l.k.1     O = * ^ .X.X_.8 * 5 /..X.X_ * = = = = , O.#.O.y @ @ @ @ + P }.}.R.O   X C l.l.l.l.l.l.l.l.z.x.f.",
"l.f.x.l.l.l.l.l.l.l.l.l.0.1           G .X.X).%   X ^..X.X/           ; O.#.O.:           ^ .X.X).O   X V l.l.l.l.l.l.l.y.s.x.g.",
"l.f.x.a.a.l.l.l.l.l.l.l.k.1           G .X.X).*   O P..X.X/         X ; O.#.O.:           ^ .X.X/.O   X C l.l.l.l.l.l.l.a.s.t.g.",
"l.f.y.s.s.l.l.l.l.l.l.l.k.1           * Z A Z r r r Z A Z Z r r r r r e t y y e r r r r r Z Z A w X   X C l.l.l.l.l.l.l.i.d.l.y.",
"l.y.z.s.s.l.l.l.l.l.l.l.0.1                 O F H F %     w K G G G K Z X   X Z K G G G G w           X C l.l.l.l.l.l.l.x.y.l.l.",
"l.l.l.x.y.l.l.l.l.l.l.l.l.1                 O A G F %     8 G G G G G Z       Z G G G G G w           X V l.l.l.l.l.l.l.l.l.l.l.",
"l.l.l.l.l.l.l.l.l.l.l.l.k.l f f <     O 7 7 0 c.b.v.b 7 7 Z H G G G G D v v v D G G G G G w     o f f g 9.l.l.l.l.l.l.l.l.l.l.l.",
"l.l.l.l.l.l.l.l.l.l.l.l.l.t.l.l.f     = G G T B.Z.C.! G G G G G G G G E B.Z.C.Q G G G G H w     $ r.z.l.l.l.l.l.l.l.l.l.l.l.l.l.",
"l.l.l.l.l.l.l.l.l.l.l.l.a.s.l.l.f     = G G T B.Z.C.! G G G G G G G G Q B.Z.B.! G G G G K w     & i.y.l.l.l.l.l.l.l.l.l.l.l.l.l.",
"l.l.l.l.l.l.l.l.l.l.l.a.a.y.d.l.f     = G F R m.V.N.! G G G G G G G G E N.C.V.Q F G G G G w     < w.s.i.l.l.l.l.l.l.l.l.l.l.l.l.",
"l.l.l.l.l.l.l.l.l.l.l.z.a.s.z.l.f     = G G R A.M.M.W G G G G G G G G R A.S.S.W G G G G G w     & i.y.l.l.l.l.l.l.l.l.l.l.l.l.l.",
"l.l.l.l.l.l.l.l.l.l.l.l.z.t.l.l.f     = G G R A.M.M.W G G G G G G G G R A.M.A.W G G G G H w     $ r.z.l.l.l.l.l.l.l.l.l.l.l.l.l.",
"l.l.l.l.l.l.l.l.l.l.l.l.l.l.l.l.f     * G G R n.A.n.Q F G G G G G G G R n.A.n.W G G G G G w     $ k.l.l.l.l.l.l.l.l.l.l.l.l.l.l.",
"l.l.l.l.l.l.l.l.l.l.l.l.l.l.l.l.f     = G G J R R R J G G G G G G G G H R R R H G G G G G w     $ 0.l.l.l.l.l.l.l.l.l.l.l.l.l.l.",
"l.l.l.l.l.l.l.l.l.l.l.l.l.l.l.l.f     = G G G F G G G G G G G G G G G G G G G G G G G G G w     $ 0.l.l.l.l.l.l.l.l.l.l.l.l.l.l.",
"t.t.l.l.l.l.l.l.l.l.l.l.l.l.l.l.f     = G G G G G G G G G G G G G G G G G G G G G G G G K w     $ 9.l.l.l.l.l.l.l.l.l.l.l.l.l.l.",
"f.j.y.l.l.z.l.l.l.l.l.l.l.l.l.l.f     = G G G G G G G G G r = = = = 5 7 F G F 8 = 5 = 5 = 7 w w w 4 4 4 6.l.l.l.l.l.l.l.l.l.l.l.",
"t.d.g.y.y.g.d.l.l.l.l.l.l.l.l.l.f     = G G G G G G G G G 5           O A H G O           5 G K Z     X B l.l.l.l.l.l.l.l.l.l.l.",
"l.z.h.f.g.h.t.l.l.l.l.l.l.l.l.l.f     * G G H G G G H K G 5           O F H G O           = G G Z X   X C l.t.d.d.z.l.l.l.l.l.l.",
"l.l.8.p.p.8.l.l.l.l.l.l.l.N l x s a a p w w w w w w w w w A ^ ^ ^ ^ ^ K w w w G ^ ^ ^ ^ ^ G w w 8 X   X C l.t.y.j.f.z.y.d.a.l.l.",
"l.l.U 7.7.9.l.l.l.l.l.l.0.1     ' #.#.[                   G..X.X.X.X.X).%   O /..X.X.X.X.XH.          X C l.l.l.y.j.d.f.f.y.l.l.",
"l.l.9.6.9.l.l.l.l.l.l.l.0.1     ' #.#.[                   F..X.X.X.X.X).O   O /..X.X.X.X.XH.          X C l.l.l.l.e.f.p.t.l.l.l.",
"l.l.l.l.l.l.l.l.l.l.l.l.0.1     ' #.#.{ ; ; ; ; ; ; 6 8 7 J..X.X.X.X.X_.r 7 w )..X.X.X.X.XJ.7 8 5     X C l.l.l.k.B w.7.9.l.l.l.",
"l.l.l.l.l.l.l.l.l.l.l.l.l.1     ' #.#.#.O.O.O.O.O.$.Q.{.{..X.X.X.X.X.X.X{.{.{..X.X.X.X.X.X.X{.{.R.O   X C l.l.l.l.Y V 0.l.l.l.l.",
"l.l.l.l.l.l.l.l.l.l.l.l.0.1     ' #.#.#.#.#.#.#.#.%.`..X.X.X.X.X.X.X.X.X.X.X.X.X.X.X.X.X.X.X.X.X/.O   X U l.l.l.l.l.l.l.l.l.l.l.",
"l.l.l.l.l.l.l.l.l.l.l.l.l.2   X ` #.@.#.%.%.%.%.%.&.`..X.X.X.X.X.X X X.X X X X X.X X.X.X.X.X|..X/.%   o V l.l.l.l.l.l.l.l.l.l.l.",
"l.l.l.l.l.l.l.l.l.l.l.l.l.C N B 0 > > L `.`.`.`.`.`. X.X.X.X.X.X~.:.:.:.:.:.:.:.:.:.W..X.XL.r r n M N V k.l.l.l.l.l.l.l.l.l.l.l.",
"l.l.l.l.l.l.l.l.l.l.l.l.l.l.l.l.f     G .X.X.X.X.X.X.X.X.X.X.X.XE.#.#.#.#.#.#.#.#.#.T..X.XG.    $ 9.l.l.l.l.l.l.l.l.l.l.l.l.l.l.",
"l.l.l.l.l.l.l.l.l.l.l.l.l.l.l.l.f     G .X.X.X.X.X.X.X.X.X.X.X.XE.#.#.#.#.#.#.#.#.#.T..X.XH.    $ k.l.l.l.l.l.l.l.l.l.l.l.l.l.l.",
"l.l.l.l.l.l.l.l.l.l.l.l.l.l.l.l.N g h S ( ( F.|..X.X.X.X.X.X.X.X'.U.U.U.U.U.I.*.#.#.,.) ( I h h m 9.l.l.l.l.l.l.l.l.l.l.l.l.l.l.",
"l.l.l.l.l.l.l.l.l.l.l.l.l.l.l.l.l.l.l.m     5 {..X.X.X.X.X.X.X.X.X.X.X.X.X.X X;.#.#.a     4 l.l.l.l.l.l.l.l.l.l.l.l.l.l.l.l.l.l.",
"l.l.l.l.l.l.l.l.l.l.l.l.l.l.l.l.l.l.l.m     7 {..X.X.X.X.X.X.X.X.X.X.X.X.X.X X;.#.#.a     4 l.l.l.l.l.l.l.l.l.l.l.l.l.l.l.l.l.l.",
"l.l.l.l.l.l.l.l.l.l.l.l.l.l.l.l.l.l.l.B 2 2 q J.L.L.L.L.L.L.L.L.L.L.L.L.L.L.K.| { { p 2 2 j l.l.l.l.l.l.l.l.l.l.l.l.l.l.l.l.l.l.",
"l.l.l.l.l.l.l.l.l.l.l.l.l.l.l.l.l.l.l.l.k.l.U # X     X X     X   X X   X   X       k l.k.k.l.l.l.l.l.l.l.l.l.l.l.l.l.l.l.l.l.l.",
"l.l.l.l.l.l.l.l.l.l.l.l.l.l.l.l.l.l.l.l.l.l.Y o                                     x l.l.l.l.l.l.l.l.l.l.l.l.l.l.l.l.l.l.l.l.l.",
"l.l.l.l.l.l.l.l.l.l.l.l.l.l.l.l.l.l.l.l.l.l.Y & O # # # # # # # # # # O # O # # # # m l.l.l.l.l.l.l.l.l.l.l.l.l.l.l.l.l.l.l.l.l.",
"l.l.l.l.l.l.l.l.l.l.l.l.l.l.l.l.l.l.l.x.y.l.k.Y Y Y Y Y Y Y Y Y u.u.q.Y 7.q.Y Y Y Y 9.l.l.l.l.l.l.l.l.l.l.l.l.l.l.l.l.l.l.l.l.l.",
"l.l.l.l.l.l.l.l.l.l.l.l.l.l.l.l.l.l.l.s.s.l.l.l.l.l.l.l.l.l.l.z.s.g.r.r.h.h.l.l.l.l.l.l.l.l.l.l.l.l.l.l.l.l.l.l.l.l.l.l.l.l.l.l.",
"l.l.l.l.l.l.l.l.l.l.l.l.l.l.l.l.l.l.l.s.a.z.x.l.l.l.l.l.l.l.l.l.k.i.q.p.f.e.l.l.l.l.l.l.l.l.l.l.l.l.l.l.l.l.l.l.l.l.l.l.l.l.l.l.",
"l.l.l.l.l.l.l.l.l.l.l.l.l.l.l.l.l.l.l.s.s.x.f.l.l.l.l.l.l.l.l.l.l.Y i.p.w.Y l.l.l.l.l.l.l.l.l.l.l.l.l.l.l.l.l.l.l.l.l.l.l.l.l.l.",
"l.l.l.l.l.l.l.l.l.l.l.l.l.l.l.l.l.l.l.s.s.x.h.z.l.l.l.l.l.l.l.l.l.l.Y B 6.l.l.l.l.l.l.l.l.l.l.l.l.l.l.l.l.l.l.l.l.l.l.l.l.l.l.l."
};
