/* XPM */
static char *result[] = {
/* columns rows colors chars-per-pixel */
"64 64 207 2 ",
"   c #010201",
".  c #060A07",
"X  c #070D08",
"o  c #1B0401",
"O  c #0C140D",
"+  c #0D1811",
"@  c #151B17",
"#  c #1B1D1C",
"$  c #290906",
"%  c #3C0700",
"&  c #3C0903",
"*  c #2F1815",
"=  c #15271B",
"-  c #1B221D",
";  c #192E1F",
":  c #1E2621",
">  c #192F20",
",  c #1D3826",
"<  c #242625",
"1  c #232C26",
"2  c #2C2C2C",
"3  c #3A2623",
"4  c #243729",
"5  c #223D2B",
"6  c #343434",
"7  c #3B3B3B",
"8  c #470A02",
"9  c #500501",
"0  c #6C0C02",
"q  c #751305",
"w  c #71220D",
"e  c #792315",
"r  c #4C3630",
"t  c #672E2A",
"y  c #24432D",
"u  c #294632",
"i  c #2B4C35",
"p  c #394838",
"a  c #2D5539",
"s  c #2E563A",
"d  c #325E3F",
"f  c #48472E",
"g  c #3F4240",
"h  c #335F40",
"j  c #3B5843",
"k  c #356343",
"l  c #3A6A49",
"z  c #3D724D",
"x  c #3F7751",
"c  c #434343",
"v  c #4B4D4C",
"b  c #465C4C",
"n  c gray33",
"m  c #7A5955",
"M  c #50664F",
"N  c #47784A",
"B  c #496953",
"V  c #407651",
"C  c #427D54",
"Z  c #676540",
"A  c #5C6960",
"S  c #696868",
"D  c #677E6E",
"F  c #6E7471",
"G  c #747474",
"H  c #7B7B7B",
"J  c #970A02",
"K  c #9B1503",
"L  c #AC0E04",
"P  c #AA1302",
"I  c #882814",
"U  c #A62C11",
"Y  c #833C2C",
"T  c #A92D2D",
"R  c #C60B03",
"E  c #D70507",
"W  c #CB1C00",
"Q  c #C91A05",
"!  c #D41701",
"~  c #C41213",
"^  c #E60509",
"/  c #FB0106",
"(  c #FD0D06",
")  c #FB040B",
"_  c #F8080A",
"`  c #E71102",
"'  c #FD1303",
"]  c #FE1B02",
"[  c #F81608",
"{  c #FB0C14",
"}  c #FB121A",
"|  c #D82312",
" . c #EE2303",
".. c #F62706",
"X. c #FF2401",
"o. c #FE2A05",
"O. c #FF2C0A",
"+. c #F0340D",
"@. c #FE2711",
"#. c #E93817",
"$. c #FF3614",
"%. c #FF3D1C",
"&. c #FC292F",
"*. c #FF3D2C",
"=. c #FD3638",
"-. c #FC383D",
";. c #B3453C",
":. c #FF4323",
">. c #FE442C",
",. c #FF4438",
"<. c #FF4C3B",
"1. c #FF533B",
"2. c #F93D42",
"3. c #8C5F5D",
"4. c #B47A64",
"5. c #FC4244",
"6. c #FF644C",
"7. c #FF6657",
"8. c #FF655B",
"9. c #FC5D62",
"0. c #C8716B",
"q. c #E36062",
"w. c #FC686D",
"e. c #FE7867",
"r. c #FE7776",
"t. c #FC7A7D",
"y. c #458157",
"u. c #4B8453",
"i. c #46855A",
"p. c #4C865A",
"a. c #4A8A5D",
"s. c #558B52",
"d. c #599256",
"f. c #56985F",
"g. c #5C9C5E",
"h. c #629B57",
"j. c #6CA152",
"k. c #65A25B",
"l. c #6AA55A",
"z. c #6EA859",
"x. c #72A754",
"c. c #75AC56",
"v. c #79AF55",
"b. c #71AA58",
"n. c #7BB155",
"m. c #4D8E61",
"M. c #548B63",
"N. c #4D9262",
"B. c #529561",
"V. c #579668",
"C. c #5A9A6E",
"Z. c #5E9C71",
"A. c #638A6F",
"S. c #6A8B75",
"D. c #78837C",
"F. c #74A76C",
"G. c #68A37A",
"H. c #8D887B",
"J. c #FF836E",
"K. c #FD8279",
"L. c #FF8B7A",
"P. c #FF917F",
"I. c #FC7E82",
"U. c #789E84",
"Y. c #7BAA89",
"T. c #969A97",
"R. c #A99F9F",
"E. c #97A89C",
"W. c #9DA9A1",
"Q. c #A5A5A4",
"!. c #ABACAB",
"~. c #B4B4B4",
"^. c #B9B9B9",
"/. c #FD8787",
"(. c #FF9383",
"). c #FD9395",
"_. c #FE9A97",
"`. c #FD9498",
"'. c #FFA699",
"]. c #C2BDBD",
"[. c #F9AEA7",
"{. c #FFBFB4",
"}. c #FDBBB9",
"|. c #FFC3BD",
" X c #FEBFC1",
".X c #C3C4C3",
"XX c #C6C8C5",
"oX c #CECECE",
"OX c #C4D2C8",
"+X c #D7D7D7",
"@X c #FFC8C5",
"#X c #F0C9C9",
"$X c #FECACB",
"%X c #FFD1CA",
"&X c #FFD3D3",
"*X c #FEDCDC",
"=X c #DFE4E1",
"-X c #E3E3E3",
";X c #E7E9E8",
":X c #EFEFEF",
">X c #FFE4E4",
",X c #FFE9E7",
"<X c #FFEAEA",
"1X c #EEF3F1",
"2X c #F4F4F4",
"3X c #FFF5F5",
"4X c #FFFEFE",
/* pixels */
"N.N.N.N.N.N.N.N.N.N.N.N.N.N.N.N.N.N.N.N.N.a.C a.V a.N.N.N.N.N.N.N.N.N.N.N.N.N.N.N.N.N.N.N.N.N.N.N.N.N.N.N.N.N.N.N.N.N.N.N.N.N.N.",
"N.N.N.N.N.N.N.N.N.N.N.N.N.N.N.N.N.N.N.N.N.N.i.C a.N.N.N.N.N.N.N.N.N.N.N.N.N.N.N.N.N.N.N.N.N.N.N.N.N.N.N.N.N.N.N.N.N.N.N.N.N.N.N.",
"N.N.N.N.N.N.N.N.N.N.N.N.N.N.N.N.N.N.N.N.N.N.N.a.N.N.N.N.N.N.N.N.N.N.N.N.N.N.N.N.N.N.N.N.N.N.N.N.N.N.N.N.N.N.N.N.N.N.N.N.N.N.N.N.",
"N.N.N.N.N.N.N.N.N.N.N.N.N.N.N.N.N.N.N.N.N.N.N.N.N.N.N.N.N.N.N.N.N.N.N.N.N.N.N.N.N.N.N.N.N.N.N.N.N.N.N.N.N.N.N.N.N.N.N.N.N.N.N.N.",
"N.N.N.N.N.N.N.N.N.N.N.N.N.N.N.N.N.N.N.N.N.N.N.N.N.N.N.N.B.g.N.N.N.N.N.N.N.N.N.N.N.N.N.N.N.N.N.N.N.N.N.N.N.N.N.N.N.N.N.N.N.N.N.N.",
"N.N.N.N.N.N.N.N.N.N.N.N.N.N.N.N.N.N.N.N.N.N.N.N.N.N.N.f.l.z.N.N.N.N.N.N.N.N.N.N.N.N.N.N.N.N.N.N.N.N.N.N.N.N.N.N.N.N.N.N.N.N.N.N.",
"N.N.N.N.N.N.N.N.N.N.N.N.N.N.N.N.N.N.N.N.N.N.N.N.B.N.N.k.n.z.N.N.N.N.N.N.N.N.N.N.N.f.N.N.N.N.N.N.N.N.N.N.N.N.N.N.N.N.N.N.N.N.N.N.",
"N.N.N.N.N.N.N.N.N.N.N.N.N.N.N.N.N.N.N.N.N.N.N.N.c.g.N.k.n.l.N.N.N.N.N.N.N.N.N.N.N.z.g.N.N.N.N.N.N.N.N.N.N.N.N.N.N.N.N.N.N.N.N.N.",
"N.N.N.N.N.N.N.N.N.N.N.N.N.N.N.N.N.N.N.N.N.N.N.N.c.v.u.h.l.N.N.N.N.N.N.N.N.N.N.N.N.c.B.B.N.N.N.N.N.N.N.N.N.N.N.N.N.N.N.N.N.N.N.N.",
"N.N.N.N.N.N.N.N.N.N.N.N.N.N.N.N.N.N.N.N.N.N.N.m.u.x.x.s.p.N.N.N.N.N.N.N.N.N.B.z.B.c.g.N.N.N.N.N.N.N.N.N.N.N.N.N.N.N.N.N.N.N.N.N.",
"N.N.N.N.N.N.N.N.N.N.N.N.N.N.N.N.N.N.N.N.N.N.N.m.C N N N y.i.i.i.a.a.a.a.N.N.B.c.B.c.g.N.N.N.N.N.N.N.N.N.N.N.N.N.N.N.N.N.N.N.N.N.",
"N.N.N.N.N.N.N.N.N.N.N.N.N.N.N.N.N.N.N.N.N.N.N.m.a > , 5 y y i i a s d k k l u.c.B.g.B.N.N.N.N.N.N.N.N.N.N.N.N.N.N.N.N.N.N.N.N.N.",
"N.N.N.N.N.N.N.N.N.N.N.N.N.N.N.N.N.N.N.N.N.N.N.M.u @ @ @ # - - - = - : : : 1 j F.N.N.N.N.N.N.N.N.N.N.N.N.N.N.N.N.N.N.N.N.N.N.N.N.",
"N.N.N.N.N.N.N.N.N.N.N.N.N.N.N.N.N.N.V.N.C h k B F D.U.3.H H H H H H H H H H H A.h k y.N.N.N.N.N.N.N.N.N.N.N.N.N.N.N.N.N.N.N.N.N.",
"N.N.N.N.N.N.N.N.N.N.N.N.N.N.N.N.N.N.V.m.s X . < !.2X2X2X2X2X2X2X2X2X2X2X2X:X].g . O k N.N.N.N.N.N.N.N.N.N.N.N.N.N.N.N.N.N.N.N.N.",
"N.N.N.N.N.N.N.N.N.N.N.N.N.N.N.N.N.N.N.N.s     # ~.4X4X4X4X4X4X4X4X4X4X4X4X4XXX7   . l N.N.N.N.N.N.N.N.N.N.N.N.N.N.N.N.N.N.N.N.N.",
"N.N.N.N.N.N.N.N.N.N.N.N.N.N.N.N.C.V.p.m.j # - 6 ^.4X4X4X4X4X4X4X4X4X4X4X4X4XoXr $ o M M.i.m.N.N.N.N.N.N.N.N.N.N.N.N.N.N.N.N.N.N.",
"N.N.N.N.N.N.N.N.N.N.N.N.N.N.N.C.U.b 5 u A T.R.!.+X4X4X4X4X4X4X4X4X4X4X4X4X4X#X;.K K Y p 5 a V.N.N.N.N.N.N.N.N.N.N.N.N.N.N.N.N.N.",
"N.N.N.N.N.N.N.N.N.N.N.N.N.N.N.C.A.:   . F 4X4X4X4X4X4X4X4X4X4X4X4X4X4X4X4X4X@X<.] ] J o   : U.N.N.N.N.N.N.N.N.N.N.N.N.N.N.N.N.N.",
"N.N.N.N.N.N.N.N.N.N.N.N.N.Z.G.G.A.@     S 2X4X4X4X4X4X4X4X4X4X4X4X4X4X4X4X4X$X<.' ^ J o . < E.N.N.N.N.N.N.N.N.N.N.N.N.N.N.N.N.N.",
"N.N.N.N.N.N.N.N.N.N.N.N.V.Y.E.W.T.v 6 6 U.3X4X4X4X4X4X4X4X4X4X4X4X4X4X*X%X%X'.>.( / J 9 * t H.x z i.N.N.N.N.N.N.N.N.N.N.N.N.N.N.",
"N.N.N.N.N.N.N.N.N.N.N.N.m.j < < n ^.+XOX.X3X4X4X4X4X4X4X4X4X4X4X4X4X>Xr.>.>.:.O.' / ^ E E Q w + + s N.N.N.N.N.N.N.N.N.N.N.N.N.N.",
"N.f.B.N.N.N.N.N.N.N.N.N.a.5     p +X4X2X4X4X4X4X4X4X4X4X4X4X4X4X4X4X>X8.o.] X.X.] / / / / ` 0     i N.N.N.N.N.N.N.N.N.N.N.N.N.f.",
"N.z.g.N.N.N.N.N.N.N.N.N.p.5     c .X1X3X4X4X4X4X4X4X4X4X4X4X4X4X4X4X*X8.o.X.X.o.o.[ ) ) _ ^ 0     i V.N.N.N.N.N.N.N.N.N.f.N.B.v.",
"N.c.g.N.N.N.N.N.N.N.N.N.a.5     3 4.P.'.@X4X4X4X4X4X4X4X4X4X4X%X'.'.(.<.o.X.%.e.e.r.w.w.w.q.t     i N.N.V.N.N.N.N.N.N.N.g.l.f.n.",
"N.c.f.k.k.N.N.N.N.N.N.N.p.5     8 | ..+.J.3X4X4X4X4X4X4X4X4X3X).@.X.X.X.X.o.6.>X4X4X4X4X4X-XS     a N.B.Y.C.N.N.N.N.N.N.g.z.f.n.",
"N.c.g.k.l.N.N.N.N.N.N.N.a.y     8 ! o.o.J.4X4X4X4X4X4X4X4X4X3X).@.X.X.X.X.o.6.,X4X4X4X4X4X-XS     i N.N.Y.C.N.N.N.N.N.N.k.z.N.g.",
"N.g.B.k.l.N.N.N.N.m.p.a.M.p o $ 9 ! ..+.e.>X,X,X,X,X<X<X4X4X3X_.*.$.%.%.%.%.e.<X4X4X4X4X4X-XS # # b N.i.i.N.N.N.N.N.N.N.f.g.N.N.",
"N.N.N.g.g.N.N.N.N.l 5 4 r I P P L '  .#.>.7.8.8.8.8.7.P.3X4X4X*X{.{.{.|.{.{.%X3X4X4X4X4X4X2XoX~.~.W.b > , i.N.N.N.N.N.N.N.m.N.N.",
"N.N.N.N.N.N.N.N.N.k X . * P ' ( ] ] [ [ X.] X.X.X.X.] 6.<X4X4X4X4X4X4X4X4X4X4X4X4X4X4X4X4X4X4X4X4XoX7   . C N.N.N.N.N.N.N.N.N.N.",
"N.N.N.N.N.N.N.N.N.h .   $ L ( ( ] [ ( ' X.X.X.X.X.X.X.6.<X4X4X4X4X4X4X4X4X4X4X4X4X4X4X4X4X4X4X4X4X.X7   X x N.N.N.N.N.N.N.N.N.N.",
"N.N.N.N.N.N.N.N.N.h .   $ T 5.<.1.,.5.1.:.X.X.X.X.X.X.1.|.%X$X>X4X4X4X4X4X4X4X4X4X4X4X4X4X4X4X4X4X.X6   X x N.N.N.N.N.N.N.N.N.N.",
"N.N.N.N.N.N.N.N.N.h .   2 R.,X,X>X,X>X>X(.] X.X.o.X.X.O.*.*.,._.4X4X4X4X4X4X4X4X4X4X4X4X4X4X4X4X4X.X6   X C N.N.N.N.N.N.N.N.N.N.",
"N.N.N.N.N.N.N.N.N.h X   2 !.4X4X4X4X4X4X`._ ' ] X.X.X.X.X.X.O.(.4X4X4X4X4X4X4X4X4X4X4X4X4X4X4X4X4X.X6   + y.N.N.N.N.N.N.N.N.N.N.",
"N.N.N.N.N.N.N.N.N.h X   2 !.4X4X4X4X4X3X`.{ ) { ] O.O.O.O.O.$.(.4X4X4X4X4X4X4X4X4X4X4X3X4X3X3X4X3X].6   y a.N.N.N.N.N.N.N.N.N.N.",
"N.N.N.N.N.N.N.N.N.d X   2 !.4X4X4X4X4X4X$Xt.r.r.K.L.L.L.L.L.L.|.4X4X4X4X4X4X4X4X4X4X$X`.).).`.`.`.4.3 . u a.N.N.N.N.N.N.N.N.N.N.",
"N.N.N.N.N.N.N.N.N.d X   2 !.4X4X4X4X4X4X4X3X3X4X3X4X3X4X4X3X4X4X4X4X4X4X4X4X4X4X4X3X`.&.} } } } } ~ &   u a.N.N.N.N.N.N.N.N.N.N.",
"N.N.N.N.N.N.N.N.N.d .   2 !.4X4X4X4X4X4X4X4X4X4X4X4X4X4X4X4X4X4X4X4X4X4X4X4X4X4X4X3X/.} / / / / ) R %   ; i.N.N.N.N.N.N.N.N.N.N.",
"f.f.N.N.N.N.N.N.N.d X   2 !.4X4X4X4X4X4X4X4X4X4X4X4X4X4X4X4X4X4X4X4X4X4X4X4X4X,X<X*X/.} / / / / ) R %   O C N.N.N.N.N.N.N.N.N.N.",
"c.n.g.N.N.B.B.N.N.d X   2 !.4X4X4X4X4X4X4X4X4X4X4X4X4X4X4X4X4X4X4X4X4X4X4X4X&Xt.9.9.=.) / / / / ) Q %   > i.N.N.N.N.N.N.N.N.N.N.",
"f.z.v.g.g.c.z.N.N.h X   2 !.4X4X4X4X4X4X4X4X4X4X4X4X4X4X4X4X4X4X4X4X4X4X4X4X}.-.) ) ) / / / / ) ] W &   a a.N.N.N.N.N.N.N.N.N.N.",
"N.B.z.v.v.x.f.N.N.h X   2 !.4X4X4X4X4X4X4X4X4X4X4X4X4X4X4X4X4X4X4X4X4X4X4X4X X&./ / / ) ) ) / ( X.W & O z N.f.c.c.B.N.N.N.N.N.N.",
"N.N.u.j.j.u.N.N.N.z 5 4 g T.OXoX+X2X4X4X,X$X$X$X$X@X$X$X$X$X$X*X4X4X4X4X4X4X$Xw.5.2.5.5.2.2.| Q W U f i i.N.N.g.n.z.B.g.z.k.N.N.",
"N.N.C u.s.i.N.N.N.N.Z.C.N.B g c G -X4X4X[.-.-.-.-.-.-.-.-.-.2.`.4X4X4X4X4X4X3X>X*X*X*X*X*X#X3.8 8 f N.N.N.N.N.N.g.n.b.c.c.g.N.N.",
"N.N.i.y.a.N.N.N.N.N.N.N.m.5     f +X4X4X).) / / / / / / / / ) I.4X4X4X4X4X4X4X4X4X4X4X4X4X;XF   = z N.N.N.N.N.N.N.d.c.j.f.N.N.N.",
"N.N.N.N.N.N.N.N.N.N.N.N.m.k =   g oX4X3X).( / / ) ) ) ) ) ) } I.3X4X4X4X4X4X4X4X4X4X4X2X:X=XD.s z N.N.N.N.N.N.N.N.x d.s.i.N.N.N.",
"N.N.N.N.N.N.N.N.N.N.N.N.m.m.x l D W.!.Q.0.o.] @.8.I.t.I.t.t.I.}.4X4X4X4X4X4X4X4X4X4XoX!.W.E.C.N.N.N.N.N.N.N.N.N.N.C x i.N.N.N.N.",
"N.N.N.N.N.N.N.N.N.N.N.N.N.N.N.N.m.g : * e X.X.%.[.3X3X<X3X3X2X3X4X4X4X4X4X4X4X4X4X2XQ.2 1 p.m.N.N.N.N.N.N.N.N.N.N.N.N.N.N.N.N.N.",
"N.N.N.N.N.N.N.N.N.N.N.N.N.N.N.N.N.i.a O 0 X.X.%.{.4X4X4X4X4X4X4X4X4X4X4X4X4X4X4X4X2XT.@ O i.N.N.N.N.N.N.N.N.N.N.N.N.N.N.N.N.N.N.",
"N.N.N.N.N.N.N.N.N.N.N.N.N.N.N.N.N.N.a.h w  ...#.[.1X:X:X:X:X:X:X:X:X:X:X:X:X:X:X2X-XT.4 ; i.N.N.N.N.N.N.N.N.N.N.N.N.N.N.N.N.N.N.",
"N.N.N.N.N.N.N.N.N.N.N.N.N.N.N.N.N.N.N.a.Z I q q m H H H H H H H H H H H H H H H H U.S.N.a.N.N.N.N.N.N.N.N.N.N.N.N.N.N.N.N.N.N.N.",
"N.N.N.N.N.N.N.N.N.N.N.N.N.N.N.N.N.N.N.N.N.h = ; > > > > > > > > > > > > > ; = > : u i.N.N.N.N.N.N.N.N.N.N.N.N.N.N.N.N.N.N.N.N.N.",
"N.N.N.N.N.N.N.N.N.N.N.N.N.N.N.N.N.N.N.N.N.N.N.N.N.N.N.N.N.N.N.N.N.N.N.N.m.y.y.i.N.N.N.N.N.N.N.N.N.N.N.N.N.N.N.N.N.N.N.N.N.N.N.N.",
"N.N.N.N.N.N.N.N.N.N.N.N.N.N.N.N.N.N.N.N.N.N.N.N.N.N.N.N.N.N.N.N.N.N.N.N.a.C p.C m.N.N.N.N.N.N.N.N.N.N.N.N.N.N.N.N.N.N.N.N.N.N.N.",
"N.N.N.N.N.N.N.N.N.N.N.N.N.N.N.N.N.N.N.N.N.N.N.N.N.N.N.N.N.N.N.N.N.N.N.N.N.a.C N.N.N.N.N.N.N.N.N.N.N.N.N.N.N.N.N.N.N.N.N.N.N.N.N.",
"N.N.N.N.N.N.N.N.N.N.N.N.N.N.N.N.N.N.N.N.N.N.N.N.N.N.N.N.N.N.N.N.N.N.N.N.N.N.N.N.N.N.N.N.N.N.N.N.N.N.N.N.N.N.N.N.N.N.N.N.N.N.N.N.",
"N.N.N.N.N.N.N.N.N.N.N.N.N.N.N.N.N.N.N.N.N.N.N.N.N.N.N.N.N.N.N.N.N.N.N.N.N.N.N.N.N.N.N.N.N.N.N.N.N.N.N.N.N.N.N.N.N.N.N.N.N.N.N.N.",
"N.N.N.N.N.N.N.N.N.N.N.N.N.N.N.N.N.N.N.N.N.N.N.N.N.N.N.N.N.N.N.N.z.B.N.N.N.N.N.N.N.N.N.N.N.N.N.N.N.N.N.N.N.N.N.N.N.N.N.N.N.N.N.N.",
"N.N.N.N.N.N.N.N.N.N.N.N.N.N.N.N.N.N.N.N.N.N.N.N.N.N.N.N.N.N.N.N.v.c.B.N.N.N.N.N.N.N.N.N.N.N.N.N.N.N.N.N.N.N.N.N.N.N.N.N.N.N.N.N.",
"N.N.N.N.N.N.N.N.N.N.N.N.N.N.N.N.N.N.N.g.g.N.N.N.N.N.N.N.N.N.N.f.c.n.g.N.f.g.N.N.N.N.N.N.N.N.N.N.N.N.N.N.N.N.N.N.N.N.N.N.N.N.N.N.",
"N.N.N.N.N.N.N.N.N.N.N.N.N.N.N.N.N.N.N.l.k.N.N.N.N.N.N.N.N.N.N.N.k.n.d.d.z.x.N.N.N.N.N.N.N.N.N.N.N.N.N.N.N.N.N.N.N.N.N.N.N.N.N.N.",
"N.N.N.N.N.N.N.N.N.N.N.N.N.N.N.N.N.N.N.k.k.f.f.N.N.N.N.N.N.N.N.N.N.h.s.h.v.g.N.N.N.N.N.N.N.N.N.N.N.N.N.N.N.N.N.N.N.N.N.N.N.N.N.N.",
"N.N.N.N.N.N.N.N.N.N.N.N.N.N.N.N.N.N.N.k.k.g.c.N.N.N.N.N.N.N.N.N.N.C d.v.s.y.N.N.N.N.N.N.N.N.N.N.N.N.N.N.N.N.N.N.N.N.N.N.N.N.N.N.",
"N.N.N.N.N.N.N.N.N.N.N.N.N.N.N.N.N.N.N.l.k.g.c.N.N.N.N.N.N.N.N.N.N.N.N V i.N.N.N.N.N.N.N.N.N.N.N.N.N.N.N.N.N.N.N.N.N.N.N.N.N.N.N."
};
