/* XPM */
static char *result[] = {
/* columns rows colors chars-per-pixel */
"64 64 156 2 ",
"   c #000000",
".  c #0A0000",
"X  c #050A06",
"o  c #080C06",
"O  c #060C09",
"+  c #0A0C0B",
"@  c #110101",
"#  c #190101",
"$  c #0B140D",
"%  c #0C1710",
"&  c #0E1A11",
"*  c #101010",
"=  c #121E14",
"-  c #1C1D14",
";  c #181818",
":  c #122317",
">  c #142619",
",  c #172B1D",
"<  c #182D1E",
"1  c #1E321E",
"2  c #232217",
"3  c #24371C",
"4  c #192F20",
"5  c #1B3222",
"6  c #1E3926",
"7  c gray13",
"8  c #203D29",
"9  c #2B3D30",
"0  c #6E0D09",
"q  c #7E0000",
"w  c #7E0E0A",
"e  c #611A12",
"r  c #24432D",
"t  c #2D462F",
"y  c #38562D",
"u  c #3D5A2D",
"i  c #274530",
"p  c #274931",
"a  c #2A4B34",
"s  c #2B5036",
"d  c #2D5539",
"f  c #325E3F",
"g  c #455D36",
"h  c #325F40",
"j  c #336141",
"k  c #3F734D",
"l  c #3F7751",
"z  c #407751",
"x  c #417C53",
"c  c #5E6B62",
"v  c #606D64",
"b  c #757875",
"n  c #767C78",
"m  c #7D7D7D",
"M  c #850303",
"N  c #8A0000",
"B  c #960000",
"V  c #9C0000",
"C  c #A30201",
"Z  c #A80604",
"A  c #BC0000",
"S  c #952020",
"D  c #C10000",
"F  c #C90000",
"G  c #C80808",
"H  c #D30000",
"J  c #DD0101",
"K  c #E30000",
"L  c #F40000",
"P  c #FF0000",
"I  c #FF0A0A",
"U  c #FF2424",
"Y  c #FF2C2C",
"T  c #FF3636",
"R  c #FF3939",
"E  c #9B4C4C",
"W  c #A16E6E",
"Q  c #CA4141",
"!  c #D24F4F",
"~  c #FF4444",
"^  c #FF4E4E",
"/  c #FF5151",
"(  c #E36666",
")  c #FF6161",
"_  c #FF6E6E",
"`  c #FF7373",
"'  c #FF7C7C",
"]  c #4A814F",
"[  c #55874B",
"{  c #588A4B",
"}  c #468256",
"|  c #4A8555",
" . c #4D8855",
".. c #46855A",
"X. c #498759",
"o. c #47885B",
"O. c #498A5D",
"+. c #538A52",
"@. c #5B9152",
"#. c #5F9957",
"$. c #549159",
"%. c #56985F",
"&. c #5B9C5E",
"*. c #608F48",
"=. c #679447",
"-. c #619753",
";. c #649B53",
":. c #6A9F53",
">. c #609F5D",
",. c #6CA152",
"<. c #65A25B",
"1. c #6AA55A",
"2. c #6EA858",
"3. c #74AC56",
"4. c #79AF55",
"5. c #71AA58",
"6. c #7BB155",
"7. c #4B8F60",
"8. c #4D9262",
"9. c #539660",
"0. c #569860",
"q. c #7B827D",
"w. c #818683",
"e. c #8B8C8C",
"r. c #958F8F",
"t. c #949494",
"y. c #9B9B9B",
"u. c #A1A2A2",
"i. c #B4B4B4",
"p. c #BAB3B3",
"a. c gray74",
"s. c #C89D9D",
"d. c #FF8383",
"f. c #FF8989",
"g. c #FF9696",
"h. c #FF9E9E",
"j. c #FFA3A3",
"k. c #FFACAC",
"l. c #F5B3B3",
"z. c #FFB2B2",
"x. c #FFBBBB",
"c. c #C1C1C1",
"v. c #C9C9C9",
"b. c #D3D3D3",
"n. c gainsboro",
"m. c #FFC6C6",
"M. c #FFCCCC",
"N. c #FFD6D6",
"B. c #FFDADA",
"V. c #E4E4E4",
"C. c #EAEAEA",
"Z. c #FFE4E4",
"A. c #FFEFEF",
"S. c gray94",
"D. c #FFF5F5",
"F. c #FFFFFF",
/* pixels */
"8.8.8.8.8.8.8.8.8.8.8.8.8.8.8.8.8.8.8.8.8.o.x O.x O.8.8.8.8.8.8.8.8.8.8.8.8.8.8.8.8.8.8.8.8.8.8.8.8.8.8.8.8.8.8.8.8.8.8.8.8.8.8.",
"8.8.8.8.8.8.8.8.8.8.8.8.8.8.8.8.8.8.8.8.8.8.o.x O.9.8.8.8.8.8.8.8.8.8.8.8.8.8.8.8.8.8.8.8.8.8.8.8.8.8.8.8.8.8.8.8.8.8.8.8.8.8.8.",
"8.8.8.8.8.8.8.8.8.8.8.8.8.8.8.8.8.8.8.8.8.8.8.o.8.8.8.8.8.8.8.8.8.8.8.8.8.8.8.8.8.8.8.8.8.8.8.8.8.8.8.8.8.8.8.8.8.8.8.8.8.8.8.8.",
"8.8.8.8.8.8.8.8.8.8.8.8.8.8.8.8.8.8.8.8.8.8.8.8.8.8.8.8.8.8.8.8.8.8.8.8.8.8.8.8.8.8.8.8.8.8.8.8.8.8.8.8.8.8.8.8.8.8.8.8.8.8.8.8.",
"8.8.8.8.8.8.8.8.8.8.8.8.8.8.8.8.8.8.8.8.8.8.8.8.8.8.8.7.0.&.8.8.8.8.8.8.8.8.8.8.8.8.8.8.8.8.8.8.8.8.8.8.8.8.8.8.8.8.8.8.8.8.8.8.",
"8.8.8.8.8.8.8.8.8.8.8.8.8.8.8.8.8.8.8.8.8.8.8.8.7.8.8.%.1.2.8.8.8.8.8.8.8.8.8.8.8.8.8.8.8.8.8.8.8.8.8.8.8.8.8.8.8.8.8.8.8.8.8.8.",
"8.8.8.8.8.8.8.8.8.8.8.8.8.8.8.8.8.8.8.8.8.8.8.8.0.8.7.<.6.2.8.8.8.8.8.8.8.8.8.8.8.%.9.8.8.8.8.8.8.8.8.8.8.8.8.8.8.8.8.8.8.8.8.8.",
"8.8.8.8.8.8.8.8.8.8.8.8.8.8.8.8.8.8.8.8.8.8.8.} *.| z [ =.{ z z l x l x z x z o.8.2.&.8.8.8.8.8.8.8.8.8.8.8.8.8.8.8.8.8.8.8.8.8.",
"8.8.8.8.8.8.8.8.8.8.8.8.8.8.8.8.8.8.8.8.8.8.8.5 X o X X o X X X o O o X X X X a 8.3.0.8.8.8.8.8.8.8.8.8.8.8.8.8.8.8.8.8.8.8.8.8.",
"8.8.8.8.8.8.8.8.8.8.8.8.8.8.8.8.8.8.8.8.8.8.8.,                               y 9.3.&.8.8.8.8.8.8.8.8.8.8.8.8.8.8.8.8.8.8.8.8.8.",
"8.8.8.8.8.8.8.8.8.8.8.8.8.8.8.8.8.8.8.8.8.8.8.<                               u %.5.&.8.8.8.8.8.8.8.8.8.8.8.8.8.8.8.8.8.8.8.8.8.",
"8.8.8.8.8.8.8.8.8.8.8.8.8.8.8.8.8.8.7...x } x 9 7 7 7 7 7 7 7 7 7 7 7 7 7 7 7 g } +.| o.8.8.8.8.8.8.8.8.8.8.8.8.8.8.8.8.8.8.8.8.",
"8.8.8.8.8.8.8.8.8.8.8.8.8.8.8.8.8.8.O.5 O $ $ u.C.V.V.V.V.V.V.V.V.V.V.V.V.V.C.b $ O O a 8.8.8.8.8.8.8.8.8.8.8.8.8.8.8.8.8.8.8.8.",
"8.8.8.8.8.8.8.8.8.8.8.8.8.8.8.8.8.8.8.:       i.F.F.F.F.F.F.F.F.F.F.F.F.F.F.F.m       r 8.8.8.8.8.8.8.8.8.8.8.8.8.8.8.8.8.8.8.8.",
"8.8.8.8.8.8.8.8.8.8.8.8.8.8.8.8.8.8.7.>       i.F.F.F.F.F.F.F.F.F.F.F.F.F.F.F.m       i 8.8.8.8.8.8.8.8.8.8.8.8.8.8.8.8.8.8.8.8.",
"8.8.8.8.8.8.8.8.8.8.8.8.8.8.8.O.....} 2 # # # p.F.F.F.F.F.F.F.F.F.F.F.F.F.F.F.e.* ; ; a o.....O.8.8.8.8.8.8.8.8.8.8.8.8.8.8.8.8.",
"8.8.8.8.8.8.8.8.8.8.8.8.8.8.7.4 $ $ $ Z J J J l.F.F.F.F.F.F.F.F.F.F.F.F.F.F.F.C.n.n.n.m $ $ $ p 8.8.8.8.8.8.8.8.8.8.8.8.8.8.8.8.",
"8.8.8.8.8.8.8.8.8.8.8.8.8.8.O.=     . D P P P z.F.F.F.F.F.F.F.F.F.F.F.F.F.F.F.F.F.F.F.e.      8 8.8.8.8.8.8.8.8.8.8.8.8.8.8.8.8.",
"8.8.8.8.8.8.8.8.8.8.8.8.8.8.O.=     . A P P P z.F.F.F.F.F.F.F.F.F.F.F.F.F.F.F.F.F.F.F.w.      8 8.8.8.8.8.8.8.8.8.8.8.8.8.8.8.8.",
"8.8.8.8.8.8.8.8.8.8.8.O.O.O...- @ . # D P P P k.A.A.A.F.F.F.F.F.F.F.F.F.F.F.F.F.F.F.F.t.+ * * r O.O.O.O.8.8.8.8.8.8.8.8.8.8.8.8.",
"8.8.8.8.8.8.8.8.8.8.O.< % & = Z H H H L P P P U Y Y Y x.F.F.F.F.F.F.F.F.F.F.F.F.F.F.F.C.b.b.b.w.= & % i 8.8.8.8.8.8.8.8.8.8.8.8.",
"8.8.8.8.8.8.8.8.8.8.O.&     . F P P P P P P P P P P P j.F.F.F.F.F.F.F.F.F.F.F.F.F.F.F.F.F.F.F.t.      5 8.8.8.8.8.8.8.8.8.8.8.8.",
"8.0.9.8.8.8.8.8.8.8.O.&     . F P P P P P P P P P P P j.F.F.F.F.F.F.F.F.F.F.F.F.F.F.F.F.F.F.F.t.      6 8.8.8.8.8.8.8.8.8.8.8.0.",
"8.5.&.8.8.8.8.8.8.8.o.&     . G I I I I I I I P P P P h.F.D.D.F.F.F.F.F.F.F.F.F.F.F.F.F.D.D.F.r.      5 8.8.8.8.8.8.8.8.8.8.0.4.",
"8.3.&.8.8.8.8.8.8.8.o.&     + s.M.m.m.m.m.m.m.R P P P U R R T k.F.F.F.F.F.F.F.F.F.F.F.j.T T R S       6 8.8.8.8.8.8.8.8.>.1.%.4.",
"8.3.0.<.<.8.8.8.8.8.o.&     + v.F.F.F.F.F.F.F.^ P P P P P P P h.F.F.F.F.F.F.F.F.F.F.F.f.P P P B       6 8.8.8.8.8.8.8.8.<.1.0.4.",
"8.3.&.<.1.8.8.8.8.8.O.&     + v.F.F.F.F.F.F.F.^ P P P P P P P h.F.F.F.F.F.F.F.F.F.F.F.f.P P P B       5 8.8.8.8.8.8.8.8.<.2.8.&.",
"8.&.9.1.<.8.8.7.7.7.o.= X . + v.F.F.F.F.F.F.F./ P I P P I P P h.F.F.F.F.D.F.D.F.D.F.F.f.P P P B   . . 5 8.7.7.8.8.8.8.8.%.&.8.8.",
"8.8.8.&.&.8.o.6 > > 5 u.a.a.a.S.F.F.F.F.F.F.F.M.x.x.x.x.x.x.x.Z.F.F.F.g.~ ~ ~ ~ ~ ~ ~ U P P P K A A A w > > > p 8.8.8.8.8.8.8.8.",
"8.8.8.8.8.8...$     * b.F.F.F.F.F.F.F.F.F.F.F.F.F.F.F.F.F.F.F.F.F.F.F._ P P P P P P P P P P P P P P P C       < 8.8.8.8.8.8.8.8.",
"8.8.8.8.8.8...$     * b.F.F.F.F.F.F.F.F.F.F.F.F.F.F.F.F.F.F.F.F.F.F.F._ P P P P P P P P P P P P P P P V       4 8.8.8.8.8.8.8.8.",
"8.8.8.8.8.8...$     * b.F.F.F.F.F.F.F.F.F.F.F.F.F.F.F.F.F.F.F.F.F.F.F.` P P P P P P P P P P P P P P P C       4 8.8.8.8.8.8.8.8.",
"8.8.8.8.8.8...%     + b.F.F.F.F.F.F.F.F.F.F.F.F.F.F.F.F.F.F.F.g.^ / / U P P P P P P P ^ k.k.k.k.z.k.z.W       4 8.8.8.8.8.8.8.8.",
"8.8.8.8.8.8...$     * b.F.F.F.F.F.F.F.F.F.F.F.F.F.F.F.F.F.F.F.) P P P P P P P P P P P ' F.F.F.F.F.F.F.u.      4 8.8.8.8.8.8.8.8.",
"8.8.8.8.8.8...$     * b.F.F.F.F.F.F.F.F.F.F.F.F.F.F.F.F.F.F.F.) P P P P P P P P P P P ` F.F.F.F.F.F.F.u.      4 8.8.8.8.8.8.8.8.",
"8.8.8.8.8.8.o.$     % b.F.F.F.F.F.F.F.F.F.F.F.F.F.F.F.F.F.F.F.) P P P P P P P P P P P ` F.F.F.F.F.F.F.u.      4 7.8.8.8.8.8.8.8.",
"8.8.8.8.8.8...$     @ ! ) ) / ) ) ) ) N.F.F.F.F.F.F.F.F.F.F.F.m.h.h.h.h.h.h.j.h.h.j.h.M.F.F.F.F.F.F.F.u.      4 8.8.8.8.8.8.8.8.",
"8.8.8.8.8.8...$     @ H P P P P P P P x.F.F.F.F.F.F.F.F.F.F.F.F.F.F.F.F.F.F.F.F.F.F.F.F.F.F.F.F.F.F.F.u.      4 8.8.8.8.8.8.8.8.",
"%.0.8.8.8.8...%     . H P P P P P P I x.F.F.F.F.F.F.F.F.F.F.F.F.F.F.F.F.F.F.F.F.F.F.F.F.F.F.F.F.F.F.F.u.      4 8.8.8.8.8.8.8.8.",
"3.4.&.8.8.9.X.%     @ H P P P P P P P m.F.F.F.F.F.F.F.F.F.F.F.F.F.F.F.F.F.F.F.F.F.F.F.F.F.F.F.F.F.F.F.u.      4 8.8.8.8.8.8.8.8.",
"9.5.6.&.&.4.-.$     @ H P P P P P P P / ` _ ` N.F.F.F.F.F.F.F.F.F.F.F.F.F.F.F.F.F.F.F.F.F.F.F.F.F.F.F.u.      < 9.7.8.8.8.8.8.8.",
"8.9.3.3.4.5. .$     @ H P P P P P P P P P P P z.F.F.F.F.F.F.F.F.F.F.F.F.F.F.F.F.F.F.F.F.F.F.F.F.F.F.F.u.      3 5.9.7.9.8.8.8.8.",
"8.8. .,.,. .o.$     @ H P P P P P P P P P P P z.F.F.F.F.F.F.F.F.F.F.F.F.F.F.F.F.F.F.F.F.F.F.F.F.F.F.F.u.      5 4.5.0.0.3.<.8.8.",
"8.8.z ]  .o...$     @ H P P P P P P P P P P P z.F.F.F.F.F.F.F.F.F.F.F.F.F.F.F.F.F.F.F.F.F.F.F.F.F.F.F.u.      4 &.4.2.3.3.0.8.8.",
"8.8.o.x o.8.7.d p p t 0 q q M ( d.d.d.d.d.d.d.B.F.F.F.F.F.F.F.z.' ' ' ' ' ' ' ' ' ' ' x.F.F.F.v.m m m c t a i j 7.@.3.,.$.8.8.8.",
"8.8.8.8.8.8.8.8.8.8.O.&     X v.F.F.F.F.F.F.F.F.F.F.F.F.F.F.F.) P P P P P P P P P P P ` F.F.F.t.      5 8.8.8.8.8.z @. ...8.8.8.",
"8.8.8.8.8.8.8.8.8.8.O.&     + v.F.F.F.F.F.F.F.F.F.F.F.F.F.F.F.) P P P P P P P P P P P ` F.F.F.t.      6 8.8.8.8.8.x z 7.8.8.8.8.",
"8.8.8.8.8.8.8.8.8.8.o.%     + v.F.F.F.F.F.F.F.F.F.F.F.F.F.F.F.) P P P P P P P P P P P ' F.F.F.t.      5 8.8.8.8.8.8.8.8.8.8.8.8.",
"8.8.8.8.8.8.8.8.8.8.7.s r r i n e.e.t.V.F.F.F.F.F.F.F.F.F.F.F.k.` ` ` ` ` ` ` R P P P Q e.e.e.v r r r h 8.8.8.8.8.8.8.8.8.8.8.8.",
"8.8.8.8.8.8.8.8.8.8.8.8.8.8.7.&       a.F.F.F.F.F.F.F.F.F.F.F.F.F.F.F.F.F.F.F.' P P P M       8 8.8.8.8.8.8.8.8.8.8.8.8.8.8.8.8.",
"8.8.8.8.8.8.8.8.8.8.8.8.8.8.7.=     X a.F.F.F.F.F.F.F.F.F.F.F.F.F.F.F.F.F.F.F.' P P P N       8 8.8.8.8.8.8.8.8.8.8.8.8.8.8.8.8.",
"8.8.8.8.8.8.8.8.8.9.8.8.8.8.7.&     X c.F.F.F.F.F.F.F.F.F.F.F.F.F.F.F.F.F.F.F.d.P P P N       8 8.8.8.8.8.8.8.8.8.8.8.8.8.8.8.8.",
"8.8.8.8.8.8.8.8.8.8.8.8.8.8.7.a 6 6 8 q.y.y.y.y.y.y.y.y.y.y.y.y.y.y.y.y.y.y.y.E V V V e 8 6 5 h 8.8.8.8.8.8.8.8.8.8.8.8.8.8.8.8.",
"8.8.8.8.8.8.8.8.8.8.8.8.8.8.8.8.8.8.8.>                                               r 8.8.8.8.8.8.8.8.8.8.8.8.8.8.8.8.8.8.8.8.",
"8.8.8.8.8.8.8.8.8.8.8.8.8.8.8.8.8.8.8.>                                               r 8.8.8.8.8.8.8.8.8.8.8.8.8.8.8.8.8.8.8.8.",
"8.8.8.8.8.8.8.8.8.8.8.8.8.8.8.8.8.8.O.:                                               r 8.8.8.8.8.8.8.8.8.8.8.8.8.8.8.8.8.8.8.8.",
"8.8.8.8.8.8.8.8.8.8.8.8.8.8.8.8.8.8.7.p 1 4 4 5 5 4 5 5 5 5 5 5 5 5 4 5 4 5 4 5 5 5 5 f 8.8.8.8.8.8.8.8.8.8.8.8.8.8.8.8.8.8.8.8.",
"8.8.8.8.8.8.8.8.8.8.8.8.8.8.8.8.8.8.8.8.8.8.8.8.8.8.8.8.8.8.8.8.1.%.8.8.8.8.8.8.8.8.8.8.8.8.8.8.8.8.8.8.8.8.8.8.8.8.8.8.8.8.8.8.",
"8.8.8.8.8.8.8.8.8.8.8.8.8.8.8.8.8.8.8.8.8.8.8.8.8.8.8.8.8.8.8.9.3.5.%.8.8.8.8.8.8.8.8.8.8.8.8.8.8.8.8.8.8.8.8.8.8.8.8.8.8.8.8.8.",
"8.8.8.8.8.8.8.8.8.8.8.8.8.8.8.8.8.8.8.&.&.8.8.8.8.8.8.8.8.8.8.9.4.6.&.8.%.&.8.8.8.8.8.8.8.8.8.8.8.8.8.8.8.8.8.8.8.8.8.8.8.8.8.8.",
"8.8.8.8.8.8.8.8.8.8.8.8.8.8.8.8.8.8.8.1.1.8.8.8.8.8.8.8.8.8.8.8.<.4.$.$.5.5.8.8.8.8.8.8.8.8.8.8.8.8.8.8.8.8.8.8.8.8.8.8.8.8.8.8.",
"8.8.8.8.8.8.8.8.8.8.8.8.8.8.8.8.8.8.8.<.1.8.%.8.8.8.8.8.8.8.8.8.8.;.{ :.3.#.8.8.8.8.8.8.8.8.8.8.8.8.8.8.8.8.8.8.8.8.8.8.8.8.8.8.",
"8.8.8.8.8.8.8.8.8.8.8.8.8.8.8.8.8.8.8.<.<.&.3.8.8.8.8.8.8.8.8.8.8.x -.5.@.} 8.8.8.8.8.8.8.8.8.8.8.8.8.8.8.8.8.8.8.8.8.8.8.8.8.8.",
"8.8.8.8.8.8.8.8.8.8.8.8.8.8.8.8.8.8.8.1.<.&.5.8.8.8.8.8.8.8.8.8.8.8.z k } 8.8.8.8.8.8.8.8.8.8.8.8.8.8.8.8.8.8.8.8.8.8.8.8.8.8.8."
};
