/* XPM */
static char *result[] = {
/* columns rows colors chars-per-pixel */
"64 64 171 2 ",
"   c #000000",
".  c #0B0101",
"X  c #050906",
"o  c #0C0805",
"O  c #060808",
"+  c #0B0B0B",
"@  c #1B0000",
"#  c #130808",
"$  c #09120C",
"%  c #0C1710",
"&  c #0F1C13",
"*  c #191B1A",
"=  c #250000",
"-  c #2A0000",
";  c #310000",
":  c #3A0000",
">  c #361E14",
",  c #122217",
"<  c #142519",
"1  c #172B1D",
"2  c #192D1D",
"3  c #1D321F",
"4  c #2A2D1E",
"5  c #24361B",
"6  c #1B3222",
"7  c #1E3926",
"8  c #232323",
"9  c #252929",
"0  c #2A2A2A",
"q  c #243027",
"w  c #213E29",
"e  c #333333",
"r  c #3A3A3A",
"t  c #410000",
"y  c #4C0000",
"u  c #48140D",
"i  c #690000",
"p  c #4E2619",
"a  c #572727",
"s  c #693636",
"d  c #22412C",
"f  c #37532B",
"g  c #38542B",
"h  c #294E34",
"j  c #354B3C",
"k  c #2D563A",
"l  c #325E3F",
"z  c #456D3D",
"x  c #49703C",
"c  c #547738",
"v  c #3B5242",
"b  c #335F40",
"n  c #346343",
"m  c #376946",
"M  c #3A6D49",
"N  c #3C724C",
"B  c #3F7851",
"V  c #474747",
"C  c #424E43",
"Z  c #4C4C4C",
"A  c #48584D",
"S  c #525252",
"D  c #505B54",
"F  c #5B5B5B",
"G  c #7B5A5A",
"H  c #486842",
"J  c #48794A",
"K  c #4A6F55",
"L  c #407751",
"P  c #427C54",
"I  c #636363",
"U  c #696969",
"Y  c #7E6464",
"T  c #767878",
"R  c #7B7C7C",
"E  c #820202",
"W  c #8B0101",
"Q  c #940201",
"!  c #9B0000",
"~  c #9B0E0E",
"^  c #9B1313",
"/  c #A60000",
"(  c #A80707",
")  c #B30101",
"_  c #BB0100",
"`  c #B72828",
"'  c #C40101",
"]  c #CD0000",
"[  c #D00000",
"{  c #C31C1C",
"}  c #E10000",
"|  c #EC0000",
" . c #F50101",
".. c #FF0000",
"X. c #FF0D0D",
"o. c #FF1515",
"O. c #FF1D1D",
"+. c #EE2E2E",
"@. c #FF2424",
"#. c #FF3F3F",
"$. c #FF4040",
"%. c #FF4B4B",
"&. c #FF5252",
"*. c #FF6666",
"=. c #F66D6D",
"-. c #FF6B6B",
";. c #FF7373",
":. c #458157",
">. c #4C8453",
",. c #4D8855",
"<. c #47865B",
"1. c #498B5D",
"2. c #538A52",
"3. c #5B9152",
"4. c #5F9957",
"5. c #54925B",
"6. c #56985F",
"7. c #5B9C5E",
"8. c #608B44",
"9. c #659B54",
"0. c #609F5D",
"q. c #6CA152",
"w. c #64A25B",
"e. c #6AA55A",
"r. c #6EA858",
"t. c #75AC56",
"y. c #79AF55",
"u. c #71AA58",
"i. c #7BB155",
"p. c #4B8F60",
"a. c #4D9262",
"s. c #529561",
"d. c #569860",
"f. c #828282",
"g. c #8D8E8D",
"h. c #908D88",
"j. c #959695",
"k. c #9C9C9C",
"l. c #A78D8D",
"z. c #8DB99B",
"x. c #A5A5A5",
"c. c #A7A9A9",
"v. c #ACACAC",
"b. c #B8B6B6",
"n. c #BBBBBB",
"m. c #D59090",
"M. c #FF8484",
"N. c #FF8D8D",
"B. c #FF9494",
"V. c #FF9B9B",
"C. c #C3B2B2",
"Z. c #FFA4A4",
"A. c #FFADAD",
"S. c #FFB3B3",
"D. c #9EC3A9",
"F. c #A1C6AC",
"G. c #C2C3C3",
"H. c #CDCDCD",
"J. c #D2D2D2",
"K. c gray87",
"L. c #FFCACA",
"P. c #FFD3D3",
"I. c #FFDBDB",
"U. c #D6E6DB",
"Y. c #E1E1E1",
"T. c #ECECEC",
"R. c #FFE2E2",
"E. c #FFEAEA",
"W. c #F4F4F4",
"Q. c #FFF2F2",
"!. c #FFFFFF",
/* pixels */
"a.a.a.a.a.a.a.a.a.a.a.a.a.a.a.a.a.a.a.a.a.1.P 1.L 1.a.a.a.a.a.a.a.a.a.a.a.a.a.a.a.a.a.a.a.a.a.a.a.a.a.a.a.a.a.a.a.a.a.a.a.a.a.a.",
"a.a.a.a.a.a.a.a.a.a.a.a.a.a.a.a.a.a.a.a.a.a.<.P 1.a.a.a.a.a.a.a.a.a.a.a.a.a.a.a.a.a.a.a.a.a.a.a.a.a.a.a.a.a.a.a.a.a.a.a.a.a.a.a.",
"a.a.a.a.a.a.a.a.a.a.a.a.a.a.a.a.a.a.a.a.a.a.p.1.a.a.a.a.a.a.a.a.a.a.a.a.a.a.a.a.a.a.a.a.a.a.a.a.a.a.a.a.a.a.a.a.a.a.a.a.a.a.a.a.",
"a.a.a.a.a.a.a.a.a.a.a.a.a.a.a.a.a.a.a.a.a.a.a.a.a.a.a.a.a.a.a.a.a.a.a.a.a.a.a.a.a.a.a.a.a.a.a.a.a.a.a.a.a.a.a.a.a.a.a.a.a.a.a.a.",
"a.a.a.a.a.a.a.a.a.a.a.a.a.a.a.a.a.a.a.a.a.a.a.a.a.a.a.a.6.7.a.a.a.a.a.a.a.a.a.a.a.a.a.a.a.a.a.a.a.a.a.a.a.a.a.a.a.a.a.a.a.a.a.a.",
"a.a.a.a.a.a.a.a.a.a.a.a.a.a.a.a.a.a.a.a.a.a.a.a.a.a.a.s.e.r.a.a.a.a.a.a.a.a.a.a.a.a.a.a.a.a.a.a.a.a.a.a.a.a.a.a.a.a.a.a.a.a.a.a.",
"a.a.a.a.a.a.a.a.a.a.a.a.a.a.a.a.a.a.a.a.a.a.a.a.6.N b z c x n n n n n n n n n n n P a.a.a.a.a.a.a.a.a.a.a.a.a.a.a.a.a.a.a.s.a.a.",
"a.a.a.a.a.a.a.a.a.a.a.a.a.a.a.a.a.a.a.a.a.a.a.s.u.3                               g 7.a.a.a.a.a.a.a.a.a.a.a.a.a.a.a.a.a.a.a.a.a.",
"a.a.a.a.a.a.a.a.a.a.a.a.a.a.a.a.a.a.a.a.a.a.a.s.t.5                               f 7.a.a.a.a.a.a.a.a.a.a.a.a.a.a.a.a.a.a.a.a.a.",
"a.a.a.a.a.a.a.a.a.a.a.a.a.a.a.a.a.a.a.a.a.a.a.a.>.5                       O       g 7.a.a.a.a.a.a.a.a.a.a.a.a.a.a.a.a.a.a.a.a.a.",
"a.a.a.a.a.a.a.a.a.a.a.a.a.a.a.a.a.a.a.a.a.N m m n C V V V V V V V V V V V V V V V H J n m P a.a.a.a.a.a.a.a.a.a.a.a.a.a.a.a.a.a.",
"a.a.a.a.a.a.a.a.a.a.a.a.a.a.a.a.a.a.a.a.a.1       v.!.!.W.!.!.W.!.!.!.W.W.!.!.W.!.f.      d a.a.a.a.a.a.a.a.a.a.a.a.a.a.a.a.a.a.",
"a.a.a.a.a.a.a.a.a.a.a.a.a.a.a.a.a.a.a.a.a.<       v.!.!.!.!.!.!.!.!.!.!.!.!.!.!.!.f.      d a.a.a.a.a.a.a.a.a.a.a.a.a.a.a.a.a.a.",
"a.a.a.a.a.a.a.a.a.a.a.a.a.a.a.a.a.a.a.a.a.1       v.!.!.!.!.!.!.!.!.!.!.!.!.!.!.!.f.      d a.a.a.a.a.a.a.a.a.a.a.a.a.a.a.a.a.a.",
"a.a.a.a.a.a.a.a.a.a.a.a.a.a.a.a.a.B N N M > : : : b.!.!.!.!.!.!.!.!.!.!.!.!.!.!.!.x.r r r v N N N :.a.a.a.a.a.a.a.a.a.a.a.a.a.a.",
"a.a.a.a.a.a.a.a.a.a.a.s.a.a.a.a.1.1     o ) .. ...A.!.!.!.!.!.!.!.!.!.!.!.!.!.!.!.W.W.W.!.g.      w a.a.a.a.a.a.a.a.a.a.a.a.a.a.",
"a.a.a.a.a.a.a.a.a.a.a.a.a.a.a.a.1.<       _ ......A.!.!.!.!.!.!.!.!.!.!.!.!.!.!.!.!.!.!.!.g.      7 a.a.a.a.a.a.a.a.a.a.a.a.a.a.",
"a.a.a.a.a.a.a.a.a.a.a.a.a.a.a.a.a.,       _ ......S.!.!.!.!.!.!.!.!.!.!.!.!.!.!.!.!.!.!.!.g.      7 a.a.a.a.a.a.a.a.a.a.a.a.a.a.",
"a.a.a.a.a.a.a.a.a.a.a.a.a.P B N N > - - ; ' ......N.P.P.P.E.!.!.!.!.!.!.!.!.!.!.!.!.!.!.!.x.0 e e j B B N :.a.a.a.a.a.a.a.a.a.a.",
"a.a.a.a.a.a.a.a.a.a.a.a.1., X X o _  . . .........X.X.X.X.Z.!.!.!.!.!.!.!.!.!.!.!.!.!.!.!.W.T.W.W.j.X X X 7 a.a.a.a.a.a.a.a.a.a.",
"a.a.a.a.a.a.a.a.a.a.a.a.1.&       ' ......................Z.!.!.!.!.!.!.!.!.!.!.!.!.!.!.!.!.!.!.!.k.      6 a.a.a.a.a.a.a.a.a.a.",
"a.a.a.a.a.a.a.a.a.a.a.a.1.&     . ' ......................Z.!.!.!.!.!.!.!.!.!.!.!.!.!.!.!.!.!.!.!.k.      6 a.a.a.a.a.a.a.a.a.a.",
"a.d.d.a.a.a.a.a.a.a.a.a.1.&     . { @.@.@.@.@.@.@.X.......N.I.I.I.Q.!.!.!.!.!.!.!.!.!.!.!.E.I.I.I.h.      6 a.a.a.a.a.a.a.a.s.s.",
"a.u.d.a.a.a.a.a.a.a.a.a.1.&     O C.E.E.E.E.E.E.E.%.......X.O.o.o.V.!.!.!.!.!.!.!.!.!.!.!.V.o.O.O.~       6 a.a.a.a.a.a.a.s.s.y.",
"a.u.7.a.a.a.a.a.a.a.a.a.1.&     O G.!.!.!.!.!.!.!.&...............B.!.!.!.!.!.!.!.!.!.!.!.N.......!       6 a.a.a.a.a.a.7.e.6.t.",
"a.t.d.w.w.a.a.a.a.a.a.a.1.&     O G.!.!.!.!.!.!.!.&...............B.!.!.!.!.!.!.!.!.!.!.!.N.......!       6 a.a.a.a.a.a.w.r.6.i.",
"a.t.7.e.e.a.a.a.p.<.:.:.P q * * 8 H.!.!.!.!.!.!.!.*.o.O.O.O.O.O.O.Z.!.!.!.E.R.E.R.E.R.E.E.;......./ @ @ @ 4 <.:.:.<.a.a.0.r.a.7.",
"a.7.s.e.e.a.a.a.<.< $ $ * b.Y.Y.Y.W.!.!.!.!.!.!.!.E.I.R.R.I.R.I.I.Q.!.!.!.M.O.O.@.O.O.O.O.o....... .} } } Q $ $ + 7 a.a.6.7.a.a.",
"a.a.a.7.7.a.a.a.<.%     + J.!.!.!.!.!.!.!.!.!.!.!.!.!.!.!.!.!.!.!.!.!.!.!.;.............................../       1 a.a.a.a.a.a.",
"a.a.a.a.a.a.a.a.<.%     + H.!.!.!.!.!.!.!.!.!.!.!.!.!.!.!.!.!.!.!.!.!.!.!.;.............................../       2 p.a.a.a.a.a.",
"a.a.a.a.a.a.a.a.<.%     + n.T.T.T.W.!.!.!.W.T.T.T.W.!.!.!.W.T.T.T.T.T.T.W.=....... .| | | | | | |  .o.o.o.(       2 p.a.a.a.a.a.",
"a.a.a.a.a.a.a.a.<.%     O 8 0 0 0 J.!.!.!.I 8 9 0 n.!.!.!.T 8 9 9 0 9 9 9 ^ ......Q = - = - - = = G I.P.I.l.      2 p.a.a.a.a.a.",
"a.a.a.a.a.a.a.a.<.%             O G.!.!.!.V       v.!.!.!.F               W ......E               I !.!.!.c.      2 1.a.a.a.a.a.",
"a.a.a.a.a.a.a.a.<.%             O G.!.!.W.V       v.!.!.!.F               W ......E               I !.!.!.c.      1 a.a.a.a.a.a.",
"a.a.a.a.a.a.a.a.<.&       . . . # n.W.W.W.Z O + + v.W.W.W.I O + + + + + % E  . . .E + + + + + + O U !.!.!.c.      1 a.a.a.a.a.a.",
"a.a.a.a.a.a.a.a.<.$     . / ] ] ] a e e e x.H.H.H.I 0 e e j.H.H.H.H.H.H.H.G ; ; ; Y H.H.H.H.H.H.H.Y.!.!.!.c.      2 a.a.a.a.a.a.",
"a.a.a.a.a.a.a.a.<.%     . [ ......:       n.!.!.!.Z       x.!.!.!.!.!.!.!.T       R !.!.!.!.!.!.!.!.!.!.!.c.      2 a.a.a.a.a.a.",
"a.a.a.a.a.a.a.a.1.%     . ] .... .:       n.!.!.!.S       k.!.!.!.!.!.!.!.T       R !.!.!.!.!.!.!.!.!.!.!.c.      1 a.a.a.a.a.a.",
"6.6.a.a.a.a.a.a.<.%     . ] ......t     . b.!.!.Q.F   O O c.!.!.!.!.!.!.!.R   O O f.!.!.!.!.!.!.!.!.!.!.!.c.      2 a.a.a.a.a.a.",
"t.i.7.a.a.s.s.a.<.%     . ] ......] ' ' _ +.#.$.$.m.G.G.n.T.!.!.!.!.!.!.!.K.n.G.C.K.!.!.!.!.!.!.!.!.!.!.!.c.      1 a.a.a.a.a.a.",
"s.u.i.0.d.i.r.a.<.%     . ] ......................S.!.!.!.!.!.!.!.!.!.!.!.!.!.!.!.!.!.!.!.!.!.!.!.!.!.!.!.x.      2 a.a.a.a.a.a.",
"a.6.r.y.i.u.d.a.1.$     . ] ......................A.!.!.!.!.!.!.!.!.!.!.!.!.!.!.!.!.!.!.!.!.!.!.!.!.!.!.!.c.      2 p.a.a.a.a.a.",
"a.a.,.q.q.,.a.a.<.&     . [ ......................A.!.!.!.!.!.!.!.!.!.!.!.!.!.!.!.!.!.!.!.!.!.!.!.!.!.!.!.c.      3 6.7.r.w.a.a.",
"a.a.B J ,.<.a.a.p.M m n n u y y y m.S.S.S.S.S.S.S.E.!.!.!.!.!.!.!.B.%.%.%.%.%.%.%.%.%.%.%.V.!.!.!.b.Z Z V A m n H 8.r.t.t.7.a.a.",
"a.a.<.P p.a.a.a.a.a.a.a.1.&     O G.!.!.!.!.!.!.!.!.!.!.!.!.!.!.!.*.......................;.!.!.!.k.      6 a.a.a.3.t.q.5.a.a.a.",
"a.a.a.a.a.p.a.a.a.a.a.a.1.&     O G.!.!.!.!.!.!.!.!.!.!.!.!.!.!.!.-.......................;.!.!.!.k.      6 a.a.a.B 3.2.:.a.a.a.",
"a.a.a.a.a.a.a.a.a.a.a.a.1.&     O G.!.!.!.!.!.!.!.!.!.!.!.!.!.!.!.-.......................;.!.!.!.k.      6 a.a.a.P B <.a.a.a.a.",
"a.a.a.a.a.a.a.a.a.a.a.a.a.m b b n D F F F J.!.!.!.!.!.!.!.!.!.!.!.L.Z.Z.Z.Z.Z.Z.Z.&.......` F F F A b l l N a.a.a.a.a.a.a.a.a.a.",
"a.a.a.a.a.a.a.a.a.a.a.a.a.a.a.a.a.,       b.!.!.!.!.!.!.!.!.!.!.!.!.!.!.!.!.!.!.!.M.......W       7 a.a.a.a.a.a.a.a.a.a.a.a.a.a.",
"a.a.a.a.a.a.a.a.a.a.a.a.a.a.a.a.1.,       n.!.!.!.!.!.!.!.!.!.!.!.!.!.!.!.!.!.!.!.M.......W       7 a.a.a.a.a.a.a.a.a.a.a.a.a.a.",
"a.a.a.a.a.a.a.a.a.a.a.a.a.a.a.a.p.,       n.!.!.!.!.!.!.!.!.!.!.!.!.!.!.!.!.!.!.!.M.......Q       7 a.a.a.a.a.a.a.a.a.a.a.a.a.a.",
"a.a.a.a.a.a.a.a.a.a.a.a.a.a.a.a.a.g.j.j.j.T U U U U U U U U U U U U U U U U U U U s i i i p k k k M a.a.a.a.a.a.a.a.a.a.a.a.a.a.",
"a.a.a.a.a.a.a.a.a.a.a.a.a.a.a.a.s.U.!.!.!.V                                               d a.a.a.a.a.a.a.a.a.a.a.a.a.a.a.a.a.a.",
"a.a.a.a.a.a.a.a.a.a.a.a.a.a.a.a.s.U.!.!.W.V                                               d a.a.a.a.a.a.a.a.a.a.a.a.a.a.a.a.a.a.",
"a.a.a.a.a.a.a.a.a.a.a.a.a.a.a.a.s.U.!.!.!.V                                               d a.a.a.a.a.a.a.a.a.a.a.a.a.a.a.a.a.a.",
"a.a.a.a.a.a.a.a.a.a.a.a.a.a.a.a.s.z.F.F.D.K h h h h h h h h h h h h h h h h h h h h h h h M a.a.a.a.a.a.a.a.a.a.a.a.a.a.a.a.a.a.",
"a.a.a.a.a.a.a.a.a.a.a.a.a.a.a.a.a.a.a.a.a.a.a.a.a.a.a.a.a.a.a.a.a.a.a.a.a.a.a.a.a.a.a.a.a.a.a.a.a.a.a.a.a.a.a.a.a.a.s.a.a.a.a.a.",
"a.a.a.a.a.a.a.a.a.a.a.a.a.a.a.a.a.a.a.a.a.a.a.a.a.a.a.a.a.a.a.s.r.s.a.a.a.a.a.a.a.a.a.a.a.a.a.a.a.a.a.a.a.a.a.a.a.a.a.a.a.a.a.a.",
"a.a.a.a.a.a.a.a.a.a.a.a.a.a.a.a.a.a.a.a.a.a.a.a.a.a.a.a.a.a.a.a.t.u.6.a.a.a.a.a.a.a.a.a.a.a.a.a.a.a.a.a.a.a.a.a.a.a.a.a.a.a.a.a.",
"a.a.a.a.a.a.a.a.a.a.a.a.a.a.a.a.a.a.a.d.7.a.a.a.a.a.a.a.a.a.a.s.i.i.7.a.6.7.a.a.a.a.a.a.a.a.a.a.a.a.a.a.a.a.a.a.a.a.a.a.a.a.a.a.",
"a.a.a.a.a.a.a.a.a.a.a.a.a.a.a.a.a.a.a.e.e.a.a.a.a.a.a.a.a.a.a.s.w.y.3.5.u.u.a.a.a.a.a.a.a.a.a.a.a.a.a.a.a.a.a.a.a.a.a.a.a.a.a.a.",
"a.a.a.a.a.a.a.a.a.a.a.a.a.a.a.a.a.a.p.w.e.a.7.a.a.a.a.a.a.a.a.a.a.9.2.9.t.4.a.a.a.a.a.a.a.a.a.a.a.a.a.a.a.a.a.a.a.a.a.a.a.a.a.a.",
"a.a.a.a.a.a.a.a.a.a.a.a.a.a.a.a.a.a.a.e.w.7.u.a.a.a.a.a.a.a.a.a.a.P 9.u.3.P a.a.a.a.a.a.a.a.a.a.a.a.a.a.a.a.a.a.a.a.a.a.a.a.a.a.",
"a.a.a.a.a.a.a.a.a.a.s.a.a.a.a.a.a.a.a.e.w.7.t.a.a.a.a.a.a.a.a.a.a.a.P N :.a.a.a.a.a.a.a.a.a.a.a.a.a.a.a.a.a.a.a.a.a.a.a.a.a.a.a."
};
