/* XPM */
static char *result[] = {
/* columns rows colors chars-per-pixel */
"64 64 242 2 ",
"   c #020201",
".  c #0B0500",
"X  c #0C0A04",
"o  c #060C0A",
"O  c #0B0D0C",
"+  c #140B02",
"@  c #1B0E02",
"#  c #110F0D",
"$  c #0B130D",
"%  c #151305",
"&  c #1C1205",
"*  c #16170B",
"=  c #0E1312",
"-  c #0E1911",
";  c #141413",
":  c #151B15",
">  c #1B1C1C",
",  c #231404",
"<  c #2A1603",
"1  c #291A07",
"2  c #22170E",
"3  c #321A04",
"4  c #3A1E06",
"5  c #142519",
"6  c #192D1E",
"7  c #37260A",
"8  c #31240F",
"9  c #3C230A",
"0  c #3B350C",
"q  c #222A17",
"w  c #2B341C",
"e  c #34361B",
"r  c #1E1F20",
"t  c #1C3423",
"y  c #1E3926",
"u  c #1F3A2A",
"i  c #222323",
"p  c #272B29",
"a  c #273A27",
"s  c #213E2A",
"d  c #34312C",
"f  c #353736",
"g  c #3C3C3C",
"h  c #462607",
"j  c #4C2B0A",
"k  c #572F06",
"l  c #522D0A",
"z  c #47380C",
"x  c #58360C",
"c  c #4C3011",
"v  c #5B3B14",
"b  c #633508",
"n  c #6C3C0C",
"m  c #713D0A",
"M  c #693D14",
"N  c #433A21",
"B  c #4A3C30",
"V  c #24432D",
"C  c #2C442A",
"Z  c #284531",
"A  c #284C33",
"S  c #3A4732",
"D  c #2B5137",
"F  c #2D5439",
"G  c #2F593C",
"H  c #31593C",
"J  c #57440F",
"K  c #4E4B15",
"L  c #584E13",
"P  c #6A430D",
"I  c #77440E",
"U  c #664815",
"Y  c #734311",
"T  c #794B14",
"R  c #685614",
"E  c #755614",
"W  c #776717",
"Q  c #514B2B",
"!  c #6D532A",
"~  c #476834",
"^  c #3C3F43",
"/  c #3E4A42",
"(  c #345B42",
")  c #346342",
"_  c #396645",
"`  c #396A47",
"'  c #396C49",
"]  c #3D734D",
"[  c #3F7750",
"{  c #464545",
"}  c #494B4B",
"|  c #4B574D",
" . c #505B4E",
".. c #525353",
"X. c #555B57",
"o. c #5B5C5B",
"O. c #4C7F4E",
"+. c #496953",
"@. c #55675A",
"#. c #427C54",
"$. c #4B7758",
"%. c #537B5D",
"&. c #6D6053",
"*. c #5F6161",
"=. c #597762",
"-. c #636364",
";. c #646B67",
":. c #6B6C6C",
">. c #6B7269",
",. c #747575",
"<. c #747A76",
"1. c #7A7B7B",
"2. c #83480E",
"3. c #954F0F",
"4. c #884C13",
"5. c #895515",
"6. c #9A5612",
"7. c #975915",
"8. c #A55C15",
"9. c #AA5F17",
"0. c #856919",
"q. c #956619",
"w. c #8E731E",
"e. c #9B791E",
"r. c #A86817",
"t. c #B66818",
"y. c #BC6B19",
"u. c #AA771C",
"i. c #B9761D",
"p. c #945B21",
"a. c #907622",
"s. c #B77028",
"d. c #C46D19",
"f. c #C8751C",
"g. c #D3791E",
"h. c #C77526",
"j. c #8F6B49",
"k. c #51854F",
"l. c #448156",
"z. c #4C8554",
"x. c #4D8855",
"c. c #46865A",
"v. c #4D835D",
"b. c #4A8B5D",
"n. c #548B54",
"m. c #589459",
"M. c #5B9B5E",
"N. c #659B55",
"B. c #6DA153",
"V. c #65A25B",
"C. c #6AA55A",
"Z. c #6EA859",
"A. c #72A754",
"S. c #74AC56",
"D. c #79AF55",
"F. c #71AA58",
"G. c #7BB155",
"H. c #4F8660",
"J. c #4C8F60",
"K. c #538462",
"L. c #4D9262",
"P. c #539661",
"I. c #559767",
"U. c #71947B",
"Y. c #93891C",
"T. c #B5851D",
"R. c #998630",
"E. c #A78521",
"W. c #B58E24",
"Q. c #B6A722",
"!. c #C88B1D",
"~. c #C88B21",
"^. c #D88821",
"/. c #C99A26",
"(. c #DB9A25",
"). c #EB8722",
"_. c #E48C22",
"`. c #F98F24",
"'. c #E99825",
"]. c #F29A26",
"[. c #CAA628",
"{. c #D5A829",
"}. c #D8B729",
"|. c #E5A929",
" X c #F8AA2A",
".X c #E6BB2C",
"XX c #FCB52B",
"oX c #F3B82B",
"OX c #FDBB2D",
"+X c #FCBF30",
"@X c #D8C62B",
"#X c #DFD12D",
"$X c #E7C62C",
"%X c #FDC32D",
"&X c #FBCB2D",
"*X c #E8D62D",
"=X c #FAD62E",
"-X c #F9C532",
";X c #FFCC32",
":X c #FFD333",
">X c #F5DC32",
",X c #FEDC32",
"<X c #FCE82E",
"1X c #FFF72F",
"2X c #F4E330",
"3X c #FEE433",
"4X c #FFED33",
"5X c #FFEF38",
"6X c #FFF234",
"7X c #FFF935",
"8X c #938679",
"9X c #A1956D",
"0X c #E2AF61",
"qX c #FFF142",
"wX c #FFED56",
"eX c #F1DB63",
"rX c #76A685",
"tX c #838383",
"yX c #8B8B8B",
"uX c #8F9190",
"iX c #949494",
"pX c #979899",
"aX c #9B9B9B",
"sX c #A49387",
"dX c #92AE9A",
"fX c #9BAFA0",
"gX c #A4A5A4",
"hX c #A7ABA8",
"jX c #ABABAB",
"kX c #A0B4A6",
"lX c #B7B7B7",
"zX c #E2B28B",
"xX c #B2CEBB",
"cX c #F5D18D",
"vX c #EAE0A6",
"bX c #FDF5AC",
"nX c #CBCBCB",
"mX c #C7D8CC",
"MX c #DADADA",
"NX c #F4ECD4",
"BX c #E9E9E9",
"VX c #F3F1F3",
/* pixels */
"L.L.L.L.L.L.L.L.L.L.L.L.L.L.L.L.L.L.L.L.L.b.[ J.[ b.L.L.L.L.L.L.L.L.L.L.L.L.L.L.L.L.L.L.L.L.L.L.L.L.L.L.L.L.L.L.L.L.L.L.L.L.L.L.",
"L.L.L.L.L.L.L.L.L.L.L.L.L.L.L.L.L.L.L.L.L.L.b.#.b.L.L.L.L.L.L.L.L.L.L.L.L.L.L.L.L.L.L.L.L.L.L.L.L.L.L.L.L.L.L.L.L.L.L.L.L.L.L.L.",
"L.L.L.L.L.L.L.L.L.L.L.L.L.L.L.L.L.L.L.L.L.L.L.b.L.L.L.L.L.L.L.L.L.L.L.L.L.L.L.L.L.L.L.L.L.L.L.L.L.L.L.L.L.L.L.L.L.L.L.L.L.L.L.L.",
"L.L.L.L.L.L.L.L.L.L.L.L.L.L.L.L.L.L.L.L.L.L.L.L.L.L.L.L.L.L.L.L.L.L.L.L.L.L.L.L.L.L.L.L.L.L.L.L.L.L.L.L.L.L.L.L.L.L.L.L.L.L.L.L.",
"L.L.L.L.L.L.L.L.L.L.L.L.L.L.L.L.L.L.L.L.L.L.L.L.L.L.L.L.P.M.L.L.L.L.L.L.L.L.L.L.L.L.L.L.L.L.L.L.L.L.L.L.L.L.L.L.L.L.L.L.L.L.L.L.",
"L.L.L.L.L.L.L.L.L.L.L.L.L.L.L.L.L.L.L.L.L.L.L.L.L.L.L.P.C.Z.L.L.L.L.L.L.L.L.L.L.L.L.L.L.L.L.L.L.b.] ) ( ) ) l.L.L.L.L.L.L.L.L.L.",
"L.L.L.L.L.L.L.L.L.L.L.L.L.L.L.L.L.L.L.L.L.L.L.L.P.L.L.V.G.Z.L.L.L.L.L.L.L.L.L.L.L.I.L.L.L.L.L.L.#.t $ $ O $ G b.L.L.L.L.L.L.L.L.",
"L.L.L.L.L.L.L.L.L.L.L.L.L.L.L.L.L.L.L.L.L.L.L.L.S.M.J.V.G.Z.L.L.L.L.L.L.L.L.L.L.L.F.I.K.$.$.+.( C 7 x R E n Q V A ) b.L.L.L.L.L.",
"L.L.L.L.L.L.L.L.L.L.L.L.L.L.L.L.L.L.L.L.L.L.L.P.S.D.k.N.C.L.L.L.L.L.L.L.L.L.L.L.L.F.I.v.*.*.o.p & m i..XoX^.Y % X 6 ] L.L.L.L.L.",
"L.L.L.L.L.L.L.L.L.L.L.L.L.L.L.L.L.L.L.L.L.L.L.J.z.A.S.n.c.L.L.L.L.L.L.L.L.L.P.Z.P.B.%.>.tXjXjX} & 3.'.:X3X&X/.e.q.T w ) b.L.L.L.",
"L.L.L.L.L.L.L.L.L.L.L.L.L.L.L.L.L.L.L.L.L.L.L.L.c.k.x.z.b.L.L.L.L.L.L.L.L.L.m.S.I.B.@.>.pXnXMXo., t.XX3X6X4X,XXX_.8.h w ] b.L.L.",
"L.L.L.L.L.L.L.L.L.L.L.L.L.L.L.L.L.L.L.L.L.L.L.L.L.c.l.J.P.L.L.L.L.L.L.L.L.L.P.S.P.N.n.%.:.aXlX} 1 T.;X3X6X4X%X_.6.2.8.Y 6 ) L.L.",
"L.L.L.L.L.L.L.L.L.L.L.L.L.L.L.L.L.L.L.L.L.L.L.L.L.L.L.L.L.L.L.L.L.L.L.L.L.L.P.V.L.J.L.H.+.;.:.B z [.3X<X6X4X&X^.k x 0Xj.+ A b.P.",
"L.L.L.L.L.L.L.L.L.L.L.L.L.L.L.L.L.L.L.L.L.L.L.L.L.L.L.L.L.L.L.L.L.L.L.L.L.L.L.L.P.J.L.L.J.( r l q.$X4X4X4X4X4X@Xx B nXsX: A J.L.",
"L.L.L.L.L.L.L.L.L.L.L.L.L.L.L.L.J.L.L.L.L.L.L.L.L.L.L.L.L.[ G D F +.%.=.H.J.J.L.J.J.%.$.$.u   m !.=X6X6X4X6X7X*XY.R.vX9X; A L.L.",
"L.L.L.L.L.L.L.L.L.L.L.L.L.L.L.L.J.J.I.I.I.L.L.L.L.L.L.L.b.G * . : g ..| +.v.#.J.L.K.*.*.o.d # 4.'.=X6X4X4X6X6X4X2X2X-Xa.* D J.L.",
"L.L.L.L.L.L.L.L.L.L.L.L.L.L.L._ Z =.fXxXdXI.L.L.L.L.L.#.A w k m Y B i > a | =.#.%.*.rXaXlX:.7 3.`.:X4X4X4X4X6X4X4X.X0.K H #.b.L.",
"L.L.L.L.L.L.L.L.L.L.L.L.L.L.L.G 5 o.aXMXmXrXI.L.L.L.L.' - 7 6.g.d.h   r ^ | +.] +.-.yXlXMX9Xb r. X=X6X6X4X6X6X<X:XW.1 s b.L.L.L.",
"L.L.L.L.L.L.L.L.L.L.L.L.L.P.J.c._ Z { ,.hXmXkXL.L.L.L.' $ l d.g.8.< p pXaX*.f t ( =.>.1.yXj.5.!.=X4X4X6X6X4X6X<XOXi., t b.L.L.L.",
"L.L.L.L.L.L.L.L.L.L.L.L.L.J.K.K.$.s ; p *.kXkXrXI.L.L.' - J '.(.r.j B aXpX} > o D ' ^ f f ! t..X6X4X4X<X<X4X6X>X~.5.w D b.L.L.L.",
"L.L.L.L.L.L.L.L.L.L.L.L.L.v.@.@.X...B > = p *.pXU.L.L.' - R *X3X$Xu.M e r O     = = = o # M ^.%X4X6X<X=X,X4X6X$XR q ` c.L.L.L.L.",
"L.L.L.L.L.L.L.L.L.L.L.L.L.b.@./ g -.,...f r g *.| ) J.] $ U .X6X4X.Xu.n h 4 @     O f f 9 4. X&X4X6X,XOXeXeXeX|.J * A ] b.L.L.L.",
"L.P.P.L.L.L.L.L.L.L.L.L.L.L.b.Z ; *.aXaXtX*.d = o - ` ` - x ^.oX2X2X$X'.f.6.l X   > ,.8Xp.!.-X3X4X6X&X'.cXNXcXg.m < X V c.L.L.P.",
"L.F.M.L.L.L.L.L.L.L.L.L.L.L.L.F   p ......! U h + o 6 A D Q b E W W Y..X%X{.u.m @ o f j.i.|.,X4X6X6X}.E 9XVXzX9.b 3 . y c.P.P.D.",
"L.F.M.L.L.L.L.L.L.L.L.L.L.b.l.Z = ; ; O 9 4.8.3.l @ + q ' G - o   . z Q.2X3X&X^.P % o j g.OX3X6X6X6XQ.1 ;.NX0X6.b 3 . y m.C.m.S.",
"P.F.M.V.M.L.L.L.L.L.L.L.L.] y p ^ -.:.} B 5.y.g.y.6.I c w A ) 6   9 x J Y.2X4X&X[.W % 9 g.OX<X1X4X<XQ.& ~ eX0Xd.m 3 . t m.Z.M.D.",
"L.F.M.C.C.L.L.L.L.L.L.L.L.' 6 i { :.1...Q 3.d.).`.).d.n % 6 _ y + I 4.@ K *X7X5XwX0XR P f.oX<X7X2X}.w.7 0.=X&X^.m < 5 D m.C.L.M.",
"L.M.P.C.C.L.L.L.L.L.L.L.L.b.[ Z ; > r ; 9 4.d.).`.).y.n + o - O & 6.t., L *X1XqXbXNX#X/.r.(.<X1X#XR h P T.2X5X}.x - H c.m.M.L.L.",
"L.L.L.M.M.L.L.L.L.L.L.L.L.L.L.' s u 6 o 1 4.y.f.t.3.n l h 9 4 . @ u.W.1 K .X<X5XbXbXqX*X/.}.4X7X@X0 & r..X3X6X@XK 5 #.L.L.L.L.L.",
"L.L.L.L.L.L.L.L.L.L.L.L.L.L.J.v.c.$.' - 3 I 8.3.j + X 3 I 4.2.3 1 W./.7 j ^.%X3X5XqX7X4X>X<X4X7X@X0 0 [.,X4X3X}.z 5 [ L.L.L.L.L.",
"L.L.L.L.L.L.L.L.L.L.L.P.=.%.$.%.$.( u $ . 4 k 4 +   3 l l j j h v /..Xe.E Y u.oX<X<X4X4X1X4X4X6X$XE E $X6X4X;X(.j 5 [ L.L.L.L.L.",
"L.L.L.L.L.L.L.L.L.L.J.#. ...o.*.o.f > : ; ; # X   + M b @   @ b r.|.;X;XE.7 2.'.&X6X4X1X4X4X4X6X*XT.T.>X7X2X Xi.7 6 #.L.L.L.L.L.",
"L.L.L.L.L.L.L.L.L.c.F 6 r { tXiXiXaXgXjXpX,...f =   , ,   3 7.~.|.-X:X,X.XW./.XX,X5X5X4X4X6X4X6X<X$X$X3X5X,Xe.c S ' b.L.L.L.L.L.",
"L.L.L.L.L.L.L.L.L.c.Z $   p 1.yXiXlXBXVXMXjX,.{ w 3 8 *   h t.'.OX;X-X{.[.[..X;X,X4X4X4X4X4X4X4X4X4X3X3X$X/.L t ] L.L.L.L.L.L.L.",
"L.L.L.L.L.L.L.L.L.L.#.G ; O r i p o.yXlXjX1.B > M y.~.w.* . 7 7.].;X{.U 8 z e.:X:X,X4X5X6X4X4X3X,X,X&X Xr.z A ] J.L.L.L.L.L.L.L.",
"L.L.L.L.L.L.L.L.L.L.#.G $   = r f ..:.:.*.^ d l t. X;X}.W K K u.]./.w.a t t Q W.|.%X,X4X4X,X&X[.E.E.u.q.J w ' L.L.L.L.L.L.L.L.L.",
"L.L.L.L.L.L.L.L.L.c.V o   > { :.iXgXtXf O O v h. X;X3X2X#X#X#X=X{.R 6 ` c.[ A 7 q.].%X;X:XoX^.Y 2 & & & C #.J.L.L.L.L.L.L.L.L.L.",
"L.L.L.L.L.L.L.L.L.l.6 O g ,.gXnXMXBXlX} O   n ).OX:X4X6X6X3X;X/.W , 5 [ L.L.] V v 2.0.0.0.5.T N V V V V _ L.L.L.L.L.L.L.L.L.L.L.",
"M.P.P.L.L.L.L.L.L.v.y q ,.lXMXVXVXVXMXtXf O b ^.XX;X,X,X-X X^.Y +   5 ] L.L.J.l.a $ $ % $ X - H L.J.b.b.J.L.L.L.L.L.L.L.L.L.L.L.",
"F.D.M.L.L.P.L.L.L.J.' F { | ;.tXaXaXpXiX-.; h t. X:X-X(.E v l l h + 5 [ L.L.L.J.' F G G G G ) [ L.L.L.L.L.L.L.L.L.L.L.L.L.L.L.L.",
"P.F.D.M.N.D.C.L.L.L.L.[ y o   r { o.:.yX-.; < I T./.^.3.*   2 T 7.x w _ c.L.L.L.L.L.L.L.L.L.L.L.L.L.L.L.L.L.L.L.L.L.L.L.L.L.L.L.",
"L.P.F.G.D.Z.P.L.L.L.L.J.[ V o   > -.tX} >   . , 7 0 h ,   4 8.^.|.{.e.w D c.L.L.m.C.P.L.L.L.L.L.L.L.L.L.L.L.m.S.F.P.L.L.L.L.L.L.",
"L.L.x.N.B.x.L.L.L.L.L.L.L.) $ = f -.-.> . 4 h 9 3 @     , 4.'.-X:X,X}.R e ) c.V.P.S.M.L.L.L.L.L.L.L.L.L.L.L.L.M.D.Z.I.M.Z.V.L.L.",
"L.L.#.O.x.b.L.L.L.L.L.L.L.) $ { tX} ;   4 t.g.h.8.n , @ n i.oX;X:X3X2X.Xw.q H C.P.F.M.L.L.L.L.L.L.L.L.L.L.L.L.L.N.D.Z.F.S.M.L.L.",
"L.L.b.l.c.L.L.L.L.L.L.L.L.[ A | *.i . 9 7.'.OXXX_.8.3 , 4.f. X+X:X3X4X3X{.W K ~ z.V.M.L.L.L.L.L.L.L.L.L.L.L.L.L.x.m.S.B.m.L.L.L.",
"L.L.L.P.L.L.L.L.L.L.L.J.J.J.#.A #   2 9.].+X,X>XXXf.9 & I t._. X;X3X4X5X,X$X0.q G J.L.L.L.L.L.L.L.L.L.L.L.L.L.L.L.#.m.x.c.L.L.L.",
"L.L.L.L.L.L.L.L.L.L.L.c.D s s 5     < y. X;X,X,XXXg.h + k 3.d._. X;X3X5X6X3X[.0.S A l.L.L.L.L.L.L.L.L.L.L.L.L.L.L.#.[ b.L.L.L.L.",
"L.L.L.L.L.L.L.L.J.J.H._ 5 ; i i ; O 8 7._.XX-X+X'.t.7 . < k 2.t._. X;X3X5X5X3X$XE q ) x.L.L.L.L.L.L.L.L.L.L.L.L.L.P.L.L.L.L.L.L.",
"L.L.L.L.L.L.L.L.L.b.F 5 p -.hXgX1...d 9 Y _. X].7.4 +   . & < n d._.XX;X3X4X5X>X~.5.e A c.L.L.L.L.L.L.L.L.L.L.L.L.L.L.L.L.L.L.L.",
"L.L.L.L.L.L.L.L.l.` / } -.pXnXlXtX,.-.f B s.h.9.h         o 5 z I 6.y.{.-X:X3X3X%Xh.3 6 l.L.L.L.L.L.L.L.L.L.L.L.L.L.L.L.L.L.L.L.",
"L.L.L.L.L.L.L.b.F p uXnXjXuX,.{ p :.aXiXtX&.Q 2 .         t ` C & @ h 5.f.'.XX:X:X/.0 6 l.L.L.L.L.L.L.L.L.L.L.L.L.L.L.L.L.L.L.L.",
"L.L.L.L.L.L.L.L.) Z <.pX1.:.:.;.;.1.tX,.;.*.( t $         s c.` y y w j n 4.q.e.e.W * 6 l.L.L.L.L.L.L.L.L.L.L.L.L.L.L.L.L.L.L.L.",
"L.L.L.L.L.L.L.L.J.#.s ; # B iXnXMXiX} r y #.L.l.s         u b.L.c.b.' 5 + + % % * % X t c.L.L.L.L.L.L.L.L.L.L.L.L.L.L.L.L.L.L.L.",
"L.L.L.L.L.L.L.L.L.J.' u i { ,.pXgXU.+.D ) L.L.L.' D A t o t c.L.L.L.c.H V V A V A A A ) J.L.L.L.L.L.L.L.L.L.L.L.L.L.L.L.L.L.L.L.",
"L.L.L.L.L.L.L.L.L.L.L.H.+.X.X.X.@.=.L.L.J.L.L.L.L.L.L.` 5 u c.L.L.L.P.L.L.c.#.J.L.J.J.J.L.L.L.L.L.L.L.L.L.L.L.L.L.L.L.L.L.L.L.L.",
"L.L.L.L.L.L.L.L.L.L.L.L.K.H.%.$.$.J.L.L.L.L.L.L.L.L.L.c.` ] J.L.L.L.L.L.L.L.L.L.L.L.L.L.L.L.L.L.L.L.L.L.L.L.L.L.L.L.L.L.L.L.L.L.",
"L.L.L.L.L.L.L.L.L.L.L.L.L.L.L.L.L.L.L.L.L.L.L.L.L.L.L.L.L.L.L.L.L.L.L.L.L.L.L.L.L.L.L.L.L.L.L.L.L.L.L.L.L.L.L.L.L.L.L.L.L.L.L.L.",
"L.L.L.L.L.L.L.L.L.L.L.L.L.L.L.L.L.L.L.L.L.L.L.L.L.L.L.L.L.L.L.P.F.P.L.L.L.L.L.L.L.L.L.L.L.L.L.L.L.L.L.L.L.L.L.L.L.L.L.L.L.L.L.L.",
"L.L.L.L.L.L.L.L.L.L.L.L.L.L.L.L.L.L.L.L.L.P.L.L.L.L.L.L.L.L.L.L.S.F.M.L.L.L.L.L.L.L.L.L.L.L.L.L.L.L.L.L.L.L.L.L.L.L.L.L.L.L.L.L.",
"L.L.L.L.L.L.L.L.L.L.L.L.L.L.L.L.L.L.L.M.P.L.L.L.L.L.L.L.L.L.L.m.D.G.M.J.P.M.L.L.L.L.L.L.L.L.L.L.L.L.L.L.L.L.L.L.L.L.L.L.L.L.L.L.",
"L.L.L.L.L.L.L.L.L.L.L.L.L.L.L.L.L.L.L.C.C.L.L.L.L.L.L.L.L.L.L.L.V.G.m.m.F.Z.L.L.L.L.L.L.L.L.L.L.L.L.L.L.L.L.L.L.L.L.L.L.L.L.L.L.",
"L.L.L.L.L.L.L.L.L.L.L.L.L.L.L.L.L.L.L.V.V.P.P.L.L.L.L.L.L.L.L.L.L.N.k.N.S.N.L.L.L.L.L.L.L.P.L.L.L.L.L.L.L.L.L.L.L.P.L.L.L.L.L.L.",
"L.L.L.L.L.L.L.L.L.L.L.L.L.L.L.L.L.L.L.C.C.P.F.P.L.L.L.L.L.L.L.L.L.#.N.A.m.l.L.L.L.L.L.L.L.L.L.L.L.L.L.L.L.L.L.L.L.L.L.L.L.L.L.L.",
"L.L.L.L.L.L.L.L.L.L.L.L.L.L.L.L.L.L.L.C.C.M.S.L.L.L.L.L.L.L.L.L.L.L.#.] #.L.L.L.L.L.L.L.L.L.L.L.L.L.L.L.L.L.L.L.L.L.L.L.L.L.L.L."
};
