/* XPM */
static char *result[] = {
/* columns rows colors chars-per-pixel */
"64 64 229 2 ",
"   c #030201",
".  c #0B0501",
"X  c #040A06",
"o  c #0D0A03",
"O  c #090B0B",
"+  c #140B03",
"@  c #1B0E02",
"#  c #100F0E",
"$  c #081906",
"%  c #0B140E",
"&  c #1D1205",
"*  c #191709",
"=  c #0D0F11",
"-  c #0C1710",
";  c #0E1A12",
":  c #131314",
">  c #151A17",
",  c #210C00",
"<  c #241303",
"1  c #2A1502",
"2  c #241A06",
"3  c #2E1904",
"4  c #291E0A",
"5  c #331B03",
"6  c #3B1E02",
"7  c #072B0F",
"8  c #172317",
"9  c #142619",
"0  c #16291C",
"q  c #1A2C1C",
"w  c #262208",
"e  c #3D2208",
"r  c #3E2609",
"t  c #3B2811",
"y  c #2A311B",
"u  c #1B3322",
"i  c #262727",
"p  c #243B29",
"a  c #353728",
"s  c #30352D",
"d  c #373838",
"f  c #442405",
"g  c #4A2706",
"h  c #442C0C",
"j  c #4C2B0A",
"k  c #532C04",
"l  c #542E0B",
"z  c #5D3206",
"x  c #54310B",
"c  c #5B330C",
"v  c #453012",
"b  c #63360A",
"n  c #66380B",
"m  c #6C3B0B",
"M  c #733D0A",
"N  c #683B10",
"B  c #06481A",
"V  c #23412B",
"C  c #2A472E",
"Z  c #36562F",
"A  c #274A32",
"S  c #294C33",
"D  c #2C5438",
"F  c #32553C",
"G  c #305C3D",
"H  c #146E2E",
"J  c #5B5010",
"K  c #74410D",
"L  c #7C430C",
"P  c #694E10",
"I  c #734511",
"U  c #695312",
"Y  c #424324",
"T  c #446534",
"R  c #6E6730",
"E  c #3E3E44",
"W  c #385841",
"Q  c #2F6342",
"!  c #346342",
"~  c #376946",
"^  c #3A6D4A",
"/  c #3C724C",
"(  c #3F7750",
")  c #454546",
"_  c #575A59",
"`  c #46784A",
"'  c #4A6853",
"]  c #57685C",
"[  c #427C53",
"{  c #447954",
"}  c #6D725A",
"|  c #696A6A",
" . c #797979",
".. c #86490E",
"X. c #904F0F",
"o. c #92500F",
"O. c #804911",
"+. c #8B4D11",
"@. c #8A5616",
"#. c #945212",
"$. c #9A5612",
"%. c #A35B13",
"&. c #A85E15",
"*. c #8A6412",
"=. c #9A6A18",
"-. c #907A17",
";. c #A76517",
":. c #AD6115",
">. c #B46417",
",. c #BB6917",
"<. c #B56718",
"1. c #BC6A19",
"2. c #AB751A",
"3. c #B6791C",
"4. c #8B7927",
"5. c #90752C",
"6. c #C36E1A",
"7. c #CA6F1A",
"8. c #CA761C",
"9. c #D2751C",
"0. c #D5791D",
"q. c #DA7C1E",
"w. c #E07D1F",
"e. c #CD7C24",
"r. c #846E59",
"t. c #448156",
"y. c #4C8557",
"u. c #46855A",
"i. c #498B5D",
"p. c #548C53",
"a. c #599256",
"s. c #56985F",
"d. c #5C9C5E",
"f. c #639C57",
"g. c #6CA152",
"h. c #64A25B",
"j. c #6AA55A",
"k. c #6EA859",
"l. c #74AC56",
"z. c #79AF55",
"x. c #71AA58",
"c. c #7AB155",
"v. c #4C8F61",
"b. c #508661",
"n. c #4D9262",
"m. c #529561",
"M. c #569860",
"N. c #728477",
"B. c #B19C15",
"V. c #93842A",
"C. c #B88625",
"Z. c #A39722",
"A. c #AD9226",
"S. c #B6A924",
"D. c #C6871D",
"F. c #D6821F",
"G. c #EC841F",
"H. c #CBA31B",
"J. c #D68821",
"K. c #C99226",
"L. c #D99824",
"P. c #E48320",
"I. c #ED8621",
"U. c #E58C22",
"Y. c #EE8922",
"T. c #F18A22",
"R. c #E89824",
"E. c #F29725",
"W. c #DBB925",
"Q. c #E6A626",
"!. c #F6A928",
"~. c #EAB92A",
"^. c #FBB22B",
"/. c #F7BA2A",
"(. c #FBB935",
"). c #DEC22B",
"_. c #E6C62A",
"`. c #F3C32C",
"'. c #FCC42C",
"]. c #FBCC2D",
"[. c #EAD72D",
"{. c #F9D72E",
"}. c #FDC631",
"|. c #F9D631",
" X c #FEDD32",
".X c #FFE72C",
"XX c #FFED2C",
"oX c #FFF22D",
"OX c #F4E332",
"+X c #FDE432",
"@X c #FFED33",
"#X c #FEEE3B",
"$X c #FFF233",
"%X c #FFF935",
"&X c #FFF03E",
"*X c #949270",
"=X c #E0B15F",
"-X c #DAAD6A",
";X c #F2B86D",
":X c #FADE42",
">X c #F6D24D",
",X c #FDED41",
"<X c #F6E14E",
"1X c #FFF147",
"2X c #FFF24C",
"3X c #FFF35A",
"4X c #F6C56C",
"5X c #FCE76E",
"6X c #FFF464",
"7X c #FFF674",
"8X c #898C89",
"9X c #8D8D96",
"0X c #989A99",
"qX c #B3A091",
"wX c #9EA4A0",
"eX c #A2A2A9",
"rX c #B8AFAF",
"tX c #B6B6B6",
"yX c #CCAF94",
"uX c #E6D690",
"iX c #FCF486",
"pX c #DBCEB5",
"aX c #E0D8BB",
"sX c #FFFAA6",
"dX c #FBEEB9",
"fX c #FFF0B4",
"gX c #CBCBCB",
"hX c #FFFDDA",
"jX c #FFFBE5",
/* pixels */
"n.n.n.n.n.n.n.n.n.n.n.n.n.n.n.n.n.n.n.n.n.i.( v.( i.n.n.n.n.n.n.n.n.n.n.n.n.n.n.n.n.n.n.n.n.n.n.n.n.n.n.n.n.n.n.n.n.n.n.n.n.n.n.",
"n.n.n.n.n.n.n.n.n.n.n.n.n.n.n.n.n.n.n.n.n.v.i.( v.v.n.n.n.n.n.n.n.n.n.n.n.n.n.n.n.n.n.n.n.n.n.n.n.n.n.n.n.n.n.n.n.n.n.n.n.n.n.n.",
"n.n.n.n.n.n.n.n.n.n.n.n.n.n.n.n.n.n.n.n.n.n.n.i.n.n.n.n.n.n.n.n.n.n.n.n.n.n.n.n.n.n.n.n.n.n.n.n.n.n.n.n.n.n.n.n.n.n.n.n.n.n.n.n.",
"n.n.n.n.n.n.n.n.n.n.n.n.n.n.n.n.n.n.n.n.n.n.n.n.n.n.n.n.n.n.n.n.n.n.n.n.n.n.n.n.n.n.n.n.n.n.n.n.n.n.n.n.n.n.n.n.n.n.n.n.n.n.n.n.",
"n.n.n.n.n.n.n.n.n.n.n.n.n.n.n.n.n.n.n.n.n.n.n.n.u./ / ^ / ` / ^ / / ^ / ^ / u.n.n.n.n.n.n.n.n.n.n.n.n.n.n.n.n.n.n.n.n.n.n.n.n.n.",
"n.n.n.n.n.n.n.n.n.n.n.n.n.n.n.n.n.n.n.n.n.n.n.v.! 9 ; ; ; ; - - - - ; ; - ; G n.n.n.n.n.n.n.n.n.n.n.n.n.n.n.n.n.n.n.n.n.n.n.n.n.",
"n.n.n.n.n.n.n.n.n.n.n.n.n.n.n.n.n.n.n.n.n.n.i.! Y l P J x 3 & + + 1 r J U c Y G u.M.m.n.n.n.n.n.n.n.n.n.n.n.n.n.n.n.n.n.n.n.n.n.",
"n.n.n.n.n.n.n.n.n.n.n.n.n.n.n.n.n.n.n.n.n.n.^ 9 x J.~._.2.L k e g K 2.).`.J.m ; ~ x.M.n.n.n.n.n.n.n.n.n.n.n.n.n.n.n.n.n.n.n.n.n.",
"n.n.n.n.n.n.n.n.n.n.n.n.n.n.n.n.n.n.n.n.v.G q X J ~.}.^.P.>...M L :.F.!.'./.U   0 T a.n.n.n.n.n.n.n.n.n.n.n.n.n.n.n.n.n.n.n.n.n.",
"n.n.n.n.n.n.n.n.n.n.n.n.n.n.n.n.n.n.n.n.t.u   @ R <X(.T.I.9.%.#.%.9.T.G.(.<XV.< . q p.v.n.n.n.n.n.n.n.n.n.n.n.n.n.n.n.n.n.n.n.n.",
"n.n.n.n.n.n.n.n.n.n.n.n.n.n.n.n.n.n.n.n.u.u < #.=XdX4XT.T.0.%.o.%.9.T.G.;XfX-X=.5 q y.i.n.n.n.n.n.n.n.n.n.n.n.n.n.n.n.n.n.n.n.n.",
"n.n.n.n.n.n.n.n.n.n.n.n.n.n.n.n.n.n.n.n.u.u < ..-XfX;XI.I.w.6.<.,.q.T.G.;XdX-X#.5 q t.v.n.n.n.n.n.n.n.n.n.n.n.n.n.n.n.n.n.n.n.n.",
"n.n.n.n.n.n.n.n.n.n.n.n.n.n.n.n.n.n.n.n.u.u   + U >X~.Y.I.I.w.w.G.G.T.I.(.:XR 2   9 [ n.n.n.n.n.n.n.n.n.n.n.n.n.n.n.n.n.n.n.n.n.",
"n.n.n.n.n.n.n.n.n.n.n.n.n.n.n.n.n.n.n.n.u.i : W R 4.H./.E.I.T.T.G.G.T.!.H.-.R ) > 9 [ n.n.n.n.n.n.n.n.n.n.n.n.n.n.n.n.n.n.m.n.n.",
"n.n.n.n.n.n.n.n.n.n.n.n.n.n.n.n.n.n.n.v.u.u i  .] : V.|.!.T.Y.I.Y.G.!.|.Z.8 _ 8Xs 0 [ n.n.n.n.n.n.n.n.n.n.n.n.n.n.n.n.n.n.n.n.n.",
"n.n.n.n.n.n.n.n.n.n.n.m.n.n.n.n.n.n.n.v.v.u 9 i.Q X *XsX>X!.T.I.Y.!.>XsX*X> D v.q 0 t.n.n.n.n.n.n.n.n.n.n.n.n.n.n.n.n.n.n.n.n.n.",
"n.n.n.n.n.n.n.n.n.n.n.n.n.n.n.n.n.n.n.u.~ 9 $ H B % 9XjX5X'.!.T.E./.5XhXeX: B H 7 ; ! t.n.n.n.n.n.n.n.n.n.n.n.n.n.n.n.n.n.n.n.n.",
"n.n.n.n.n.n.n.n.n.n.n.n.n.n.n.n.n.n.n.G ; X $ 7 7 # 9XjX7X{.'.(.'.].3XhXeX; $ B $   - D n.n.n.n.n.n.n.n.n.n.n.n.n.n.n.n.n.n.n.n.",
"n.n.n.n.n.n.n.n.n.n.n.n.n.n.n.n.n.n.n.A X e v $ $ t eXjX6X.X+X X X.X5XhXrXv o $ t f o p i.n.n.n.n.n.n.n.n.n.n.n.n.n.n.n.n.n.n.n.",
"n.n.n.n.n.n.n.n.n.n.n.n.n.n.n.n.n.n.n.S * $.<.w 5 #.yXhX7XXX+X@X@XXX3XhXpX=.6 2 %.;.& V i.n.n.n.n.n.n.n.n.n.n.n.n.n.n.n.n.n.n.n.",
"n.n.n.n.n.n.n.n.n.n.n.n.n.n.n.n.n.n.n.S * ;.L.I L 8.;X7X2XXX$X@X@X$X1X7X4XD...n K.D.4 p i.n.n.n.n.n.n.n.n.n.n.n.n.n.n.n.n.n.n.n.",
"n.n.n.n.n.n.n.n.n.n.n.n.n.n.n.n.n.m.i.S * A.~.3.1.U.`.oX$X@X@X@X@X@X$X@X].Y.6.3.~.A.4 V i.n.n.n.n.n.n.n.n.n.n.n.n.n.n.n.n.n.n.n.",
"n.M.M.n.n.n.n.n.n.n.n.n.n.n.n.n.n.n.n.S * Z.+X~.R.Y.'.@X$X@X@X@X@X@X@X@X'.Y.R.~. XS.w p i.n.n.n.n.n.n.n.n.n.n.n.n.n.n.n.n.n.n.M.",
"n.x.M.n.n.n.n.n.n.n.n.n.n.n.n.n.n.n.n.Z * Z.#X+X'.!.].@X@X@X$X@X@X@X@X$X{.!.(.+X&XS.w V i.n.n.n.n.n.n.n.n.n.n.n.n.n.n.n.n.n.M.c.",
"n.x.d.n.n.n.n.n.n.n.n.n.n.n.n.n.n.n.v.Z * Z.oX@X+X+X+X$X@X$X@X@X$X@X@X$X+X+X+X+X$XS.w V i.n.n.n.n.n.n.n.n.n.n.n.n.n.n.n.h.j.M.c.",
"n.l.M.h.h.n.n.n.n.n.n.n.n.n.n.n.n.n.v.Z * Z.%X$X$X$XXXXX@X@X@X@X@X@X@XXXoX$X$X$X%XS.w V i.n.n.n.n.n.n.n.n.n.n.n.n.n.n.n.h.j.m.z.",
"n.x.d.j.j.n.n.n.n.n.n.n.n.n.n.n.n.n.v.Z * Z.@X$X$X$X&X,X@X@X$X@X@X$X@X&X&X@X@X@X@XS.w V n.n.n.n.n.n.n.n.n.n.n.n.n.n.n.n.h.x.n.M.",
"m.d.m.j.j.n.n.n.n.n.n.n.n.n.n.n.n.n.n.S * =.'.+XoX&XiXsX3XXX@X@X@XXX2XsXiX&X$X+X].2.2 V i.n.n.n.n.n.n.n.n.n.n.n.n.n.n.n.M.M.m.n.",
"n.n.n.M.d.n.n.n.n.n.n.n.n.n.n.n.n.n.i.A @ +.R. X$X#XuXaX5X3X#XXX$X2X7XaXuX,X$X+X!.$.< V v.n.n.n.n.n.n.n.n.n.n.n.n.n.n.n.n.n.n.n.",
"n.n.n.n.n.n.n.n.n.n.n.n.n.n.n.n.n.n.n.A + m 8.[.%X+XC.} pXsX1XXX,XsXaXr.V.,X%X{.D.L + p v.n.n.n.n.n.n.n.n.n.n.n.n.n.n.n.n.n.n.n.",
"n.n.n.n.n.n.n.n.n.n.n.n.m.m.n.n.n.n.n.~ p v @.W.+XOXB.4.qXuX,X$X#XuXqX5.B.OX+X~.@.v p ! v.v.n.n.m.M.m.n.n.n.n.n.n.n.n.n.n.n.n.n.",
"n.n.n.n.n.n.n.n.n.n.n.n.h.j.n.n.n.n.n.n.( 0 e 1./.+XXX_.C.C.[.%XOXK.C.).OX+X/.e.j 8 ^ v.n.v.n.n.m.x.M.n.n.n.n.n.n.n.n.n.n.n.n.n.",
"n.n.n.n.n.n.n.n.n.n.n.h.h.d.k.n.n.n.n.{ V % . l 2.^. X XW.W.XX%X@X).W. X X/.3.c + 9 u.n.n.n.n.m.x.s.k.d.n.n.n.n.n.n.n.n.n.n.n.n.",
"n.n.n.n.n.n.n.n.n.n.n.m.h.k.m.n.n.i.[ S @ + + . l 6.L.~.{. X[.[.[.{.|.~.L.8.N @ + q ^ i.n.n.n.n.M.k.d.m.n.n.n.n.n.n.n.n.n.n.n.n.",
"n.n.n.n.n.n.n.n.n.n.n.n.m.M.n.n.n.( u t n m z 5 3 e r J K.L.*.U *.L.L.U t h x m n x q G n.m.n.n.n.s.m.n.n.n.n.n.n.n.n.n.n.n.n.n.",
"n.n.n.n.n.n.n.n.n.n.n.n.n.n.n.i.` S w m >.:.X.n 6 o + 6 +...6 , 3 L X.e .   j %.3.=.x a ~ u.n.n.n.n.n.n.n.n.n.n.n.n.n.n.n.n.n.n.",
"n.n.n.n.n.n.n.n.n.n.n.n.n.n.n.t.u w K ,.0.>.$.X.m f b M e + o X . @ 5 M l o g ;.W._.F.I 8 ! n.n.n.n.n.n.n.n.n.n.n.n.n.n.n.n.n.n.",
"n.n.n.n.n.n.n.n.n.n.n.n.n.n.n.( 9 3 +.1.7.>.o...M m ..X.k e e r r 5 x &.&.K l P W.$X}.3.m a Q i.n.n.n.n.n.n.n.n.n.n.n.n.n.n.n.n.",
"M.M.n.n.n.n.n.n.n.n.n.n.n.n.n.[ 9 3 +.%.$.$...k b o.$.$.$.$.$.$.$.#.&.q.Y.q.b 4 S.$X@X'.F.c 9 ~ v.v.n.n.n.n.n.n.n.n.n.n.n.n.n.n.",
"l.c.d.n.n.m.m.n.n.n.n.n.n.n.n.[ 9 3 +.%.o.M k < f X.$.%.6.9.9.9.9.9.q.I.G.1.g * A.+X$X.X`.=.j y G i.n.n.n.n.n.n.n.n.n.n.n.n.n.n.",
"m.k.z.d.d.z.g.n.n.n.n.n.n.n.n.[ 9 < m +...k <   e $.%.%.q.T.E.E.E.T.I.w.8.&.f 2 C.|.+X&X+XL.O.< q i.n.n.n.n.n.n.m.n.n.n.n.n.n.n.",
"n.M.l.z.z.l.s.n.n.n.n.n.n.n.n.( 9 . & e k < .   x 8.<.%.9.!.].+X{.!.w.<.6.0.c 2 ;.^.+X%X+X!.>.4 u t.n.n.n.n.M.l.x.m.n.m.n.n.n.n.",
"n.n.i.g.g.y.n.n.n.n.n.n.n.n.n.t.A ;   + < .   < L P.0.6.R.'.@X$X@X].R.8.:.$.j < m 3.~.+X X(.6.5 u i.n.n.n.n.n.d.z.k.M.M.x.j.n.n.",
"n.n.[ t.p.u.n.n.n.n.n.n.n.n.n.n.i.G %       < M >.G.G.R.`.+X@X@X@X+X{.R.$.3 1 6 & x 0.^.}.!.6.5 u [ n.n.n.n.n.n.f.c.k.x.x.M.n.n.",
"n.n.i.t.u.n.n.n.n.n.n.n.n.n.n.n.n.t.D 9   3 m >.8.1.1.8.Q.].@X%X$X|.Q.@.c h b z + 3 &.U.!.U.&.g 8 C ^ n.n.n.n.n.n.a.z.g.a.v.n.n.",
"n.n.n.n.n.n.n.n.n.n.n.n.n.n.n.n.n.n.n.A + b <.P.F.;.%.:.0.Q._.OX{.Q.:.e f #.%...1 & M ,.q.:.L g < . S v.n.n.n.n.s./ a.y.i.n.n.n.",
"n.n.n.n.n.n.n.n.n.n.n.n.n.n.n.n.n.n.n.S # +.U.^./.~.L.7.6.%.*.=.3.I j c #.8.6.+.3   < M &.b < + o   A i.n.n.n.n.v.[ ( i.n.n.n.n.",
"n.n.n.n.n.n.n.n.n.n.n.n.n.n.n.n.n.n.n.D + +.U.^.|.+X/.G.>.K 6 g b 1 < L 1.0.:.b &   = t N t =       S n.n.n.n.n.n.n.n.n.n.n.n.n.",
"n.n.n.n.n.n.n.n.n.n.n.n.n.n.n.n.n.n.v.S # n 1.G.^.].^.P.>.m @ . @ 1 g ..%.%.c + . : d a & a E :     A n.n.n.n.n.n.n.n.n.n.n.n.n.",
"n.n.n.n.n.n.n.n.n.n.n.n.n.n.n.n.n.n.v.S o g ..,.U.!.R.6.o.k o     + e n M z a u = i | ) = ) | >     A v.n.n.n.n.n.n.n.n.n.n.n.n.",
"n.n.n.n.n.n.n.n.n.n.n.n.n.n.n.n.n.n.v.S X 1 k +.,.q.1.+.k 5 O X X X + e 3 o D ( 0 s 8X_ : | 9Xi   X D i.n.n.n.n.n.n.n.n.n.n.n.n.",
"n.n.n.n.n.n.n.n.n.n.n.n.n.n.n.n.n.n.n.S   . 1 k b z f 5 < 8 S W G D C * .   S [ > i | ) : 9XtXd ; D ( n.n.n.n.n.n.n.n.n.n.n.n.n.",
"n.n.n.n.n.n.n.n.n.n.n.n.n.n.n.n.n.n.v.S   O * 5 1 # > > O q [ n.n.n.[ u % ; D ( p 8 E i : wXgXd u u.n.n.n.n.n.n.n.n.n.n.n.n.n.n.",
"n.n.n.n.n.n.n.n.n.n.n.n.n.n.n.n.n.n.v.S X i s # > d | | i 0 i.n.n.n.i./ ! ! [ [ [ F >   :  .0Xi u u.n.n.n.n.n.n.n.n.n.n.n.n.n.n.",
"n.n.n.n.n.n.n.n.n.n.n.n.n.n.n.n.n.n.n.W i |  .s s _ eXrXd 8 { n.n.n.n.n.n.i.[ n.n.( u u u _ ] s D u.n.n.n.n.n.n.n.n.n.n.n.n.n.n.",
"n.n.n.n.n.n.n.n.n.n.n.n.n.n.n.n.n.n.n.' _ tXgX| ) _ tXgX) 0 { n.n.n.n.n.n.n.n.n.n.v.u.i.{ p q ~ i.n.n.n.n.n.n.n.n.n.n.n.n.n.n.n.",
"n.n.n.n.n.n.n.n.n.n.n.n.n.n.n.n.n.n.n.b.| 0XwXN.W s  .wX' ! i.n.n.n.n.n.n.n.n.n.n.n.n.n.n.~ D u.n.n.n.n.n.n.n.n.n.n.n.n.n.n.n.n.",
"n.n.n.n.n.n.n.n.n.n.n.n.n.n.n.n.n.n.n.n.v.{ ] b.W > s ] { n.n.n.k.M.n.n.n.n.n.n.n.n.n.n.n.n.n.n.n.n.n.n.n.n.n.n.n.n.n.n.n.n.n.n.",
"n.n.n.n.n.n.n.n.n.n.n.n.n.n.n.n.n.n.m.n.n.b.y.v.[ ~ ' { m.n.n.m.z.x.M.n.n.n.n.n.n.n.n.n.n.n.n.n.n.n.n.n.n.n.n.n.n.n.n.n.n.n.n.n.",
"n.n.n.n.n.n.n.n.n.n.n.n.n.n.n.n.n.n.v.M.M.n.n.n.n.n.n.n.n.n.n.m.l.c.d.n.M.d.n.n.n.n.n.n.n.n.n.n.n.n.n.n.n.n.n.n.n.n.n.n.n.n.n.n.",
"n.n.n.n.n.n.n.n.n.n.n.n.n.n.n.n.n.n.n.j.h.n.n.n.n.n.n.n.n.n.n.m.h.z.a.a.x.x.n.n.n.n.n.n.n.n.n.n.n.n.n.n.n.n.n.n.n.n.n.n.n.n.n.n.",
"n.n.n.n.n.n.n.n.n.n.n.n.n.n.n.n.n.n.n.j.j.m.M.n.n.n.n.n.n.n.n.n.n.f.p.f.z.d.n.n.n.n.n.n.n.n.m.n.n.n.n.n.n.n.n.n.n.n.n.n.n.n.n.n.",
"n.n.n.n.n.n.n.n.n.m.n.n.n.n.n.n.n.n.n.j.h.M.x.m.n.n.n.n.n.n.n.n.i.[ f.g.a.[ n.n.n.n.n.n.n.n.n.n.n.n.n.n.n.n.n.n.n.n.n.n.n.n.n.n.",
"n.n.n.n.n.n.n.n.n.n.n.n.n.n.n.n.n.n.n.j.j.M.x.n.n.n.n.n.n.n.n.n.n.m.[ ` t.n.n.n.n.n.n.n.n.n.n.n.n.n.n.n.n.n.n.n.n.n.n.n.n.n.n.n."
};
