/* XPM */
static char *result[] = {
/* columns rows colors chars-per-pixel */
"64 64 249 2 ",
"   c #030302",
".  c #0C0B02",
"X  c #070709",
"o  c #0A0C0B",
"O  c #150602",
"+  c #0D1006",
"@  c #0C140D",
"#  c #131204",
"$  c #191603",
"%  c #0A0812",
"&  c #16091A",
"*  c #0E1412",
"=  c #0D1A11",
"-  c #111E14",
";  c #171618",
":  c #2A0304",
">  c #370204",
",  c #241C01",
"<  c #291415",
"1  c #122116",
"2  c #142519",
"3  c #172B1D",
"4  c #2D2401",
"5  c #2A2509",
"6  c #382B00",
"7  c #3A3507",
"8  c #2C3218",
"9  c #080F2F",
"0  c #1A0E27",
"q  c #1D1527",
"w  c #250A23",
"e  c #251B28",
"r  c #3B0C35",
"t  c #231433",
"y  c #281839",
"u  c #341533",
"i  c #1B2D23",
"p  c #1B3222",
"a  c #1E3827",
"s  c #1F3C3F",
"d  c #27272B",
"f  c #213A28",
"g  c #34322C",
"h  c #2B2534",
"j  c #34283B",
"k  c #383738",
"l  c #470100",
"z  c #570100",
"x  c #551118",
"c  c #66080A",
"v  c #790101",
"b  c #483903",
"n  c #4D360E",
"m  c #43103C",
"M  c #453437",
"N  c #24442D",
"B  c #2C472A",
"V  c #2B4737",
"C  c #264931",
"Z  c #2A4D33",
"A  c #374B32",
"S  c #2D5539",
"D  c #375A38",
"F  c #315D3E",
"G  c #3E6339",
"H  c #4C470E",
"J  c #584603",
"K  c #644B01",
"L  c #675406",
"P  c #6B5402",
"I  c #6F500B",
"U  c #785C01",
"Y  c #7C6202",
"T  c #706114",
"R  c #565032",
"E  c #456C3C",
"W  c #70652F",
"Q  c #2D1944",
"!  c #321E47",
"~  c #371C56",
"^  c #102D48",
"/  c #372647",
"(  c #322E46",
")  c #3C344A",
"_  c #3D2656",
"`  c #023469",
"'  c #52164B",
"]  c #66185A",
"[  c #463A4D",
"{  c #43265B",
"}  c #473A56",
"|  c #523453",
" . c #741A6A",
".. c #492969",
"X. c #4B3862",
"o. c #533967",
"O. c #4F2C73",
"+. c #563578",
"@. c #742E73",
"#. c #384644",
"$. c #335D41",
"%. c #346342",
"&. c #386846",
"*. c #3A6D4A",
"=. c #3C724D",
"-. c #3F7750",
";. c #3F7851",
":. c #4C4755",
">. c #534C53",
",. c #4A7946",
"<. c #427C53",
"1. c #477A58",
"2. c #60625E",
"3. c #584867",
"4. c #524968",
"5. c #5B4774",
"6. c #655272",
"7. c #665777",
"8. c #6E6D6F",
"9. c #880000",
"0. c #970000",
"q. c #941C1C",
"w. c #A20000",
"e. c #886800",
"r. c #8C6F08",
"t. c #936C01",
"y. c #997800",
"u. c #A67A00",
"i. c #916736",
"p. c #891E7A",
"a. c #943875",
"s. c #876076",
"d. c #55844F",
"f. c #448156",
"g. c #4B8557",
"h. c #468559",
"j. c #498B5D",
"k. c #56945A",
"l. c #5B9C5E",
"z. c #679951",
"x. c #69A45A",
"c. c #73AB57",
"v. c #74AC56",
"b. c #7BB155",
"n. c #4B8F60",
"m. c #4D9262",
"M. c #539660",
"N. c #569860",
"B. c #7E807F",
"V. c #AA8400",
"C. c #B68800",
"Z. c #BC9202",
"A. c #B0921C",
"S. c #A18C2B",
"D. c #AF942B",
"F. c #C18F00",
"G. c #C69501",
"H. c #CC9B00",
"J. c #D19B01",
"K. c #CEA20A",
"L. c #DAA400",
"P. c #E8AD01",
"I. c #EEB206",
"U. c #F9B801",
"Y. c #D3AB30",
"T. c #E9B925",
"R. c #FFC400",
"E. c #FBC730",
"W. c #8B866A",
"Q. c #AA9D63",
"!. c #C8B24F",
"~. c #E5C55B",
"^. c #F2D36D",
"/. c #5C3485",
"(. c #63388B",
"). c #693C96",
"_. c #6A3D97",
"`. c #753F9D",
"'. c #793EA2",
"]. c #1E61AA",
"[. c #5B5E97",
"{. c #6C5787",
"}. c #6B4394",
"|. c #6E4A91",
" X c #78579A",
".X c #776889",
"XX c #7D6797",
"oX c #7544A6",
"OX c #7C4BAC",
"+X c #7B54A3",
"@X c #7E49B4",
"#X c #2375C2",
"$X c #577AD4",
"%X c #8C2F88",
"&X c #933AA5",
"*X c #8F4C92",
"=X c #8B6F92",
"-X c #836A9B",
";X c #8B48AC",
":X c #835BAC",
">X c #824CB7",
",X c #865CB3",
"<X c #875AB5",
"1X c #8569A4",
"2X c #8C76A9",
"3X c #9673AA",
"4X c #8D65B6",
"5X c #926ABA",
"6X c #9575B7",
"7X c #9472BB",
"8X c #9B7CBD",
"9X c #A975BA",
"0X c #9469C2",
"qX c #9874C2",
"wX c #9B7CC2",
"eX c #A77ECC",
"rX c #5285B8",
"tX c #4C8FEB",
"yX c #8D8A8F",
"uX c #BDB394",
"iX c #8F82AC",
"pX c #9A85A9",
"aX c #9B86BA",
"sX c #A78DB7",
"dX c #AAAAAE",
"fX c #D3AFA7",
"gX c #E9D9A0",
"hX c #FAECB6",
"jX c #9E83C2",
"kX c #A285C5",
"lX c #A38CC5",
"zX c #A68ACA",
"xX c #A692C7",
"cX c #A994CB",
"vX c #AB9ACD",
"bX c #B799C9",
"nX c #B091D2",
"mX c #B799D4",
"MX c #B6A5CB",
"NX c #B9A3D7",
"BX c #C29FDC",
"VX c #C4B7CF",
"CX c #C5A5DB",
"ZX c #CAACE2",
"AX c #D2B4E8",
"SX c #D3CCD7",
"DX c #F9EFD2",
"FX c #EBDBF2",
"GX c #F0ECF2",
/* pixels */
"m.m.m.m.m.m.m.m.m.m.m.m.m.m.m.m.m.m.m.m.m.j.<.n.-.n.n.n.m.m.m.m.m.m.m.m.m.m.m.m.m.m.m.m.m.m.m.m.m.m.m.m.m.m.m.m.m.m.m.m.m.m.m.m.",
"m.m.m.m.m.m.m.m.m.m.m.m.m.m.m.m.m.m.m.m.m.m.h.<.n.n.m.m.m.m.m.m.m.m.m.m.m.m.m.m.m.m.m.m.m.m.m.m.m.m.m.m.m.m.m.m.m.m.m.m.m.m.m.m.",
"m.m.m.m.m.m.m.m.m.m.m.m.m.m.m.m.m.m.m.m.m.m.n.j.m.m.m.m.m.m.m.m.m.m.m.m.m.m.m.m.m.m.m.m.m.m.m.m.m.m.m.m.m.m.m.m.m.m.m.m.m.m.m.m.",
"m.m.m.m.m.m.m.m.m.m.m.m.m.m.m.m.m.m.m.m.m.m.m.m.m.m.m.m.m.m.m.m.m.m.m.m.m.m.m.m.m.m.m.m.m.m.m.m.m.m.m.m.m.m.m.m.m.m.m.m.m.m.m.m.",
"m.m.m.m.m.m.m.m.m.m.m.m.m.m.m.m.m.m.m.m.m.m.m.m.m.m.m.m.N.l.m.m.m.m.m.m.m.m.m.m.m.m.m.m.m.m.m.m.m.m.m.m.m.m.m.m.m.m.m.m.m.m.m.m.",
"m.m.m.m.m.m.m.m.m.m.m.m.m.m.m.m.m.m.m.m.m.m.m.m.1.*.=.=.E d.*.=.*.*.=.*.*.=.*.;.n.m.m.m.m.m.m.m.m.m.m.m.m.m.m.m.m.m.m.m.m.m.m.m.",
"m.m.m.m.m.m.m.m.m.m.m.m.m.m.m.m.m.m.m.m.m.m.m.n.Z @ @ = 1 $ = @ = = = = = = @ a h.N.m.m.m.m.m.m.m.m.m.m.m.m.m.m.m.m.m.m.m.m.m.m.",
"m.m.m.m.m.m.m.m.m.m.m.m.m.m.m.m.m.m.m.m.h.%.S S #.[ [ [ :.[ ( / y Q Q Q / y % 2 1.c.N.m.m.m.m.m.m.m.m.m.m.m.m.m.m.m.m.m.m.m.m.m.",
"m.m.m.m.j.j.j.j.j.m.m.m.m.m.m.m.m.m.m.m.&.2   ; 4.6XaXjXaXaX5X+XoXoXoX_.oX/.0 p f.c.N.m.m.m.m.m.m.m.m.m.m.m.m.m.m.m.m.m.m.m.m.m.",
"m.m.m.=.N a a a S j.m.m.m.m.m.m.m.m.n.$.a _ { ..}.0XzXvXNXmXnXwX4X>X@X@X+./ V ,.k.c.l.m.m.n.m.m.m.m.m.m.m.m.m.m.m.m.m.m.m.m.m.m.",
"m.m.m.%.o - 8 5 8 &.f.<.j.m.m.m.m.j.*.f Q }.@XoX_.). X1XiXiX2X1X X).(./.y @ D z.<.z.d.;.<.<.;.1.<.<.j.m.m.m.m.m.m.m.m.m.m.m.m.m.",
"m.m.m.F . 2.uXY.t.8 1 3 &.m.m.m.n.F d 4. X5X4XOX..q t i h d d t e 0 0 0 %   - 3 1 3 2 2 2 2 2 2 1 p -.m.m.m.m.m.m.m.m.m.m.m.m.m.",
"m.m.m.=.a 2.uX^.Y.J 6 H A %.%.;.n.C % 5.qX5X XO.0   & t w t t t y h y e t t t t t t t t t t t t & X %.m.m.m.m.m.m.m.m.m.m.m.m.m.",
"m.m.m.j.f.C A uXgXS.C.K.P + o N f.C % +.OXOXO.&   & O._._._.).(.|.+X:X}.).)._._.).)._._.).)._.).Q = &.m.m.m.m.m.m.m.m.m.m.m.m.m.",
"m.m.m.m.m.=.Z 2.W.V.T.^.S.H b 7 C ( { (.OX<X|.} / _ ).@X<X0X<X+.+.6XqX>X@X@X@X@XOX>X>X>XoXO._ _ ( Z <.m.m.m.m.m.m.m.m.m.m.m.m.m.",
"m.m.m.m.m.m.h.a 5 e.!.gX!.V.V.Y , / ).oX>X5X8X7X,XOXOX<X7X8X-Xh q {.:X}._._._.`._._._.oX+.q X @ S n.m.m.m.m.m.m.m.m.m.m.m.m.m.m.",
"m.m.m.m.m.m.m.=.Z 7 T !.D.Z.K.Z.Y n Q /.:XjXcXcXkXkXnXBXZX-X( o X d ! y y y y y y y y y y S %.%.f.m.m.m.m.m.m.m.m.m.m.m.m.m.m.m.",
"m.m.m.m.m.m.m.m.;.p 7 Y V.K.E.E.y.7 t /.<XkXcXxXxXcXZXAXBX6.  @ - 1 1 - - - = - - - 1 - a <.m.m.m.m.m.m.m.m.m.m.m.m.m.m.m.m.m.m.",
"m.m.m.m.m.m.m.m.n.<.Z 5 L A.gXQ.8 ! (.:X7X8XwX8X8XkXvXnX4X{ X V ;.;.;.;.-.-.=.-.-.-.<.=.<.j.m.m.m.m.m.m.m.m.m.m.m.m.m.m.m.m.m.m.",
"m.m.m.m.m.m.m.m.j.&.( y n T Q.8.( O.OX5X8XjXkXkXzXlXlXqXOXO.! V *.m.m.m.n.n.m.m.m.m.m.m.m.m.m.m.m.m.m.m.m.m.m.m.m.m.m.m.m.m.m.m.",
"m.m.m.m.m.m.m.m.=.- ! (./ # @ / ).oXOX5XkXxXxXxXxXjXjX4XOXOX_.u i <.m.n.m.m.m.m.m.m.m.m.m.m.m.m.m.m.m.m.m.m.m.m.m.m.m.m.m.m.m.m.",
"m.m.m.m.m.m.m.m.*.* ) 4X}.~ ~ O.:X5X8XmXmXnX1X:.) :. X4X4X5X<X+._ f %.j.m.m.m.m.m.m.m.m.m.m.m.m.m.m.m.m.m.m.m.m.m.m.m.m.m.m.m.m.",
"m.k.m.m.m.m.m.j.&.i 3.aX5XOXOX4X7XxXmXZXCX6X} o o j +.}.1X4X7X<X/.& f j.M.M.m.m.m.m.m.m.m.m.m.m.m.m.m.m.m.j.<.<.h.m.m.m.m.m.m.l.",
"m.c.l.m.m.m.j.C f {.2X8X7X5XwXxXxXNXZXBX2X) % o 8.dX:.0 e 6.7X<X/.& f j.x.x.m.m.m.m.m.m.m.m.m.m.m.m.m.m.m.%.3 1 a <.m.m.m.m.N.v.",
"m.c.N.j.&.&.%.k 4.MXNXvXkXzXmXCXNXZXCX3Xo.> O X s.fXk   0 +.6X4X}.! d E z.c.n.n.m.m.m.m.m.m.m.m.m.m.m.m.m.S . 4 b G ;.j.l.x.l.b.",
"m.c.l.E 1 o ; 5.sXFXFXAXmXvXCXAXAXBX6X) < v z O c q.: 0 /.:X6X8X4X}.{ ; E f.m.m.m.m.m.m.m.m.m.m.m.m.m.n.m.Z # e.C.7 N h.x.x.N.v.",
"m.c.l.E o e } X.6.yXyX8.2XzXCXZXmX-X} % : 9.9.z 9.9.: t  XeXmXqX<X>X..% B j.m.m.m.m.m.m.m.m.m.m.m.j.%.Z Z 3 + u.H.6 p h.l.c.m.l.",
"m.l.m.E * } 1X)   X X 0 7.kXcXcX8X4.& X > v 0.0.0.v : ( 4XBXZXqXOXoX{ o N j.m.m.m.m.m.m.m.m.m.m.m.f.p X ; o $ V.H.6 p h.l.l.m.m.",
"m.m.m.G @ 4.aX|.Q   q 5.aXCXbXlX8X-X{.7.| > > > > > | -XmXZXNXzXXX_ 0   = N <.m.m.m.m.m.m.m.m.m.m.f.3 d B.W.U K.J.6 p h.m.m.m.m.",
"m.m.m.F @ 4.jX0X(.j X.7XBXCXCXzX7XjXvXnX2X) d h d ) XXnXAXCXvXvX2X! % 0 0 q F ;.=.=.<.h.m.m.m.m.m.;.i A VX^.Z.P.F.4 p h.m.m.m.m.",
"m.m.m.%.o _ <X5X6X2XXX>X7XnXZXnX<X7XvXZXNX6XiXxXsXbXvXvXMXvXvXlX4X}././.(.O.i - ; - 2 &.m.m.m.m.j.g.i 5 S.T.I.L.y., p h.m.m.m.m.",
"m.m.m.=.N ( O.+XjXcXqX@X:X8XBXnX>X4XzXmXmXzXnXZXAXAXNXvXxXjXwXjX8X5X<X0X<X+XX.! y y y V F F F F %.E 8 K C.P.U.V.J 8 S h.m.m.m.m.",
"m.m.m.m.h.f ; {.wX8X1XoX4XaX8X4XoX<X8X<XOXoX4X9XlXvXcXsX6X4XOXwXxXxXjX5X6X6X2X:XoXoX(./ o o + + + , U Z.P.R.P.K 1 &.n.m.m.m.m.m.",
"m.m.m.m.m.N ; yXMX3.! { pXMX7./ { -XnX5.Q ! {.bXXX6.2X2XX.+.OXwXvXvXXX4.{.8XzXzXwX5X:X+.Q % $ J Y t.G.I.R.U.G.b @ ,.m.m.m.m.m.m.",
"m.m.m.m.n.Z f dXdXk   * yXdX[   . 6.sX| O O 3.sX>.< 6.6.3 ! ).6XjX2Xo.q 5.8XzXvXvXlXwX<X/.0 4 e.Z.L.P.U.U.H.t.7 3 ;.m.m.m.m.m.m.",
"m.m.m.m.m.f.%.:.:.O.y   g >.o.~ X ; k x v v x M x c r g P n y }. X) ! O. X8XxXvXvXvXzXwX Xq . 4 6 J V.K.H.Y 6 B =.j.m.m.m.m.m.m.",
"m.m.m.m.m.m.h.p 0 _.}.y 0 y ....: : > 9.0.9.z : z v x P C.t.b | ..y X.4X5XkXxXvXvXvXvXlX Xe % 0 0 e J Y U H i *.m.m.m.m.m.m.m.m.",
"m.m.m.m.m.m.f.i e -X6X-XoXO.t > 9.9.9.0.9.> l v l 6 u.P.I.I.G.n y {.2XjXcXcXvXvXvXvXvXkX Xq 0 /._./.d + $ f <.n.m.m.m.m.m.m.m.m.",
"N.N.m.m.m.=.S ) 5.6XxXkX X{ > v w.9.z z z l v 0.> $ F.R.P.Z.e.M ..1XcXvXvXxX8XwXcXvXcXqX{.0 t oX0X4X5.) } #.S f.m.m.m.m.m.m.m.m.",
"v.b.l.m.j.C ; 7.aXxXnXaX} O v w.0.z O . : v 0.0.l 6 Z.P.V.J < o.OX5XjXvXvXjX4X,XkXvXcX4X+.; y ).0XjX6XaXlX7.2 S j.m.m.m.m.m.m.m.",
"N.c.b.l.l.R @ {.nXzX9X*XQ : 9.9.l I t.4   : > > I u.J.u.b g 3.%X&X;XqXvXMXxX7X4X4XzXxX5.h J H / {.jX0XqXxXaX7.#.C h.m.m.m.m.m.m.",
"m.M.v.v.z.8 h .XjX-X*X%Xr O c z O P C.K 4 4 4 6 t.G.u.I g 3.*Xa.@./. X8XzXzXwX4XOX+XXXk 6 y.U O )  X+X@XxXsX2X[ e $.f.n.m.m.m.m.",
"m.m.g.E 8 m @.5X-X/ ' p.r   O O   # b u.J.J.J.F.U 4 , M 3X9Xa.' & & ' &X;X<X5X0XOXO.h J t.V.P . % Q /.0XxX.Xh ' ] e B k.c.l.m.m.",
"m.m.<.S . ' %X%X} % m %Xm   2 f 3 f 8 T u.C.u.u.R ^ u | =X*X] O   < ' %X@.O.+X*X+.[ J S.!.K.Y O = p _ 5.{.} r ' ] r R z.c.l.m.m.",
"m.m.h.S o ' p.r     '  .r = %.j.h.j.<.f , O # $ ].$X|.] e % O   w  .%X=X| w  . .w P I.gXhXE.t.$ C ;.i % % '  .m < ] a.z.k.m.m.m.",
"m.m.m.$.X ' p.w @ N k r & @ =.m.n.;.B 7 6 O 9 ` #XtX$X7.J , X :.=X*Xs.| / { p. .O P R.hXDXE.u.$ $.n.*.a o m p.r & p.*X1.f.m.m.m.",
"m.m.m.&.; '  .w 2 ;.%.@ X 3 =.m.f.B 4 e.e., 9 ].$XtXtXrXi.J ; .XBX=X>.o { '.%X] < e.T.DXDXE.y.$ N f.h.$.. m p.r & ] @.n.m.m.m.m.",
"m.m.m.f.&.k w O 2 <.h.&.%.*.j.=.a L C.L.C., B W 8.;X*X[.[.s X h M h & X ..`.~ < K Q.hXGXDX!.Y + = i p 1   ' p.r O w k n.m.m.m.m.",
"m.m.m.m.m.F 2 - N f.m.m.m.m.m.%.. U R.R.H.b 7 U i.a.a._.#X`   # , b , . ! o.d J C.~.hXDXgXD.Y 6     $ $   r ] j 2 ; C j.m.m.m.m.",
"m.m.m.m.m.j.<.;.f.j.m.m.m.m.m.%.@ Y U.R.P.V.J 4 K i.[.#X].` o J u.G.e.+ % < P C.P.R.E.E.E.Z.V.r.7 + P P + X & A <.<.h.m.m.m.m.m.",
"m.m.m.m.m.m.m.m.m.m.m.m.m.m.m.;.N H t.H.P.L.u.J J H ^ ` ` 9 . 7 U t.J .     b e.L.U.R.U.U.L.L.H.e.J C.Z.U 6 + F m.m.m.m.m.m.m.m.",
"m.m.m.m.m.m.m.m.m.m.m.m.m.m.m.m.j.C 5 P Z.L.J.y.b o * * o . . . . # + X X   X 7 r.H.I.I.P.I.U.U.G.C.L.U.I.Y + F m.m.m.m.m.m.m.m.",
"m.m.m.m.m.m.m.m.m.m.m.m.m.m.m.m.m.<.Z 7 b J J b b T W.W.L P L $ o N F S S Z S B 7 J J K U Z.L.H.Z.Z.K.P.R.r.+ F m.m.m.m.m.m.m.m.",
"m.m.m.m.m.m.m.m.m.m.m.m.m.m.m.m.m.m.h.p o q & . I !.DXDXA.y.Y 7 p <.m.m.j.<.;.C @ . $   $ P y.V.V.r.Y V.I.e.# S m.m.m.m.m.m.m.m.",
"m.m.m.m.m.m.m.m.m.m.m.m.m.m.m.m.m.m.h.3 d =X6.; W.DXFXfXA.P 5 A <.j.m.m.m.f.f @   b P 4   # J V.K $ $ L L.r.+ F m.m.m.m.m.m.m.m.",
"m.m.m.m.m.m.m.m.m.m.m.m.m.m.m.m.m.m.j.S #.=X3.* 2.dXiXs.T b f ;.m.m.m.m.<.F k j :.R P n k :.R P R >.:.i.I.t.+ F m.m.m.m.m.m.m.m.",
"m.m.m.m.m.m.m.m.m.m.m.m.m.m.m.m.m.m.m.n.&.d o X - ; ; ; # B h.m.m.m.m.n.C ; 3.pXCX8.< | pXSXyX8 s.FXFXgXE.e.# F m.m.m.m.m.m.m.m.",
"m.m.m.m.m.m.m.m.m.m.m.m.m.m.m.m.m.m.m.m.h.S N C C C C N C =.m.m.c.N.m.j.a X M 3.7.7.8.sXVXyXB.yXSXGXFXuXr.H Z ;.m.m.m.m.m.m.m.m.",
"m.m.m.m.m.m.m.m.m.m.m.m.m.m.m.m.m.m.m.m.m.j.m.n.j.m.n.n.n.n.m.N.c.c.N.j.C o . . @ 2.MXCX3Xg >.SXSXMXpX2.q C j.m.m.m.m.m.m.m.m.m.",
"m.m.m.m.m.m.m.m.m.m.m.m.m.m.m.m.m.m.m.N.l.m.m.m.m.m.m.m.m.m.m.m.v.b.l.n.<.E %.&.%.:.[ :.R #.&.>.>.[ j h S <.m.m.m.m.m.m.m.m.m.m.",
"m.m.m.m.m.m.m.m.m.m.m.m.m.m.m.m.m.m.m.x.x.m.m.m.m.m.m.m.m.m.m.m.x.b.k.j.c.c.m.m.m.%.2 = a f.*.i - - - N h.m.m.m.m.m.m.m.m.m.m.m.",
"m.m.m.m.m.m.m.m.m.m.m.m.m.m.m.m.m.m.n.x.x.m.l.m.m.m.m.m.m.m.m.m.m.z.d.z.v.k.m.m.m.j.;.;.f.j.j.<.-.<.-.<.n.m.m.m.m.m.m.m.m.m.m.m.",
"m.m.m.m.m.m.m.m.m.m.m.m.m.m.m.m.m.m.n.x.x.N.c.m.m.m.m.m.m.m.m.m.m.;.z.c.k.f.m.m.m.m.m.m.m.m.m.m.m.m.m.m.m.m.m.m.m.m.m.m.m.m.m.m.",
"m.m.m.m.m.m.m.m.m.m.m.m.m.m.m.m.m.m.m.x.x.l.c.M.m.m.m.m.m.m.m.m.m.m.<.,.f.m.m.m.m.m.m.m.m.m.m.m.m.m.m.m.m.m.m.m.m.m.m.m.m.m.m.m."
};
