/* XPM */
static char *result[] = {
/* columns rows colors chars-per-pixel */
"64 64 253 2 ",
"   c #030202",
".  c #090805",
"X  c #050409",
"o  c #0B0B0C",
"O  c #150903",
"+  c #0B140E",
"@  c #151101",
"#  c #1A1500",
"$  c #191707",
"%  c #0C0913",
"&  c #130B1A",
"*  c #0D1812",
"=  c #161818",
"-  c #2B0F0D",
";  c #241C01",
":  c #241B06",
">  c #132116",
",  c #1F2A14",
"<  c #142419",
"1  c #18291D",
"2  c #2B2505",
"3  c #342701",
"4  c #3B3407",
"5  c #262F15",
"6  c #393416",
"7  c #170C23",
"8  c #0F142F",
"9  c #1B1327",
"0  c #251829",
"q  c #360F32",
"w  c #251536",
"e  c #281838",
"r  c #1B2B28",
"t  c #1B3423",
"y  c #1E3A27",
"u  c #252527",
"i  c #233D28",
"p  c #2C2436",
"a  c #33273A",
"s  c #2A3736",
"d  c #343234",
"f  c #4B0502",
"g  c #580405",
"h  c #640706",
"j  c #7C0000",
"k  c #443502",
"l  c #4C3B01",
"z  c #523D00",
"x  c #4A3712",
"c  c #451233",
"v  c #522C34",
"b  c #33411E",
"n  c #23432D",
"m  c #2D482A",
"M  c #264931",
"N  c #294A33",
"B  c #394B31",
"V  c #2D5539",
"C  c #355737",
"Z  c #315C3E",
"A  c #3A613A",
"S  c #544301",
"D  c #594603",
"F  c #5C4A00",
"G  c #4B4510",
"H  c #644D02",
"J  c #695402",
"K  c #755903",
"L  c #675714",
"P  c #7B6302",
"I  c #746616",
"U  c #514B35",
"Y  c #586636",
"T  c #001F4B",
"R  c #2C1944",
"E  c #321D48",
"W  c #391D55",
"Q  c #062B4C",
"!  c #342F47",
"~  c #352848",
"^  c #3C3547",
"/  c #3C2457",
"(  c #51144F",
")  c #443948",
"_  c #422858",
"`  c #483A58",
"'  c #553553",
"]  c #60285E",
"[  c #472866",
"{  c #4C3368",
"}  c #513170",
"|  c #563379",
" . c #722B71",
".. c #355342",
"X. c #356443",
"o. c #386947",
"O. c #3A6D49",
"+. c #3D724D",
"@. c #3F7750",
"#. c #3F7851",
"$. c #205276",
"%. c #4C4457",
"&. c #544658",
"*. c #555652",
"=. c #68534E",
"-. c #4A764D",
";. c #407751",
":. c #417C53",
">. c #7B6C4C",
",. c #57476A",
"<. c #5C4F70",
"1. c #6B5573",
"2. c #655877",
"3. c #726A77",
"4. c #8E0404",
"5. c #A70700",
"6. c #A30F14",
"7. c #82551C",
"8. c #886A01",
"9. c #917103",
"0. c #997800",
"q. c #A47A00",
"w. c #AF770C",
"e. c #D66F00",
"r. c #DA7D33",
"t. c #8D296E",
"y. c #9C5F68",
"u. c #54894F",
"i. c #448157",
"p. c #4C8856",
"a. c #46855A",
"s. c #498B5D",
"d. c #57955A",
"f. c #5B9B5E",
"g. c #65974E",
"h. c #69A459",
"j. c #74AC57",
"k. c #75AD57",
"l. c #7EB254",
"z. c #4B8F60",
"x. c #4D9262",
"c. c #539660",
"v. c #569860",
"b. c #7E8462",
"n. c #A58300",
"m. c #AB8803",
"M. c #B68B01",
"N. c #BB9300",
"B. c #AF8E17",
"V. c #9F8935",
"C. c #AD912D",
"Z. c #C28E00",
"A. c #C39400",
"S. c #CB9A00",
"D. c #D49D05",
"F. c #D9A400",
"G. c #DCA401",
"H. c #E4AA02",
"J. c #EDAF0A",
"K. c #F3B400",
"L. c #FEBC00",
"P. c #FBBA05",
"I. c #D2A630",
"U. c #EAB725",
"Y. c #FFC401",
"T. c #FFC51E",
"R. c #FFC926",
"E. c #B7A54A",
"W. c #A29564",
"Q. c #D1A84B",
"!. c #C7B44B",
"~. c #E9CC57",
"^. c #F5D771",
"/. c #583187",
"(. c #5C3684",
"). c #623A88",
"_. c #683C95",
"`. c #773191",
"'. c #6B3FA1",
"]. c #0E4D93",
"[. c #1161B3",
"{. c #2360A6",
"}. c #674689",
"|. c #6D4A8E",
" X c #75598A",
".X c #73489B",
"XX c #785998",
"oX c #7A678F",
"OX c #7747A8",
"+X c #7D55A7",
"@X c #7750B4",
"#X c #6060AD",
"$X c #1F79D2",
"%X c #5A6BD5",
"&X c #5676D2",
"*X c #676EC8",
"=X c #8D1E83",
"-X c #922D8C",
";X c #893498",
":X c #90528B",
">X c #877094",
",X c #845AAB",
"<X c #8749B1",
"1X c #8659B4",
"2X c #8767A8",
"3X c #8A77A7",
"4X c #9679AA",
"5X c #8D65B7",
"6X c #926ABA",
"7X c #9573BB",
"8X c #9676B9",
"9X c #9C7CBD",
"0X c #AC63A0",
"qX c #966AC3",
"wX c #9B79C2",
"eX c #A37BC6",
"rX c #768F90",
"tX c #3093EF",
"yX c #3A98F2",
"uX c #538FD7",
"iX c #679EC2",
"pX c #4892EB",
"aX c #8D8F89",
"sX c #9FA88D",
"dX c #9384AB",
"fX c #9B88B9",
"gX c #AA90B4",
"hX c #A8A5AD",
"jX c #DDCF95",
"kX c #EFD995",
"lX c #FCE68A",
"zX c #CBC6AF",
"xX c #F3E8A8",
"cX c #9E83C2",
"vX c #A38CC5",
"bX c #A688C8",
"nX c #AA95CB",
"mX c #A996CA",
"MX c #B697C7",
"NX c #B191D3",
"BX c #B699D4",
"VX c #ADA1CF",
"CX c #BAA3D8",
"ZX c #C39EDC",
"AX c #C3A6DC",
"SX c #CABBD1",
"DX c #CAABE2",
"FX c #CFB0E5",
"GX c #D3B3E7",
"HX c #D1C8D1",
"JX c #E0DAE2",
"KX c #E8D8F0",
"LX c #F5EAF3",
/* pixels */
"x.x.x.x.x.x.x.x.x.x.x.x.x.x.x.x.x.x.x.x.x.s.#.z.#.s.x.x.x.x.x.x.x.x.x.x.x.x.x.x.x.x.x.x.x.x.x.x.x.x.x.x.x.x.x.x.x.x.x.x.x.x.x.x.",
"x.x.x.x.x.x.x.x.x.x.x.x.x.x.x.x.x.x.x.x.x.z.s.#.s.x.x.x.x.x.x.x.x.x.x.x.x.x.x.x.x.x.x.x.x.x.x.x.x.x.x.x.x.x.x.x.x.x.x.x.x.x.x.x.",
"x.x.x.x.x.x.x.x.x.x.x.x.x.x.x.x.x.x.x.x.x.x.x.s.x.x.x.x.x.x.x.x.x.x.x.x.x.x.x.x.x.x.x.x.x.x.x.x.x.x.x.x.x.x.x.x.x.x.x.x.x.x.x.x.",
"x.x.x.x.x.x.x.x.x.x.x.x.x.x.x.x.x.x.x.x.x.x.x.x.x.x.x.x.x.x.x.x.x.x.x.x.x.x.x.x.x.x.x.x.x.x.x.x.x.x.x.x.x.x.x.x.x.x.x.x.x.x.x.x.",
"x.x.x.x.x.x.x.x.x.x.x.x.x.x.x.x.z.x.x.x.x.x.x.x.x.x.x.z.c.v.x.x.x.x.x.x.x.x.x.x.z.x.x.x.x.x.x.x.x.x.x.x.x.x.x.x.x.x.x.x.x.x.x.x.",
"x.x.x.x.x.x.x.x.x.x.x.a.:.@.@.@.i.s.x.x.x.x.x.x.x.x.x.d.h.j.z.i.#.#.#.#.#.#.#.#.@.@.#.i.x.x.x.x.x.x.x.x.x.x.x.x.x.x.x.x.x.x.x.x.",
"x.x.x.x.x.x.x.x.x.x.x.X.1 < < > y i.x.x.x.x.x.x.d.x.x.h.l.h.p.m > > < < < < < < < < < N s.x.x.x.x.x.x.x.x.x.x.x.x.x.x.x.x.x.x.x.",
"x.x.x.x.x.x.x.x.x.x.x.V . u U x G C o.o.:.x.x.c.j.v.x.d.u.-.Z s p p a ! d a a p e 7   < X.o.O.a.x.x.x.x.x.x.x.x.x.x.x.x.x.x.x.x.",
"x.x.x.x.x.x.x.x.x.x.x.V + b.zX~.n.5 . * V s.x.x.k.k.u.A > + 9 <.2XoX3X3XdXdX3X+X.X[ &   % + < o.x.x.x.x.x.x.x.x.x.x.x.x.x.x.x.x.",
"x.x.x.x.x.x.x.x.x.x.x.+.M *.W.^.~.I l F G V V X.-.g.Y s R e / |.2X}.<.2.2.2.<.<.OX.X{ ~ E E R s V V V V V V #.x.x.x.x.x.x.x.x.x.",
"x.x.x.x.x.x.x.x.x.x.x.x.a.n d sXjXC.N.H.8.$ X < A A = E _.OXOXOX).e % & = & % 0 | +X2X2XOX'.}.R o o o . X + V x.x.x.x.x.x.x.x.x.",
"x.x.x.x.x.x.x.x.x.x.x.x.x.:.C *.>.B.U.^.E.F S S n s / /.OX1X5X5X+X[ W W _ ` { ` ~ { 6XqX<X@XOX| / [ [ [ w   V x.x.x.x.x.x.x.x.x.",
"x.x.x.x.x.x.x.x.x.x.x.x.x.x.i.i 2 P E.xX~.m.m.0.4 0 | OXOX1XwXcX7X,X@X1X5XeXbX2X~ a  X+X|._._._._._._._./ * Z x.x.x.x.x.x.x.x.x.",
"x.x.x.x.x.x.x.x.x.x.x.x.x.x.z.@.V 2 L E.C.M.F.S.0.D 0 [ .X7XvXmXvXcXbXBXDXAXBXvX3X<.! 0 w w w w e e w w s X.a.x.x.x.x.x.x.x.x.x.",
"x.x.x.x.x.x.x.x.x.x.x.x.x.x.x.x.i.y 5 P n.B.U.R.m.H 0 / OX8XvXmXnXvXCXFXGXZXfX3XfX3X! +       * < < > < Z z.x.x.x.x.x.x.x.x.x.x.",
"x.x.x.x.x.x.x.x.x.x.x.x.x.x.x.x.x.i.m , S B.^.kXU u } .X6X9XwX9XwX9XvXBXbX1X' a }.5X3X,.X   . N #.#.@.@.a.x.x.x.x.x.x.x.x.x.x.x.",
"x.x.x.x.x.x.x.x.x.x.x.x.x.x.x.x.s.O...e 6 L W.W.` W _.1XqXfXfXcXwXfXvXvX6X'.[ w W }.wXoX! = X n X.X.X.X.#.x.x.x.x.x.x.x.x.x.x.x.",
"x.x.x.x.x.x.x.x.x.x.x.x.x.x.x.x.+.1 R )._ $ + w | .XOX1X7XbXmXmXmXmXvXwX5XOX'.(.w e _.1X2X) X . + + o + M s.x.z.x.x.x.x.x.x.x.x.",
"x.x.x.x.x.x.x.x.x.x.x.x.x.x.x.x.+.* a +X}.W R W .X5X6X9XcXBXDXFXDXCXBXnX7X5X1X,X[ E W ).1X|._ _ %.%.%.` ^ M M V i.x.x.x.x.x.x.x.",
"x.x.x.x.x.x.x.x.x.x.x.x.x.x.x.s.o.< ` dXqXOXOX@X6XcXmXmXVXAXGXFXCXmXfXfX4X5X7X7X@X| & e _.'._.5XfXvXcX8X,.& X = X.s.a.s.x.x.x.x.",
"x.x.x.x.x.x.x.x.x.x.x.x.x.x.s.V n <.oXwXwX5X7XwXvXnXAXGXDXZXqX1.%.) ) ` ! ^  XqX1X| & X e R / oXNXCXVXbX+X[ [ [ s y y V s.x.x.x.",
"x.x.x.x.x.x.x.x.x.x.x.s.:.:.o.r ^ fXCXbXwXcXnXVXBXAXGXGXDX7X| q O O .   X 7 2.6X1X).w %   + < 2.3XdX3XXX+XOX<X'.E %   t i.x.x.x.",
"x.c.x.x.x.x.x.x.x.x.x.X.1 < r ,.dXJXLXGXBXnXCXGXGXAXNXeX5X| 0 g j j f   w | ,X8X7X2X).E . y X.s ! p r p { OX@X'._./ & t a.x.x.c.",
"x.j.f.x.x.x.:.o.o.O.o.i   = a ,.oXhXhXgXfXmXAXGXFXMXXX).[ w   f j j g q [ ,XeXbXqX1X<X[ % V s.V < < 1 1 ! } /.} /.[ u V s.x.v.k.",
"x.j.v.x.x.p.n + + + + . X `  X^ 9 u u 0 <.9XnXBXbXXXa & & X   O O O q | ,X7XZXZX6X@XOX[ % N z.s.#.:.#.#.N 7 & & & r o.a.f.h.v.k.",
"x.j.v.h.u.V a c q c 4 2 o <.9X| 9   X a  XNXMXmXcXoX%.^ ! E R R R ~ } ,XeXMXAXZXwX+X} w   1 ..a.x.x.x.x.@.y y y t V a.z.h.h.v.k.",
"c.k.v.g.C 0 ( =X=Xt.9.D + <.cX5X| 7 p XXBXFXAXnX9X9XfXfX7X,X.XOXOX2X8X9XBXGXAXmXmX>Xe X X X * X.x.z.z.z.s.a.s.s.a.s.x.x.h.j.c.v.",
"x.f.:.C *.3.] ( `.y.w.F o { 6XqX+X2. X5XeXBXDXBX7XqXnXCXBXNXwXeXNXZXBXbXBXAXCXmXmX2X{ W _ [ _ s M n n n o.x.x.x.x.x.x.x.c.v.x.c.",
"x.x.Z + <.gX` & (.y.w.I : _ .X,XcXvX9X@X,XeXZXZX5X@XvXBXFXBXnXAXGXGXFXVXmXmXmXvXeX6X+X.X_..X(.R % % % & n #.z.#.i.i.i.a.z.z.x.x.",
"x.x.Z . u ) * % | >XD.D.w.x ~  XcXbX7X@X,X7XNXbX1X1X8XeXqXqX6XbXBXAXCXVXmXcX6X5X7X7X6X}.R w R / } [ } [ ~ 1 r t t 1 t V s.x.x.x.",
"x.x.o.1 o   o p ).y.U.L.P.J &  XvX2X}.).2XnX4X X).XX9X2X)./.).6XbX3XdXcX4XXX.X@X6XwXwX<.X X ! }.1X@X1X1X| 9 X . @ # . t a.x.x.x.",
"x.x.s.+.i . ) :X-Xy.J.P.P.H 0 hXHX%.% 9 >XHX3.9 & { nX3Xe % e 4XvX%.` 4X2.e } @X6XwXwX,.+ ^ oXcXbXbXbXbX2X| w @ F H # t a.x.x.x.",
"x.x.a.o.%.,.:X:X .t.I.U.G.P 6 W.aX1     *.aX=.- - v 0Xy.- - g y.y.0 7 { %.3 a | ,X2X X,.^ oXVXnXvXcXcXwXqX+X/ # 9.0.; t a.x.x.x.",
"x.x.X.< 1.BX0X .- e  .y.B.n.8.x & X     = - h 4.4.4.5.6.5.4.4.6.4.-   = D 8.l 0 | | 0 ) dXmXmXvXwX@X+X@X5X5X! : m.N.3 t a.x.x.x.",
"x.x.C . d 3.] c o % R ] y.7.S m t . ; K H k f h 5.5.5.5.5.j g f f k D J q.S.q.K y.U O E 2XbXcXvXfX7X1XOX<X+XE ; Z.Z.3 t a.x.x.x.",
"x.x.X.+ . o + o   X X c t.c > o.+.> z S.D.q.k - 4.5.5.5.5.g O O 3 8.A.J.P.P.J.H.M.K $ E .X1XwXvXnXmXwX@XOXOXR ; M.Z.3 r a.x.x.x.",
"x.x.:...V V Z n + = &.' q s ..s.s.X.b J m.H.M.q.e.e.e.e.e.w.9.9.q.D.K.Y.K.F.F.N.J k ' 1.-X<X1XcXVXVXbX5X1X'.R ; M.Z.3 t a.c.z.z.",
"z.x.x.x.x.x.x.#.> 0 1.' = X.x.x.x.x.o., J D.H.P.K.Y.L.L.L.L.K.K.K.K.K.K.D.m.0.P 6 ^ :X:Xt.`._.5XbXbXbX9X,X).e 4 Z.Z.; t a.z.z.c.",
"x.f.x.x.x.x.x.:.> o 0 m X.a.x.x.x.x.z.+.m l 9.D.K.L.L.Y.L.G.A.A.A.A.N.A.N.m.F 6 y.9X:X .q 7 w  .<X5X6X8X1.e x 8.H.Z.2 i a.x.x.x.",
"k.l.f.x.x.c.d.:.n > < V x.x.x.x.s.+.O.O.m 3 P S.K.L.Y.L.L.H.A.N.N.N.A.A.n.K k 6 >X6Xt.q     q t.-X .|.,X] o J F.P.Z.2 t a.x.x.x.",
"d.j.k.f.f.k.h.x.:.:.:.a.z.x.x.x.#.t + * G 9.S.K.P.L.L.P.P.K.J.K.K.K.K.K.8.; H P 6 9 & % . c t.:X Xp q -X( O 8.K.L.Z.2 t p.x.x.x.",
"x.x.j.l.l.j.d.x.x.x.x.x.x.x.z.O.m 4 # . F S.L.P.Q.E.I.r.r.Q.!.U.Y.K.S.0.K H V.Q.L :   = &.:X:X1.&.~ ( =X( O 9.K.Z.K b Z a.x.x.x.",
"x.x.s.g.h.p.x.x.x.x.x.x.x.z.:.t 2 8.L O K J.Y.U.dXiX-Xt.-X*XiX!.K.A.K 3 K J.^.xXE.K ; ` gXgX:Xa 9 | ;X=X( O 9.G.H , -.d.h.h.x.x.",
"x.x.#.p.p.s.x.x.x.x.x.x.z.O.m x I !.W.+ K P.!.aX*X<X-X;X@X&XpX!.G.K S K Z.Y.~.^.^.E.K U 2.<.d + 7 ).`.( 7 O q.G.k , u.j.k.f.x.x.",
"x.x.a.i.a.x.x.x.x.x.x.x.z.n $ I !.lXsX= J J.sXpX@X-X=X@XyXyXuXE.Z.3 l G.P.L.L.R.xXxXI.J 2 @ @   & | } 7 X . 8.A.l , g.j.d.x.x.x.",
"x.x.x.x.x.x.x.x.x.x.x.x.z.n = W.lX^.V.@ D B.rXpX&X@X-X<XpXyXuXE.q.; l H.L.L.P.T.xXxXU.S.q.8.F # X 9 W [ e . 3 z B V u.p.i.x.x.x.",
"x.x.x.x.x.x.x.x.x.x.c.z.s.i 1 W.lXT.q.4 S I rXtXpXuX,X*XpXpX&Xb.L $ l H.L.L.P.T.lXlXR.P.P.F.q.S @   w _.[ X X 1 ;.:.;.a.x.x.x.x.",
"x.x.x.x.x.x.x.x.x.x.z.z.z.i : C.R.Y.F.8.S $ $.tXyXpXuXpXpX*X;X#X$.* z H.Y.L.P.P.R.R.P.Y.L.F.m.0.J @ w _.[ o n @.s.d.x.x.x.x.x.x.",
"x.x.x.x.x.x.x.x.x.x.x.x.z.Z 5 P M.G.G.N.S X T ].&X*X%X&X%X@X@X{.].8 l S.L.L.L.L.L.L.Y.P.H.S.n.9.H @ e _.[ . V x.x.x.x.x.x.x.x.x.",
"x.x.x.x.x.x.x.x.x.x.x.x.x.s.;.i 4 9.N.m.F   X 9 ] ;X;X-X`.#XpX$X].8 3 0.F.L.L.Y.L.L.L.H.N.m.n.l O   e _.[ o V x.x.x.x.x.x.x.x.x.",
"x.x.x.x.x.x.x.x.x.x.x.x.x.x.p.A m S F S S l k k c ] _.OX/.%XtX$X].B S F 0.F.H.G.G.H.F.m.J S S @     & W ! n +.x.x.x.x.x.x.x.x.x.",
"x.x.x.x.x.x.x.x.x.x.x.x.x.x.x.s.A > . @ S n.m.8.3 8 ].[.[.[.[.[.{.I J # S 0.m.n.n.n.n.J @ . @ . .     o M a.x.x.x.x.x.x.x.x.x.x.",
"x.x.x.x.x.x.x.x.x.x.x.x.x.x.z.X.t X @ l P n.M.n.K G r Q Q Q Q Q n G 2 . # k k 4 4 k 4 ;   2 F J l @ * M @.x.x.x.x.x.x.x.x.x.x.x.",
"x.x.x.x.x.x.x.x.x.x.x.x.x.s.O.i + @ G B.B.N.m.m.q.L , * * * * * * + .       . # # # # @ $ J n.M.8.; 1 i.x.x.x.x.x.x.x.x.x.x.x.x.",
"x.x.x.x.x.x.x.x.x.x.x.x.z.C r ` =.I V.jX^.K.S.0.S 6 C o.X.o.X.O.O.O.M .     l P K P K P P 0.m.N.9.2 1 i.x.x.x.x.x.x.x.x.x.x.x.x.",
"x.x.x.x.x.x.x.x.x.x.x.a.o.B ) <.y.E.jXLXlXH.n.J 5 n a.x.x.x.x.#.@.+.Z 2 @   l 8.n.n.8.P P 0.n.9.J 5 M i.x.x.x.x.x.x.x.x.x.x.x.x.",
"x.z.x.x.x.x.x.x.x.x.x.X.1 3.dX' %.zXLXKXQ.B.F 2 C i.x.x.x.x.s.N * * x 8.z O   3 8.8.4 $ $ J 0.S 5 Z a.x.x.x.x.x.x.x.x.x.x.x.x.x.",
"x.c.x.x.x.x.x.x.x.x.x.o.i <.oXu = rXsX>X=.L 6 n i.x.x.x.s.:.Z d d %.U J x d &.=.L L *.*.*.V.M.k * +.x.x.x.x.x.x.x.x.x.x.x.x.x.x.",
"x.x.x.x.x.x.x.x.x.x.x.x.:.N =   . = = = & $ C a.z.x.x.x.s.N = &.4XMX>Xu v >XHXhXU B HXLXJX^.G.l > +.x.x.x.x.x.x.x.x.x.x.x.x.x.x.",
"x.x.x.x.x.x.x.x.x.x.x.x.c.o.N m M M M N B N :.x.x.x.x.x.s.n . p &.3.3.3.dXMXhXaXoXhXKXLXJXW.8.x Z i.x.x.x.x.x.x.x.x.x.x.x.x.x.x.",
"x.x.x.x.x.x.x.x.x.x.x.x.x.z.z.z.z.z.z.h.h.x.x.x.x.x.x.x.s.N + . + $ %.gXGXMX*.d hXJXSXMX>X) < Z z.x.x.x.x.x.x.x.x.x.x.x.x.x.x.x.",
"x.x.x.x.x.x.x.x.x.x.x.x.x.x.x.x.x.x.z.h.h.x.d.x.x.x.x.x.x.+.Z Z Z A B %.&.%...C *.*.&.) d s X.i.x.x.x.x.x.x.x.x.x.x.x.x.x.x.x.x.",
"x.x.x.x.x.x.x.x.x.x.x.x.x.x.x.x.x.x.x.h.h.d.j.x.x.x.x.x.x.x.x.x.x.:.-.5 + = o.:.n + * + $ Z x.x.x.x.x.x.x.x.x.x.x.x.x.x.x.x.x.x.",
"x.x.x.x.x.x.x.x.x.x.x.x.x.x.x.x.x.x.x.h.h.v.j.x.x.x.x.x.x.x.x.x.x.x.+.Z Z +.a.z.:.O.O.O.+.a.x.x.x.x.x.x.x.x.x.x.x.x.x.x.x.x.x.x."
};
