/* XPM */
static char *result[] = {
/* columns rows colors chars-per-pixel */
"64 64 251 2 ",
"   c #020202",
".  c #080806",
"X  c #0A0C0B",
"o  c #110A05",
"O  c #0B130D",
"+  c #171402",
"@  c #1B1501",
"#  c #0D0912",
"$  c #130A17",
"%  c #0E1A12",
"&  c #101E14",
"*  c #161518",
"=  c #231C00",
"-  c #281E06",
";  c #220C1B",
":  c #1F200B",
">  c #17281C",
",  c #2C2201",
"<  c #27270B",
"1  c #332500",
"2  c #342A00",
"3  c #3A2C05",
"4  c #3B3306",
"5  c #312E17",
"6  c #180D25",
"7  c #1C1424",
"8  c #1E1828",
"9  c #041F33",
"0  c #241C29",
"q  c #350F31",
"w  c #231433",
"e  c #291939",
"r  c #1D2426",
"t  c #1B3322",
"y  c #1F3B28",
"u  c #112A3B",
"i  c #26252B",
"p  c #21372A",
"a  c #2B2539",
"s  c #342938",
"d  c #353631",
"f  c #453702",
"g  c #4B3A10",
"h  c #420F3B",
"j  c #4D3A2E",
"k  c #26452C",
"l  c #354C2E",
"z  c #264931",
"x  c #2A4B36",
"c  c #2D5438",
"v  c #3A5830",
"b  c #385835",
"n  c #325C3D",
"m  c #534201",
"M  c #5A4908",
"N  c #494411",
"B  c #644D00",
"V  c #695403",
"C  c #745C01",
"Z  c #765905",
"A  c #735915",
"S  c #7B6301",
"D  c #786714",
"F  c #4C4D2D",
"G  c #726F34",
"H  c #001B42",
"J  c #2C1A44",
"K  c #341C4A",
"L  c #351B52",
"P  c #382647",
"I  c #3C3447",
"U  c #3B2454",
"Y  c #3F3258",
"T  c #51164B",
"R  c #66195A",
"E  c #49394C",
"W  c #43275A",
"Q  c #493B58",
"!  c #4B1E66",
"~  c #781D6F",
"^  c #492A69",
"/  c #502F6E",
"(  c #553378",
")  c #6D2471",
"_  c #3B4748",
"`  c #335C41",
"'  c #346242",
"]  c #3A6B48",
"[  c #3D734D",
"{  c #3F7750",
"}  c #4C4E50",
"|  c #584A5A",
" . c #624C57",
".. c #52714E",
"X. c #407751",
"o. c #427C53",
"O. c #706B53",
"+. c #564867",
"@. c #5A4971",
"#. c #675172",
"$. c #685878",
"%. c #736575",
"&. c #856601",
"*. c #856A00",
"=. c #8A6D01",
"-. c #8E7101",
";. c #987900",
":. c #97760B",
">. c #A47B00",
",. c #8A6527",
"<. c #A87933",
"1. c #881D79",
"2. c #872C79",
"3. c #8A675D",
"4. c #C06B5B",
"5. c #55874C",
"6. c #478356",
"7. c #468559",
"8. c #498A5D",
"9. c #599457",
"0. c #5C9B5D",
"q. c #738A46",
"w. c #659C55",
"e. c #69A459",
"r. c #74AC56",
"t. c #7EB254",
"y. c #4B8F60",
"u. c #4D9262",
"i. c #539660",
"p. c #569860",
"a. c #A48301",
"s. c #AB8600",
"d. c #B58A01",
"f. c #B5920A",
"g. c #AB9634",
"h. c #C69501",
"j. c #CD9D00",
"k. c #C99906",
"l. c #D7A401",
"z. c #D1A40A",
"x. c #E4AA02",
"c. c #EDB102",
"v. c #F4B400",
"b. c #FAB802",
"n. c #FEBB01",
"m. c #F3B80F",
"M. c #D99334",
"N. c #CCAB32",
"B. c #E8B92C",
"V. c #FFC204",
"C. c #FEC317",
"Z. c #FFCA2B",
"A. c #B09946",
"S. c #B9AA57",
"D. c #8F9362",
"F. c #A4AD77",
"G. c #CCB753",
"H. c #C4AA61",
"J. c #F5CF55",
"K. c #D8C773",
"L. c #F6DA70",
"P. c #FFE375",
"I. c #572E81",
"U. c #5C3585",
"Y. c #623B8A",
"T. c #683B95",
"R. c #6C3D9A",
"E. c #773D94",
"W. c #533EA4",
"Q. c #713FA3",
"!. c #1F619E",
"~. c #115CA9",
"^. c #246CAC",
"/. c #69498A",
"(. c #6B5583",
"). c #70548F",
"_. c #6D4497",
"`. c #744A9B",
"'. c #775897",
"]. c #746588",
"[. c #75668F",
"{. c #4D51B1",
"}. c #7848A8",
"|. c #7D54A7",
" X c #7850B3",
".X c #6C6AB0",
"XX c #2675D4",
"oX c #5A73D5",
"OX c #646DCA",
"+X c #942186",
"@X c #912E8B",
"#X c #8A3598",
"$X c #905390",
"%X c #897296",
"&X c #8746AD",
"*X c #8259AB",
"=X c #8354B3",
"-X c #885BB7",
";X c #8868AA",
":X c #8A7AA6",
">X c #9478AC",
",X c #8D65B7",
"<X c #926BB9",
"1X c #9572BB",
"2X c #9676B8",
"3X c #9B7CBD",
"4X c #B27AB9",
"5X c #8F5FC1",
"6X c #976BC3",
"7X c #9B79C2",
"8X c #A27AC7",
"9X c #3391EB",
"0X c #3392F0",
"qX c #548ED4",
"wX c #6C9BD6",
"eX c #4D88E5",
"rX c #4597EC",
"tX c #949094",
"yX c #A4A88C",
"uX c #9786A8",
"iX c #9986B8",
"pX c #AA90B6",
"aX c #AFABB0",
"sX c #D5C685",
"dX c #E7D992",
"fX c #F9E595",
"gX c #E8D7BD",
"hX c #F6ECB0",
"jX c #9D82C1",
"kX c #A284C4",
"lX c #A38CC5",
"zX c #A788C9",
"xX c #B28FCE",
"cX c #A692C9",
"vX c #AA95CB",
"bX c #AC98CB",
"nX c #AE9BD1",
"mX c #B899D4",
"MX c #BBA4D7",
"NX c #C19DDB",
"BX c #C3AECA",
"VX c #C3A8DC",
"CX c #CCACE2",
"ZX c #CDB1E2",
"AX c #D5B5E9",
"SX c #BDCFC9",
"DX c #CEC8D1",
"FX c #FBF6D0",
"GX c #DFD0EB",
"HX c #E6D4F2",
"JX c #FCF6F1",
/* pixels */
"u.u.u.u.u.u.u.u.u.u.u.u.u.u.u.u.u.u.u.u.u.8.X.8.X.8.u.u.u.u.u.u.u.u.u.u.u.u.u.u.u.u.u.u.u.u.u.u.u.u.u.u.u.u.u.u.u.u.u.u.u.u.u.u.",
"u.u.u.u.u.u.u.u.u.u.u.u.u.u.u.u.u.u.u.u.u.u.8.o.8.u.u.u.u.u.u.u.u.u.u.u.u.u.u.u.u.u.u.u.u.u.u.u.u.u.u.u.u.u.u.u.u.u.u.u.u.u.u.u.",
"u.u.u.u.u.u.u.u.u.u.u.u.u.u.u.u.u.u.u.u.u.u.u.8.u.u.u.u.u.u.u.u.u.u.u.u.u.u.u.u.u.u.u.u.u.u.u.u.u.u.u.u.u.u.u.u.u.u.u.u.u.u.u.u.",
"u.u.u.u.u.u.u.u.u.u.u.u.u.u.y.u.y.y.y.u.u.u.u.u.u.u.u.u.u.y.u.u.u.y.y.y.y.y.y.y.y.y.y.u.u.u.u.u.u.u.u.u.u.u.u.u.u.u.u.u.u.u.u.u.",
"u.u.u.u.u.u.u.u.u.u.u.u.u.7.c z x k x o.u.u.u.u.u.u.u.u.i.p.u.u.u.' z z z z z z z z z ' u.u.u.u.u.u.u.u.u.u.u.u.u.u.u.u.u.u.u.u.",
"u.u.u.u.u.u.u.u.u.u.u.u.u.[ > . * + - ` 7.7.8.u.u.u.u.i.e.e.7.8.{ p # # % * % $ $ $ # p X.8.7.8.u.u.u.u.u.u.u.u.u.u.u.u.u.u.u.u.",
"u.u.u.u.u.u.u.u.u.u.u.u.u.[ O d F.A.-.N t t ` u.p.u.y.e.D.5.y t y +.$.$.(.].[.].(.@.( U t t p [ u.u.u.u.u.u.u.u.u.u.u.u.u.u.u.u.",
"u.u.u.u.u.u.u.u.u.u.u.u.u.o.y } aXP.B.A = , 5 ] 5.5.7.w.e.v > $ 8 /.2X|.[.%X:X:X%X'.|.( w 7 8 x { [ o.u.u.u.u.u.u.u.u.u.u.u.u.u.",
"u.u.u.u.u.u.u.u.u.u.u.u.u.y.o.n j F.dXA.;.h.&.> : t ] ..k e ( U.U.}._.J * 0 0 0 8 a T.=X'.).( a & % z 7.u.y.u.u.u.u.u.u.u.u.u.u.",
"u.u.u.u.u.u.u.u.u.u.u.u.u.u.u.X.p ..tXg.k.J.N.N 2 4 F l a ^ Q.=X=X-X_.P w w e a a P W /.1X5X}.! e e a ` ' ' ' ] y.u.u.u.u.u.u.u.",
"u.u.u.u.u.u.u.u.u.u.u.u.u.u.u.u.6.x > S N.dXsXf.a.*.4 0 ( R.}.=X1X2X,X}.Q.Q.|.;X>X).w I ;X-X}.Q._.R.^ * O O X > { u.u.u.u.u.u.u.",
"u.u.u.u.u.u.u.u.u.u.u.u.u.u.u.u.u.X.k 4 A S.G.f.h.j.&.g P / }.,XlXcXjX2X8X8XmXNXmXiX$.Q Q Y.}. X X XT.W U K $ O [ y.u.u.u.u.u.u.",
"u.u.u.u.u.u.u.u.u.u.u.u.u.u.u.u.u.u.6.p < S a.s.z.m.f.S - J }.7XcXvXcXcXMXZXAXCXbXiXcX].8 U T.R.Q.R.R.T.R.U.e r X.u.u.u.u.u.u.u.",
"u.u.u.u.u.u.u.u.u.u.u.u.u.u.u.u.u.u.y.X.c 4 M s.J.dX,.4 W Y.*X1XjXjXkXjXcXMXxX<X+.| |.,X].Q e e J w w J J e x ] 8.u.u.u.u.u.u.u.",
"u.u.u.u.u.u.u.u.u.u.u.u.u.u.u.u.u.u.y.6.' r 5 S S.aX} J U.-X1XjX3X3X3X3XkXlX<XR.J w ^ |.jX$.0     % & & % > ] u.u.u.u.u.u.u.u.u.",
"u.u.u.u.u.u.u.u.u.u.u.u.u.u.u.u.u.u.8.z u / W < < d / Y.Q.-X1XjXcXcXcXcXlX3X,X}.T.^ w L }..X(.0 % ` { [ [ { 8.u.u.u.u.u.u.u.u.u.",
"u.u.u.u.u.u.u.u.u.u.u.u.u.u.u.u.u.u.7.t 7 '.`.J 6 J Y.-X-X,XjXvXMXVXMXnXcXkX<X-X-X`.K J ^ `.*X/ a ` { y.u.u.u.u.u.u.u.u.u.u.u.u.",
"u.u.u.u.u.u.u.u.u.u.u.u.u.u.u.u.u.u.7.t i [.7X}.T._.-X7XlXcXbXMXAXAXZXmXbXcXiX2X<X,X}.^ 6 W }.}.I.8 y 7.u.y.u.u.u.u.u.u.u.u.u.u.",
"u.u.u.u.u.u.u.u.u.u.u.u.u.u.u.u.u.[ z _ $.iX7X,X,X7X3XcXMXZXZXAXGXAXMXcXlXlX[./ [.1X=X^ . K }.-X|.@._ z z c { u.u.u.u.u.u.u.u.u.",
"u.u.u.u.u.u.u.u.u.u.u.u.u.y.7.7.7.z 8 [.bXjX7X2XlXbXbXMXZXAXAXAXCXmXlX3X2X;XQ 7 (.1X-X/ 6 L _.,XjXcX[.8 # & ` 7.u.u.u.u.u.u.u.u.",
"u.u.u.u.u.u.u.u.u.u.u.u.i.6.z t t I ].ZXHXAXNXcXmXZXAXZXNXxXxXzX6X<X-X-XY.P P / *X2X<X'.( L P '.zXnXiX[.(.@.I z 6.u.u.u.u.u.u.u.",
"u.u.u.u.u.u.u.u.7.{ [ [ { n O . 8 Q [.aXDXaXcXcXMXAXAXmX%X'.'./.Y.U.U.Y.! w ^ *X1X8X7X-X}.L # Q ;XcXnXvXzX;XY r ` 6.u.u.u.u.u.u.",
"u.0.u.u.u.u.u.u.] r % % & %   e (.Q 0 i d i +.>XvXmXnX;XP * 7 6 6 6 6 $ J ( |.1XmXNX,X&X}.L   # I uXvXzX6X|._.^ 8 z 8.u.u.u.u.u.",
"u.e.0.u.u.i.8.] d q q q 3 ,   E 2X).w     8 @.jXnXcXkX;XQ s a e w w w e Q =X7XxXCXVX6X`./ w     % +.].@.( / / ^ K a n 6.u.u.p.r.",
"u.r.0.u.8.i.{ > 0 1.1.2.,.&.@ P iX6XU.w 8 (.lXCXVXvX7X3XiXiX;X|.R.R.Q.*X<X2XmXZXMXnXcX[.8       . # # # # # . w ( ^ & c p.e.p.t.",
"u.r.p.e.0.' _ $.#.T ~ 2.<.&.@ J ;X6X;X(.#.*X7XmXVXVX7X<XcXMXCXzX7X8XxXNXmXlXmXVXMXbXcX'.W L U ^ J         . t x Y e   k 0.e.p.r.",
"u.r.p.e.w.t i uX[.7 U `.<.:.3 q _. X7XjXjX*X X2XmXCX<X=XjXMXCXmXvXVXAXAXVXnXbXbXbXlX3X,X|.Q.T.R.( w # # # # ' ] > . O x w.r.i.p.",
"u.0.i.e.9.> $ I d   L $XA.l.d.A s @.2XzX7X=X=X2XzXxX-X=X1X8X7X6X5XkXmXVXMXnXcXkX<X,X2X2X,X@.J w J ^ / ^ / ^ a k n ' ' { i.p.u.u.",
"u.u.u.0.9.z % & % ; R $XM.V.V.>.+ +.cX2X).Y.'.jX2X'.U._.7X<XY.I.Y.<XjX:XuXcX:X'.}. X<X8X1XQ   # P `.-X X-X|.U 8 ` 7.u.u.u.u.u.u.",
"u.u.u.u.u.{ { { } ~ +X@XM.V.V.>.+ ].DX%.6 $ $.GXtX0 # E bX>Xw # 0 >XvXQ Q 2X@.e ( =X<X3X2XQ # } :XjXlXlXcXjX|.^ r z 7.u.u.u.u.u.",
"u.u.u.u.u.u.y.] | @X+X+X4.M.x.>.m O.tXs   , G tXO.1   * %.%.f o X @.3.j d +.E 3 P ( |.|.(.Q } :XnXbXlX7X7X7X5X/.8 t 6.u.u.u.u.u.",
"u.u.u.u.u.u.{ t q 1.+X@X#X3.g.>.;.M > . = S M 5 M =.3 . $ g *.m o X 5 &.V - M -.f w /.( 7 +.iXbXcXkX<X X}. X<X'.8 t 7.u.u.u.u.u.",
"u.u.u.u.u.u.[ % $ h T T L T 3.,.B 5 z x l m m m *.s.S m N V a.D m B =.h.d.&.s.j.>.&.3.j o Q 1XzXlXlX3X<X=X}.=X_.8 t 8.u.u.u.u.u.",
"u.u.u.u.u.u.[ > . X     . q R R & c 8.u.[ > 2 =.a.;.a.s.s.f.f.f.f.x.C.V.n.v.v.b.b.l.s.B ; U }.,X3XcXbXcX<X|.}.U.7 > X.8.u.u.u.u.",
"u.u.u.u.u.u.8.] n n p . j / s e ` o.u.u.[ % o 2 , 4 S f.l.Z.K.dXdXfXP.Z.c.l.j.j.l.d.g g  .) #X&X,XcXnXnXjX,X=XY.6 . t ' u.u.u.u.",
"u.u.u.u.u.u.u.u.i.8.x o Q  .i z 8.u.u.u.{ & o - 5 d G g.N.K.hXFXJXJXhXZ.x.d.;.&.*.V j Q $X$X2.) /.2XcXjX7X2X}./ 5 o   z y.u.u.u.",
"u.u.u.u.u.u.u.u.u.u.z   % i ' 6.u.u.u.u.{ & 4 s.G.SXiXqXwXr.A.dXFXJXhXZ.x.d.B = + d tX4X@XR 6 $ q E.&X*X<X<XW 5 C m . z y.u.u.u.",
"u.u.u.u.u.u.u.u.u.u.' t t z 6.y.u.o.' ' c 4 &.v.L.SXwXqXoX.XD.S.fXfXP.Z.j.C f 2 , j 3.*XR ;   # h 2.@X/ /.$Xe @ -.C + z y.u.u.u.",
"0.i.u.u.u.u.u.u.u.u.8.7.7.7.y.u.y.c O . < S h.c.yXwX X@X@X XqXF.C.C.m.n.>.1 m ;.s.*.5 $ $ . 6 R @X$X .; T 1.q = =.C + z y.u.u.u.",
"r.t.0.u.u.u.i.u.u.u.u.i.u.u.u.o.x 5 f + , s.N.F.tX X#X@X|.oXrXF.b.v.h.&.Z Z g.K.K.H.V =   s 3.$X$X .E W ~ +Xq @ a.=.+ z y.u.u.u.",
"u.r.r.w.0.r.e.i.u.u.u.u.u.u.8.n : V :.< 2 h.G.qXOX#X+X#XoX0XrXF.c.h.S 2 B x.J.hXFXhXG.V = #.bXpX#.* w T.@X1.q f j.>.@ z u.u.u.u.",
"u.i.r.t.r.r.p.u.u.u.u.u.u.6.z 5 V A.sXF 1 h.G.wXeXOX#X#XeXrX0XF.f.V f &.h.n.Z.L.FXFXhXS.A F } s 0   J Q./ q g ;.b.>.@ z y.u.u.u.",
"u.u.6.w.e.6.u.u.u.u.u.u.6.n < M g.dXdX} 1 d.S.qX0XrX X XeXrXeX].,.- 1 j.V.n.n.C.P.hXFXdXk.D , , @   w ( L 0 B ;.h.&.5 v e.e.u.u.",
"u.u.o.6.5.8.u.u.u.u.u.7.z < V A.dXP.Z.g = ;.r.^.0XrXeXeXrXoX&X).!.9 1 h.V.n.n.n.C.J.FXfXm.x.d.a.B = . $ U ( s = 1 N ..e.r.0.u.u.",
"u.u.7.6.8.u.u.u.u.u.u.7.t = -.N.P.J.v.S f B } !.XX.XOXOXoX.X}.!.~.9 1 h.n.n.n.n.V.C.P.J.C.n.x.j.=.= . w ( Q.J     < e.e.9.y.u.u.",
"u.u.u.u.u.u.u.u.u.u.u.7.t = *.k.C.C.v.d.C , u ~.{.#X@X@X@X}.oX9X~.H 1 h.V.n.n.n.n.V.C.m.n.l.d.s.*.= w Y.}.R.w     > 5.8.7.u.u.u.",
"u.u.u.u.u.u.u.u.u.u.u.8.' k N &.j.l.l.j.-.+ > ..(.{.W.W.W.{.9XXX~.H = s.v.n.V.n.V.n.n.v.l.j.a.C g } /.=X-XQ.e X y n [ 7.u.u.u.u.",
"u.u.u.u.u.u.u.u.u.u.u.u.u.[ > 4 -.a.;.a.S , 4 *...~.~.^.^.^.^.^.!.u , S d.v.b.b.b.b.b.l.a.a.=.2 0 ).1X<X=XY.e & ] 8.y.u.u.u.u.u.",
"u.u.u.u.u.u.u.u.u.u.u.u.u.y.[ l 4 2 2 2 f B B 3 > u } q.q.G q.3.q.D V f V f.l.j.j.j.j.;.f 2 2 . 6 _.5X*X( J T T a n 8.u.u.u.u.u.",
"u.u.u.u.u.u.u.u.u.u.u.u.u.u.{ z . o @ @ 4 a.=.2 @ - V -.=.=.-.=.=.-.V + , S -.S =.*.=.m .       $ ^ Q.E.T o R ~ ; t 7.u.u.u.u.u.",
"u.u.u.u.u.u.u.u.u.u.u.u.u.o.y O   3 &.&.;.l.j.-.*.S f = = = = = = = @     @ = = @ = = +           $ T E.h # R ~ ; t 7.y.u.u.u.u.",
"u.u.u.u.u.u.u.u.u.u.u.u.{ c s 5 f ,.G.N.l.n.v.f.f.a.3 . > y t %     . 2 4 2 +   , ,   o 1 4 2 +     q 1.T # h T i c 8.y.u.u.u.u.",
"u.u.u.u.u.u.u.u.u.i.i.o.y i $.3.:.sXgXJ.b.b.l.s.s.;.2 & ' 8.o.k     @ C a.;.f + M S @ 2 -.a.-.3     q 1.T . . 8 ] y.y.u.u.u.u.u.",
"u.u.u.u.u.u.u.u.u.y.] x +.$.| 3.sXFXHXJ.h.-.V m m m l x x c x N m @ . f S a.m   , m m *.j.l.a.4     $ q s k k n 8.u.u.u.u.u.u.u.",
"u.u.u.u.u.u.u.u.u.y.c > %XuXi } DXGXBXA.&., O O X % n [ > $ * M &.g X * M -.M * * 4 -.j.c.j.-.1   . X O x y.u.y.y.y.u.u.u.u.u.u.",
"u.u.u.u.u.u.u.u.u.y.{ c } E O : } | E 5 4 x ' ` ' n z p | %.%XO.f j %.tX%.4 O.aXaXyXB.c.j.*.2 o X z ' ' o.i.u.u.y.i.u.u.u.u.u.u.",
"u.u.u.u.u.u.u.u.u.u.u.y.z % & & & & & % y { u.u.u.7.t *  .%XpX$.I ].aXBXyX} tXJXJXgXN.d.=.g & % y o.u.u.u.u.u.u.u.u.u.u.u.u.u.u.",
"u.u.u.u.u.u.u.u.u.u.u.u.o.[ [ [ { { [ [ { y.u.u.u.6.t   * 0 s %.xXCXpX| %.aXHXHXBX%Xj 1 = k [ [ o.y.u.u.u.u.u.u.u.u.u.u.u.u.u.u.",
"u.u.u.u.u.u.u.u.u.u.u.u.u.u.y.u.u.u.u.u.u.u.u.u.u.8.c t t t t } %X>X%.p _ yXpX%X#.} p t p ' i.i.y.u.u.u.u.u.u.u.u.u.u.u.u.u.u.u.",
"u.u.u.u.u.u.u.u.u.u.u.u.u.u.u.u.u.u.u.p.p.u.u.u.i.y.8.7.7.y.6.c r * p ..] i * % $ r ] 8.o.8.i.y.u.u.u.u.u.u.u.u.u.u.u.u.u.u.u.u.",
"u.u.u.u.u.u.u.u.u.u.u.u.u.u.u.u.u.u.u.e.e.u.u.u.y.u.u.u.u.u.u.[ l v b 5.w.F z z z ` 7.u.u.u.u.u.u.u.u.u.u.u.u.u.u.u.u.u.u.u.u.u.",
"u.u.u.u.u.u.u.u.u.u.u.u.u.u.u.u.u.u.u.e.e.i.p.u.y.u.u.u.u.u.u.u.y.9.5.w.r.9.y.y.y.y.y.u.u.u.u.u.u.u.u.u.u.u.u.u.u.u.u.u.u.u.u.u.",
"u.u.u.u.u.u.u.u.u.u.u.u.u.u.u.u.u.u.u.e.e.p.r.u.u.u.u.u.u.u.u.u.u.o.9.r.9.6.u.u.u.u.u.u.u.u.u.u.u.u.u.u.u.u.u.u.u.u.u.u.u.u.u.u.",
"u.u.u.u.u.u.u.u.u.u.u.u.u.u.u.u.u.u.u.e.e.p.r.u.u.u.u.u.u.u.u.u.u.u.6.[ o.u.u.u.u.u.u.u.u.u.u.u.u.u.u.u.u.u.u.u.u.u.u.u.u.u.u.u."
};
