/* XPM */
static char *result[] = {
/* columns rows colors chars-per-pixel */
"64 64 229 2 ",
"   c #070A0B",
".  c #0E110F",
"X  c #0E1516",
"o  c #151A18",
"O  c #161C1C",
"+  c #1B2516",
"@  c #1A221C",
"#  c #151C29",
"$  c #151C31",
"%  c #261F27",
"&  c #1B2324",
"*  c #192527",
"=  c #1A292C",
"-  c #1E332C",
";  c #1E2B32",
":  c #222D24",
">  c #27272A",
",  c #2C2E2E",
"<  c #29352B",
"1  c #2D3B2F",
"2  c #262B33",
"3  c #322A34",
"4  c #223236",
"5  c #2B3434",
"6  c #2D3D31",
"7  c #2C363A",
"8  c #25383A",
"9  c #2D3A3C",
"0  c #353737",
"q  c #323B3B",
"w  c #2A4934",
"e  c #37463D",
"r  c #2D533A",
"t  c #315A3D",
"y  c #1D294C",
"u  c #2A3943",
"i  c #323C45",
"p  c #212E59",
"a  c #2B3750",
"s  c #0F1E68",
"d  c #0F256A",
"f  c #11266B",
"g  c #152A6D",
"h  c #1B2E76",
"j  c #1C3176",
"k  c #1E3379",
"l  c #233266",
"z  c #22367C",
"x  c #25397A",
"c  c #2A3C7C",
"v  c #2B4345",
"b  c #2C4647",
"n  c #3A4444",
"m  c #374748",
"M  c #35444C",
"N  c #3D4A4A",
"B  c #375A46",
"V  c #364753",
"C  c #3C4E55",
"Z  c #3E525A",
"A  c #3C5458",
"S  c #386547",
"D  c #3E744E",
"F  c #396555",
"G  c #3F7750",
"H  c #2C4178",
"J  c #3C6665",
"K  c #424E4D",
"L  c #494B4A",
"P  c #43534D",
"I  c #424E53",
"U  c #485657",
"Y  c #42555C",
"T  c #4B5B5A",
"R  c #545B59",
"E  c #42654B",
"W  c #466B52",
"Q  c #52625D",
"!  c #5B645F",
"~  c #477957",
"^  c #437C54",
"/  c #5A755F",
"(  c #495B62",
")  c #515E64",
"_  c #4B6567",
"`  c #546463",
"'  c #566869",
"]  c #5B6C6A",
"[  c #467E64",
"{  c #5D7A63",
"}  c #5D716A",
"|  c #556971",
" . c #5B6D75",
".. c #447274",
"X. c #487779",
"o. c #5E7275",
"O. c #607E66",
"+. c #62746C",
"@. c #677070",
"#. c #657475",
"$. c #54854B",
"%. c #498357",
"&. c #46855A",
"*. c #498B5D",
"=. c #538B53",
"-. c #58945A",
";. c #5B9B5E",
":. c #669550",
">. c #629A56",
",. c #6DA656",
"<. c #65A25B",
"1. c #6AA55A",
"2. c #74AC56",
"3. c #78AD56",
"4. c #71AA59",
"5. c #7CB155",
"6. c #4D8266",
"7. c #4C8E60",
"8. c #588B68",
"9. c #4D9262",
"0. c #529562",
"q. c #569768",
"w. c #64836D",
"e. c #698877",
"r. c #659A72",
"t. c #69A27A",
"y. c #80AA66",
"u. c #263C82",
"i. c #283D81",
"p. c #2D4287",
"a. c #32468B",
"s. c #344A92",
"d. c #3B529C",
"f. c #677C84",
"g. c #4E8385",
"h. c #579185",
"j. c #589596",
"k. c #6E828B",
"l. c #748986",
"z. c #758D8A",
"x. c #768C8B",
"c. c #7A938D",
"v. c #778B94",
"b. c #7D9494",
"n. c #70B093",
"m. c #5FA1A4",
"M. c #64A5A7",
"N. c #6AB6A8",
"B. c #67ADB2",
"V. c #6CB5B9",
"C. c #74C4B9",
"Z. c #75C7BC",
"A. c #72BDC2",
"S. c #77C7C7",
"D. c #7CD1D5",
"F. c #868989",
"G. c #839B9C",
"H. c #939797",
"J. c #8FA892",
"K. c #85A19B",
"L. c #879CA6",
"P. c #8AA5A2",
"I. c #9AA4A4",
"U. c #90ACA9",
"Y. c #94B2AB",
"T. c #8EB3B1",
"R. c #99B7B3",
"E. c #9BBAB6",
"W. c #A5A7A8",
"Q. c #ABB5B4",
"!. c #B7BBBB",
"~. c #8FC4AB",
"^. c #A2C2BB",
"/. c #8BCED0",
"(. c #83D5DA",
"). c #82D9DE",
"_. c #A7C9C5",
"`. c #BBC7C5",
"'. c #A5D2CF",
"]. c #AFD2CD",
"[. c #B1D3CE",
"{. c #ACDAD8",
"}. c #B5D7D3",
"|. c #B6DAD5",
" X c #BADED9",
".X c #B4E2D8",
"XX c #BEE3DE",
"oX c #85DDE2",
"OX c #8ADEE2",
"+X c #90DFE2",
"@X c #87E1E6",
"#X c #8AE2E6",
"$X c #89E4E9",
"%X c #8CE8EC",
"&X c #95E4E6",
"*X c #A3E6E6",
"=X c #A5E9EA",
"-X c #AAECEC",
";X c #B5EAE8",
":X c #BBEDEB",
">X c #B8F1F0",
",X c #C4C8C8",
"<X c #C9D3D2",
"1X c #D4DADA",
"2X c #D2E4D6",
"3X c #DBDFE0",
"4X c #C1E7E2",
"5X c #C4EAE6",
"6X c #C5EEEA",
"7X c #C8EFEA",
"8X c #DEEAE9",
"9X c #C5F1EC",
"0X c #CAF2ED",
"qX c #D0F3EF",
"wX c #CEF6F1",
"eX c #CFF8F3",
"rX c #D2F5F1",
"tX c #DBF6F3",
"yX c #D0F9F5",
"uX c #D9FAF7",
"iX c #E5EAEB",
"pX c #E5EFF0",
"aX c #E5F5F5",
"sX c #E8F4F4",
"dX c #E6FAF9",
"fX c #EDFCFB",
"gX c #F3F8F7",
"hX c #F4FDFE",
"jX c #FDFFFF",
/* pixels */
"9.9.9.9.9.9.9.9.9.9.9.9.9.9.9.9.9.9.9.9.9.*.^ *.D *.9.9.9.9.9.9.9.9.9.9.9.9.9.9.9.9.9.9.9.9.9.9.9.9.9.9.9.9.9.9.9.9.9.9.9.9.9.9.",
"9.9.9.9.9.9.9.9.9.9.9.9.9.9.9.9.9.9.9.9.9.9.&.^ *.9.9.9.9.9.9.9.9.9.9.9.9.9.9.9.9.9.9.9.9.9.9.9.9.9.9.9.9.9.9.9.9.9.9.9.9.9.9.9.",
"9.9.9.9.9.9.9.9.9.9.9.9.9.9.9.9.9.9.9.9.9.9.9.*.9.9.9.9.9.9.9.9.9.9.9.9.9.9.9.9.9.9.9.9.9.9.9.9.9.9.9.9.9.9.9.9.9.9.9.9.9.9.9.9.",
"9.9.9.9.9.9.9.9.9.9.9.9.9.9.9.9.9.9.9.9.9.9.9.9.9.9.9.9.9.9.9.9.9.9.9.9.9.9.9.9.9.9.9.9.9.9.9.9.9.9.9.9.9.9.9.9.9.9.9.9.9.9.9.9.",
"9.9.9.9.9.9.9.9.9.9.9.9.9.9.9.9.9.9.9.9.9.9.9.9.9.9.9.9.-.q.9.9.9.9.9.9.9.9.9.9.9.9.9.9.9.9.9.9.9.9.9.9.9.9.9.9.9.9.9.9.9.9.9.9.",
"9.9.9.9.9.9.9.9.9.9.9.9.9.9.9.9.9.9.9.9.9.9.9.9.9.9.9.0.1.4.9.9.9.9.9.9.9.9.9.9.7.7.9.9.9.9.9.9.9.9.9.9.9.9.9.9.9.9.9.9.9.9.9.9.",
"9.9.9.9.9.9.9.9.9.9.9.9.9.9.9.9.9.9.9.9.9.9.9.9.;.9.9.<.5.1.9.9.9.9.9.9.9.9.9.9.9.q.0.9.9.9.9.9.9.9.9.9.9.9.9.9.9.9.9.9.9.9.9.9.",
"9.9.9.9.9.9.9.9.9.9.9.9.9.9.9.9.9.9.9.9.9.9.9.0.4.;.7.<.5.1.9.9.9.9.9.9.9.9.9.9.9.4.;.7.9.9.9.9.9.9.9.9.9.9.9.9.9.9.9.9.9.9.9.9.",
"9.9.9.9.9.9.9.9.9.9.9.9.9.9.9.9.9.9.9.9.9.9.9.0.4.2.$.:.1.9.7.7.9.9.9.9.9.9.9.9.0.4.;.9.9.9.9.9.9.9.9.9.9.9.9.9.9.9.9.9.9.9.9.9.",
"9.9.9.9.9.9.9.9.9.9.9.9.9.9.9.9.9.9.9.9.9.9.0.*.$.2.5.J.w : : w r w - S 9.9.q.4.r.2.;.9.0.9.9.9.9.9.9.9.9.9.9.9.9.9.9.9.9.9.9.9.",
"9.9.9.9.9.9.9.9.9.9.9.9.9.9.9.9.9.9.9.7.J.e & + o * : , O `.<X1X<X1XQ.+ & : : + : < E *.7.9.9.9.9.9.9.9.9.9.9.9.9.9.9.9.9.9.9.9.",
"9.9.9.9.9.9.9.9.9.9.9.9.9.9.9.9.9.9.9.S 6 `.pXW.U pXiX1X0 sXhXhXhXhX2X0 8XiXiXq ^.iXQ.< S 9.9.9.9.9.9.9.9.9.9.9.9.9.9.9.9.9.9.9.",
"9.9.9.9.9.9.9.9.9.9.9.7.9.9.9.9.9.9.q.`.gXjXhX`.] U.U.K.` 5X0X0X0XqX XQ U.U.U.` 1XhXhXhXF.E *.9.9.9.9.9.9.9.9.9.9.9.9.9.9.9.9.9.",
"9.9.9.9.9.9.9.9.9.7.~ ~ D %.0.9.9.*.F.jXfXdX0XyXE.R Q ] XX0X0X0X0X0XwX[.R T T ].0X0XqXhXjXe %.9.9.9.9.9.9.9.9.9.9.9.9.9.9.9.9.9.",
"9.9.9.9.9.9.9.9.7.E 0 0 , , w.9.*.B !.fXwX0X0X0X0XyXyXyXrXeXwXwXyXrXwXrXyXyXyXwX0X0X0XqXhXW.B 7.9.9.9.9.9.9.9.9.9.9.9.9.9.9.9.9.",
"9.9.9.9.9.9.9.9.q.2 > 3 3 > 2 7.%.L hXrX0X0X0X0X0X0X7X4X) K P P K K K o.9X7X0X0X0X0X0X9XdXjX, *.9.9.9.9.9.9.9.9.9.9.9.9.9.9.9.9.",
"9.9.9.9.9.9.9.9.0.^ w 3 3 3 > o e <X0X0X0X0X0X7X4Xx.5 n !.,X,X,X,X,X,XW.e 0 P.4X0X0X0X0XrXgX,Xe 7.0.9.9.9.9.9.9.9.9.9.9.9.9.9.9.",
"9.9.9.9.9.9.9.9.9.9.~ & 3 > % , <X|.~.0X0X0X].P.5 x..X|.0XrX0XdXhXjXjXhXiXiX#.0 R.[.wX0X0XsXhX`.t ~ *.9.9.9.9.9.9.9.9.9.9.9.9.9.",
"9.9.9.9.9.9.9.9.t.q.0.w.  , q _.0X0X7X0X0XR.K ] 5X6X0X9X0X0X0X0X0XwXfXfXhXjXgXsXR R _.0X0X0XfXjX!.n P D 0.9.0.*.9.9.9.9.9.9.9.9.",
"9.9.9.9.9.9.9.^ +.S t Q U U.uX0X0X0X0XwXY.] 4X0X0X0X0X0X0X0X0X0X0X0X0X0XrXsXfXhXjX8X@.^.yX0X0XdXgXjXI.! B t t ^ 9.9.9.9.9.9.9.9.",
"9.9.9.9.9.r.e.F X...#.K.yX0X0X0X9XwXeXU.+. XwX0X0X0X0X0XwXwXeXwXrXwXwX0X0X0X0XtXjXjX1X@.E.rXqX0XrXaXhXjXH.F.F./ ^ q.9.9.9.9.9.9.",
"9.9.9.9.q.J._ S.%X>XeXeX0X0X0X0X0XwXY.+. XwX0X0X0X0X7X0X XU P I P K ` 5X7X0X0X9XtXhXjX1X@._.rX0X0X0XqXtX^.gXjX3X` G 9.9.9.9.9.7.",
"9.;.0.9.t.I.J $X-X0X0X0X0X0X0X0X0XR.]  XwX0X9X0XwX6X} 2 5 ; ; C M ; 4 5 , l.5X7X7XtXjXjX1X] ].0X0X0X0X0X.XqXtXjX@.~ q.9.9.9.0.;.",
"9.4.;.9.^ V D.=X0X0X0X0X0X0X0XwX].N XX0X0X0X0X6X}.+.4 u | ( #.b V C f.8 u 4 O P.wX7XtXhXjX1XL  X[.[.[.].[.0XqXdXgXL G 9.9.9.-.2.",
"9.4.;.9.G v $X;X0X0X0X0X0X0X0X6XP.] wX0X7XwX0Xc.X 7 k.( Z ( f.M k.L.b.a ' f.Z 4 P.0X0XtXhXgX@.x.$ $ $ $ ; U.R.Y.!.0 G 9.;.1.0.5.",
"9.4.;.<.$.v =X0X0X0X0X0X0X0X0X4X5 5X0X0X0X6Xx.# * n ) 4 I 7 M i ) ) U * 7 ) ) 4 # P.0X0XdXjXI.y k u.u.u.k $ @ P P % G 9.<.,.-.5.",
"9.4.;.<.$.e -X0X0X0X0X0X0X0X0Xz.g.6X0X0X0X5XO = X 6 6 6 1 6 1 6 6 6 1 6 6 6 6 . I 5 wX0XtXH.p j h h h h h h V b.iXL G 9.<.4.9.q.",
"9.;.-.1.=.v =X0X9X0X0X9X6X0X6X7 /.0X0X0X7Xo.7 ( : w.{ { O.O.O.{ O.O.O.O.O.O.O.O V 4 l.wX0Xq c s d.d.d.d.s.s x e.fXL G 9.-.;.9.9.",
"9.9.9.;.w V.*X0X0X.Xn 0 9 5 U.q /.6X7XwX+.; b i : O.{ { { { { { { { O./ O.{ { O | u ; x.wX,Xa k s s s s s l V ].tXL ~ 9.9.9.9.9.",
"9.9.9.9.* A./.].].N c c c p.y X S.&XwXyXN ; Y | : O.{ { { { { { { { { { { { O.@ M Z T ] yXtX<Xi u.c c c x = > 7 0 > w.9.9.9.9.9.",
"9.9.9.9.  u v & # p.i.f f k s.; M.&X0X|.m 4 f.) : O.{ { { { { { / O.{ { / O.{ @ ' Z U T ;XqXfX<X, O u q N  X5X4X;XiX5 9.9.9.9.9.",
"9.9.9.9.* D.=X] l u.z s.a.i.z a.= +XyX] * ( V i : O.{ { { { { { { { O./ O./ O.O 8 ( V 2 c.rXwXjXW.' yX0X0X0X0X0X0XpX< 9.9.9.9.9.",
"9.9.9.9.= ).>X` l d s.j j a.g i.; ).>Xo.* ( Z  .: O.{ { { { { { { { { / O.{ { O )  .f.I v.yXrXjXW.' rX0X0X0X0X0X0XsX, 9.9.9.9.9.",
"9.9.9.9.* ).-X` l d p.d z z g i.= ).=X+.* | Y  .: { { { { { { { O./ { { { { { @ C M ' ; c.yXwXdXW.' eX0X0X0X0X0XwXsX, 9.9.9.9.9.",
"9.9.9.9.* ).-X} g g s.u.j s.g H = (.%X_ # Y V u : O.{ { { { { / { { { { { { { @  .v.| X c.yX0XuXW.' yX0X0X0X0X0X0XaX, 9.9.9.9.9.",
"9.9.9.9.* S./.T y a.g s.a.z i.p.u D.$XJ * f.v.' : { { { { { { { { { / O.{ { O.+ f.G.k.# c.yXwXrXH.T  X[.|.0XwXrXwXfX0 9.9.9.9.9.",
"9.9.9.9.  u 8 9 9 c a.g g p.H # S.oXoXg.; o. . .: O.{ { { { { { { { O./ { { { O M Y f.I P.yX0XP.# # $ # 2 T.E.E.Q.^.6.9.9.9.9.9.",
"9.9.9.9.= @X&XeX7X] p p g p V O S.oXoXoXb 4 f.( : O.{ { { { { { { { { { { { { @ _ V 9 o.yXrXG.y z c u.c z $ o T R o ^ 9.9.9.9.9.",
"0.-.*.9.= D.=X0X0X7X#.#.+.} _.e S.oXoX$Xb ; | I : O.{ { { { { { / O.{ { { { { @ Y T ) ' yXG.y h h j j j j j a R.hXL ^ 7.9.9.9.9.",
"2.5.;.9.B 6.=X0X0X0XyXyXeXeX0X9 D.oXoXoXM.4 ( M : { { { { { { { { { { O./ { { @ C i U _.wX9 x s d.d.d.d.s.f l ' fX! ^ 9.9.9.9.9.",
"0.4.5.;.=.S #X;X0X0X0X0X0X0X0XE.A D.oXoXoX8 u ( : { { { / / / / / / / / / / / @ ( 5 _.wX0X^.a z f f f f f j M _.aXw.&.7.9.9.9.9.",
"9.0.,.2.,.~ #X*X0X0X0X0X0X0X0X4Xb S.oXoXoXA.4 4 . O o O X . X X X O o O o & o . 4 N 0X0X0X0XY.u c c c c c > @ 0 q < &.7.9.9.9.9.",
"9.9.=.,.:.6.#X).:X0X0X0X0X0X0X0X_.v $XoXoXoXA.4 M Y o.k.M V i A i f.N | ( v.N * n .X0X0X0X6Xq R.0 7 5 7 n }.;X4X8XQ $.;.4.<.9.9.",
"9.9.G %.=.[ V.#X=X0X0X0X0X0X0X0X|.( B.$XoXoX@XV.b 8 ( A _ k.Z f.Z k.' b Y Y 9 U  X0X0X0X9XM._ 5X0X0X0X7X7X0X9XdX2Xy.1.2.4.;.9.9.",
"9.9.7.^ &.G ..%X$X&X>XwX0X0X0X0XwX[.' B.$XoXoXoX$XM.; # I _ C  .C _ | # X i _.yX0X0X0X9XM.] XX0X0X0X0X0X0X0X0XfXY.>.2.,.-.9.9.9.",
"9.7.9.9.0.9.F M.%XD.$X&X;X0X0X0X0XwX]._ B.$XoXoXoX$XM.g.X.o & q * X & x.x._.yX0X0X7X=XM.}  XwX0X0X0X0X6X0XqXhX!.~ ~ -.=.&.9.9.9.",
"9.9.9.9.0.0.&.r u 8 w J ).&X:X0X0X0XeX[._ V.oXoXoXoX$X$XoXM.M.m.m.M.B.&X-X0X6X6X&X&Xm.| .XwX0X0X0X0X6X4XT N e.8.%.r.%.&.9.9.9.9.",
"9.9.9.9.q.t.9.7.&.G G W : g.(.+X:X0X0X0X|.A V.D.oXoXoXoXoXoX#X$XoX$XoXoX#X&X&X#XD.M.` XXwX0X0X0X6XXXe.W %.%.*.0.7.0.9.9.9.9.9.9.",
"9.9.9.9.9.9.9.9.9.9.9.9.7.D 8 j.#X9X0X0X0X XN A B.S.#X#X@X).@X).oXoX).oX@XoXS.B.m T 4X0X0X0X0X7Xx.w ~ 9.9.9.9.9.9.9.9.9.9.9.9.9.",
"9.9.9.9.9.9.9.9.9.9.9.9.9.9.t.B j.$X:X0X0X0X0X_.K ..j.j.).%X$X$X#X$X$X(.j.j._ P |.0X0X0X0X0X0Xc.E 0.9.9.9.9.9.9.9.9.9.9.9.9.9.9.",
"9.9.9.9.9.9.9.9.9.9.9.9.0.9.7.0.r h.=X0X0X0X0X0XyXU.` ] ................' ` ^.yX0X0X0X0X0X7Xc.+.n.9.9.9.9.9.9.9.9.9.9.9.9.9.9.9.",
"9.9.9.9.9.9.9.9.9.9.9.9.9.9.9.7.%.w %X>X0X0X0X0X0XwXyX0Xb.l.l.l.l.l.l.K.eXeX0X0X0X0X0X0X7X*X2 t.0.9.9.9.9.9.9.9.9.9.9.9.9.9.9.9.",
"9.9.9.9.9.9.9.9.9.9.9.9.9.9.9.9.9.S J -X0X0X0X0X0X5X5X5XeXeXyXyXyXyXyXwX5X5X6X0X0X0X0X0X-XJ S 9.9.9.9.9.9.9.9.9.9.9.9.9.0.9.9.9.",
"9.9.9.9.9.9.9.9.9.9.9.9.9.9.9.9.9.*.j.$X;X0X0XwXK.5 0 e ].0X0X0X0X0X0XE.q 9 q R.0X0X0X-X(.B *.9.9.9.9.9.9.9.9.9.9.9.9.9.7.9.9.9.",
"9.9.9.9.9.9.9.9.9.9.9.9.9.9.9.9.9.9.9.n.D.OX>XT.T .X{.'.v XX:X:X:X:X'.n {.{.{.b '.>X/.C.J ^ 9.9.9.9.9.9.9.9.9.9.9.9.9.9.9.9.9.9.",
"9.9.9.9.9.9.9.9.9.9.9.9.9.9.9.9.9.9.9.9.&.N.Z.j.F S.S.C.r V.Z.Z.Z.Z.N.B Z.Z.Z.B N.S.h.w *.9.9.9.9.9.9.9.9.9.9.9.9.9.9.9.9.9.9.9.",
"9.9.9.9.9.9.9.9.9.9.9.9.9.9.9.9.9.9.9.9.9.9.9.9.9.9.9.9.9.9.9.9.9.9.9.9.9.9.9.9.9.9.9.9.9.9.9.9.9.9.9.9.9.9.9.9.9.9.9.9.9.9.9.9.",
"9.9.9.9.9.9.9.9.9.9.9.9.9.9.9.9.9.9.9.9.9.9.9.9.9.9.9.9.9.9.9.9.,.q.7.9.9.9.9.9.9.9.9.9.9.9.9.9.9.9.9.9.9.9.9.9.9.9.9.9.9.9.9.9.",
"9.9.9.9.9.9.9.9.9.9.9.9.9.9.9.9.9.9.9.9.9.9.9.9.9.9.9.9.9.9.9.9.2.4.;.9.9.9.9.9.9.9.9.9.9.9.9.9.9.9.9.9.9.9.9.9.9.9.9.9.9.9.9.9.",
"9.9.9.9.9.9.9.9.9.9.9.9.9.9.9.9.9.9.9.;.;.9.9.9.9.9.9.9.9.9.9.;.2.5.;.9.0.;.9.9.9.9.9.9.9.9.9.9.9.9.9.9.9.9.9.9.9.9.9.9.9.9.9.9.",
"9.9.9.9.9.9.9.9.9.9.9.9.9.9.9.9.9.9.9.1.1.9.9.9.9.9.9.9.9.9.9.9.<.5.-.-.4.2.7.9.9.9.9.9.9.9.9.9.9.9.9.9.9.9.9.9.9.9.9.9.9.9.9.9.",
"9.9.9.9.9.9.9.9.9.9.9.9.9.9.9.9.9.9.9.<.<.9.;.9.9.9.9.9.9.9.9.9.7.>.=.:.3.;.9.9.9.9.9.9.9.9.9.9.9.9.9.9.9.9.9.9.9.9.9.9.9.9.9.9.",
"9.9.9.9.9.9.9.9.9.9.9.9.9.9.9.9.9.9.9.1.<.;.2.9.9.9.9.9.9.9.9.9.9.G :.2.=.&.9.9.9.9.9.9.9.9.9.9.9.9.9.9.9.9.9.9.9.9.9.9.9.9.9.9.",
"9.9.9.9.9.9.9.9.9.9.9.9.9.9.9.9.9.9.9.1.<.;.2.9.9.9.9.9.9.9.9.9.9.9.^ D %.9.9.9.9.9.9.9.9.9.9.9.9.9.9.9.9.9.9.9.9.9.9.9.9.9.9.9."
};
