/* XPM */
static char *result[] = {
/* columns rows colors chars-per-pixel */
"64 64 186 2 ",
"   c #1B3122",
".  c #213627",
"X  c #233729",
"o  c #253A2B",
"O  c #293D2E",
"+  c #293E30",
"@  c #25412C",
"#  c #2F422D",
"$  c #3B562E",
"%  c #264730",
"&  c #2D4333",
"*  c #2B4B34",
"=  c #2E4E38",
"-  c #314637",
";  c #3A4C36",
":  c #314738",
">  c #354A3B",
",  c #384E3F",
"<  c #2C5237",
"1  c #3F5036",
"2  c #3E5831",
"3  c #34533D",
"4  c #3D523C",
"5  c #315D3E",
"6  c #395E3A",
"7  c #43553D",
"8  c #48593C",
"9  c #3A4F40",
"0  c #365740",
"q  c #3D5343",
"w  c #3A5A44",
"e  c #346143",
"r  c #3B6347",
"t  c #3B6C4A",
"y  c #3F744E",
"u  c #3F7750",
"i  c #415646",
"p  c #465A44",
"a  c #4D5E44",
"s  c #425748",
"d  c #455B4C",
"f  c #495E4F",
"g  c #4A5F50",
"h  c #40674C",
"j  c #406C4D",
"k  c #54654B",
"l  c #5A7A4D",
"z  c #4C6253",
"x  c #456B51",
"c  c #4C6B56",
"v  c #4F6D58",
"b  c #506657",
"n  c #566954",
"m  c #5D6F55",
"M  c #516758",
"N  c #556A5B",
"B  c #596E5E",
"V  c #437552",
"C  c #437C55",
"Z  c #4E745A",
"A  c #487E58",
"S  c #5E7057",
"D  c #5C775D",
"F  c #617357",
"G  c #65775F",
"H  c #596F60",
"J  c #5D7263",
"K  c #557C61",
"L  c #5A7C65",
"P  c #617667",
"I  c #6C7E66",
"U  c #627768",
"Y  c #667C6D",
"T  c #687D6E",
"R  c #697F70",
"E  c #448156",
"W  c #4D8855",
"Q  c #468359",
"!  c #4A855C",
"~  c #4A8A5D",
"^  c #508653",
"/  c #558B52",
"(  c #578D58",
")  c #579256",
"_  c #5A9052",
"`  c #5F9957",
"'  c #549159",
"]  c #56985F",
"[  c #5B9B5E",
"{  c #658657",
"}  c #619653",
"|  c #639B55",
" . c #699E52",
".. c #609F5D",
"X. c #6DA252",
"o. c #65A25B",
"O. c #6AA55A",
"+. c #6EA858",
"@. c #71A552",
"#. c #75AC56",
"$. c #79AF55",
"%. c #71AA58",
"&. c #79AF5F",
"*. c #7CB155",
"=. c #4C8D60",
"-. c #588563",
";. c #538B64",
":. c #578E68",
">. c #5D8C6B",
",. c #4D9262",
"<. c #529562",
"1. c #569860",
"2. c #549668",
"3. c #5C946D",
"4. c #599A6D",
"5. c #60876C",
"6. c #76886F",
"7. c #6B9661",
"8. c #6D8374",
"9. c #718676",
"0. c #708877",
"q. c #7B8C70",
"w. c #728778",
"e. c #758A7B",
"r. c #788D7E",
"t. c #659875",
"y. c #719E7F",
"u. c #75A469",
"i. c #67A279",
"p. c #71A07F",
"a. c #809176",
"s. c #82947B",
"d. c #7A8F80",
"f. c #7C9283",
"g. c #749B80",
"h. c #79A787",
"j. c #809587",
"k. c #879A86",
"l. c #819788",
"z. c #84998A",
"x. c #8A9F90",
"c. c #85A48E",
"v. c #83AB8F",
"b. c #96A88D",
"n. c #8DA293",
"m. c #85AC91",
"M. c #8CAB95",
"N. c #90A596",
"B. c #9EAE94",
"V. c #91A798",
"C. c #94AA9B",
"Z. c #99AD9F",
"A. c #8DB699",
"S. c #96B49F",
"D. c #99AEA0",
"F. c #9DB3A3",
"G. c #A1B6A7",
"H. c #A3B8A6",
"J. c #A2B7A8",
"K. c #A5BAAB",
"L. c #A9BDAE",
"P. c #AABFB1",
"I. c #AACB96",
"U. c #A1C6AC",
"Y. c #AEC2AE",
"T. c #B2C4AC",
"R. c #ADC2B3",
"E. c #B0C5B6",
"W. c #B5C9B6",
"Q. c #B2C6B8",
"!. c #B6CBBC",
"~. c #B9CEBF",
"^. c #BDD1BE",
"/. c #C1D4BD",
"(. c #C7D8BE",
"). c #BACFC0",
"_. c #BDD2C3",
"`. c #C1D6C5",
"'. c #C5D9C5",
"]. c #CADCC3",
"[. c #C2D7C9",
"{. c #C5DACB",
"}. c #C8DDCE",
"|. c #C9DED0",
" X c #CFE2C7",
".X c #D3E4CB",
/* pixels */
",.,.,.,.,.,.,.,.,.,.,.,.,.,.,.,.,.,.,.,.,.~ u =.u ~ ,.,.,.,.,.,.,.,.,.,.,.,.,.,.,.,.,.,.,.,.,.,.,.,.,.,.,.,.,.,.,.,.,.,.,.,.,.,.",
",.,.,.,.,.,.,.,.,.,.,.,.,.,.,.,.,.,.,.,.,.,.~ u ~ ,.,.,.,.,.,.,.,.,.,.,.,.,.,.,.,.,.,.,.,.,.,.,.,.,.,.,.,.,.,.,.,.,.,.,.,.,.,.,.",
",.,.,.,.,.,.,.,.,.,.,.,.,.,.,.,.,.,.,.,.,.,.,.~ ,.,.,.,.,.,.,.,.,.,.,.,.,.,.,.,.,.,.,.,.,.,.,.,.,.,.,.,.,.,.,.,.,.,.,.,.,.,.,.,.",
",.,.,.,.,.,.,.,.,.,.,.,.,.,.,.,.,.,.,.,.,.,.,.,.,.,.,.,.,.,.,.,.,.,.,.,.,.,.,.,.,.,.,.,.,.,.,.,.,.,.,.,.,.,.,.,.,.,.,.,.,.,.,.,.",
",.,.,.,.,.,.,.,.,.,.,.,.,.,.,.,.,.,.,.,.,.,.,.,.,.,.,.,.1.] ,.,.,.,.,.,.,.,.,.,.,.,.,.,.,.,.,.,.,.,.,.,.,.,.,.,.,.,.,.,.,.,.,.,.",
",.,.,.,.,.,.,.,.,.,.,.,.,.,.,.,.,.,.,.,.,.,.,.,.,.,.,.] O.+.,.,.,.,.,.,.,.,.,.,.,.,.,.,.,.,.,.,.,.,.,.,.,.,.,.,.,.,.,.,.,.,.,.,.",
",.,.,.,.,.,.,.,.,.,.,.,.,.,.,.,.,.,.,.,.,.,.,.,.<.,.,.o.*.+.,.,.,.,.,.,.,.,.,.,.,.<.<.,.,.,.,.,.,.,.,.,.,.,.,.,.,.,.,.,.,.,.,.,.",
",.,.,.,.,.,.,.,.,.,.,.,.,.,.,.,.,.,.,.,.,.,.,.1.#.[ ,.o.*.O.,.,.,.,.,.,.,.,.,.,.<.%.1.=.,.,.,.,.,.,.,.,.,.,.,.,.,.,.,.,.,.,.,.,.",
",.,.,.,.,.,.,.,.,.,.,.,.,.,.,.,.,.,.,.,.,.,.,.,.@.@.^ u.7.< < 5 t e 5 e ! ,.,.,.2.&.[ ,.<.,.,.,.,.,.,.,.,.,.,.,.,.,.,.,.,.,.,.,.",
",.,.,.,.,.,.,.,.,.,.,.,.,.,.,.,.,.,.,.,.i.K % * # $ 7 7 O Y D.D.F.F.F.D @ * = 2 * 2 6 Q ,.,.,.,.,.,.,.,.,.,.,.,.,.,.,.,.,.,.,.,.",
",.,.,.,.,.,.,.,.,.,.,.,.,.,.,.,.,.,.,.E * e.R.L.; Z.P.P.H j.|.}.|.|. X8.R Q.P.B.i W.W.J * Q ,.,.,.,.,.,.,.,.,.,.,.,.,.,.,.,.,.,.",
",.,.,.,.,.,.,.,.,.,.,.,.,.,.,.,.,.,.,.h.)._.}.[.b C.D.J.Y z.`.).).)._.0.w.K.K.b.N '.}._.!.c ! ,.,.,.,.,.,.,.,.,.,.,.,.,.,.,.,.,.",
",.,.,.,.,.,.,.,.,.,.~ ! ! ~ ,.,.,.,.;._.{.[._.~.E.b d i f.).).!.).).).).w.q s N W.~.~.`.{.!.& ,.,.,.,.,.,.,.,.,.,.,.,.,.,.,.,.,.",
",.,.,.,.,.,.,.,.,.A w q 3 3 :.<.,.V 8.[._.~.!.~.!.~.~.~._._.`._._.)._._._.).).).~.~.~.~.[._.L C ,.,.,.,.,.,.,.,.,.,.,.,.,.,.,.,.",
",.,.,.,.,.,.,.,.,.3 : > > & 3 =.2.& _._._.~.~.~.~.~._.`.N.P Y U L Y Y U F._._.).^.~.~.~.~.{.R.* ,.,.,.,.,.,.,.,.,.,.,.,.,.,.,.,.",
",.,.,.,.,.,.,.,.,.C 3 > , , & & 5 f.).~.~.~.~.~._.R.N M R l.j.l.l.f.f.z.Y g H ).).~.~.~.~._._.e.t ,.,.,.,.,.,.,.,.,.,.,.,.,.,.,.",
",.,.,.,.,.,.,.,.,.,.! + > > > X r.!.h.)._.).!.Q.N z x.x.L.[.`.[.}.}.}.|.L.N.N.s P !.!.).~.).{.[.0.y ,.,.,.,.,.,.,.,.,.,.,.,.,.,.",
",.,.,.,.,.,.,.,.<.,.,.>.X - o w.).).R.!.).!.Y 0 N.K.)._.).!.~.~.).).`.{.{.{.[.R.n., e.!.).)._.|.[.8.& A =.,.,.,.,.,.,.,.,.,.,.,.",
",.,.,.,.,.,.,.,.p.3.Q 5.& P E.!.).!.)._.!.Y f.E.!.).~.~.).).~.).).).!.).).[.[.}.{.).d.r.!.).).).{._._.B 3 ! Q Q =.,.,.,.,.,.,.,.",
",.,.,.,.,.2.3.j d q i N !.!.).).!._._.E.8.f._.).~.~.~.).).).`.).).`.`.).~.).~._.[.|.{.r.r.!.).!._._.{.[.!.N d z V =.<.=.,.,.,.,.",
",.,.,.,.,.h.Y e.L.R.!.).~.~.~.~.~._.E.8.e._.).!.).~.)._.`.C.d.f.s.j.r.D.`._.).~.).{.{.}.r.r.!.).~.~._._._.U.{.{.N.Z =.,.,.,.,.,.",
",.,.,.,.t.v.d R.P.~.).~.~.~.~.~.~.!.T f._.).).).).).L.Y T q o @ a + O d R T E._.)._.{.{.|.d.9.).~.~.!.).!.A._.[.}.N A ,.,.,.,.,.",
",.1.,.,.=.J z.R.!.).~.~.).~.~.~.!.Y j._.~.~.~.~.).R.z + s g J z F a n g O & z Y !.~.).{.{.{.f.8._._.)._._._.!.).{.F.c ~ ,.,.,.<.",
",.%.[ ,.Q q P.R.).~.~.~.~.~.~.~.!.9 R././.).!.!.N q d J g d 8.f k q.r.U p I q : P ~.~.).{.|.R.f n.q q s w N !.!.!.{.s A ,.<.1.$.",
",.#.[ ,.E i R.!.^.!.).).).~.~.).N n.!././.~.!.M : q 8.P N z Y z R s.a.m 8 I 6.T : P !.).).{.{.z.9 s i i s q > > 9 q X E ..O.<.*.",
",.%.[ o./ q R._.!._._.!.).).).P.z G._././._.G & . O & & + + + O + O O 7 X O + O + > 8.`.).[.D.> 9 & & & : : > g v.K.d C ..+.<.$.",
",.#.[ o.` 9 R.).~.~._._._._.`.N f.!.!./.(.Y.k i + J U Y Y Y U Y Y U U U U U T B : z N E.).R.& s : M b b b d * q 8.{.h C o.%.,.[ ",
",.[ <.o.l U R.).~._.z.d.d.d.G.B f.~.~._.L.b 1 J & J Y Y T Y Y Y I Y Y U Y Y T B + M - H R.!.H > 9 q q q q q > z S.{.g A ] [ ,.,.",
",.,.,.[ - L.E._._.f.> - - & z > f.E.!._.f.O d N O J Y Y T Y Y T Y Y Y Y Y Y T B & N M & n._.~.P : 9 9 9 9 , o : Y 8.& >.,.,.,.,.",
",.,.,.,.  z z N N q z q , s d . l.P.!._.f.O H d.& U Y T Y Y Y T T Y T Y T Y T B & B P i n._._.).P + & & & , d.f.e.d.f.x ,.,.,.,.",
",.,.,.,.@ r.x.z + z , s d i i g q Z._.F.9 9 z M O U T Y R Y Y Y Y Y Y T Y Y T H + z g s i L.).[.`.N P V.n.C._._._._.[.> ,.,.,.,.",
",.,.,.,.- K.W.R , , d f 4 n 4 s + n.).n.X J M P & J Y Y Y Y T Y T Y Y Y T T T H X B H U : F.~.).}.6.r.[._._.~.~.).)._.: ,.,.,.,.",
",.,.,.,.: G.E.Y > > d ; p 4 p s + n.R.N.X g g R - P Y T Y T T Y Y Y Y T Y T T B : J H r.: F.).)..X8.a.`.~.~.~.~.~.~.`.: =.,.,.,.",
",.,.,.,.: G.E.R , : f , p p q q + N.P.x.X H b J + U Y Y Y Y Y Y T Y Y Y Y Y T B + M M g o F.).).}.6.r.`.~.~.).~.~.~.`., <.,.,.,.",
",.,.,.,.- K.W.R , i q z i b 9 g + n.L.f.X b H H O P T Y T Y Y T Y T Y T T T T H > l.l.N o G.).).'.9.r.[.`.).~.).~.).`.: ,.,.,.,.",
",.,.,.,.X H P q X f i , q , d s N D.L.j.X U R w.& P Y Y T Y Y Y Y Y Y Y T U T H & J w.w.+ F.)._.H.i f T Y e.).).`.).[.x ,.,.,.,.",
",.,.,.,.o R 9.d.f.i g s q g q   f.P.K.D.N 9 U d.- P Y Y Y T Y T Y T Y T Y Y T H & N g g 8.E.).G.f , 9 , > 9 N N M M H =.,.,.,.,.",
"=.,.,.,.- K.E.`._.Z., & & + P d f.P.K.P.9.O g N X P Y Y Y Y Y Y Y Y Y Y Y T Y H + g H > V.).L.d , - > : : , - i n.V.> E ,.,.,.,.",
"1.1.,.,.= Z.R.~.).).J.F.G.F.E.N f.P.K.K.w.+ U R O J Y Y Y Y Y Y Y T Y Y Y Y T H : J J s V.E.q q : g g g g s , 9 d.{.g E ,.,.,.,.",
"#.$.[ ,.C z R.~.~.~.)._.).)._.P e.F.K.K.L.H + g X J Y R T Y R Y T T T T T T T H + g > l.).R.q 9 , g g g g d , 9 r.|.K ! ,.,.,.,.",
"<.%.$.[ ) l T.E.).).!.!.).).~.~.q V.L.K.P.8.> J X g M b b M M M b N b b N M M d - g U ).~.).K.d 9 : : ; > > & i n.V.Z ~ ,.,.,.,.",
",.] %.#.@.{ K.Y.!.).).).~.~.~.).8.8.F.K.F.P.8.: O 9 & i : o O o X + > > + > i O O 7 x.).~.).E.r.d > , , > q N S S N 3 Q ,.,.,.,.",
",.,.W  . .-.L.K.E.).).!.~.~.~.~.).9 D.K.K.F.K.8.: d N r.b N g H J N T b z w.I + > b.[.).~.).Z.s F.Y T Y Y e._._.]..XD ' +.o.,.,.",
",.,.u ^ ^ V 8.L.P.!.).).~.~.~.~.).f.J G.K.K.K.P.r.P > z M d.M N N b d.M i b ; a.n.(.`.!.~.L.B x._._._._._._.)._.'.I.+.#.%.[ ,.,.",
",.,.~ C ! ~ L K.L.L.P.).!._._.!.!.).z.H K.K.K.K.K.K.T o & d d Y U d M 9 X O k.(.`./.~.~.L.N N.)._.).).!.!.).)._. Xs.#.X.' ,.,.,.",
",.,.,.,.,.,.y Y F.D.D.F.R.!.!._.).).).l.J F.K.K.K.K.G.n.N.z o : + O X U J.J.!.`.!.!.E.G.N N.).~.!.).!._.).R.R._.g.e 7.( Q ,.,.,.",
",.,.,.,.,.2.,.t & * & 0 n.Z.E.!.!.).).).f.J F.P.L.K.H.K.L.F.C.D.F.D.D.G.L.Q.!.!.Q.L.D.B x.).~.~.!._._.L.F.0 3 ! ,.C :.=.,.,.,.,.",
",.,.,.,.2.t.,.<.<.=.,.=.< c z.D.E.).).)._.d.Y f.H.L.H.L.L.K.L.G.K.K.K.K.J.K.L.L.D.j.P x.).).~.~._.K.Z.x C =.=.,.,.,.,.,.,.,.,.,.",
",.,.,.,.,.,.,.,.,.,.,.,.,.Q e L D.E.).).!._.e.N Y e.Y.Y.L.T.H.K.K.J.J.K.K.L.K.R Y b z._.).).)._.L.v t =.,.,.,.,.,.,.,.,.,.,.,.,.",
",.,.,.,.,.,.,.,.,.,.,.,.,.,.2.V N F.E.).).)._._.0.U B D k.P.L.L.P.L.P.P.d.B J U f._._.~.~.!.).L.J ;.,.,.,.,.,.,.,.,.,.,.,.,.,.,.",
",.,.,.,.,.,.,.,.,.,.,.,.,.,.,.,.u v G.!.~.~.~.~._.W.d.f.P g g g g g g g Y d.j.)._.~.).~.~.).P.J t.4.,.,.,.,.,.,.,.,.,.,.,.,.,.,.",
",.,.,.,.,.,.,.,.,.,.,.,.,.,.,.,.,.* Z.R.~.~.~.~.).~._.`.L.x.n.n.x.x.x.x.P.`.).).~.~.~.~.).!.n.= 4.,.,.,.,.,.,.,.,.,.,.,.,.,.,.,.",
",.,.,.,.,.,.,.,.,.,.,.,.,.,.,.,.,.E h L.~.).!.).).R.P.P.!._.).)._._._._.Q.L.L.P.).~.).~.).G.q ~ ,.,.,.,.,.,.,.,.,.,.,.,.,.,.,.,.",
",.,.,.,.,.,.,.,.,.,.,.,.,.,.,.,.,.,.;.F.R.!.~.!.F.d q 9 8.W.).).).).).E.J > 9 d J.).!.!.P.n.t ,.,.,.,.,.,.,.,.,.,.,.,.,.,.,.,.,.",
",.,.,.,.,.,.,.,.,.,.,.,.,.,.,.,.,.,.,.3.M.F.!.!.9 L.Q.!.P d.).!.!.!.).Y w.!.P.Z.d ~.E.n.c.r =.,.,.,.,.,.,.,.,.,.,.,.,.,.,.,.,.,.",
",.,.,.,.,.,.,.,.,.,.,.,.,.,.,.,.,.,.,.,.~ t.m.h.h h.v.M.K 5.m.m.v.v.M.K 5.M.m.y.x m.m.Z V ,.,.,.,.,.,.,.,.,.,.,.,.,.,.,.,.,.,.,.",
",.,.,.,.,.,.,.,.,.,.,.,.,.,.,.,.,.,.,.,.,.,.,.,.,.,.,.,.,.,.,.,.=.,.,.,.,.,.,.,.,.,.,.,.,.,.,.,.,.,.,.,.,.,.,.,.,.,.,.,.,.,.,.,.",
",.,.,.,.,.,.,.,.,.,.,.,.,.,.,.,.,.,.,.,.,.,.,.,.,.,.,.,.,.,.,.,.O.<.,.,.,.,.,.,.,.,.,.,.,.,.,.,.,.,.,.,.,.,.,.,.,.,.,.,.,.,.,.,.",
",.,.,.,.,.,.,.,.,.,.,.,.,.,.,.,.,.,.,.,.,.,.,.,.,.,.,.,.,.,.,.<.#.%.1.,.,.,.,.,.,.,.,.,.,.,.,.,.,.,.,.,.,.,.,.,.,.,.,.,.,.,.,.,.",
",.,.,.,.,.,.,.,.,.,.,.,.,.,.,.,.,.,.,.[ [ ,.,.,.,.,.,.,.,.,.,.<.$.*.1.,.1...,.,.,.,.,.,.,.,.,.,.,.,.,.,.,.,.,.,.,.,.,.,.,.,.,.,.",
",.,.,.,.,.,.,.,.,.,.,.,.,.,.,.,.,.,.,.O.O.,.,.,.,.,.,.,.,.,.,.<.o.$.( ' %.%.,.,.,.,.,.,.,.,.,.,.,.,.,.,.,.,.,.,.,.,.,.,.,.,.,.,.",
",.,.,.,.,.,.,.,.,.,.,.,.,.,.,.,.,.,.,.o.O.<.1.,.,.,.,.,.,.,.,.,.,.| / X.#.| ,.,.,.,.,.,.,.,.,.,.,.,.,.,.,.,.,.,.,.,.,.,.,.,.,.,.",
",.,.,.,.,.,.,.,.,.,.,.,.,.,.,.,.,.,.,.o.o.[ #.,.,.,.,.,.,.,.,.,.,.u } @._ C ,.,.,.,.,.,.,.,.,.,.,.,.,.,.,.,.,.,.,.,.,.,.,.,.,.,.",
",.,.,.,.,.,.,.,.,.,.,.,.,.,.,.,.,.,.,.O.o.[ +.<.,.,.,.,.,.,.,.,.,.,.C y Q ,.,.,.,.,.,.,.,.,.,.,.,.,.,.,.,.,.,.,.,.,.,.,.,.,.,.,."
};
