/* XPM */
static char *result[] = {
/* columns rows colors chars-per-pixel */
"64 64 238 2 ",
"   c #020201",
".  c #0B0501",
"X  c #040A05",
"o  c #0C0A04",
"O  c #060C0A",
"+  c #0A0C0B",
"@  c #140B01",
"#  c #1A0D01",
"$  c #0B120C",
"%  c #021809",
"&  c #1D1204",
"*  c #18160A",
"=  c #040610",
"-  c #0F1A14",
";  c #141414",
":  c #131C14",
">  c #1A1E15",
",  c #1C1D1D",
"<  c #210D00",
"1  c #221303",
"2  c #2A1602",
"3  c #271C07",
"4  c #2D1A05",
"5  c #351B03",
"6  c #3C1E01",
"7  c #361E08",
"8  c #172619",
"9  c #172A1C",
"0  c #0B3319",
"q  c #2C270B",
"w  c #392307",
"e  c #37330A",
"r  c #25261A",
"t  c #392A13",
"y  c #25321C",
"u  c #373619",
"i  c #1B2D21",
"p  c #1C3423",
"a  c #1E3926",
"s  c #232424",
"d  c #282728",
"f  c #2B2B2B",
"g  c #263827",
"h  c #223E29",
"j  c #343622",
"k  c #2A3935",
"l  c #323232",
"z  c #383936",
"x  c #3C3C3B",
"c  c #401E02",
"v  c #442403",
"b  c #492504",
"n  c #422509",
"m  c #4B2A09",
"M  c #552D07",
"N  c #48390C",
"B  c #5A350A",
"V  c #432A11",
"C  c #493815",
"Z  c #573711",
"A  c #63370A",
"S  c #643B0B",
"D  c #6E3B0B",
"F  c #733E0A",
"G  c #733E10",
"H  c #06431A",
"J  c #0D5027",
"K  c #24432C",
"L  c #2E4929",
"P  c #36482B",
"I  c #274A32",
"U  c #2A4E35",
"Y  c #364B38",
"T  c #2D5539",
"R  c #34593C",
"E  c #1E7939",
"W  c #4E450E",
"Q  c #574612",
"!  c #5E5713",
"~  c #684A0D",
"^  c #7B440D",
"/  c #77480F",
"(  c #6B4516",
")  c #734210",
"_  c #7A4611",
"`  c #725714",
"'  c #746C19",
"]  c #50452B",
"[  c #74512E",
"{  c #725537",
"}  c #52713A",
"|  c #3D3E40",
" . c #3A5943",
".. c #356443",
"X. c #376946",
"o. c #3B6948",
"O. c #396D49",
"+. c #3C724D",
"@. c #3F7751",
"#. c #434343",
"$. c #464B49",
"%. c #514F4C",
"&. c #47564B",
"*. c #535353",
"=. c #565E58",
"-. c #5C5C5C",
";. c #4D774F",
":. c #4D6A56",
">. c #457855",
",. c #427C54",
"<. c #746A4D",
"1. c #5C6A60",
"2. c #646566",
"3. c #6A6B6B",
"4. c #737373",
"5. c #7C7C7C",
"6. c #884B0E",
"7. c #96520E",
"8. c #824711",
"9. c #844B12",
"0. c #8B4D12",
"q. c #875B14",
"w. c #955411",
"e. c #9A5512",
"r. c #9A591B",
"t. c #A25A14",
"y. c #A65F17",
"u. c #856616",
"i. c #9C6118",
"p. c #867B1B",
"a. c #947618",
"s. c #A96518",
"d. c #B66618",
"f. c #BD6B1A",
"g. c #AA751B",
"h. c #B8741B",
"j. c #B76E27",
"k. c #C26E1C",
"l. c #C9751B",
"z. c #D77B1E",
"x. c #DE7F20",
"c. c #E07F20",
"v. c #B27A48",
"b. c #238441",
"n. c #448157",
"m. c #46855A",
"M. c #4B8658",
"N. c #4A8B5D",
"B. c #538A52",
"V. c #53915A",
"C. c #599659",
"Z. c #5C9C5E",
"A. c #639C57",
"S. c #6CA152",
"D. c #65A25B",
"F. c #6AA55A",
"G. c #6EA859",
"H. c #70A452",
"J. c #74AC56",
"K. c #79AF55",
"L. c #71AA58",
"P. c #7AB155",
"I. c #4B8F60",
"U. c #4D9262",
"Y. c #529561",
"T. c #569860",
"R. c #688571",
"E. c #A58D1F",
"W. c #BA8B1F",
"Q. c #8C8222",
"!. c #A98722",
"~. c #AEA22E",
"^. c #D98B1F",
"/. c #C98922",
"(. c #C89623",
"). c #D89825",
"_. c #E48320",
"`. c #EA8922",
"'. c #F08F29",
"]. c #EA9726",
"[. c #F69926",
"{. c #C5A523",
"}. c #D9A826",
"|. c #C9B825",
" X c #DAB82A",
".X c #EDA529",
"XX c #F8A829",
"oX c #EAB92B",
"OX c #F6B529",
"+X c #FDBC2C",
"@X c #FCBD3E",
"#X c #CDC32A",
"$X c #DAC82B",
"%X c #E8C92D",
"&X c #FDC72D",
"*X c #E9D52E",
"=X c #F9D52E",
"-X c #FBC732",
";X c #FBCA31",
":X c #EAD030",
">X c #FDD533",
",X c #FEDB32",
"<X c #F9DD39",
"1X c #F6E431",
"2X c #FEE432",
"3X c #FFED33",
"4X c #FFF234",
"5X c #FFF139",
"6X c #9D8D60",
"7X c #CA8D4D",
"8X c #E9A953",
"9X c #F5B572",
"0X c #F6CB47",
"qX c #FFE149",
"wX c #E0D87D",
"eX c #FFF16A",
"rX c #7AA489",
"tX c #828283",
"yX c #8C8C8B",
"uX c #858891",
"iX c #949594",
"pX c #9C9C9C",
"aX c #9AA0A0",
"sX c #A5A4A4",
"dX c #ACACAC",
"fX c #B2B2B2",
"gX c gray74",
"hX c #E5BC95",
"jX c #A2C8AD",
"kX c #D3C58E",
"lX c #FAEE8C",
"zX c #E5CFB6",
"xX c #FDF1B0",
"cX c #C7C7C6",
"vX c #D6D6D6",
"bX c #F0E7CB",
"nX c #E7E7E8",
"mX c #F4F4F4",
/* pixels */
"U.U.U.U.U.U.U.U.U.U.U.U.U.U.U.U.U.U.U.U.U.N.@.U.@.N.U.U.U.U.U.U.U.U.U.U.U.U.U.U.U.U.U.U.U.U.U.U.U.U.U.U.U.U.U.U.U.U.U.U.U.U.U.U.",
"U.U.U.U.U.U.U.U.U.U.U.U.U.U.U.U.U.U.U.U.U.U.M.,.N.U.U.U.U.U.U.U.U.U.U.U.U.U.U.U.U.U.U.U.U.U.U.U.U.U.U.U.U.U.U.U.U.U.U.U.U.U.U.U.",
"U.U.U.U.U.U.U.U.U.U.U.U.U.U.U.U.U.U.U.U.U.U.U.N.U.U.U.U.U.U.U.U.U.U.U.U.U.U.U.U.U.U.U.U.U.U.U.U.U.U.U.U.U.U.U.U.U.U.U.U.U.U.U.U.",
"U.U.U.U.U.U.U.U.U.U.U.U.U.U.U.U.U.U.U.U.U.U.U.U.U.U.U.U.U.U.U.U.U.U.U.U.U.U.U.U.U.U.U.U.U.U.U.U.U.U.U.U.U.U.U.U.U.U.U.U.U.U.U.U.",
"U.U.U.U.U.U.U.U.U.U.U.U.U.U.U.U.U.U.U.U.U.U.U.U.U.U.U.U.Y.Z.V.I.Y.I.I.I.U.U.U.U.U.U.U.U.U.U.U.U.U.U.U.U.U.U.U.U.U.U.U.U.U.U.U.U.",
"U.U.U.U.U.U.U.U.U.U.U.U.U.U.U.U.U.U.U.U.U.U.U.U.U.U.U.C.S.;.X.X.X.X.+.N.U.U.U.U.U.U.U.U.U.U.U.U.U.U.U.U.U.U.U.U.U.U.U.U.U.U.U.U.",
"U.U.U.U.U.U.U.U.U.U.U.U.U.U.U.U.U.U.U.U.U.N.N.I.V.I.I.D.} * % $ $ o 8 O.U.U.U.U.U.Y.Y.U.U.U.U.U.U.U.U.U.U.U.U.U.U.U.U.U.U.U.U.U.",
"U.U.U.U.U.U.U.U.U.U.U.U.U.U.U.U.U.U.U.U.n.I h K L K K L y 1 M 6.8.m & p ..U.U.U.Y.L.T.U.U.U.U.U.U.U.U.U.U.U.U.U.U.U.U.U.U.U.U.U.",
"U.U.U.U.U.U.U.U.U.U.U.U.U.U.U.U.U.U.U.m.R * .       . 1 w [ 7X8XXXg.B 1 9 +.N.Y.I.L.Z.U.U.U.U.U.U.U.U.U.U.U.U.U.U.U.U.U.U.U.U.U.",
"U.U.U.U.U.U.U.U.U.U.U.U.U.U.U.U.I.Y.N.I q ) w     @ v 7.7XvXnXbXqX&X(.B & 8 +.L.V.J.Z.U.U.U.U.U.U.U.U.U.U.U.U.U.U.Y.U.U.U.U.U.U.",
"U.U.U.U.U.U.U.U.U.U.U.U.U.U.U.U.U.n.T t A d.6.w . 5 r.9XhXiXuXv.Q.|.,XW.B & ;.K.V.L.Z.U.U.U.U.U.U.U.U.U.U.U.U.U.U.U.U.U.U.U.U.U.",
"U.U.U.U.U.U.U.U.U.U.U.U.U.U.U.U.U.R $ B d._.k.^ 1 A '.zXaX8 ; , ; ' *X,XW.M } H.Y.Z.T.U.U.U.U.U.U.U.U.U.U.U.U.U.U.U.U.U.U.U.U.U.",
"U.U.U.U.U.U.U.U.U.U.U.U.U.U.U.U.Y...X 9.c.`.l.6.c u.%X<.K J rXsX*.j ! $X+Xd.C U N.U.U.U.U.U.U.U.U.U.U.U.U.U.U.U.U.U.U.U.U.U.U.U.",
"U.U.U.U.U.U.U.U.U.U.U.U.U.U.U.U.O.P B f.`.z.7.^ q.{.%XW % J rXjX:.r N |.2X].m 9 m.U.U.U.U.U.U.U.U.U.U.U.U.U.U.U.U.U.U.U.U.U.U.U.",
"U.U.U.U.U.U.U.U.U.U.U.U.I.N.N.,.8 M z.`.c.d.F ~ #X2XoXN X 0 E b.0 N s.:X3X%XQ i b.Y.U.U.U.U.U.U.U.U.U.U.U.U.U.U.U.U.U.U.U.U.U.U.",
"U.U.U.U.U.U.U.U.U.U.U.U.m.I p y ^ t.d.d.f.^.{.|.1X,X).w % J J H % S ^.*X4X=Xh.( z O.U.U.U.U.U.U.U.U.U.U.U.U.U.U.U.U.U.U.U.U.U.U.",
"U.U.U.U.U.U.U.U.U.U.U.n.R t w Q 7X8Xh.g.(.;X3X4X3X+Xz.F r J 0 % q r.XX;X2X3X-Xs.@ T U.U.U.U.U.U.U.U.U.U.U.U.U.U.U.U.U.U.U.U.U.U.",
"U.U.U.U.U.U.U.U.U.U.N.I q d.).$XxXxX<X*X1X3X3X3X,XXX`._.q.&   w d.OX>X.XOX2X>XW.* T U.U.U.U.U.U.U.U.U.U.U.U.U.U.U.U.U.U.U.U.U.U.",
"U.U.U.U.U.U.U.U.U.U.Y.h 3 /.eXxXkX8XqX3X4X4X3X1XOX.XOX+X}.Q.p.E.oX,X*Xu.g.>X;Xg.* T U.U.U.U.U.U.U.U.U.U.U.U.U.U.U.U.U.U.U.U.U.U.",
"U.U.U.U.U.U.U.U.U.N.,.g Z  XlXzXv.k.:X2X4X3X4X,XXXXX>X3X4X3X3X3X4X4X$Xe Q oX[.e.# T U.U.U.U.U.U.U.U.U.U.U.U.U.U.U.U.U.U.U.U.U.U.",
"U.U.U.U.U.U.U.U.U.+.9 ( /.=X~.[ f.].&X2X3X3X4X3X,X,X3X3X4X5X4X4X4X4X$Xe B `.l./ @ T U.U.U.U.U.U.U.U.U.U.U.U.U.U.U.U.U.U.U.U.U.U.",
"U.U.U.U.U.U.U.U.U...o 9.XX2X|.a.).&X,X3X3X3X3X3X4X4X3X3X3X3X3X3X4XeXwXj b f.8.V h +.U.U.U.U.U.U.U.U.U.U.U.U.U.U.U.U.U.U.U.U.U.U.",
"U.T.U.U.U.U.U.U.U.O.8 _ `.,X3X3X3X3X3X3X3X3X3X3X3X4X3X3X3X3X3X1X:XlXcXP w ^ 5 9 n.U.U.U.U.U.U.U.U.U.U.U.U.U.U.U.U.U.U.U.U.U.Y.T.",
"U.L.Z.U.U.U.U.U.U.M.o.j ~  X3X5X5X3X3X3X3X3X4X3X3X3X3X3X4X4X5X X! P %.( M 2 . 9 m.U.U.U.U.U.U.U.U.U.U.U.U.U.U.U.U.U.U.U.U.Y.T.J.",
"U.J.Z.U.U.U.U.U.U.U.U.K q (.>X3X4X3X3X4X3X3X3X4X4X4X4X3X:X~.E.a.Z @ . M n     9 m.U.U.U.U.U.U.U.U.U.U.U.U.U.U.U.U.U.U.U.T.F.T.P.",
"U.J.Z.D.D.U.U.U.U.U.I.K 4 f.+X2X3X3X3X3X3X3X3X3X3X1X1X>XW.q o m f.G   . .     9 ,.U.U.U.I.I.I.I.U.U.U.Y.U.U.U.U.U.U.U.U.D.G.T.K.",
"U.J.Z.D.F.U.U.U.U.U.I.+.Y Z a.+X>X2X4X4X4X4X2X,X&XW.! Q ( 9.0.y.f.A . n 7 . v C g +.U.U.O.a a T I.I.U.U.U.U.U.U.U.U.U.U.D.L.U.T.",
"U.Z.Y.D.D.U.U.U.U.U.U.U.,.p Z d./. X=X,X,X,X X(.f.9.e q ` _.x.y.^ 5 @ _ A . m D w L @.+.P 4 o p I.U.U.U.U.U.U.U.U.U.U.U.T.T.U.Y.",
"U.U.U.Z.Z.U.U.U.U.U.U.U.U.n.P 3 * ~ `.[.[.].` 3 & ` }.$XoX`.) & @ . @ ^ A . . m f.( $ $ ( d.7 p N.I.U.U.U.U.U.U.U.U.U.U.U.I.U.U.",
"U.U.U.U.U.U.U.U.U.U.U.U.U.U.+.I I P G G ) G ] K $ q u.p.' ( G M   4 ^ 7.B . n s.].h.B 2 0.z.n p N.I.U.U.U.U.U.U.U.U.U.U.U.U.U.U.",
"U.U.U.U.U.U.U.U.U.U.U.U.U.T.U.U.V...: $ $ $ T X.> . .   o 4 y.k.n 9._.f.B # r.XX&X+Xl.B 0.k.7 p N.Y.Y.U.U.U.U.U.U.U.U.U.U.U.U.U.",
"U.U.U.U.U.U.U.U.U.U.U.U.D.F.U.U.U.N.+.O.+.+.I : 4 5 2   7 s.c._.k.z.'.`._ & !.3X,X>X}.S ^ e.4 g N.L.T.U.U.U.U.U.U.U.U.U.U.U.U.U.",
"U.U.U.U.U.U.U.U.U.U.U.D.D.Z.G.U.U.U.U.I.I...C M D M c . b l.`.'.[.k.0.0.` ' #X4X3X2X}.~ M A # p S.Z.F.Z.U.U.U.U.U.U.U.U.U.U.U.U.",
"U.U.U.U.U.U.U.U.U.U.U.Y.D.F.Y.U.U.U.I.N.o.> 9.z.t.F b @ 5 0.l._.x.8.* : ' =X4X4X3X,X}.B c c @ y V.F.Z.Y.U.U.U.U.U.U.U.U.U.U.U.U.",
"U.U.U.U.U.U.U.U.U.U.U.U.T.T.U.U.U.U.U. .u w.d.d.t.7.F b 2 5 0.t.M ` ~.sXkX5X2X,X3X&X/.w 2 6 @ p N.Z.Y.U.U.U.U.U.U.U.U.U.U.U.U.U.",
"U.U.U.U.U.U.U.U.U.U.U.U.U.U.U.U.Y.b...| ] j.j.e.7.7.8.b #   7 S W ~.lXxXlX>X=X,X3XXXy.& . 2 8 U N.U.U.U.U.U.U.U.U.U.U.U.U.U.U.U.",
"U.U.U.U.U.U.U.U.U.U.U.U.U.U.U.U.U. ., 2.yX<.[ 7.e.F b #       e #XlXbXeX-X.X&X5X1X(.^ #   $ ..I.U.U.U.U.U.U.U.U.U.U.U.U.U.U.U.U.",
"U.U.U.U.U.U.U.U.U.U.U.U.U.U.U.I. . .-.5.3.f V D D b @   + d f j ! 7X9X@XOX;XlXlXqXa.5 .   O O.U.U.U.U.U.U.U.U.U.U.U.U.U.U.U.U.U.",
"T.T.U.U.U.U.U.U.U.U.U.U.U.U.Y.>.8 | aX3.l ; 1 5 5 2 + + l 4.tX2.k ( f.f.).>XxXxX@X~     X 9 +.U.U.U.U.U.U.U.U.U.U.U.U.U.U.U.U.U.",
"J.P.Z.U.U.Y.U.U.U.U.U.U.U.U.U.M.8 | pX$., | s . . s #.#.5.vXnXvXpX%.1 1 / [.0X0X].S     a ,.U.U.U.U.U.U.U.U.U.U.U.U.U.U.U.U.U.U.",
"Y.L.K.T.D.K.G.U.U.U.U.U.U.U.U.b.- l 4.l = d ;   , 2.sXfXgXvXcXdXyX2.$.$.] 8.q.q.) D S m u R m.U.U.U.U.U.U.U.U.U.U.U.U.U.U.U.U.U.",
"U.T.L.K.K.L.Y.U.U.U.U.U.U.U.U.m.p , #., . $ $ : $.pXnXnXvXsX3.*.-.yXfXfX3.;   . q i._.y.m $ O.U.U.U.U.U.U.I.Z.L.L.Y.U.Y.U.U.U.U.",
"U.U.M.F.A.M.U.U.U.U.U.U.U.U.U.I.@.U - O $ ..+.+.>.R.5.rX5.3.f d 5.cXnXgXtXx = q ~.%X.Xs.m o o.U.U.U.U.U.U.U.Y.Z.K.G.T.T.G.F.U.U.",
"U.U.>.;.B.N.U.U.U.U.U.U.U.U.U.U.U.@.a i U I.U.U.U.&.l { { l #.4.gXnXvXsX3.Y ] a.=X,X.Xs.m $ +.U.U.U.U.U.U.U.U.U.A.P.G.L.J.T.U.U.",
"U.U.N.n.M.U.U.U.U.U.U.U.U.U.U.U.U.I.m.I.I.I.U.U.U.T > s.r.r pXmXmXvXpX3.f ; g.;X&XXXz.t.m + X.Y.U.U.U.U.U.U.U.U.V.C.J.F.C.U.U.U.",
"U.U.U.U.U.U.U.U.U.U.U.U.U.U.U.U.U.U.U.U.U.U.U.U.U.m.R C { dXnXmXpXrX3.f = @ g.OXXX^.t.m 4 2 9 T I.U.U.U.U.U.U.U.I.>.B.B.m.U.U.U.",
"U.U.U.U.U.U.U.U.U.U.U.U.U.U.U.U.U.U.U.U.U.U.@.O.O.>.>.: z fXvXdX%.z x i 9 8 9.d.y.0.B < 1 6 . 9 m.U.U.U.U.U.U.U.U.,.@.m.U.U.U.U.",
"U.U.U.U.U.U.U.U.U.U.U.U.U.U.U.U.U.U.U.U.U.I.T $ O k %., = s *.*.; = ;  .N.>.y & < # # 5 v 6 @ g N.U.U.U.U.U.U.U.U.U.U.U.U.U.U.U.",
"U.U.U.U.U.U.U.U.U.U.U.U.U.U.U.U.U.U.U.U.b. .$.*.x s f 3.5.-.*.#.O   = a  .=.-   s =   @ & &   p N.U.U.U.U.U.U.U.U.U.U.U.U.U.U.U.",
"U.U.U.U.U.U.U.U.U.U.U.U.U.U.U.U.U.U.U.U.o.+ *.yX-.l  .gXnXaX2.l +     ; f  .z x *.] d ; X   O I I.U.U.U.U.U.U.U.U.U.U.U.U.U.U.U.",
"U.U.U.U.U.U.U.U.U.U.U.U.U.U.U.U.U.U.U.U.O.$ x -.s -.cXcXsX3.l +     ; 3.-.s iXdX2.aXgX-., $ T m.I.U.U.U.U.U.U.U.U.U.U.U.U.U.U.U.",
"U.U.U.U.U.U.U.U.U.U.U.U.U.U.U.U.U.U.U.U.O.+ ; f s -.yX3.-.:.U K h - ; 3.*.; pXcX2.dXcX4.d O +.U.U.U.U.U.U.U.U.U.U.U.U.U.U.U.U.U.",
"U.U.U.U.U.U.U.U.U.U.U.U.U.U.U.U.U.U.U.U.+.- X 8 $.x $ $ a I.U.I.I.U : #.z : 4.uX=.5.iX-.d - +.U.U.U.U.U.U.U.U.U.U.U.U.U.U.U.U.U.",
"U.U.U.U.U.U.U.U.U.U.U.U.U.U.U.U.U.U.U.U.N.O.X.+.>.:.o.o.@.I.U.U.U.m.o.*.&. .1.*.s $.-.s g o.m.U.U.U.U.U.U.U.U.U.U.U.U.U.U.U.U.U.",
"U.U.U.U.U.U.U.U.U.U.U.U.U.U.U.U.U.U.U.U.U.U.U.U.U.U.U.U.U.U.U.U.U.U.U.:.1.U.:. .i  .&.a ..U.U.U.U.U.U.U.U.U.U.U.U.U.U.U.U.U.U.U.",
"U.U.U.U.U.U.U.U.U.U.U.U.U.U.U.U.U.U.U.U.U.U.U.U.U.U.U.U.U.U.U.U.U.U.U.U.I.I.I.I.>.I.I.I.U.U.U.U.U.U.U.U.U.U.U.U.U.U.U.U.U.U.U.U.",
"U.U.U.U.U.U.U.U.U.U.U.U.U.U.U.U.U.U.U.U.U.U.U.U.U.U.U.U.U.U.U.U.U.U.U.U.U.U.U.U.U.U.U.U.U.U.U.U.U.U.U.U.U.U.U.U.U.U.U.U.U.U.U.U.",
"U.U.U.U.U.U.U.U.U.U.U.U.U.U.U.U.U.U.U.U.U.U.U.U.U.U.U.U.U.U.U.T.G.T.U.U.U.U.U.U.U.U.U.U.U.U.U.U.U.U.U.U.U.U.U.U.U.U.U.U.U.U.U.U.",
"U.U.U.U.U.U.U.U.U.U.U.U.U.U.U.U.U.U.U.U.U.U.U.U.U.U.U.U.U.U.U.U.J.L.T.U.U.U.U.U.U.U.U.U.U.U.U.U.U.U.U.U.U.U.U.U.U.U.U.U.U.U.U.U.",
"U.U.U.U.U.U.U.U.U.U.U.U.U.U.U.U.U.U.U.Z.T.U.U.U.U.U.U.U.U.U.U.Y.P.P.T.U.T.D.U.U.U.U.U.U.U.U.U.U.U.U.U.U.U.U.U.U.U.U.U.U.U.U.U.U.",
"U.U.U.Y.U.U.U.U.U.U.U.U.U.U.U.U.U.U.U.F.F.U.U.U.U.U.U.U.U.U.U.Y.F.6XB.V.G.G.U.U.U.U.U.U.U.U.U.U.U.U.U.U.U.U.U.U.U.U.U.U.U.U.U.U.",
"U.U.U.U.U.U.U.U.U.U.U.U.U.U.U.U.U.U.U.D.F.U.Z.U.U.U.U.U.U.U.U.U.U.A.B.A.J.A.U.U.U.U.U.U.U.U.U.U.U.U.U.U.U.U.U.U.U.U.U.U.U.U.U.U.",
"U.U.U.U.U.U.U.U.U.U.U.U.U.U.U.U.U.U.U.F.D.Z.L.U.U.U.U.U.U.U.U.U.U.b.A.H.C.,.U.U.U.U.U.U.U.U.U.U.U.U.U.U.U.U.U.U.U.U.U.U.U.U.U.U.",
"U.U.U.U.U.U.U.U.U.U.U.U.U.U.U.U.U.U.U.F.D.Z.L.U.U.U.U.U.U.U.U.U.U.T.,.>.,.U.U.U.U.U.U.U.U.U.U.U.U.U.U.U.U.U.U.U.U.U.U.U.U.U.U.U."
};
