/* XPM */
static char *result[] = {
/* columns rows colors chars-per-pixel */
"64 64 233 2 ",
"   c #020201",
".  c #0B0501",
"X  c #070907",
"o  c #0A0D0A",
"O  c #100700",
"+  c #130A01",
"@  c #190D02",
"#  c #031208",
"$  c #0B120C",
"%  c #191506",
"&  c #121209",
"*  c #0C0E13",
"=  c #0D1811",
"-  c #131413",
";  c #151B15",
":  c #1C1C1D",
">  c #221303",
",  c #291501",
"<  c #281B07",
"1  c #26170A",
"2  c #341B02",
"3  c #3A1E02",
"4  c #17261A",
"5  c #172A1C",
"6  c #023515",
"7  c #29240A",
"8  c #3D2205",
"9  c #37270A",
"0  c #272615",
"q  c #322D15",
"w  c #2A371D",
"e  c #3A3515",
"r  c #1B2C21",
"t  c #1C3322",
"y  c #1E3926",
"u  c #1F3C28",
"i  c #242423",
"p  c #212B25",
"a  c #2D2D2D",
"s  c #312F2C",
"d  c #273729",
"f  c #213C29",
"g  c #363B21",
"h  c #323333",
"j  c #383937",
"k  c #3B3C3C",
"l  c #411F00",
"z  c #442304",
"x  c #4C2805",
"c  c #432509",
"v  c #432D0B",
"b  c #552D04",
"n  c #532E0A",
"m  c #46380D",
"M  c #59340A",
"N  c #4A3515",
"B  c #583E1D",
"V  c #653609",
"C  c #6C3C0E",
"Z  c #733F0D",
"A  c #0C5027",
"S  c #23422D",
"D  c #29442B",
"F  c #344527",
"G  c #274931",
"H  c #2A4B34",
"J  c #344A3B",
"K  c #2D5438",
"L  c #345439",
"P  c #315C3E",
"I  c #0E6A2B",
"U  c #5E4416",
"Y  c #584E16",
"T  c #6B480D",
"R  c #79430C",
"E  c #6B4412",
"W  c #744110",
"Q  c #774813",
"!  c #6D5913",
"~  c #735714",
"^  c #756814",
"/  c #794D21",
"(  c #486D3B",
")  c #3B3C40",
"_  c #385A41",
"`  c #356443",
"'  c #396546",
"]  c #386947",
"[  c #396D49",
"{  c #3C724D",
"}  c #3F7750",
"|  c #434444",
" . c #454846",
".. c #4B4B4B",
"X. c #47584C",
"o. c #56524C",
"O. c #575857",
"+. c #6F5E4C",
"@. c #447754",
"#. c #427C54",
"$. c #507052",
"%. c #51765C",
"&. c #6D6953",
"*. c #646565",
"=. c #656A66",
"-. c #6C6C6D",
";. c #706D6E",
":. c #747474",
">. c #7B7370",
",. c #7C7C7C",
"<. c #85480D",
"1. c #854D13",
"2. c #8C4E11",
"3. c #8D5611",
"4. c #965413",
"5. c #9B5613",
"6. c #9B5B16",
"7. c #A35C14",
"8. c #A55E18",
"9. c #876915",
"0. c #9C6B18",
"q. c #86781B",
"w. c #B46619",
"e. c #BC6A1A",
"r. c #AB7A1B",
"t. c #BA761E",
"y. c #8D5822",
"u. c #937627",
"i. c #AD7032",
"p. c #C26E1B",
"a. c #CC741D",
"s. c #D47B1E",
"d. c #D67A1E",
"f. c #E07E1F",
"g. c #C67821",
"h. c #926D51",
"j. c #478357",
"k. c #4C8554",
"l. c #46855A",
"z. c #4A8B5E",
"x. c #518751",
"c. c #558A51",
"v. c #5C9354",
"b. c #54925A",
"n. c #56985F",
"m. c #5B9C5E",
"M. c #639B57",
"N. c #6BA153",
"B. c #65A25B",
"V. c #6AA55A",
"C. c #6EA859",
"Z. c #72A754",
"A. c #74AC56",
"S. c #79AF55",
"D. c #71AA58",
"F. c #7BB155",
"G. c #4B8F60",
"H. c #508F63",
"J. c #4D9262",
"K. c #529561",
"L. c #569860",
"P. c #948519",
"I. c #B6841B",
"U. c #8D862E",
"Y. c #B69025",
"T. c #B8AA23",
"R. c #D0841D",
"E. c #E1801F",
"W. c #CA8A21",
"Q. c #D88A21",
"!. c #D89625",
"~. c #E48320",
"^. c #E88921",
"/. c #F38B23",
"(. c #E79725",
"). c #F59A26",
"_. c #D1AF27",
"`. c #D4A828",
"'. c #C9B326",
"]. c #E4A828",
"[. c #F9A62A",
"{. c #E5BA2D",
"}. c #FBB82A",
"|. c #F5B534",
" X c #D6C529",
".X c #E8CB2D",
"XX c #FCC32D",
"oX c #FFCB2F",
"OX c #E8D72E",
"+X c #F2D62F",
"@X c #FDD32E",
"#X c #FBC531",
"$X c #FECC31",
"%X c #F4D332",
"&X c #FED332",
"*X c #FEDC31",
"=X c #F7E531",
"-X c #FDE232",
";X c #FFED33",
":X c #FFF234",
">X c #FFF831",
",X c #B5A351",
"<X c #D5A55E",
"1X c #FBAD56",
"2X c #D1C64A",
"3X c #FEDA47",
"4X c #E9C15E",
"5X c #FCEE4D",
"6X c #FBE271",
"7X c #7F8182",
"8X c #71B585",
"9X c #848484",
"0X c #8C8C8C",
"qX c #969797",
"wX c #A8A8A8",
"eX c #B7B8B7",
"rX c #E4BE82",
"tX c #EED894",
"yX c #FBEC8F",
"uX c #FFFA96",
"iX c #CAC9BB",
"pX c #E8D3B5",
"aX c #FFF8AF",
"sX c #BFC1C3",
"dX c #C4C5C6",
"fX c #CACBCA",
"gX c #D2D2D2",
"hX c #DCDCDC",
"jX c #E6D7C7",
"kX c #F9ECC5",
"lX c #E5E5E5",
"zX c #EEECF0",
"xX c #F9F9F9",
/* pixels */
"J.J.J.J.J.J.J.J.J.J.J.J.J.J.J.J.J.J.J.J.J.z.#.z.@.z.J.J.J.J.J.J.J.J.J.J.J.J.J.J.J.J.J.J.J.J.J.J.J.J.J.J.J.J.J.J.J.J.J.J.J.J.J.J.",
"J.J.J.J.J.J.J.J.J.J.J.J.J.J.J.J.J.J.J.J.J.J.l.#.z.G.J.J.J.J.J.J.J.J.J.J.J.J.J.J.J.J.J.J.J.J.J.J.J.J.J.J.J.J.J.J.J.J.J.J.J.J.J.J.",
"J.J.J.J.J.J.J.J.J.J.J.J.J.J.J.J.J.J.J.J.J.J.J.z.J.J.J.J.J.J.J.J.J.J.J.J.J.J.J.J.J.J.J.J.J.J.J.J.J.J.J.J.J.J.J.J.J.J.J.J.J.J.J.J.",
"J.J.J.J.J.J.J.J.J.J.J.J.J.J.J.J.J.J.J.J.J.J.J.J.J.J.J.J.G.J.J.J.J.J.J.J.J.J.J.J.J.J.J.J.J.J.J.J.J.J.J.J.J.J.J.J.J.J.J.J.J.J.J.J.",
"J.J.J.J.J.J.J.J.J.J.J.J.J.J.J.J.J.J.J.J.J.J.J.J.J.J.J.J.K.n.J.J.J.J.J.J.J.J.J.J.J.J.J.J.J.J.J.J.J.J.J.J.J.J.J.J.J.J.J.J.J.J.J.J.",
"J.J.J.J.J.J.J.J.J.J.J.J.J.J.J.J.J.J.J.J.J.J.J.J.J.J.J.n.C.D.J.J.J.J.J.J.J.J.J.J.J.J.J.J.J.J.J.J.J.J.J.J.J.J.J.J.J.J.J.J.J.J.J.J.",
"J.J.J.J.J.J.J.J.J.J.J.J.J.J.J.J.J.J.J.J.J.J.J.J.K.J.J.B.F.C.J.J.J.J.J.J.J.J.J.J.J.n.K.J.J.J.J.J.J.J.J.J.J.J.J.J.J.J.J.J.J.J.J.J.",
"J.J.J.J.J.J.J.J.J.J.J.J.J.J.J.J.J.J.J.J.J.J.J.J.A.n.J.B.F.V.J.J.J.J.J.J.J.J.J.J.J.C.m.J.J.J.J.J.J.J.J.J.J.J.J.J.J.J.J.J.J.J.J.J.",
"J.J.J.J.J.J.J.J.J.J.J.J.J.J.J.J.J.J.J.J.J.J.J.K.Z.S.x.v.V.z.] ` ` ` ` [ z.K.J.J.J.A.m.J.J.J.J.J.J.J.J.J.J.J.J.J.J.J.J.J.J.J.J.J.",
"J.J.J.J.J.J.K.J.J.J.J.J.J.J.J.J.J.J.J.J.J.J.J.G.k.Z.S.c.l.{ ; . & o . ; { z.b.M.J.N.v.z.J.J.J.J.J.J.J.J.J.J.J.J.J.J.J.J.J.J.J.J.",
"J.J.J.J.J.J.J.J.J.J.J.J.J.J.J.J.J.J.J.J.J.J.J.J.l.x.x.k.` 5 > V 5.5.V @ 4 t d d t w t P J.J.J.J.J.J.J.J.J.J.J.J.J.J.J.J.J.J.J.J.",
"J.J.J.J.J.J.J.J.J.J.J.J.J.J.J.J.J.J.J.J.J.J.J.J.J.l.#.] t > T I.|.1X<X+.N , .       > w ] z.J.J.J.J.J.J.J.J.J.J.J.J.J.J.J.J.J.J.",
"J.J.J.J.J.J.J.J.J.J.J.J.J.J.J.J.J.J.J.J.J.J.J.J.J.J.} 4 @ T `.@X3XkXzXjX<X5.3 .   + Z M ; ] J.J.J.J.J.J.J.J.J.J.J.J.J.J.J.J.J.J.",
"J.J.J.J.J.J.J.J.J.J.J.J.J.J.J.J.J.J.J.J.J.J.J.J.J.J.#.7 T `.*XT.Y o.O.>.pX1X5.> > C p.7.M q P G.J.J.J.J.J.J.J.J.J.J.J.J.J.J.J.J.",
"J.J.J.J.J.J.J.J.J.J.J.J.J.J.J.J.J.J.J.J.J.J.J.J.J.#.( V Y.*XT.! : ) r r qXrXQ.q z 7.f.E.7.1 y G.J.J.J.J.J.J.J.J.J.J.J.J.J.J.J.J.",
"J.J.J.J.J.J.J.J.J.J.J.J.J.J.J.J.J.J.J.J.J.J.J.J.J.G 9 e.$X Xm i =.fX8XA * u..XE M 7.d./.s.8 t z.J.J.J.J.J.J.J.J.J.J.J.J.J.J.J.J.",
"J.J.J.J.J.J.J.J.J.J.J.J.J.J.J.J.J.J.J.J.J.J.J.J.J.S 7 !.=X X~ q P 8XJ.6   ^ +X'.0.V 7.d.f.w.B f j.K.J.J.J.J.J.J.J.J.J.J.J.J.J.J.",
"J.J.J.J.J.J.J.J.J.J.J.J.J.J.J.J.J.J.J.J.J.J.J.G.{ g E {.:X+Xt.M 6 I I 6 X Q XX;X'.~ 0.t.d.f.8.c L [ { l.J.J.J.J.J.J.J.J.J.J.J.J.",
"J.J.J.J.J.J.J.J.J.J.J.J.J.J.J.J.J.J.J.J.J.J.J.} = W (.*X:X*X(.R # 6 A A # C (.*X=XOX#X!.8.8.g.g.m $ = [ J.J.J.J.J.J.J.J.J.J.J.J.",
"J.J.J.J.J.J.J.J.J.J.J.J.J.J.J.J.J.J.J.J.J.J.J.{ # y.XX;X&X}.XXW.W & # 4 E e./.oX-X>X-X.X_.`.4XtXT.9.<.g P z.J.J.J.J.J.J.J.J.J.J.",
"J.J.J.J.J.J.J.J.J.J.J.J.J.J.J.J.J.J.J.J.J.J.J.{ $ 9.$X*X!.W.+X*XQ.U 7 Y Q.[.).|.@X;X;X;X:X;X6XjXyX3X(.9 t G.J.J.J.J.J.J.J.J.J.J.",
"J.J.J.J.J.J.J.J.J.J.J.J.J.J.J.J.J.J.J.J.J.J.J.{ $ Q [.#X^ m  X>X=XOXOXOX=X@X}.).}.;X;X;X;X*X`.i.jXaX|.m t z.J.J.J.J.J.J.J.J.J.J.",
"J.L.K.J.J.J.J.J.J.J.J.J.J.J.J.J.J.J.J.J.K.J.J.{ $ V s.[.T 7  X>X;X;X>X>X>X;X=XXX@X;X;X>X;X&X].p.h.,X&Xt.B G #.J.J.J.J.J.J.J.K.K.",
"J.D.L.J.J.J.J.J.J.J.J.J.J.J.J.J.J.J.J.B.V.J.J.} 5 v 2.a.V 0 2X5X;X>X;X=X;X;X;X;X;X;X;X;X;X*X}.(.3.P.-X|.5.O ` G.J.J.J.J.J.K.K.S.",
"J.D.m.J.J.J.J.J.J.J.J.J.J.J.J.J.J.J.J.B.V.J.J.J.j.f 2 2.x a iXuX;X>X:X;X;X;X:X;X;X;X;X:X;X;X-X-XOXOX=X[.4.& ` J.J.J.J.J.m.V.K.S.",
"K.D.m.B.M.J.J.J.J.J.J.J.J.J.J.J.J.J.J.V.B.n.C.J.J.S   8 b B ;.&.q..X:X=X:X;X;X;X;X;X;X;X;X;X;X:X>X:X%X0.B K #.J.J.J.J.J.B.C.K.S.",
"J.D.m.B.V.J.J.J.J.J.J.J.J.J.J.J.J.J.J.V.B.m.A.J.J.S     c V . . v I.'. X=X;X:X;X:X;X;X;X;X;X;X:X:X-X|.m t G.J.J.J.J.J.J.M.D.K.n.",
"J.m.K.V.V.J.J.J.J.J.J.J.J.J.J.J.J.J.J.L.n.m.A.K.J.S     . +   C w.v % Y _.=X;X;X;X;X;X:X;X;X;X;X:X&XQ.8 t z.J.J.J.J.J.J.L.m.J.J.",
"J.J.J.m.m.J.J.J.J.J.J.J.J.J.J.J.J.j.H S K n.M.l.H e c O 1 8 X C p.2.W W ~ ! ^ {.&X-X:X:X:X:X;X*XoXW.W F ] G.J.J.J.J.J.J.J.J.J.J.",
"J.J.J.J.J.J.J.J.J.J.J.J.J.J.J.J.J.[ o @ q [ j.` 0 M V + n Q @ 2 2.e.~.d.N 7 v 8.W.`.%X*X*X*X.X`.g.Q 4 { J.J.J.J.J.J.J.J.J.J.J.J.",
"J.J.J.J.J.J.J.J.J.J.J.J.K.K.J.J.J.[ $ Q 6.4 = q w.W +   n <.@ . @ > 1.(.{. XY.m + 9 g.).).).0.7 > F @.z.J.J.J.J.J.J.J.J.J.J.J.J.",
"J.J.J.J.J.J.J.J.J.J.J.J.B.V.J.J.J.[ $ 4.a.8 z 4.(.t.n + x 4.Q 2   M W E q.P.~ % r H E Z Z Z U D H ( m.b.J.J.J.J.J.J.J.J.J.J.J.J.",
"J.J.J.J.J.J.J.J.J.J.J.B.B.m.C.J.J.[ $ 1.p.b 6.[.$X}.t.> x e.~.1.x a.6.>   . . . f [ t $ = = G J.C.m.V.m.J.J.J.J.J.J.J.J.J.J.J.J.",
"J.J.J.J.J.J.J.J.J.J.J.J.B.V.n.J.J.[ $ V 4.b r.$X-X;X'.% C ~./.f.a.^.f.8.1 . 2 2 % 4 ` #.} } j.J.n.C.m.n.J.J.J.J.J.J.J.J.J.J.J.J.",
"J.J.J.J.J.J.J.J.J.J.J.J.n.n.J.J.J.[ o z V x I.*X;X>XOXP.~ Z Z w././.^.w., + z V W C F { K.J.J.J.J.n.n.J.J.J.J.J.J.J.J.J.J.J.J.J.",
"J.J.J.J.J.J.J.J.J.J.J.J.J.J.J.J.J.[ o , l 3 r.&X;X;X;X;XU.i 4 E d.f.e.Z > , b <.e.a.n w } G.J.J.J.G.J.J.J.J.J.J.J.J.J.J.J.J.J.J.",
"J.J.J.J.J.J.J.J.J.J.J.J.J.J.J.J.J.[ # , 2 @ 3.[.-X*X*X;XtXiX X^ 8 4.C > , V 2.4.7.w.p.W 5 @.J.J.J.J.J.J.J.J.J.J.J.J.J.J.J.J.J.J.",
"J.J.J.J.J.J.J.J.J.J.J.J.J.J.J.J.J.#.G 0 @   C Q.*X;X&X}.6XaXuX2X^ n >   @ x Z 4.5.5.i.h...H [ K.J.J.J.J.J.J.J.J.J.J.J.J.J.J.J.J.",
"n.n.J.J.J.J.J.J.J.J.J.J.J.J.J.J.J.J.z.f     c r.OX5X3X[.}.5XkXtXT.q X X   @ x <.4.2.o.;.0Xk f #.G.J.J.J.J.J.J.J.J.J.J.J.J.J.J.J.",
"A.S.m.J.J.n.J.J.J.J.J.J.J.J.J.J.J.J.J.y     . M  XuXaX3X}.).1Xu.e j | h o   @ l b x % h -.9XO.r { J.J.J.J.J.J.J.J.J.J.J.J.J.J.J.",
"n.C.S.m.M.S.C.J.J.J.J.J.J.J.J.J.J.J.J.` t X   7 !.yXyX3Xt.<.<.B O.qXwXqX) : : - @ > i i k qX-.o ] J.J.J.J.J.J.J.J.J.J.J.J.J.J.J.",
"J.K.D.Z.S.C.n.J.J.J.J.J.J.J.J.J.J.J.J.l.` % O c e.(.].d.W - - O.wXhXxXhX7X*.O.:   * j a * ,.*.o ] J.J.J.J.J.n.D.C.n.J.J.J.J.J.J.",
"J.J.l.N.N.k.J.J.J.J.J.J.J.J.J.J.J.J.z.K 0 C 7.5.v 9 9 3 o.9X,.:.;.,.qXfXhXlXfX-.:   * . o O.| o ] J.J.J.J.J.J.m.S.C.n.m.C.B.J.J.",
"J.J.#.x.k.z.J.J.J.J.J.J.J.J.J.J.J.J.J.y > 2.(.!.^ %   - -.eXgXwX=.h ..0XeXsXeXU._ F D ;   i d S #.J.J.J.J.J.J.J.m.F.C.A.D.m.J.J.",
"J.J.l.j.l.J.J.J.J.J.J.J.J.J.J.J.J.J.J.f > 2.!.$X*X^ 0 | :.eXlXhXqXj a ..+.O.O.M.K.M.K.P o X S z.J.J.J.J.J.J.J.J.J.v.S.N.b.J.J.J.",
"J.J.J.J.J.J.J.J.J.J.J.J.J.J.J.J.J.J.J.f > 2.R.[.&X{.P.s k ,.eXhXlXfX*.0 i./ : x.J.J.J.l.[ [ #.J.J.J.J.J.J.J.J.J.J.{ v.c.l.J.J.J.",
"J.J.J.J.J.J.J.J.J.J.J.J.J.J.J.J.J.l.P 4 , n 6.E.}.#X!.1 * ) ,.wXgXxXdX&.y.U G l.J.J.J.J.J.J.J.J.J.J.J.J.J.J.J.J.J.#.#.l.J.J.J.J.",
"J.J.J.J.J.J.J.J.J.J.J.J.J.J.J.J.K.[ $ , 2 + n 7.a.~.w.< o ;  ...-.gXxXsXa p l.l.l.z.G.J.J.J.J.J.J.J.J.J.J.J.J.J.J.J.J.J.J.J.J.J.",
"J.J.J.J.J.J.J.J.J.J.J.J.J.J.J.J.J.[ o , z 2 , , 3 9 N X.$.( 4 - i ;.-.k X r X.d 4 p #.J.J.J.J.J.J.J.J.J.J.J.J.J.J.J.J.J.J.J.J.J.",
"J.J.J.J.J.J.J.J.J.J.J.J.J.J.J.J.J.[ o + , , .   - X = $.c.K #   o |  .| O...h i a J L { J.J.J.J.J.J.J.J.J.J.J.J.J.J.J.J.J.J.J.J.",
"J.J.J.J.J.J.J.J.J.J.J.J.J.J.J.J.J.[ =   . X o i ..h 4  .h o     * | :.wXlX0X: k :.0Xi S z.J.J.J.J.J.J.J.J.J.J.J.J.J.J.J.J.J.J.J.",
"J.J.J.J.J.J.J.J.J.J.J.J.J.J.J.J.J.z.] 5 X j 9XwX*.0XqXh ..*.-   . - ) ,.sXfXwXk J *.: u G.J.J.J.J.J.J.J.J.J.J.J.J.J.J.J.J.J.J.J.",
"J.J.J.J.J.J.J.J.J.J.J.J.J.J.J.J.J.J.J.u * o.eXgX;.wXsXi | ,.: = r t H $.=.0XqXk i a o d J.J.J.J.J.J.J.J.J.J.J.J.J.J.J.J.J.J.J.J.",
"J.J.J.J.J.J.J.J.J.J.J.J.J.J.J.J.J.J.G.S - ..9XqXO.9X9Xr a ..- H z.z.H.@.5 X : | j o X f J.J.J.J.J.J.J.J.J.J.J.J.J.J.J.J.J.J.J.J.",
"J.J.J.J.J.J.J.J.J.J.J.J.J.J.J.J.J.J.J.#.K : ..O.a | =.' X.o.' #.J.J.J.G.[ ` K %.@.` ` } J.J.J.J.J.J.J.J.J.J.J.J.J.J.J.J.J.J.J.J.",
"J.J.J.J.J.J.J.J.J.J.J.J.J.J.J.J.J.J.J.J.#.f J X.d J $.K.%.%.G.J.J.J.J.J.J.J.J.J.G.J.J.J.J.J.J.J.J.J.J.J.J.J.J.J.J.J.J.J.J.J.J.J.",
"J.J.J.J.J.J.J.J.J.J.J.J.J.J.J.J.J.J.J.J.G.G.G.G.G.G.G.J.G.G.J.J.J.J.J.J.J.J.J.J.J.J.J.J.J.J.J.J.J.J.J.J.J.J.J.J.J.J.J.J.J.J.J.J.",
"J.J.J.J.J.J.J.J.J.J.J.J.J.J.J.J.J.J.J.J.J.J.J.J.G.J.J.J.J.J.J.J.C.K.J.J.J.J.J.J.J.J.J.J.J.J.J.J.J.J.J.J.J.J.J.J.J.J.J.J.J.J.J.J.",
"J.J.J.J.J.J.J.J.J.J.J.J.J.J.J.J.J.J.J.K.G.K.J.J.G.G.J.J.J.J.J.K.A.D.L.J.J.K.J.J.J.J.J.J.J.J.J.J.J.J.J.J.J.J.J.J.J.J.J.J.J.J.J.J.",
"J.J.J.J.J.J.J.J.J.J.J.J.J.J.J.J.J.J.J.L.L.J.J.J.J.J.J.K.J.J.J.K.S.F.L.J.L.m.J.J.J.J.J.J.J.J.J.J.J.J.J.J.J.J.J.J.J.J.J.J.J.J.J.J.",
"J.J.J.J.J.J.J.J.J.J.J.J.J.J.J.J.J.J.J.V.V.J.H.J.J.J.J.J.J.J.J.K.V.S.b.b.D.D.J.J.J.J.J.J.J.J.J.J.J.J.J.J.J.J.J.J.J.J.J.J.J.J.J.J.",
"J.J.J.J.J.J.J.J.J.J.J.J.J.J.J.J.J.J.J.B.V.J.L.J.J.J.J.J.J.J.J.J.G.M.c.M.A.M.J.J.J.J.J.J.J.J.J.J.J.J.J.J.J.J.J.J.J.J.J.J.J.J.J.J.",
"J.J.J.J.J.J.J.J.J.J.J.J.J.J.J.J.J.J.J.V.B.L.D.K.J.J.J.J.J.J.J.J.J.#.M.Z.v.#.J.J.J.J.J.J.J.J.J.J.J.J.J.J.J.J.J.J.J.J.J.J.J.J.J.J.",
"J.J.J.J.J.J.J.J.J.J.J.J.J.J.J.J.J.J.J.V.V.L.D.K.J.J.J.J.J.J.J.J.J.J.#.} #.J.J.J.J.J.J.J.J.J.J.J.J.J.J.J.J.J.J.J.J.J.J.J.J.J.J.J."
};
