/* XPM */
static char *result[] = {
/* columns rows colors chars-per-pixel */
"64 64 232 2 ",
"   c #030301",
".  c #0B0501",
"X  c #0E0B04",
"o  c #070B08",
"O  c #120A02",
"+  c #1A0D02",
"@  c #0B140D",
"#  c #1C1204",
"$  c #18170A",
"%  c #0A0E11",
"&  c #0E1510",
"*  c #0F1C13",
"=  c #141916",
"-  c #241302",
";  c #2A1602",
":  c #2C1805",
">  c #261E0C",
",  c #331A05",
"<  c #341C04",
"1  c #3A1E02",
"2  c #182316",
"3  c #142619",
"4  c #162A1C",
"5  c #192D1E",
"6  c #1D301F",
"7  c #29210C",
"8  c #3B2306",
"9  c #32250C",
"0  c #3B2409",
"q  c #392A0A",
"w  c #2B2813",
"e  c #2B321B",
"r  c #3B3110",
"t  c #383519",
"y  c #1F2123",
"u  c #1C3423",
"i  c #1E3A27",
"p  c #292B2A",
"a  c #263B25",
"s  c #2B312D",
"d  c #313131",
"f  c #3B3B3A",
"g  c #432405",
"h  c #482807",
"j  c #442608",
"k  c #4B2A09",
"l  c #542C04",
"z  c #5B2F04",
"x  c #532D0A",
"c  c #48380C",
"v  c #53320C",
"b  c #5B340C",
"n  c #57380D",
"m  c #463718",
"M  c #5A3A18",
"N  c #61370A",
"B  c #65380C",
"V  c #6B3C0D",
"C  c #713C0B",
"Z  c #733F10",
"A  c #24432C",
"S  c #2C4429",
"D  c #3A4629",
"F  c #284632",
"G  c #274A32",
"H  c #284C33",
"J  c #2D5337",
"K  c #2F593C",
"L  c #365537",
"P  c #395630",
"I  c #325C3E",
"U  c #3C653C",
"Y  c #4F410D",
"T  c #5D4411",
"R  c #77430C",
"E  c #7D440D",
"W  c #724A0D",
"Q  c #734211",
"!  c #794811",
"~  c #755614",
"^  c #6B6416",
"/  c #71601F",
"(  c #545434",
")  c #325F40",
"_  c #356544",
"`  c #376846",
"'  c #396B47",
"]  c #3A6D4A",
"[  c #3D734D",
"{  c #3E7651",
"}  c #3F7850",
"|  c #555956",
" . c #48794A",
".. c #407751",
"X. c #427C53",
"o. c #716E6E",
"O. c #81460D",
"+. c #83490E",
"@. c #8A4B0E",
"#. c #92510F",
"$. c #854E13",
"%. c #8C4E10",
"&. c #8B5414",
"*. c #935413",
"=. c #9A5612",
"-. c #965816",
";. c #9C5A14",
":. c #A35C15",
">. c #AA5E14",
",. c #876518",
"<. c #9B6118",
"1. c #887517",
"2. c #96791C",
"3. c #AE6116",
"4. c #A76619",
"5. c #B36517",
"6. c #B86918",
"7. c #BC6C1A",
"8. c #A8771D",
"9. c #B9771D",
"0. c #C26D1A",
"q. c #C4721B",
"w. c #CC731B",
"e. c #CD7C1D",
"r. c #D8761D",
"t. c #D37A1E",
"y. c #DA7C1E",
"u. c #C77B24",
"i. c #DB7F20",
"p. c #927056",
"a. c #56864A",
"s. c #448156",
"d. c #4C8453",
"f. c #468559",
"g. c #4B8858",
"h. c #498B5D",
"j. c #558B51",
"k. c #5C9354",
"l. c #54935C",
"z. c #56985F",
"x. c #5B9C5E",
"c. c #629C58",
"v. c #6EA352",
"b. c #65A25B",
"n. c #6AA55A",
"m. c #6EA859",
"M. c #74AC56",
"N. c #78AD55",
"B. c #71AA58",
"V. c #7BB155",
"C. c #4B8F60",
"Z. c #4D9262",
"A. c #539660",
"S. c #559860",
"D. c #96831B",
"F. c #B4891B",
"G. c #B28D2B",
"H. c #AC9821",
"J. c #C8881D",
"K. c #DA821D",
"L. c #E5811F",
"P. c #C98C22",
"I. c #D48E24",
"U. c #DB8A22",
"Y. c #CB9724",
"T. c #D69624",
"R. c #E28320",
"E. c #EB8621",
"W. c #E48C22",
"Q. c #EE8B23",
"!. c #F28A23",
"~. c #EA9625",
"^. c #F19225",
"/. c #F29A26",
"(. c #CAA125",
"). c #DAAA27",
"_. c #C6B527",
"`. c #D8B828",
"'. c #E7A628",
"]. c #F7A428",
"[. c #F6A429",
"{. c #F5AA2B",
"}. c #FCAC2B",
"|. c #E4B42A",
" X c #F4B72C",
".X c #FBB32C",
"XX c #FCBC2E",
"oX c #FAAC33",
"OX c #DBC929",
"+X c #EAC92D",
"@X c #FEC42E",
"#X c #FACC2E",
"$X c #EBD62D",
"%X c #F8D92D",
"&X c #F4C531",
"*X c #FCC631",
"=X c #FECB32",
"-X c #FED332",
";X c #FEDD32",
":X c #F2D438",
">X c #FFED2B",
",X c #FFF12F",
"<X c #F6E531",
"1X c #FEE333",
"2X c #FFED33",
"3X c #FFEF3D",
"4X c #FFF234",
"5X c #FFF23F",
"6X c #B69D5C",
"7X c #888065",
"8X c #CE9150",
"9X c #F7AF59",
"0X c #D99B61",
"qX c #DBBF7B",
"wX c #F2D74B",
"eX c #FDE949",
"rX c #FFF248",
"tX c #FFF55B",
"yX c #E4DD7A",
"uX c #FFE86D",
"iX c #FFFD77",
"pX c #B3B3AE",
"aX c #DBB690",
"sX c #FABF83",
"dX c #DDC89D",
"fX c #FFF68A",
"gX c #FFEBAA",
"hX c #FAF1B4",
"jX c #FFFDBA",
"kX c #C5C7CE",
"lX c #EDE0D3",
"zX c #F6F1D4",
/* pixels */
"Z.Z.Z.Z.Z.Z.Z.Z.Z.Z.Z.Z.Z.Z.Z.Z.Z.Z.Z.Z.Z.C...C.{ C.Z.C.Z.Z.Z.Z.Z.Z.Z.Z.Z.Z.Z.Z.Z.Z.Z.Z.Z.Z.Z.Z.Z.Z.Z.Z.Z.Z.Z.Z.Z.Z.Z.Z.Z.Z.Z.Z.",
"Z.Z.Z.Z.Z.Z.Z.Z.Z.Z.Z.Z.Z.Z.Z.Z.Z.Z.Z.Z.Z.C.g...C.C.Z.Z.Z.Z.Z.Z.Z.Z.Z.Z.Z.Z.Z.Z.Z.Z.Z.Z.Z.Z.Z.Z.Z.Z.Z.Z.Z.Z.Z.Z.Z.Z.Z.Z.Z.Z.Z.Z.",
"Z.Z.Z.Z.Z.Z.Z.Z.Z.Z.Z.Z.Z.Z.Z.Z.Z.Z.Z.Z.Z.Z.C.C.Z.Z.Z.Z.Z.Z.Z.Z.Z.Z.Z.Z.Z.Z.Z.Z.Z.Z.Z.Z.Z.Z.Z.Z.Z.Z.Z.Z.Z.Z.Z.Z.Z.Z.Z.Z.Z.Z.Z.Z.",
"Z.Z.Z.Z.Z.Z.Z.Z.Z.Z.Z.Z.Z.Z.Z.Z.Z.Z.Z.Z.Z.Z.Z.Z.Z.Z.Z.Z.Z.Z.Z.Z.Z.Z.Z.Z.Z.Z.Z.Z.Z.Z.Z.Z.Z.Z.Z.Z.Z.Z.Z.Z.Z.Z.Z.Z.Z.Z.Z.Z.Z.Z.Z.Z.",
"Z.Z.Z.Z.Z.Z.Z.Z.Z.Z.Z.Z.Z.Z.Z.Z.Z.Z.Z.Z.Z.Z.Z.Z.Z.Z.Z.Z.A.S.Z.Z.Z.Z.Z.Z.Z.Z.Z.Z.Z.Z.Z.Z.Z.Z.Z.Z.Z.Z.Z.Z.Z.Z.Z.Z.Z.Z.Z.Z.Z.Z.Z.Z.",
"Z.Z.Z.Z.Z.Z.Z.Z.Z.Z.Z.Z.Z.Z.Z.Z.Z.Z.Z.Z.Z.Z.Z.Z.Z.Z.Z.A.n.M.Z.Z.Z.Z.Z.Z.Z.Z.Z.Z.Z.C.Z.Z.Z.Z.Z.Z.Z.Z.Z.Z.Z.Z.Z.Z.Z.Z.Z.Z.Z.Z.Z.Z.",
"Z.Z.Z.Z.Z.Z.Z.Z.Z.Z.Z.Z.Z.Z.Z.Z.Z.Z.Z.Z.Z.Z.Z.Z.A.A.Z.b.7XB.S.Z.Z.Z.Z.Z.Z.Z.Z.Z.Z.z.A.Z.Z.Z.Z.Z.Z.Z.Z.Z.Z.Z.Z.Z.Z.Z.Z.Z.Z.Z.Z.Z.",
"Z.Z.Z.Z.Z.Z.Z.Z.Z.Z.Z.Z.Z.Z.Z.Z.Z.Z.Z.Z.Z.Z.Z.A.M.S.C.b.V.B.Z.Z.Z.Z.Z.Z.Z.Z.Z.Z.Z.B.x.Z.Z.Z.Z.Z.Z.Z.Z.Z.Z.Z.Z.Z.Z.Z.Z.Z.Z.Z.Z.Z.",
"Z.Z.Z.Z.Z.Z.Z.Z.Z.Z.Z.Z.Z.Z.Z.Z.Z.Z.Z.Z.Z.Z.Z.A.M.V.d.c.b.Z.Z.Z.Z.Z.Z.Z.Z.Z.Z.Z.Z.M.x.Z.Z.Z.Z.Z.Z.Z.Z.Z.Z.Z.Z.Z.Z.Z.Z.Z.Z.Z.Z.Z.",
"Z.Z.Z.Z.Z.Z.Z.Z.Z.Z.Z.Z.Z.Z.Z.Z.Z.Z.Z.Z.Z.Z.Z.C. .v.N.j.f.Z.Z.Z.Z.Z.Z.Z.Z.Z.S.m.S.m.x.Z.Z.Z.Z.Z.Z.Z.Z.Z.Z.Z.Z.Z.Z.Z.Z.Z.Z.Z.Z.Z.",
"Z.Z.Z.Z.Z.Z.Z.Z.Z.Z.Z.Z.Z.Z.Z.Z.Z.Z.Z.Z.Z.Z.Z.Z.h.d.d.d.C.Z.Z.Z.Z.Z.Z.Z.Z.C.z.M.Z.M.x.Z.Z.Z.Z.Z.Z.Z.Z.Z.Z.Z.Z.Z.Z.Z.Z.Z.Z.Z.Z.Z.",
"Z.Z.Z.Z.Z.Z.Z.Z.Z.Z.Z.Z.Z.Z.Z.Z.Z.Z.Z.Z.Z.Z.Z.Z.Z.g.s.C.Z.Z.Z.Z.Z.Z.Z.Z.Z.Z.z.M.S.x.S.Z.Z.Z.Z.Z.Z.Z.Z.Z.Z.Z.Z.Z.Z.Z.Z.Z.Z.Z.Z.Z.",
"Z.Z.Z.Z.Z.Z.Z.Z.Z.Z.Z.Z.Z.Z.Z.Z.Z.Z.Z.Z.Z.Z.Z.Z.Z.Z.A.Z.Z.Z.Z.Z.Z.Z.Z.Z.Z.Z.S.b.Z.C.Z.Z.Z.Z.Z.Z.Z.Z.Z.Z.Z.Z.Z.Z.Z.Z.Z.Z.Z.Z.Z.Z.",
"A.Z.Z.Z.Z.Z.Z.Z.Z.Z.Z.Z.Z.Z.Z.Z.Z.Z.Z.Z.Z.Z.Z.Z.Z.Z.Z.Z.Z.Z.Z.Z.Z.Z.Z.Z.Z.Z.Z.s.[ [ } C.Z.Z.Z.Z.Z.Z.Z.Z.Z.Z.Z.Z.Z.Z.Z.Z.Z.Z.Z.Z.",
"Z.Z.Z.Z.Z.Z.Z.Z.Z.Z.Z.Z.Z.Z.Z.Z.Z.Z.Z.Z.Z.Z.Z.Z.Z.Z.Z.Z.Z.Z.Z.Z.Z.Z.Z.Z.Z.Z.h.H * @ i d.Z.Z.Z.Z.Z.Z.Z.Z.Z.Z.Z.Z.Z.Z.Z.Z.Z.Z.Z.Z.",
"Z.Z.Z.Z.Z.Z.Z.Z.Z.Z.Z.Z.Z.Z.Z.Z.Z.Z.Z.Z.Z.Z.Z.Z.Z.Z.Z.Z.Z.Z.Z.Z.Z.Z.Z.h.I I H u 7 : w J } Z.Z.Z.Z.Z.Z.Z.Z.Z.Z.Z.Z.Z.Z.Z.Z.Z.Z.Z.",
"Z.Z.Z.Z.Z.Z.Z.Z.Z.Z.Z.Z.Z.Z.Z.Z.Z.Z.Z.Z.Z.Z.Z.Z.Z.Z.Z.Z.Z.Z.Z.Z.Z.C.Z._ = o $ b %.*.V > A f.Z.Z.Z.Z.Z.Z.Z.Z.Z.Z.Z.Z.Z.Z.Z.Z.Z.Z.",
"Z.Z.Z.Z.Z.Z.Z.Z.Z.Z.Z.Z.Z.Z.Z.Z.Z.Z.Z.Z.Z.Z.Z.Z.Z.Z.Z.Z.Z.Z.Z.Z.Z.h.I a 8 x Z 8.Y.T.9.! m F { Z.Z.Z.Z.Z.Z.Z.Z.Z.Z.Z.Z.Z.Z.Z.Z.Z.",
"Z.Z.Z.Z.Z.Z.Z.Z.Z.Z.Z.Z.Z.Z.Z.Z.Z.Z.Z.Z.Z.Z.Z.h.X.C.X.C.X.C.C.C.C.] 5 0 %.q.W.{.*X*X.X~.*.> H g.Z.Z.Z.Z.Z.Z.Z.Z.Z.Z.Z.Z.Z.Z.Z.Z.",
"Z.Z.Z.Z.Z.Z.Z.Z.Z.Z.Z.Z.Z.Z.Z.Z.Z.Z.Z.Z.Z.Z.Z.) i i i i s i ] C.K t ! 4.T.{.XX}.[.[.}..XI.*.m a } Z.Z.Z.Z.Z.Z.Z.Z.Z.Z.Z.Z.Z.Z.Z.",
"Z.Z.Z.Z.Z.Z.Z.Z.Z.Z.Z.Z.Z.Z.f...........} X.[ 5 . - ; : # O S ' e j q.].*X=XXX[.Q.Q.[.=X*X^.$.w L X.} } X.f.Z.Z.Z.Z.Z.Z.Z.Z.Z.Z.",
"Z.Z.Z.Z.Z.Z.Z.Z.Z.Z.Z.Z.Z.h.I 3 3 3 3 3 3 4 3 # g $.3.3.R < $ 5 c *.i.].*XXX/.Q.Q.[.*X1X;XXXI.:.m 4 3 3 4 K C.Z.Z.Z.Z.Z.Z.Z.Z.Z.",
"Z.S.A.Z.Z.Z.Z.Z.Z.Z.Z.Z.f.` a - .       . - j ( p.0X9X].J.~ q + h *.U.}..X[.Q.Q.[.=X;X2X2X=X.XR.W -   . - a _ ' [ h.Z.Z.Z.Z.l.S.",
"Z.B.S.Z.Z.Z.Z.Z.Z.Z.Z.A.I = x V ;     O 1 O.u.aXlXzXgXeX%X'.&., + c Y.XX/.Q.Q.{.*X;X2X2X1X=X}.R.>.N + ; Q v & @ 4 ' Z.Z.Z.Z.S.N.",
"Z.B.x.Z.Z.Z.Z.Z.Z.Z.f.I a g %.5.V :   ; O.8XqXgXhXjXfXrX2X;X(.,., 0 F.~.Q.E.!./.XX-X2X1X-X.Xu.$.V g X : %.%.B b n D ` f.x.n.S.N.",
"A.B.x.b.b.C.Z.Z.Z.Z.' * 1 #.w.y.3.V + k u.sXzXfX3X3XrX4X2X2X;X).~ l +.6.U.E.E.!.^.XX=X=X.XU.! # O O   , +.6.t.L.7.j 5 } b.m.S.V.",
"Z.B.x.b.n.Z.Z.Z.Z.Z.' @ k 0.E.E.0.E , W |.uXfXtX>X>X>X>X>X,X2X-XJ.@.x V 5.0.0.i.!.].[.I.4.Q x k V Z v h j O.0.y.5.0 * [ b.B.Z.S.",
"Z.x.A.n.n.C.Z.Z.C.h.K > R y.!.y.>.+.z 1.$X4X2X2X2X2X2XrXeXrX5X1X}.7., ; O.#.:.w.R.E.w.=.v - v :.i.R.6.Z - j +.*.! > u } S.S.Z.Z.",
"Z.Z.Z.x.x.Z.Z.Z.f.H t &.w.Q.r.:.C W H.OX<X4X,X,X2X4XtXgXzXjXiX<X=XP., . l O.=.>.6.0.#.j 8 B :.K.{.}.W.5.C h < : w D ] h.Z.Z.Z.Z.",
"Z.Z.Z.Z.Z.s.[ } I e N q.L.y.q.4.W 1.+X2X;X%X%X1X>X;XwXkXkXkXyX3X<X).T ; , z O.@.O.E l O ; C 5.R.{. XW.w.:.x     @ ' Z.Z.Z.Z.Z.Z.",
"Z.Z.Z.Z.Z.K = 2 w &.6.4.>.3.P.|.`.$X<X%X[./.].@X=X.XP.( d f H.3X4X:XP.E - ; z z h , O     # B 5.W.W.7.3.;.z     @ ' Z.Z.Z.Z.Z.Z.",
"Z.Z.Z.f._ D k c / 0X9XP.F.F.|.;X,X,X>X@XQ.y.w.9.8.<.Z l 8 Y H.1X4X1XXX4.+ . - - ; 8 k k 8 , g B 3.w.>.#.O.g . . $ F [ h.Z.Z.Z.Z.",
"Z.Z.Z._ 3 V u.|.wXhXhXwX%X<X<X1X2X2X;X.XQ.r.;.n $ # x 6.T.|.&X-X1X1X=XF.$   .   > :.i.i.6.%.g - Q :.=.O.l - . - , + u } Z.Z.Z.Z.",
"Z.Z.Z.K o ! oXuXgXdXqX;X>X4X4X4X4X;X.X[.[.'.H.1.^ ^ 2.|.=X;X@X.X-X;XXX8.# O j T ,.T.oX}.[.P.<.V k k l g - . . ; 1 O * { Z.Z.Z.Z.",
"Z.Z.C.K $ ,.:XgXlXp.9.&X1X1X2X2X4X-X[./.=X;X<X<X<X<X<X2X2X1X XQ..XXX/.-.# 1 -.T.&X=X=X=X=X*X{.u.b O     o   . - 1 + 5 } Z.Z.Z.Z.",
"Z.} H m &.Y.:X6Xp.7.K.&X;X2X4X2X4X<X#X#X;X2X4X4X4X4X4X4X4X>X).w.W./.e.R + b w. X-X1X1X1X1X1X=X{.9.V + % d =   . # a ` h.Z.Z.Z.Z.",
"Z.] * v i.*X%XD.~ e.}.#X1X2X4X2X2X2X2X2X2X4X2X2X4X4X2X4XrXrXG.%.0.w.=.k O B i.{.*X1X2X2X4X2X1X=X}.q., = f d %   @ _ Z.Z.Z.Z.Z.Z.",
"Z.] @ v R.*X<XOX`.+X%X1X1X2X2X2X2X2X4X4X2X2X2X2X4X4X,X4XiXjX7Xr O.=.h X   x 5.R.].=X;X2X2X2X2X1X-XY.q   % p f y @ _ Z.Z.Z.Z.Z.Z.",
"S. .i m 4.).1X4X4X4X>X4X2X2X2X2X2X4X2X2X2X4X2X4X4X2X$X_.6XpXo.: z b - . O < Q 3.U.[.=X;X2X2X2X1X-XY.q % p f f s u [ Z.Z.Z.Z.Z.Z.",
"V.v.j.J 9 1.-X1X4X4X2X2X2X4X2X2X2X2X2X2X2X2X2X2X2X1X(.Y = p M Q 1 - , 1 1 ; - B 6.R.].*X1X2X1X=X.Xq.< s o.| y F X.C.Z.Z.Z.Z.Z.Z.",
"A.B.7XU @ ^ .X>X2X2X2X2X2X2X2X2X4X2X4X4X4X4X1X_.D.D.,.M g 1 l v +   - ; ; 7 u r b +.4.Y.|.@X@X{.9.V + p | | a [ Z.Z.Z.Z.Z.Z.Z.Z.",
"Z.A.v. .$ W W.#X2X2X2X2X4X2X2X2X2X2X2X1X<X;X|.~ $ + v 7.0.%.j O     .   . F } A X X 0 $.q.R.^.t.B X     & F f.M.B.A.Z.Z.Z.Z.Z.Z.",
"Z.Z.g.a.P m E J.*X;X2X4X4X4X4X4X1X;X=X(.^ ^ / W Z Z -.0.-.x e F H H H H H [ l. .H P a 0 v V Z B D G H H H ' A.S.V.B.S.x.m.b.Z.Z.",
"Z.Z...d.d.H > %.U.'.+X;X1X1X1X1X+X'.U.-.q $ 9 -.E.i.7.*.z = J C.Z.Z.h.Z.C.C.z.M.l.M. .4 o @ o 2 _ C.Z.C.C.Z.Z.Z.x.V.m.B.M.x.Z.Z.",
"Z.Z.f.s.h.s.K t k n ,.'..X.X.X~.,.c k ~ D.H.H.~.i.$.k < e ) X.Z.Z.Z.Z.Z.Z.Z.z.M.z.b.g.' I I I _ s.Z.Z.Z.Z.Z.Z.Z.Z.k.M.v.l.Z.Z.Z.",
"Z.Z.Z.Z.Z.Z.h.H * * t :.0.7.q.4.m *   c Y.`._.Y.:.t & = F C.Z.Z.Z.Z.Z.Z.Z.Z.S.b.Z.Z.Z.Z.Z.Z.Z.Z.Z.Z.Z.Z.Z.Z.Z.Z.Z...j.j.f.Z.Z.Z.",
"Z.Z.Z.Z.Z.Z.Z.X.{ { L 9 < < 8 9 L I @ X q r r q r L ....f.Z.Z.Z.Z.Z.Z.Z.Z.Z.Z.Z.Z.Z.Z.Z.Z.Z.Z.Z.Z.Z.Z.Z.Z.Z.Z.Z.Z.X...g.Z.Z.Z.Z.",
"Z.Z.Z.Z.Z.Z.Z.Z.Z.Z.} a 4 6 4 i X.s.A 4 u 5 5 5 a ..Z.n.c.Z.Z.Z.Z.Z.Z.Z.Z.Z.Z.Z.Z.Z.Z.Z.Z.Z.Z.Z.Z.Z.Z.Z.Z.Z.Z.Z.Z.Z.Z.Z.Z.Z.Z.Z.",
"Z.Z.Z.Z.Z.Z.Z.Z.Z.Z.C.s.s.s.s.s.C.C.f.X.X.f.X.f.f.C.n.x.b.n.Z.Z.Z.Z.Z.Z.Z.Z.Z.Z.Z.Z.Z.Z.Z.Z.Z.Z.Z.Z.Z.Z.Z.Z.Z.Z.Z.Z.Z.Z.Z.Z.Z.Z.",
"Z.Z.Z.Z.Z.Z.Z.Z.Z.Z.Z.Z.Z.Z.Z.Z.Z.Z.C.Z.Z.Z.Z.Z.C.A.A.b.b.A.Z.Z.Z.Z.Z.Z.Z.Z.Z.Z.Z.Z.Z.Z.Z.Z.Z.Z.Z.Z.Z.Z.Z.Z.Z.Z.Z.Z.Z.Z.Z.Z.Z.Z.",
"Z.Z.Z.Z.Z.Z.Z.Z.Z.Z.Z.Z.Z.Z.Z.Z.Z.Z.Z.Z.Z.Z.Z.Z.Z.Z.Z.S.S.C.Z.Z.Z.Z.Z.Z.Z.Z.Z.A.Z.Z.Z.Z.Z.Z.Z.Z.Z.Z.Z.Z.Z.Z.Z.Z.Z.Z.Z.Z.Z.Z.Z.Z.",
"Z.Z.Z.Z.Z.Z.Z.Z.Z.Z.Z.Z.Z.Z.Z.Z.Z.Z.Z.Z.Z.Z.Z.Z.Z.Z.Z.Z.Z.Z.Z.Z.Z.Z.Z.Z.Z.C.f.C.Z.Z.Z.Z.Z.Z.Z.Z.Z.Z.Z.Z.Z.Z.Z.Z.Z.Z.Z.Z.Z.Z.Z.Z.",
"Z.Z.Z.Z.Z.Z.Z.Z.Z.Z.Z.Z.Z.Z.Z.Z.Z.Z.Z.Z.Z.Z.Z.Z.Z.Z.Z.Z.Z.Z.Z.Z.Z.Z.Z.Z.C.X.X.f.Z.Z.Z.Z.Z.Z.Z.Z.Z.Z.Z.Z.Z.Z.Z.Z.Z.Z.Z.Z.Z.Z.Z.Z.",
"Z.Z.Z.Z.Z.Z.Z.Z.Z.Z.Z.Z.Z.Z.Z.Z.Z.Z.Z.Z.Z.Z.Z.Z.Z.Z.Z.Z.Z.Z.Z.Z.Z.Z.Z.Z.C.X.C.X.Z.Z.Z.Z.Z.Z.Z.Z.Z.Z.Z.Z.Z.Z.Z.Z.Z.Z.Z.Z.Z.Z.Z.Z.",
"Z.Z.Z.Z.Z.Z.Z.Z.Z.Z.Z.Z.Z.Z.Z.Z.Z.Z.Z.Z.Z.Z.Z.Z.Z.Z.Z.Z.Z.Z.Z.Z.Z.Z.Z.Z.Z.C.X.Z.Z.Z.Z.Z.Z.Z.Z.Z.Z.Z.Z.Z.Z.Z.Z.Z.Z.Z.Z.Z.Z.Z.Z.Z.",
"Z.Z.Z.Z.Z.Z.Z.Z.Z.Z.Z.Z.Z.Z.Z.Z.Z.Z.Z.Z.Z.Z.Z.Z.Z.Z.Z.Z.Z.Z.Z.Z.Z.Z.Z.Z.Z.Z.Z.Z.Z.Z.Z.Z.Z.Z.Z.Z.Z.Z.Z.Z.Z.Z.Z.Z.Z.Z.Z.Z.Z.Z.Z.Z.",
"Z.Z.Z.Z.Z.Z.Z.Z.Z.Z.Z.Z.Z.Z.Z.Z.Z.Z.Z.Z.Z.Z.Z.Z.Z.Z.Z.Z.Z.Z.Z.C.Z.Z.Z.Z.Z.Z.Z.Z.Z.Z.Z.Z.Z.Z.Z.Z.Z.Z.Z.Z.Z.Z.Z.Z.Z.Z.Z.Z.Z.Z.Z.Z.",
"Z.Z.Z.Z.Z.Z.Z.Z.Z.Z.Z.Z.Z.Z.Z.Z.Z.Z.Z.Z.Z.Z.Z.Z.Z.Z.Z.Z.Z.Z.Z.A.n.A.Z.Z.Z.Z.Z.Z.Z.Z.Z.Z.Z.Z.Z.Z.Z.Z.Z.Z.Z.Z.Z.Z.Z.Z.Z.Z.Z.Z.Z.Z.",
"Z.Z.Z.Z.Z.Z.Z.Z.Z.Z.Z.Z.Z.Z.Z.Z.Z.Z.C.A.Z.Z.Z.Z.Z.Z.Z.Z.Z.Z.Z.A.N.B.S.A.Z.Z.Z.Z.Z.Z.Z.Z.Z.Z.Z.Z.Z.Z.Z.Z.Z.Z.Z.Z.Z.Z.Z.Z.Z.Z.Z.Z.",
"Z.Z.Z.Z.Z.Z.Z.Z.Z.Z.Z.Z.Z.Z.Z.Z.Z.Z.Z.S.S.A.Z.Z.Z.Z.Z.Z.Z.Z.C.A.N.V.S.Z.S.x.Z.Z.Z.Z.Z.Z.Z.Z.Z.Z.Z.Z.Z.Z.Z.Z.Z.Z.Z.Z.Z.Z.Z.Z.Z.Z.",
"Z.Z.Z.Z.Z.Z.Z.Z.Z.Z.Z.Z.Z.Z.Z.Z.Z.Z.Z.n.b.Z.Z.Z.Z.Z.Z.Z.Z.Z.Z.A.c.N.k.l.B.m.C.Z.Z.Z.Z.Z.Z.Z.Z.Z.Z.Z.Z.Z.Z.Z.Z.Z.Z.Z.Z.Z.Z.Z.Z.Z.",
"Z.Z.Z.Z.Z.Z.Z.Z.Z.Z.Z.Z.Z.Z.Z.Z.Z.Z.Z.b.b.A.S.Z.Z.Z.Z.Z.Z.Z.Z.Z.A.c.j.c.N.c.Z.Z.Z.A.Z.Z.Z.Z.Z.Z.Z.Z.Z.Z.Z.Z.Z.Z.Z.Z.Z.Z.Z.Z.Z.Z.",
"Z.Z.Z.Z.Z.Z.Z.Z.Z.Z.Z.Z.Z.Z.Z.Z.Z.Z.Z.n.n.S.B.A.Z.Z.Z.Z.Z.Z.Z.Z.Z.X.c.v.k.X.Z.Z.Z.Z.Z.Z.Z.Z.Z.Z.Z.Z.Z.Z.Z.Z.Z.Z.Z.Z.Z.Z.Z.Z.Z.Z.",
"Z.Z.Z.Z.Z.Z.Z.Z.Z.Z.Z.Z.Z.Z.Z.Z.Z.Z.Z.n.n.x.B.Z.Z.Z.Z.Z.Z.Z.Z.Z.Z.Z.X...f.Z.Z.Z.Z.Z.Z.Z.Z.Z.Z.Z.Z.Z.Z.Z.Z.Z.Z.Z.Z.Z.Z.Z.Z.Z.Z.Z."
};
