/* XPM */
static char *_9359778ab4a41b4be52fa59ed30bafbH4Mfp0TpynHQcxbz[] = {
/* columns rows colors chars-per-pixel */
"64 64 215 2 ",
"   c #030402",
".  c #080905",
"X  c #090E09",
"o  c #130B03",
"O  c #1A0E03",
"+  c #0B120C",
"@  c #1C1104",
"#  c #18170C",
"$  c #0E1B12",
"%  c #131B17",
"&  c #221304",
"*  c #221906",
"=  c #2E1906",
"-  c #281B08",
";  c #2D1D09",
":  c #331C05",
">  c #391F06",
",  c #351F08",
"<  c #132116",
"1  c #1A2414",
"2  c #132418",
"3  c #15281B",
"4  c #1C2A1A",
"5  c #3D2207",
"6  c #3C2309",
"7  c #3D2A0E",
"8  c #2E2D10",
"9  c #2C2916",
"0  c #212B19",
"q  c #392D12",
"w  c #29351D",
"e  c #191D21",
"r  c #1E2520",
"t  c #1B3322",
"y  c #1F3B28",
"u  c #292C2F",
"i  c #293827",
"p  c #343D23",
"a  c #363737",
"s  c #422409",
"d  c #452A0B",
"f  c #4A2A0A",
"g  c #542C04",
"h  c #522D09",
"j  c #4A360E",
"k  c #52320D",
"l  c #5B330C",
"z  c #4A3514",
"x  c #62370B",
"c  c #65390C",
"v  c #6C3C0D",
"b  c #713E0D",
"n  c #6A3D11",
"m  c #38401B",
"M  c #24442E",
"N  c #2D452B",
"B  c #384124",
"V  c #304D2A",
"C  c #264831",
"Z  c #2B4D33",
"A  c #324C39",
"S  c #2D5236",
"D  c #2F583B",
"F  c #325C3D",
"G  c #39603B",
"H  c #4D4417",
"J  c #76420E",
"K  c #7A440E",
"L  c #6B4912",
"P  c #744712",
"I  c #787213",
"U  c #4F763E",
"Y  c #335F40",
"T  c #346342",
"R  c #376946",
"E  c #396A47",
"W  c #3B6648",
"Q  c #3A6D49",
"!  c #3D724C",
"~  c #3F7750",
"^  c #434B47",
"/  c #5A5A5A",
"(  c #406C42",
")  c #45774A",
"_  c #407751",
"`  c #427D54",
"'  c gray42",
"]  c #787A79",
"[  c #82450D",
"{  c #8A4D0F",
"}  c #924E0F",
"|  c #834B12",
" . c #8D4E11",
".. c #904F12",
"X. c #875314",
"o. c #955312",
"O. c #9A5613",
"+. c #9E5914",
"@. c #9A5C15",
"#. c #A45B14",
"$. c #A95F16",
"%. c #956819",
"&. c #807817",
"*. c #8B711C",
"=. c #A56515",
"-. c #AA6116",
";. c #AC6319",
":. c #A96E1C",
">. c #B36417",
",. c #B76917",
"<. c #B36618",
"1. c #BC6B19",
"2. c #AE7D1A",
"3. c #B77B1C",
"4. c #C06D1A",
"5. c #C6701A",
"6. c #CC741C",
"7. c #CB7B1C",
"8. c #D3761C",
"9. c #D47A1E",
"0. c #DA7C1F",
"q. c #E27F1F",
"w. c #448156",
"e. c #4D8855",
"r. c #46855A",
"t. c #4A8B5D",
"y. c #538C53",
"u. c #4F915F",
"i. c #5C9354",
"p. c #54935C",
"a. c #56985F",
"s. c #5C9C5E",
"d. c #62924A",
"f. c #639C57",
"g. c #6CA152",
"h. c #65A15B",
"j. c #6AA55A",
"k. c #6EA859",
"l. c #74AC56",
"z. c #79AF55",
"x. c #71AA58",
"c. c #7AB155",
"v. c #4B8F60",
"b. c #4D9262",
"n. c #529661",
"m. c #569860",
"M. c #988317",
"N. c #B88D1D",
"B. c #AA8A23",
"V. c #B58822",
"C. c #E4811F",
"Z. c #C78B21",
"A. c #D48321",
"S. c #DC8520",
"D. c #D78F21",
"F. c #C99722",
"G. c #DB9621",
"H. c #E58320",
"J. c #ED8521",
"K. c #E38922",
"L. c #EE8A22",
"P. c #F08722",
"I. c #F38C23",
"U. c #EC9324",
"Y. c #EA9B26",
"T. c #F19425",
"R. c #F29A26",
"E. c #FE9B27",
"W. c #F59F28",
"Q. c #DBAA28",
"!. c #DAB927",
"~. c #ECA026",
"^. c #E6AA28",
"/. c #F2A426",
"(. c #F5A429",
"). c #F8A728",
"_. c #F6AB29",
"`. c #FAAC2B",
"'. c #EAB328",
"]. c #FFBB25",
"[. c #F5B52A",
"{. c #FCB32D",
"}. c #F7BB2A",
"|. c #FBBB2E",
" X c #FCBF30",
".X c #E5C62B",
"XX c #FFC125",
"oX c #F6C42D",
"OX c #FCC32D",
"+X c #FACB2E",
"@X c #EED62E",
"#X c #FBD32F",
"$X c #F8DB2E",
"%X c #EEC230",
"&X c #FDC531",
"*X c #FFCC33",
"=X c #FFD333",
"-X c #FEDB33",
";X c #FFEF2F",
":X c #FEE432",
">X c #FFEC33",
",X c #FEED3A",
"<X c #FFF234",
"1X c #FEC342",
"2X c #FFDB4A",
"3X c #FCED46",
"4X c #FDED4B",
"5X c #FFF44C",
"6X c #FFF55C",
"7X c #A4A4A4",
"8X c #FFF6A4",
"9X c #FFFDB7",
"0X c #D2D2D2",
"qX c #FFFECD",
"wX c #FFFCD1",
/* pixels */
"b.b.b.b.b.b.b.b.b.b.b.b.b.b.b.b.b.b.b.b.b.v._ v._ r.v.b.b.b.b.b.b.b.b.b.b.b.b.b.b.b.b.b.b.b.b.b.b.b.b.b.b.b.b.b.b.b.b.b.b.b.b.b.",
"b.b.b.b.b.b.b.b.b.b.b.b.b.b.b.b.b.b.b.b.v.v.v.` v.v.b.b.b.b.b.b.b.b.b.b.b.b.b.b.b.b.b.b.b.b.b.b.b.b.b.b.b.b.b.b.b.b.b.b.b.b.b.b.",
"b.b.b.b.b.b.b.b.b.b.b.b.b.b.b.b.b.b.b.b.b.b.v.v.b.b.b.b.b.b.b.b.b.b.b.b.b.b.b.b.b.b.b.b.b.b.b.b.b.b.b.b.b.b.b.b.b.b.b.b.b.b.b.b.",
"b.b.b.b.b.b.b.b.b.b.b.b.b.b.b.b.b.v.n.b.b.b.b.b.b.b.b.b.b.b.b.b.b.b.b.b.b.b.b.b.b.b.b.b.b.b.b.b.b.b.b.b.b.b.b.b.b.b.b.b.b.b.b.b.",
"b.b.b.b.b.b.b.b.b.b.b.b.b.b.b.b.b.b.b.b.b.b.b.b.b.b.b.b.t.( G T T Y R ~ b.b.b.b.b.b.b.b.b.b.b.b.b.b.b.b.b.b.b.b.b.b.b.b.b.b.b.b.",
"b.b.b.b.b.b.b.b.b.b.b.b.b.b.b.b.b.b.b.b.b.b.b.v.v.v.v.n.) # . X X X + S t.b.t.b.b.b.b.b.b.b.b.b.b.b.b.b.b.b.b.b.b.b.b.b.b.b.b.b.",
"b.b.b.b.b.b.b.b.b.b.b.b.b.b.b.b.b.b.b.b.b.b.b.n.m.W M N m f g h h h f q y M D v.b.n.u.b.b.b.b.b.b.b.b.b.b.b.b.b.b.b.b.b.b.b.b.b.",
"b.b.b.b.b.b.b.b.b.b.b.b.b.b.b.b.b.b.b.b.b.b.b.u.d.N O @ h O.#.O.o.+.#.c & O 0 Q t.x.s.b.b.b.b.b.b.b.b.b.b.b.b.b.b.b.b.b.b.b.b.b.",
"b.b.b.b.n.b.b.b.b.b.b.b.b.b.b.b.b.b.b.b.b.b.v._ w d J #.4.9.,.O.o.-.8.6.;.| h 1 Y l.s.b.b.b.b.b.b.b.b.b.b.b.b.b.b.b.b.b.b.b.b.b.",
"b.b.b.b.b.b.b.b.b.b.b.b.b.b.b.b.b.b.b.b.v.v.! N ; J 1.C.I.P.8.,.>.5.C.I.J.6. .s i U y.b.b.b.b.b.b.b.b.b.n.b.b.b.b.b.b.b.b.b.b.b.",
"b.b.b.b.b.b.b.b.b.b.b.b.b.b.b.b.b.b.b.v.n.` t ; | 1.C.I.I.P.J.C.C.C.I.I.L.L.8.o.d 1 ) u.b.b.b.b.b.b.b.b.b.b.b.b.b.b.b.b.b.b.b.b.",
"b.b.b.b.b.b.b.b.b.b.b.b.b.b.b.b.b.b.b.n.v.r.2 , ,.Y.`.`.(.P.J.L.I.J.J.R._.{.R.8.l X E v.b.b.b.b.b.b.b.b.b.b.b.b.b.b.b.b.b.b.b.b.",
"b.b.b.b.b.b.b.b.b.b.b.b.b.b.b.b.b.b.b.v.v.Q 1 l S.{.=X=X|.W.U.T.T.T.T.[.=X=X XR.| # D r.v.b.b.b.b.b.b.b.b.b.b.b.b.b.b.b.b.b.b.b.",
"b.b.b.b.b.b.b.b.b.b.b.b.b.b.b.b.b.b.b.v.D 0 k %.'.=X:X>X:X#XOX|.|.|.#X-X:X>X-X X3.v 9 M r.b.b.b.b.b.b.b.b.b.b.b.b.b.b.b.b.b.b.b.",
"b.b.b.b.b.b.b.b.b.b.b.b.b.b.b.b.b.b.b.v.M O | D.*X>X>X>X<X<X:X-X-X:X>X<X>X<X>X-X^.-.: 2 ` b.b.b.b.b.b.b.b.b.b.b.b.b.b.b.b.b.b.b.",
"b.b.b.b.b.b.b.b.b.b.b.b.b.b.b.b.b.b.b.v.M @ #./.-X<X>X<X>X>X>X>X:X>X>X>X>X<X>X>X].6.s 3 w.b.b.b.b.b.b.b.b.b.b.b.b.b.b.b.b.b.b.b.",
"b.b.b.b.b.b.b.b.b.b.b.b.b.b.b.b.b.b.b.t.M @ ..G.:X<X>X>X-X}.[.}.[.[.[.#X>X>X<X>X'.<.> 3 ` b.b.b.b.b.b.b.b.b.b.b.b.b.b.b.b.b.b.b.",
"b.b.b.b.b.b.b.b.b.b.b.b.b.b.b.b.b.b.b.b.M o l V.@X>X<X<X#X/.I.P.L.L.T.oX>X>X<X>XF.K & 3 w.b.b.b.b.b.b.b.b.b.b.b.b.b.b.b.b.b.b.b.",
"b.b.b.b.b.b.b.b.b.b.b.b.b.b.b.b.b.b.b.b.M   o L %X,X<X<X:X#X/.C.C.R.oX:X<X<X,X=X*.-   2 ` b.b.b.b.b.b.b.b.b.b.b.b.b.b.b.b.b.b.b.",
"b.b.b.b.b.b.b.b.b.b.b.b.b.b.b.b.b.b.b.b.M . ; P ^.=X:X>X<X<X#X_./.OX>X<X>X>X-X{.:.d o 3 w.b.b.b.b.b.b.b.b.b.b.b.b.b.b.b.b.b.b.b.",
"b.b.b.b.b.b.b.b.b.b.b.b.b.b.b.b.b.b.b.v.M @ O.C.U.{.=X:X<X>X:X:X:X:X>X<X>X=X XR.K.1.6 3 w.b.b.b.b.b.b.b.b.b.b.b.b.b.b.b.b.b.b.b.",
"b.b.b.b.b.b.b.b.b.b.b.b.b.b.b.b.b.b.b.v.M * <.E.).|.*X=X-X-X+XoX}.OX-X-X-X=X&X_.E.0.f 3 ` b.b.b.b.b.b.b.b.b.b.b.b.b.b.b.b.b.b.b.",
"b.m.n.b.b.b.b.b.b.b.b.b.b.b.b.b.b.b.b.p.C & ;.`.&X*X*X*X*X&X(.L.C.W.|.*X*X*X*X*X{.A.d 3 w.b.b.b.b.b.b.b.b.b.b.b.b.b.b.b.b.b.n.m.",
"b.x.m.b.b.b.b.b.b.b.b.b.b.b.b.b.b.b.u.h.V * V.&X*X*X*X*X X(.I.J.P.L.R.{.*X*X*X*X*X^.j 3 ` b.b.b.b.b.b.b.b.b.b.b.b.b.b.b.n.b.n.z.",
"b.x.s.b.b.b.b.b.b.b.b.b.b.b.b.b.b.b.b.f.V * N.&X*X*X*X X_.L.J.J.J.C.J.W.|.&X*X*X*X^.j 3 ` b.b.b.b.b.b.b.b.b.b.b.b.b.b.b.s.j.m.z.",
"n.x.m.h.h.b.b.b.b.b.b.b.b.b.b.b.b.b.b.h.V & ;.).&X*X&X(.L.L.J.L.I.I.L.L.T.|.*X*X{.A.s 3 ` b.b.b.b.b.b.b.b.b.b.b.b.b.b.b.h.j.n.c.",
"b.x.s.j.j.b.b.b.b.b.b.b.b.b.b.b.b.b.b.h.V @  .S.(.`.(.L.I._.|.}.OX}.`.R.L.W.`.`.U.>.6 2 ` b.b.b.b.b.b.b.b.b.b.b.b.b.b.b.h.x.b.m.",
"n.s.n.j.h.b.b.b.b.b.b.b.b.b.b.b.b.b.b.p.S # c #.0.L.L.L.R.|.=X:X:X$XOX(.L.J.L.H.,.K ; t w.b.b.b.b.b.b.b.b.b.b.b.b.b.b.b.m.s.b.b.",
"b.b.b.s.s.b.b.b.b.b.b.b.b.b.b.b.b.b.b.u.w.G 8 f $.0.I.P.I.W.(.).).).W.T.L.I.H.1.v ; Z ~ v.b.b.b.b.b.b.b.b.b.b.b.b.b.b.b.b.b.b.b.",
"b.b.b.b.b.b.b.b.b.b.b.b.b.b.b.b.b.b.b.b.b.r.C 9 l  .;.6.q.J.q.8.8.8.8.q.H.4.o.v q t ~ b.b.b.b.b.b.b.b.b.b.b.b.b.b.b.b.b.b.b.b.b.",
"b.b.b.b.b.b.b.b.b.b.b.b.b.n.b.b.b.b.b.b.b.b.t.F # o - K 1.H.5.#.#.#.#.8.9.l o o N w.b.b.b.b.b.b.b.m.n.b.b.b.b.b.b.b.b.b.b.b.b.b.",
"b.b.b.b.b.b.b.b.b.b.b.b.h.j.b.b.b.b.b.b.b.b.b.` S Z M q v >.$.} } } ..>.;.: + C ! b.b.b.b.b.b.b.n.k.s.b.b.b.b.b.b.b.b.b.b.b.b.b.",
"b.b.b.b.b.b.b.b.b.b.b.h.h.s.x.b.b.b.b.b.b.b.b.b.v.v.! 1 6 o.-.=.=.=.#.#.{ > 1 ! v.v.b.b.b.b.b.n.x.m.k.f.b.b.b.b.b.b.b.b.b.b.b.b.",
"b.b.b.b.b.b.b.b.b.b.b.n.h.j.a.b.b.b.b.b.b.b.b.b.b.T 4 j { 5.G..X.XQ.A.>.} J k 4 T b.b.b.b.b.b.b.n.k.s.b.b.b.b.b.b.b.b.b.b.b.b.b.",
"b.b.b.b.b.b.b.b.b.b.b.b.n.a.b.b.b.b.b.b.b.b.n.r.Q p h o.7.~.=X<X<X-X_.D.2.=.K f p Q v.b.b.b.b.b.n.m.n.b.b.b.b.b.b.b.b.b.b.b.b.b.",
"b.b.b.b.b.b.b.b.b.b.b.b.b.b.b.b.b.b.b.b.b.b.v.Q % P 8.q.~.$X>X>X<X>X:X:X.X3.-.6.P < W b.b.b.b.b.b.b.b.b.b.b.b.b.b.b.b.b.b.b.b.b.",
"b.b.b.b.b.b.b.b.b.b.b.b.b.b.b.b.b.b.b.b.b.v.Y B P #.6.R.oX>X>X<X>X<X<X<X<X!.Q.[.N.n p Y v.b.b.b.b.b.b.b.b.b.b.b.b.b.b.b.b.b.b.b.",
"b.b.b.b.b.b.b.b.b.b.b.b.b.b.b.b.b.b.b.b.v.Q 0 k 1.1.;.^.-X>X>X>X>X>X>X;X:X;X>X;XOXA.l 0 ! v.b.b.b.b.b.b.b.b.b.b.b.b.b.b.b.b.b.b.",
"a.m.b.b.b.b.b.b.b.b.b.b.b.b.b.b.b.b.b.b.Y i X.X.l  .A.[.-X<X<X<X>X<X<X+X[.-X<X<X:XoXZ.K u F v.b.b.b.b.b.b.b.b.b.b.b.b.b.b.b.b.b.",
"l.c.s.b.b.n.b.b.b.b.b.b.b.b.b.b.b.b.r.Q i s ;.o.O P (.&X+X.X@X>X>X>X$X_.C.^.@X>X<X:X|.:.@ M v.b.b.b.b.b.b.b.b.b.b.b.b.b.b.b.b.b.",
"n.x.z.s.s.z.k.b.b.b.b.b.b.b.b.b.b.b.R % f { #.v o X.&X=XQ.3.Q.>X<X#X(.P.C.,.Z.@X;X>X=XV.- C v.v.b.b.b.b.b.b.b.n.b.b.b.b.b.b.b.b.",
"b.n.x.z.z.x.a.b.b.b.b.b.b.b.b.b.n.b.T   k #.#.x . *.%XB.%.,.^.>X<X$X_.K.1.[ @.'.$X:X-XQ.X.H Y ~ b.b.b.b.b.b.m.x.x.m.b.n.b.b.b.b.",
"b.b.e.g.g.e.b.b.b.b.b.b.b.b.b.b.b.b.R % f { { x & *.Q.j s 9. X>X>X:X=XF.} g v 8._.&X&X|.K.b + T b.b.b.b.b.b.n.m.z.l.m.m.x.j.b.b.",
"b.b.~ e.e.r.b.b.b.b.b.b.b.b.b.b.b.b.r.R w = = 5 c 3.D.6 > 9. X>X;X;X:XN.g O > #.S.E.).U.5.l X W b.b.b.b.b.b.v.n.m.c.k.l.x.m.b.b.",
"b.b.r.w.r.b.b.b.b.b.b.b.b.b.b.b.b.b.b.b.F 1 . -  .8.8.6 s 9.OX,X6X6X,XM.: & > c $.8.4.O.b : + Y b.b.b.b.b.b.b.b.v.i.z.g.p.b.b.b.",
"b.b.b.b.b.b.b.b.b.b.b.b.b.b.b.b.b.b.b.b.t.Q < = { 8.6.6 s 9.].4X9X9X3XI @ l c & l o.f O O   + W b.b.b.b.b.b.b.b.b.~ i.y.r.b.b.b.",
"b.b.b.b.b.b.b.b.b.b.b.b.b.b.b.b.b.b.b.b.! Z q v <.6.;.; s 9.XX5XwXqX4XI o v J o O s 9 a ^ r X Y b.b.b.b.b.b.b.b.v.` _ r.b.b.b.b.",
"b.b.b.b.b.b.b.b.b.b.b.b.b.b.b.b.b.b.b.v.M O J 1.K.8. .& s 9.].4XqXqX4XI O b J o   + a ' 7X/ + Y b.b.b.b.b.b.b.b.b.b.b.b.b.b.b.b.",
"b.b.b.b.b.b.b.b.b.b.b.b.b.b.b.b.b.b.b.v.M @ O.Y.oX/.<.= 6 0.|.2XwXwX4XI @ o.+.@ e a r / 0X] + T b.b.b.b.b.b.b.b.b.b.b.b.b.b.b.b.",
"b.b.b.b.b.b.b.b.b.b.b.b.b.b.b.b.b.b.b.v.M @ +./.-XXX0.v k #.G.1X8X8X3XI & ;.<.& e a r ^ 7X] t ~ b.b.b.b.b.b.b.b.b.b.b.b.b.b.b.b.",
"b.b.b.b.b.b.b.b.b.b.b.b.b.b.b.b.b.b.b.b.M o J Z.OX{.K.0.o.6 | W.2X5X,XI & $.;.@   % Y W u A ` v.b.b.b.b.b.b.b.b.b.b.b.b.b.b.b.b.",
"b.b.b.b.b.b.b.b.b.b.b.b.b.b.b.b.b.b.b.b.R M 7 P Z.U.I.C. .o = X.G.$X,X&.o k l . $ C r.` S Q b.b.b.b.b.b.b.b.b.b.b.b.b.b.b.b.b.b.",
"b.b.b.b.b.b.b.b.b.b.b.b.b.b.b.b.b.b.b.b.b.~ t 6 | ,.6.$.x # X - #.~..XI   . X X Z v.b.b.n.v.b.b.b.b.b.b.b.b.b.b.b.b.b.b.b.b.b.b.",
"b.b.b.b.b.b.b.b.b.b.b.b.b.b.b.b.b.b.b.b.b.v.Q C ; 5 d > 8 F R F z j H 1 . y Y S ~ b.b.b.b.b.b.b.b.b.b.b.b.b.b.b.b.b.b.b.b.b.b.b.",
"b.b.b.b.b.b.b.b.b.b.b.b.b.b.b.b.b.b.b.b.b.b.b.! t < 2 < M r.b.r.M $ 1 < t Q ` b.b.b.b.b.b.b.b.b.b.b.b.b.b.b.b.b.b.b.b.b.b.b.b.b.",
"b.b.b.b.b.b.b.b.b.b.b.b.b.b.b.b.b.b.b.b.b.b.b.t.w._ ` ` w.b.b.b.w.w.~ w.~ v.b.b.b.b.b.b.b.b.b.b.b.b.b.b.b.b.b.b.b.b.b.b.b.b.b.b.",
"b.b.b.b.b.b.b.b.b.b.b.b.b.b.b.b.b.b.b.b.b.b.b.b.b.b.b.b.b.b.b.b.n.b.b.b.b.b.b.b.b.b.b.b.b.b.b.b.b.b.b.b.b.b.b.b.b.b.b.b.b.b.b.b.",
"b.b.b.b.b.b.b.b.b.b.b.b.b.b.b.b.b.b.b.b.b.b.b.b.b.b.b.b.b.b.b.n.k.a.b.b.b.b.b.b.b.b.b.b.b.b.b.b.b.b.b.b.b.b.b.b.b.b.b.b.b.b.b.b.",
"b.b.b.b.b.b.b.b.b.b.b.b.b.b.b.b.b.b.b.b.b.b.b.b.b.b.b.b.b.b.b.n.l.x.a.b.b.b.b.b.b.b.b.b.b.b.b.b.b.b.b.b.b.b.b.b.b.b.b.b.b.b.b.b.",
"b.b.b.b.b.b.b.b.b.b.b.b.b.b.b.b.b.b.b.s.s.b.b.b.b.b.b.b.b.b.b.n.l.c.s.b.a.s.b.b.b.b.b.b.b.b.b.b.b.b.b.b.b.b.b.b.b.b.b.b.b.b.b.b.",
"b.b.b.b.b.b.b.b.b.b.b.b.b.b.b.b.b.b.b.h.j.b.b.b.b.b.b.b.b.b.b.u.h.z.y.p.x.l.b.b.b.b.b.b.b.b.b.b.b.b.b.b.b.b.b.b.b.b.b.b.b.b.b.b.",
"b.b.b.b.b.b.b.b.b.b.b.b.b.b.b.b.b.b.b.h.j.b.a.b.b.b.b.b.b.b.b.b.b.f.y.g.l.i.b.b.b.b.b.b.b.b.b.b.b.b.b.b.b.b.b.b.b.b.b.b.b.b.b.b.",
"b.b.b.b.b.b.b.b.b.b.b.b.b.b.b.b.b.b.b.j.h.s.x.n.b.b.b.b.b.b.b.b.v.w.i.l.i.w.b.b.b.b.b.b.b.b.b.b.b.b.b.b.b.b.b.b.b.b.b.b.b.b.b.b.",
"b.b.b.b.b.b.b.b.b.b.b.b.b.b.b.b.b.b.b.j.j.a.x.b.b.b.b.b.b.b.b.b.b.v.w.! w.b.b.b.b.b.b.b.b.b.b.b.b.b.b.b.b.b.b.b.b.b.b.b.b.b.b.b."
};
