/* XPM */
static char *_2acbc41454046b5c44e8ae823c6954dBksnG4v7hP6Dhju9[] = {
/* columns rows colors chars-per-pixel */
"64 64 93 2 ",
"   c #452D3D",
".  c #4B2C3A",
"X  c #522E37",
"o  c #512E38",
"O  c #44363E",
"+  c #4D313A",
"@  c #4C3A3B",
"#  c #563137",
"$  c #5B3335",
"%  c #543D37",
"&  c #5B3B35",
"*  c #503439",
"=  c #613633",
"-  c #653931",
";  c #3E453F",
":  c #2F593C",
">  c #34563B",
",  c #315B3D",
"<  c #395A3E",
"1  c #43453E",
"2  c #4E443A",
"3  c #464B3B",
"4  c #4D4E3B",
"5  c #574637",
"6  c #674435",
"7  c #443840",
"8  c #493840",
"9  c #3E4540",
"0  c #3C4E41",
"q  c #3B5343",
"w  c #3D5D41",
"e  c #3F5E49",
"r  c #366644",
"t  c #386545",
"y  c #376946",
"u  c #396A46",
"i  c #3E674B",
"p  c #376C48",
"a  c #3A6D49",
"s  c #3E734E",
"d  c #3F7650",
"f  c #3F7952",
"g  c #434543",
"h  c #4D4B40",
"j  c #415B42",
"k  c #405B48",
"l  c #575B42",
"z  c #436143",
"x  c #44634E",
"c  c #40684B",
"v  c #486E4C",
"b  c #40764F",
"n  c #4C7F4E",
"m  c #4A6E55",
"M  c #407751",
"N  c #427C54",
"B  c #606847",
"V  c #4D824F",
"C  c #458157",
"Z  c #4B8454",
"A  c #4E8956",
"S  c #468459",
"D  c #48875B",
"F  c #47895C",
"G  c #4A8B5D",
"H  c #538C55",
"J  c #5A8F51",
"K  c #508E59",
"L  c #4E905F",
"P  c #5A9254",
"I  c #5F9A57",
"U  c #54945D",
"Y  c #59955A",
"T  c #57995F",
"R  c #5B9C5E",
"E  c #65964C",
"W  c #619753",
"Q  c #659C54",
"!  c #6A9F53",
"~  c #619E5C",
"^  c #6BA255",
"/  c #64A15B",
"(  c #6AA559",
")  c #6EA959",
"_  c #72A753",
"`  c #74AC56",
"'  c #79AF55",
"]  c #71AA58",
"[  c #7AB055",
"{  c #4B8F60",
"}  c #4D9262",
"|  c #529561",
" . c #569860",
/* pixels */
"} } } } } } } } } } } } } } } } } } } } } F N { M { } { } } } } } } } } } } } } } } } } } } } } } } } } } } } } } } } } } } } } ",
"} } } } } } } } } } } } } } } } } } } } } } F N G { { | G D D F D D { } } } } } } } } } } } } } } } } } } } } } } } } } } } } } ",
"} } } } } } } } } } } } } } } } } } } } } } } F } } } { C D K H D C D { } } } } } } } } } } } } } } } } } } } } } } } } } } } } ",
"} } } } } } } } } } } } } } } } } } } } } } } } } { { S F U Q _ Y G D D { } } } } } } } } } } } } } } } } } } } } } } } } } } } ",
"} } } } } } } } } } } } } } } } } } } } } } } } } { D K R ( ] ] R } { D D { } } } } } } } } } } } } } } } } } } } } } } } } } } ",
"} } } } } } } } } } } } } } } } } } } } } } } } { C K ^ ` ' ) / ~ | } { D D { } } } } } } } } } } } } } } } } } } } } } } } } } ",
"} } } } } } } } } } } } } } } } } } } } } } } { D D ~ ' [ [ ] / / | } } F C F } }  .} } } } } } } } } } } } } } } } } } } } } } ",
"} } } } } } } } } } } } } } } } } } } } } } | G H K ( ' [ ] / / ~ | } } D N D } } `  .} } } } } } } } } } } } } } } } } } } } } ",
"} } } } } } } } } } } } } } } } } } } } } } { D F / ( ` ' ) / ~ / | | { D s M D } ` R } } } } } } } } } } } } } } } } } } } } } ",
"} } } } } } } } } } } } } } } } } } } } } } { N {  ./ ^ ) ) / ~  .} } } G D M M L ` R } } } } } } } } } } } } } } } } } } } } } ",
"| } } } } } } } } } } } } } } } } } } } } { F N T  .R ~ / R T R } } } } F C M M G ` R } } } } } } } } } } } } } } } } } } } } } ",
"} } } } } } } } } } } } } } } } } } } } } { D K ^ ) Y U T } { | } { D C M s b b C R | } } } } } } } } } } } } } } } } } } } } } ",
"} } } } } } } } } } } } } } } } } } } } } G N | ) [ Q K D D D C D C D C N M s s N { } } } } } } } } } } } } } } } } | } } } } } ",
"} } } } } } } } } } } } } } } } } } } } { G C | ( ` ] Y C C C S S D G | G D d d M G } } } } } } } } } } } } } } } } } } } } } } ",
"} } } } } } } } } } } } } } } } } } } } { D K ^ ] ] ~  .| | R ~ ~ ~ / / I G N f f D { } } } } } } } } } } } } } } } } } } } } } ",
"} } } } } } } } } } } } } } } } } } } { C D R ' ] (  . .R  .] ' ' [ [ _ W A D N d M D { } } } } } } } } } } } } } } } } } } } } ",
"} } } } } } } } } } } } } } } } } } } F C U ( ' ' ] R R R  .~ ) ( _ ~ Y Z S D N b M { { } } } } } } } } } } } } } } } } } } } } ",
"} } } } } } } } } } } } } } } } } } } S S { R R ( ` ~  .| | | R / ~ H C S S S N M M { } } } } } } } } } } } } } } } } } } } } } ",
"} } } } } } } } } } } } } } } } } } { S F | | G K Y K { } | } }  .| { { { { { N s N { { } } } } } } } } } } } } } } } } } } } } ",
"} } } } } } } } } } } } } } } } } } { S U  .| { D S N { F F { } { | { { { { D N s M S { } } } } } } } } } } } } } } } } } } } } ",
"} } } } } } } } } } } } } } } } } } D A W /  . .{ C N S C N F F { { | { } { D N M b M N { } } } } } } } } } } } } } } } } } } } ",
"} } } } } } } } } } } } } } } } } } D H ^ ( (  .| { D N N N N C C { } } } } { { N M M N { } } } } } } } } } } } } } } } } } } } ",
"}  .| } } } } } } } } } } } } } } } D H ) ' ( / ~ | F N M M d N N { { } } } { { { N d N { { } } } } } } } } } } } } } } } } |  .",
"} ]  .} } } } } } } } } } } } } } } D D I ` ` / /  .| { D D F F D { | | } } { S { N d N S } } } } } } } } } } } } } } } } } | [ ",
"} ] R } } } } } } } } } } } } } } } F N Z Q _ _ ( /  .} } } L I Q / ( ~ T { N N { N M s N { } } } } } } } } } } } } } } R (  .` ",
"} `  ./ / } } } } } } } } } } } } G N M N Z U H R /  .} } F N Z V V V n n N N N S N M s M N } } } } } } } } } } } } } } / )  .[ ",
"| ] R ( ( } } } } } } } } } } } G D U Q J N N S G Z F } } G F C N M b b b N N S S S N d s N { { } } } } } } } } } } } } / ] } R ",
"} R | ( ( } } } } } } } } } } } F Z ^ [ Q Z n N N N D } } } } G D N M N N { S S S N N s s N { | } } } } } } } } } } } }  . .} } ",
"} } }  .R } } } } } } } } } } } G Z Q ' _ Q Y G D D { { } } } } { { S { { { { C S N d s d N } } } } } } } } } } } } } } } } } } ",
"} } } } } } } } } } } } } } } } { n H ~ ` ' ( R T } |  .| | | } } } } } } } { S S N N d d N } } } } } } } } } } } } } } } } } } ",
"} } } } } } } } } } } } } | } } F M N F R ) ( / R U / ( ) ( R } } } } } { | { C N N N N d N } } }  .| } } } } } } } } } } } } } ",
"} } } } } } } } } } } } / ( | } F M d N L ~ ] / | R ) [ [ ' ) R } } } } { { N S N d d d d N } } | ]  .} } } } } } } } } } } } } ",
"} } } } } } } } } } { / /  .) } M s c b C { U U } | / ` ` / | | } } } { D N M N M M M M M N } | ]  .) ~ } } } } } } } } } } } } ",
"} } } } } } } } } } } | / ) | { M s b b N N N C F } |  . .| } } } } } { { { { G { { G C b N } } | )  .| } } } } } } } } } } } } ",
"} } } } } } } } } } } } |  .{ { M f S G F D G G { } } } } } } F { { { |  . .R ~ | { { C M N { { |  .| | } } } } } } } } } } } } ",
"} } } } } } } } } } } } } | | { N K Y ~ T F F G { } } } { F N N N N T ^ ) / ~ T G D N M b N { | } { } } } } } } } } } } } } } } ",
"} } } } } } } } } } } } } } } } Z Q ] ^ R G N M C F { D C N C N N D R ( ~  .T D N N N M d N } } } } } } } } } } } } } } } } } } ",
"} } } } } } } } } } } } } } } { Z _ ' )  .F M b d d M N d N D C D G K U G { D N M N D D N N } } } } } } } } } } } } } } } } } } ",
" . .} } } } } } } } } } } } } } C ^ [ ' ( R H N d d s s s d M M M N N N N N N Z { | | { S N } } } } } } } } } } } } } } } } } } ",
"' [  .} } | | } } } } } } } } { N T ) [ ' ` ^ G M M N M N M N M N F { L | { | ^ ~ ) / | { N } } } } } } } } } } } } } } } } } } ",
"| ] ' R ~ ' ) } } } } } } } } } N F T ) ' ' ' ~ } { { U T T T | { } | R R  .R ) ) ( T F C N | } } } } } } } } | } } } } } } } } ",
"} | ` ' ' ) | } } } } } } } } } G D D Y Q ) ( ~  .| } R ~ / /  .| } ~ /  .| R  .| G C N M N } } } } } } } } | ` ] | } | } } } } ",
"} } G ! ^ Z } } } } } } } } } } } G N N n K U ~  .| } | T U K } } } |  .| } | F C N M d M C } } } } } } } } }  .[ ] |  .] / } } ",
"} } M Z H D } } } } } } } } } } } } F N d M N K G } } } F N N N D D F D D F C N M M a M N { } } } } } } } } } | ~ [ ) ] ]  .} } ",
"} } D N F } } } } } } } } } } } } } { { N N s d N D D D N b s b N M d d f N M d s s M C { } } } } } } } } } } } } P ` ! T } } } ",
"} } } } } { } } } } } } } } } } } } { { { { N d s M d d a i e k k k x c d d N N N N C { } } } } } } } } } } } } | M J H C | } } ",
"} } } } } } } } } } } } } } } } } } } } } } { { N M s x k g .       7 k C { { { { { } } } } } } } } } } } } } } { N N S } } } } ",
"} } } } } } } } } } } } } } } } } } } } } } { { F N v h * o . . . . 8 m } } } } } } } } } } } } } } } } } } } } } { } } } } } } ",
"} } } } } } } } } } } } } } } } } } } } } } } } } } B 6 - = X X o $ @ x F G } } } } } } } } } } } } } } } } } } } } } } } } } } ",
"} } } } | } } } } } } } } } } } } } } } } } G C N C l - - - = $ o $ + 9 i f N C S { } } } } } } } } } } } } } } } } } } } } } } ",
"} } } } } } } } } } } } } } } } } } } } G C f p p z 2 & - - - - o $ o O q p p u a f F { } } } } } } } } } } } } } } } } } } } } ",
"} } } } } } } } } } } } } } } } } } } L f p y y w 2 + $ - - - - o $ . O 3 < : r r p a S { } } } } } } } } } } } } } } } } } } } ",
"} } } } } } } } } } } } } } } } } } G f p r r r < 4 1 % - = = = o o . . @ 3 > , r r r a S { { } } } } } } } } } } } } } } } } } ",
"} } } } } } } } } } } } } } } } } } F p r r r r r r j 5 = $ # $ .     . @ 3 > : r r r r d { } } } } } } } } } } } } } } } } } } ",
"} } } } } } } } } } } } } } } } } } F d r r r r r r 4 & # + + +   O . + 4 w : r r r r p f } } } } } } } } } } } } } } } } } } } ",
"} } } } } } } } } } } } } } } } } } } F d p r r r r 4 2 g ; ; ; 9 9 7 O @ q p r r r a N { } } } } } } } } } } } } } } } } } } } ",
"} } } } } } } } } } } } } } } } } } } } { C f p r r 3 w t t t t r t r 0 0 w y r r d S { } } } } } } } } } } } } } } } } } } } } ",
"} } } } } } } } } } } } } } } } } } } } { { F C C C d y r r y u v u r r t f C N { } { } } } } } } } } | } } } } } } } } } } } } ",
"} } } } } } } } } } } } } } } } } } } } { } } { G { D C C N N C E E V C S G } { } } } } } } } } } } } } } } } } } } } } } } } } ",
"} } } } } } } } } } } } } } } } } } } R R } } } } { L } } } } } [ [ I { T  .} } } } } } } } } } } } } } } } } } } } } } } } } } ",
"} } } } } } } } } } } } } } } } } } } ( / } } } } } } } } } } | / [ H U ) ) } } } } } } } } } } } } } } } } } } } } } } } } } } ",
"} } } } } } } } } } } } } } } } } } } / ( |  .} } } } } } } } } } W J Q ' I } } } } } } } } } } } } } } } } } } } } } } } } } } ",
"} } } } } } } } } } } } } } } } } } } ( / R ] | } } } } } } } } } N W ` P N } } } } } } } } } } } } } } } } } } } } } } } } } } ",
"} } } } } } } } } } } } } } } } } } { ( / R ] } } } } } } } } } } } N s C } } } } } } } } } } | } } } } } } } } } } } } } } } } "
};
